M48
; DRILL file {KiCad 8.0.3} date 2024-07-30T21:02:45-0400
; FORMAT={-:-/ absolute / inch / decimal}
; #@! TF.CreationDate,2024-07-30T21:02:45-04:00
; #@! TF.GenerationSoftware,Kicad,Pcbnew,8.0.3
; #@! TF.FileFunction,Plated,1,2,PTH
FMAT,2
INCH
; #@! TA.AperFunction,Plated,PTH,ComponentDrill
T1C0.0394
; #@! TA.AperFunction,Plated,PTH,ComponentDrill
T2C0.1260
%
G90
G05
T1
X4.068Y-5.3142
X4.069Y-2.3142
X4.069Y-2.4142
X4.069Y-2.5142
X4.069Y-2.6142
X4.069Y-2.7142
X4.069Y-2.8142
X4.069Y-2.9142
X4.069Y-3.0142
X4.069Y-3.1142
X4.069Y-3.2142
X4.069Y-3.3142
X4.069Y-3.4142
X4.069Y-3.5142
X4.069Y-3.6142
X4.069Y-3.7142
X4.069Y-3.8142
X4.069Y-3.9142
X4.069Y-4.0142
X4.069Y-4.1142
X4.069Y-4.2142
X4.069Y-4.3142
X4.069Y-4.4142
X4.069Y-4.5142
X4.069Y-4.6142
X4.069Y-4.7142
X4.069Y-4.8142
X4.069Y-4.9142
X4.069Y-5.0142
X4.069Y-5.1142
X4.069Y-5.2142
X4.069Y-5.4142
X4.168Y-5.3142
X4.169Y-2.3142
X4.169Y-2.4142
X4.169Y-2.5142
X4.169Y-2.6142
X4.169Y-2.7142
X4.169Y-2.8142
X4.169Y-2.9142
X4.169Y-3.0142
X4.169Y-3.1142
X4.169Y-3.2142
X4.169Y-3.3142
X4.169Y-3.4142
X4.169Y-3.5142
X4.169Y-3.6142
X4.169Y-3.7142
X4.169Y-3.8142
X4.169Y-3.9142
X4.169Y-4.0142
X4.169Y-4.1142
X4.169Y-4.2142
X4.169Y-4.3142
X4.169Y-4.4142
X4.169Y-4.5142
X4.169Y-4.6142
X4.169Y-4.7142
X4.169Y-4.8142
X4.169Y-4.9142
X4.169Y-5.0142
X4.169Y-5.1142
X4.169Y-5.2142
X4.169Y-5.4142
X4.268Y-5.3142
X4.269Y-2.3142
X4.269Y-2.4142
X4.269Y-2.5142
X4.269Y-2.6142
X4.269Y-2.7142
X4.269Y-2.8142
X4.269Y-2.9142
X4.269Y-3.0142
X4.269Y-3.1142
X4.269Y-3.2142
X4.269Y-3.3142
X4.269Y-3.4142
X4.269Y-3.5142
X4.269Y-3.6142
X4.269Y-3.7142
X4.269Y-3.8142
X4.269Y-3.9142
X4.269Y-4.0142
X4.269Y-4.1142
X4.269Y-4.2142
X4.269Y-4.3142
X4.269Y-4.4142
X4.269Y-4.5142
X4.269Y-4.6142
X4.269Y-4.7142
X4.269Y-4.8142
X4.269Y-4.9142
X4.269Y-5.0142
X4.269Y-5.1142
X4.269Y-5.2142
X4.269Y-5.4142
X4.368Y-5.3142
X4.369Y-2.0142
X4.369Y-2.1142
X4.369Y-2.2142
X4.369Y-2.3142
X4.369Y-2.4142
X4.369Y-2.5142
X4.369Y-2.6142
X4.369Y-2.7142
X4.369Y-2.8142
X4.369Y-2.9142
X4.369Y-3.0142
X4.369Y-3.1142
X4.369Y-3.2142
X4.369Y-3.3142
X4.369Y-3.4142
X4.369Y-3.5142
X4.369Y-3.6142
X4.369Y-3.7142
X4.369Y-3.8142
X4.369Y-3.9142
X4.369Y-4.0142
X4.369Y-4.1142
X4.369Y-4.2142
X4.369Y-4.3142
X4.369Y-4.4142
X4.369Y-4.5142
X4.369Y-4.6142
X4.369Y-4.7142
X4.369Y-4.8142
X4.369Y-4.9142
X4.369Y-5.0142
X4.369Y-5.1142
X4.369Y-5.2142
X4.369Y-5.4142
X4.468Y-5.3142
X4.469Y-2.0142
X4.469Y-2.1142
X4.469Y-2.2142
X4.469Y-2.3142
X4.469Y-2.4142
X4.469Y-2.5142
X4.469Y-2.6142
X4.469Y-2.7142
X4.469Y-2.8142
X4.469Y-2.9142
X4.469Y-3.0142
X4.469Y-3.1142
X4.469Y-3.2142
X4.469Y-3.3142
X4.469Y-3.4142
X4.469Y-3.5142
X4.469Y-3.6142
X4.469Y-3.7142
X4.469Y-3.8142
X4.469Y-3.9142
X4.469Y-4.0142
X4.469Y-4.1142
X4.469Y-4.2142
X4.469Y-4.3142
X4.469Y-4.4142
X4.469Y-4.5142
X4.469Y-4.6142
X4.469Y-4.7142
X4.469Y-4.8142
X4.469Y-4.9142
X4.469Y-5.0142
X4.469Y-5.1142
X4.469Y-5.2142
X4.469Y-5.4142
X4.568Y-5.3142
X4.569Y-2.0142
X4.569Y-2.1142
X4.569Y-2.2142
X4.569Y-2.3142
X4.569Y-2.4142
X4.569Y-2.5142
X4.569Y-2.6142
X4.569Y-2.7142
X4.569Y-2.8142
X4.569Y-2.9142
X4.569Y-3.0142
X4.569Y-3.1142
X4.569Y-3.2142
X4.569Y-3.3142
X4.569Y-3.4142
X4.569Y-3.5142
X4.569Y-3.6142
X4.569Y-3.7142
X4.569Y-3.8142
X4.569Y-3.9142
X4.569Y-4.0142
X4.569Y-4.1142
X4.569Y-4.2142
X4.569Y-4.3142
X4.569Y-4.4142
X4.569Y-4.5142
X4.569Y-4.6142
X4.569Y-4.7142
X4.569Y-4.8142
X4.569Y-4.9142
X4.569Y-5.0142
X4.569Y-5.1142
X4.569Y-5.2142
X4.569Y-5.4142
X4.669Y-2.0142
X4.669Y-2.1142
X4.669Y-2.2142
X4.669Y-2.3142
X4.669Y-2.4142
X4.669Y-2.5142
X4.669Y-2.6142
X4.669Y-2.7142
X4.669Y-2.8142
X4.669Y-2.9142
X4.669Y-3.0142
X4.669Y-3.1142
X4.669Y-3.2142
X4.669Y-3.3142
X4.669Y-3.4142
X4.669Y-3.5142
X4.669Y-3.6142
X4.669Y-3.7142
X4.669Y-3.8142
X4.669Y-3.9142
X4.669Y-4.0142
X4.669Y-4.1142
X4.669Y-4.2142
X4.669Y-4.3142
X4.669Y-4.4142
X4.669Y-4.5142
X4.669Y-4.6142
X4.669Y-4.7142
X4.669Y-4.8142
X4.669Y-4.9142
X4.669Y-5.0142
X4.669Y-5.1142
X4.669Y-5.2142
X4.669Y-5.6181
X4.669Y-5.7181
X4.694Y-5.3392
X4.769Y-2.0142
X4.769Y-2.1142
X4.769Y-2.2142
X4.769Y-2.3142
X4.769Y-2.4142
X4.769Y-2.5142
X4.769Y-2.6142
X4.769Y-2.7142
X4.769Y-2.8142
X4.769Y-2.9142
X4.769Y-3.0142
X4.769Y-3.1142
X4.769Y-3.2142
X4.769Y-3.3142
X4.769Y-3.4142
X4.769Y-3.5142
X4.769Y-3.6142
X4.769Y-3.7142
X4.769Y-3.8142
X4.769Y-3.9142
X4.769Y-4.0142
X4.769Y-4.1142
X4.769Y-4.2142
X4.769Y-4.3142
X4.769Y-4.4142
X4.769Y-4.5142
X4.769Y-4.6142
X4.769Y-4.7142
X4.769Y-4.8142
X4.769Y-4.9142
X4.769Y-5.0142
X4.769Y-5.1142
X4.769Y-5.2142
X4.769Y-5.6181
X4.769Y-5.7181
X4.824Y-5.3392
X4.869Y-2.0142
X4.869Y-2.1142
X4.869Y-2.2142
X4.869Y-2.3142
X4.869Y-2.4142
X4.869Y-2.5142
X4.869Y-2.6142
X4.869Y-2.7142
X4.869Y-2.8142
X4.869Y-2.9142
X4.869Y-3.0142
X4.869Y-3.1142
X4.869Y-3.2142
X4.869Y-3.3142
X4.869Y-3.4142
X4.869Y-3.5142
X4.869Y-3.6142
X4.869Y-3.7142
X4.869Y-3.8142
X4.869Y-3.9142
X4.869Y-4.0142
X4.869Y-4.1142
X4.869Y-4.2142
X4.869Y-4.3142
X4.869Y-4.4142
X4.869Y-4.5142
X4.869Y-4.6142
X4.869Y-4.7142
X4.869Y-4.8142
X4.869Y-4.9142
X4.869Y-5.0142
X4.869Y-5.1142
X4.869Y-5.2142
X4.869Y-5.6181
X4.869Y-5.7181
X4.954Y-5.3392
X4.969Y-2.0142
X4.969Y-2.1142
X4.969Y-2.2142
X4.969Y-2.3142
X4.969Y-2.4142
X4.969Y-2.5142
X4.969Y-2.6142
X4.969Y-2.7142
X4.969Y-2.8142
X4.969Y-2.9142
X4.969Y-3.0142
X4.969Y-3.1142
X4.969Y-3.2142
X4.969Y-3.3142
X4.969Y-3.4142
X4.969Y-3.5142
X4.969Y-3.6142
X4.969Y-3.7142
X4.969Y-3.8142
X4.969Y-3.9142
X4.969Y-4.0142
X4.969Y-4.1142
X4.969Y-4.2142
X4.969Y-4.3142
X4.969Y-4.4142
X4.969Y-4.5142
X4.969Y-4.6142
X4.969Y-4.7142
X4.969Y-4.8142
X4.969Y-4.9142
X4.969Y-5.0142
X4.969Y-5.1142
X4.969Y-5.2142
X4.969Y-5.6181
X4.969Y-5.7181
X5.069Y-2.0142
X5.069Y-2.1142
X5.069Y-2.2142
X5.069Y-2.3142
X5.069Y-2.4142
X5.069Y-2.5142
X5.069Y-2.6142
X5.069Y-2.7142
X5.069Y-2.8142
X5.069Y-2.9142
X5.069Y-3.0142
X5.069Y-3.1142
X5.069Y-3.2142
X5.069Y-3.3142
X5.069Y-3.4142
X5.069Y-3.5142
X5.069Y-3.6142
X5.069Y-3.7142
X5.069Y-3.8142
X5.069Y-3.9142
X5.069Y-4.0142
X5.069Y-4.1142
X5.069Y-4.2142
X5.069Y-4.3142
X5.069Y-4.4142
X5.069Y-4.5142
X5.069Y-4.6142
X5.069Y-4.7142
X5.069Y-4.8142
X5.069Y-4.9142
X5.069Y-5.0142
X5.069Y-5.1142
X5.069Y-5.2142
X5.069Y-5.6181
X5.069Y-5.7181
X5.084Y-5.3392
X5.169Y-2.0142
X5.169Y-2.1142
X5.169Y-2.2142
X5.169Y-2.3142
X5.169Y-2.4142
X5.169Y-2.5142
X5.169Y-2.6142
X5.169Y-2.7142
X5.169Y-2.8142
X5.169Y-2.9142
X5.169Y-3.0142
X5.169Y-3.1142
X5.169Y-3.2142
X5.169Y-3.3142
X5.169Y-3.4142
X5.169Y-3.5142
X5.169Y-3.6142
X5.169Y-3.7142
X5.169Y-3.8142
X5.169Y-3.9142
X5.169Y-4.0142
X5.169Y-4.1142
X5.169Y-4.2142
X5.169Y-4.3142
X5.169Y-4.4142
X5.169Y-4.5142
X5.169Y-4.6142
X5.169Y-4.7142
X5.169Y-4.8142
X5.169Y-4.9142
X5.169Y-5.0142
X5.169Y-5.1142
X5.169Y-5.2142
X5.169Y-5.6181
X5.169Y-5.7181
X5.214Y-5.3392
X5.269Y-2.0142
X5.269Y-2.1142
X5.269Y-2.2142
X5.269Y-2.3142
X5.269Y-2.4142
X5.269Y-2.5142
X5.269Y-2.6142
X5.269Y-2.7142
X5.269Y-2.8142
X5.269Y-2.9142
X5.269Y-3.0142
X5.269Y-3.1142
X5.269Y-3.2142
X5.269Y-3.3142
X5.269Y-3.4142
X5.269Y-3.5142
X5.269Y-3.6142
X5.269Y-3.7142
X5.269Y-3.8142
X5.269Y-3.9142
X5.269Y-4.0142
X5.269Y-4.1142
X5.269Y-4.2142
X5.269Y-4.3142
X5.269Y-4.4142
X5.269Y-4.5142
X5.269Y-4.6142
X5.269Y-4.7142
X5.269Y-4.8142
X5.269Y-4.9142
X5.269Y-5.0142
X5.269Y-5.1142
X5.269Y-5.2142
X5.269Y-5.6181
X5.269Y-5.7181
X5.344Y-5.3392
X5.369Y-2.0142
X5.369Y-2.1142
X5.369Y-2.2142
X5.369Y-2.3142
X5.369Y-2.4142
X5.369Y-2.5142
X5.369Y-2.6142
X5.369Y-2.7142
X5.369Y-2.8142
X5.369Y-2.9142
X5.369Y-3.0142
X5.369Y-3.1142
X5.369Y-3.2142
X5.369Y-3.3142
X5.369Y-3.4142
X5.369Y-3.5142
X5.369Y-3.6142
X5.369Y-3.7142
X5.369Y-3.8142
X5.369Y-3.9142
X5.369Y-4.0142
X5.369Y-4.1142
X5.369Y-4.2142
X5.369Y-4.3142
X5.369Y-4.4142
X5.369Y-4.5142
X5.369Y-4.6142
X5.369Y-4.7142
X5.369Y-4.8142
X5.369Y-4.9142
X5.369Y-5.0142
X5.369Y-5.1142
X5.369Y-5.2142
X5.369Y-5.6181
X5.369Y-5.7181
X5.469Y-2.0142
X5.469Y-2.1142
X5.469Y-2.2142
X5.469Y-2.3142
X5.469Y-2.4142
X5.469Y-2.5142
X5.469Y-2.6142
X5.469Y-2.7142
X5.469Y-2.8142
X5.469Y-2.9142
X5.469Y-3.0142
X5.469Y-3.1142
X5.469Y-3.2142
X5.469Y-3.3142
X5.469Y-3.4142
X5.469Y-3.5142
X5.469Y-3.6142
X5.469Y-3.7142
X5.469Y-3.8142
X5.469Y-3.9142
X5.469Y-4.0142
X5.469Y-4.1142
X5.469Y-4.2142
X5.469Y-4.3142
X5.469Y-4.4142
X5.469Y-4.5142
X5.469Y-4.6142
X5.469Y-4.7142
X5.469Y-4.8142
X5.469Y-4.9142
X5.469Y-5.0142
X5.469Y-5.1142
X5.469Y-5.2142
X5.469Y-5.3142
X5.469Y-5.4142
X5.569Y-2.0142
X5.569Y-2.1142
X5.569Y-2.2142
X5.569Y-2.3142
X5.569Y-2.4142
X5.569Y-2.5142
X5.569Y-2.6142
X5.569Y-2.7142
X5.569Y-2.8142
X5.569Y-2.9142
X5.569Y-3.0142
X5.569Y-3.1142
X5.569Y-3.2142
X5.569Y-3.3142
X5.569Y-3.4142
X5.569Y-3.5142
X5.569Y-3.6142
X5.569Y-3.7142
X5.569Y-3.8142
X5.569Y-3.9142
X5.569Y-4.0142
X5.569Y-4.1142
X5.569Y-4.2142
X5.569Y-4.3142
X5.569Y-4.4142
X5.569Y-4.5142
X5.569Y-4.6142
X5.569Y-4.7142
X5.569Y-4.8142
X5.569Y-4.9142
X5.569Y-5.0142
X5.569Y-5.1142
X5.569Y-5.2142
X5.569Y-5.3142
X5.569Y-5.4142
X5.669Y-2.0142
X5.669Y-2.1142
X5.669Y-2.2142
X5.669Y-2.3142
X5.669Y-2.4142
X5.669Y-2.5142
X5.669Y-2.6142
X5.669Y-2.7142
X5.669Y-2.8142
X5.669Y-2.9142
X5.669Y-3.0142
X5.669Y-3.1142
X5.669Y-3.2142
X5.669Y-3.3142
X5.669Y-3.4142
X5.669Y-3.5142
X5.669Y-3.6142
X5.669Y-3.7142
X5.669Y-3.8142
X5.669Y-3.9142
X5.669Y-4.0142
X5.669Y-4.1142
X5.669Y-4.2142
X5.669Y-4.3142
X5.669Y-4.4142
X5.669Y-4.5142
X5.669Y-4.6142
X5.669Y-4.7142
X5.669Y-4.8142
X5.669Y-4.9142
X5.669Y-5.0142
X5.669Y-5.1142
X5.669Y-5.2142
X5.669Y-5.3142
X5.669Y-5.4142
X5.769Y-2.3142
X5.769Y-2.4142
X5.769Y-2.5142
X5.769Y-2.6142
X5.769Y-2.7142
X5.769Y-2.8142
X5.769Y-2.9142
X5.769Y-3.0142
X5.769Y-3.1142
X5.769Y-3.2142
X5.769Y-3.3142
X5.769Y-3.4142
X5.769Y-3.5142
X5.769Y-3.6142
X5.769Y-3.7142
X5.769Y-3.8142
X5.769Y-3.9142
X5.769Y-4.0142
X5.769Y-4.1142
X5.769Y-4.2142
X5.769Y-4.3142
X5.769Y-4.4142
X5.769Y-4.5142
X5.769Y-4.6142
X5.769Y-4.7142
X5.769Y-4.8142
X5.769Y-4.9142
X5.769Y-5.0142
X5.769Y-5.1142
X5.769Y-5.2142
X5.769Y-5.3142
X5.769Y-5.4142
X5.869Y-2.3142
X5.869Y-2.4142
X5.869Y-2.5142
X5.869Y-2.6142
X5.869Y-2.7142
X5.869Y-2.8142
X5.869Y-2.9142
X5.869Y-3.0142
X5.869Y-3.1142
X5.869Y-3.2142
X5.869Y-3.3142
X5.869Y-3.4142
X5.869Y-3.5142
X5.869Y-3.6142
X5.869Y-3.7142
X5.869Y-3.8142
X5.869Y-3.9142
X5.869Y-4.0142
X5.869Y-4.1142
X5.869Y-4.2142
X5.869Y-4.3142
X5.869Y-4.4142
X5.869Y-4.5142
X5.869Y-4.6142
X5.869Y-4.7142
X5.869Y-4.8142
X5.869Y-4.9142
X5.869Y-5.0142
X5.869Y-5.1142
X5.869Y-5.2142
X5.869Y-5.3142
X5.869Y-5.4142
X5.969Y-2.3142
X5.969Y-2.4142
X5.969Y-2.5142
X5.969Y-2.6142
X5.969Y-2.7142
X5.969Y-2.8142
X5.969Y-2.9142
X5.969Y-3.0142
X5.969Y-3.1142
X5.969Y-3.2142
X5.969Y-3.3142
X5.969Y-3.4142
X5.969Y-3.5142
X5.969Y-3.6142
X5.969Y-3.7142
X5.969Y-3.8142
X5.969Y-3.9142
X5.969Y-4.0142
X5.969Y-4.1142
X5.969Y-4.2142
X5.969Y-4.3142
X5.969Y-4.4142
X5.969Y-4.5142
X5.969Y-4.6142
X5.969Y-4.7142
X5.969Y-4.8142
X5.969Y-4.9142
X5.969Y-5.0142
X5.969Y-5.1142
X5.969Y-5.2142
X5.969Y-5.3142
X5.969Y-5.4142
T2
X4.0748Y-2.0748
X4.0748Y-5.7362
X5.9646Y-2.0748
X5.9646Y-5.7362
M30
