%TF.GenerationSoftware,KiCad,Pcbnew,8.0.3*%
%TF.CreationDate,2024-07-30T20:58:31-04:00*%
%TF.ProjectId,synth-prototyping-pcb,73796e74-682d-4707-926f-746f74797069,1.0.0*%
%TF.SameCoordinates,Original*%
%TF.FileFunction,Soldermask,Top*%
%TF.FilePolarity,Negative*%
%FSLAX46Y46*%
G04 Gerber Fmt 4.6, Leading zero omitted, Abs format (unit mm)*
G04 Created by KiCad (PCBNEW 8.0.3) date 2024-07-30 20:58:31*
%MOMM*%
%LPD*%
G01*
G04 APERTURE LIST*
G04 Aperture macros list*
%AMRoundRect*
0 Rectangle with rounded corners*
0 $1 Rounding radius*
0 $2 $3 $4 $5 $6 $7 $8 $9 X,Y pos of 4 corners*
0 Add a 4 corners polygon primitive as box body*
4,1,4,$2,$3,$4,$5,$6,$7,$8,$9,$2,$3,0*
0 Add four circle primitives for the rounded corners*
1,1,$1+$1,$2,$3*
1,1,$1+$1,$4,$5*
1,1,$1+$1,$6,$7*
1,1,$1+$1,$8,$9*
0 Add four rect primitives between the rounded corners*
20,1,$1+$1,$2,$3,$4,$5,0*
20,1,$1+$1,$4,$5,$6,$7,0*
20,1,$1+$1,$6,$7,$8,$9,0*
20,1,$1+$1,$8,$9,$2,$3,0*%
G04 Aperture macros list end*
%ADD10C,1.700000*%
%ADD11O,1.700000X1.700000*%
%ADD12R,2.000000X2.000000*%
%ADD13C,5.600000*%
%ADD14RoundRect,0.250000X0.600000X-0.600000X0.600000X0.600000X-0.600000X0.600000X-0.600000X-0.600000X0*%
G04 APERTURE END LIST*
D10*
%TO.C,REF\u002A\u002A*%
X103352500Y-137520000D03*
D11*
X105892500Y-137520000D03*
X108432500Y-137520000D03*
X110972500Y-137520000D03*
X113512500Y-137520000D03*
X116052500Y-137520000D03*
%TD*%
D10*
%TO.C,REF\u002A\u002A*%
X108432500Y-117200000D03*
D11*
X110972500Y-117200000D03*
X113512500Y-117200000D03*
X116052500Y-117200000D03*
X118592500Y-117200000D03*
X121132500Y-117200000D03*
X123672500Y-117200000D03*
%TD*%
D10*
%TO.C,REF\u002A\u002A*%
X108432500Y-91800000D03*
D11*
X110972500Y-91800000D03*
X113512500Y-91800000D03*
X116052500Y-91800000D03*
X118592500Y-91800000D03*
X121132500Y-91800000D03*
X123672500Y-91800000D03*
%TD*%
D10*
%TO.C,REF\u002A\u002A*%
X131292500Y-91800000D03*
D11*
X133832500Y-91800000D03*
X136372500Y-91800000D03*
X138912500Y-91800000D03*
X141452500Y-91800000D03*
X143992500Y-91800000D03*
X146532500Y-91800000D03*
%TD*%
D10*
%TO.C,REF\u002A\u002A*%
X131292500Y-99420000D03*
D11*
X133832500Y-99420000D03*
X136372500Y-99420000D03*
X138912500Y-99420000D03*
X141452500Y-99420000D03*
X143992500Y-99420000D03*
X146532500Y-99420000D03*
%TD*%
D10*
%TO.C,REF\u002A\u002A*%
X110972500Y-53700000D03*
D11*
X113512500Y-53700000D03*
X116052500Y-53700000D03*
X118592500Y-53700000D03*
X121132500Y-53700000D03*
X123672500Y-53700000D03*
X126212500Y-53700000D03*
X128752500Y-53700000D03*
X131292500Y-53700000D03*
X133832500Y-53700000D03*
X136372500Y-53700000D03*
X138912500Y-53700000D03*
X141452500Y-53700000D03*
X143992500Y-53700000D03*
%TD*%
D10*
%TO.C,REF\u002A\u002A*%
X108432500Y-119740000D03*
D11*
X110972500Y-119740000D03*
X113512500Y-119740000D03*
X116052500Y-119740000D03*
X118592500Y-119740000D03*
X121132500Y-119740000D03*
X123672500Y-119740000D03*
%TD*%
D10*
%TO.C,REF\u002A\u002A*%
X131292500Y-89260000D03*
D11*
X133832500Y-89260000D03*
X136372500Y-89260000D03*
X138912500Y-89260000D03*
X141452500Y-89260000D03*
X143992500Y-89260000D03*
X146532500Y-89260000D03*
%TD*%
D10*
%TO.C,REF\u002A\u002A*%
X108432500Y-122280000D03*
D11*
X110972500Y-122280000D03*
X113512500Y-122280000D03*
X116052500Y-122280000D03*
X118592500Y-122280000D03*
X121132500Y-122280000D03*
X123672500Y-122280000D03*
%TD*%
D12*
%TO.C,TP5*%
X132435500Y-135615000D03*
%TD*%
%TO.C,TP3*%
X125831500Y-135615000D03*
%TD*%
D10*
%TO.C,REF\u002A\u002A*%
X131292500Y-112120000D03*
D11*
X133832500Y-112120000D03*
X136372500Y-112120000D03*
X138912500Y-112120000D03*
X141452500Y-112120000D03*
X143992500Y-112120000D03*
X146532500Y-112120000D03*
%TD*%
D10*
%TO.C,REF\u002A\u002A*%
X128752500Y-58780000D03*
D11*
X128752500Y-61320000D03*
X128752500Y-63860000D03*
X128752500Y-66400000D03*
X128752500Y-68940000D03*
X128752500Y-71480000D03*
X128752500Y-74020000D03*
X128752500Y-76560000D03*
X128752500Y-79100000D03*
X128752500Y-81640000D03*
X128752500Y-84180000D03*
X128752500Y-86720000D03*
X128752500Y-89260000D03*
X128752500Y-91800000D03*
X128752500Y-94340000D03*
X128752500Y-96880000D03*
X128752500Y-99420000D03*
X128752500Y-101960000D03*
X128752500Y-104500000D03*
X128752500Y-107040000D03*
X128752500Y-109580000D03*
X128752500Y-112120000D03*
X128752500Y-114660000D03*
X128752500Y-117200000D03*
X128752500Y-119740000D03*
X128752500Y-122280000D03*
X128752500Y-124820000D03*
X128752500Y-127360000D03*
%TD*%
D10*
%TO.C,REF\u002A\u002A*%
X103352500Y-58780000D03*
D11*
X103352500Y-61320000D03*
X103352500Y-63860000D03*
X103352500Y-66400000D03*
X103352500Y-68940000D03*
X103352500Y-71480000D03*
X103352500Y-74020000D03*
X103352500Y-76560000D03*
X103352500Y-79100000D03*
X103352500Y-81640000D03*
X103352500Y-84180000D03*
X103352500Y-86720000D03*
X103352500Y-89260000D03*
X103352500Y-91800000D03*
X103352500Y-94340000D03*
X103352500Y-96880000D03*
X103352500Y-99420000D03*
X103352500Y-101960000D03*
X103352500Y-104500000D03*
X103352500Y-107040000D03*
X103352500Y-109580000D03*
X103352500Y-112120000D03*
X103352500Y-114660000D03*
X103352500Y-117200000D03*
X103352500Y-119740000D03*
X103352500Y-122280000D03*
X103352500Y-124820000D03*
X103352500Y-127360000D03*
%TD*%
D13*
%TO.C,M1*%
X103500000Y-145700000D03*
%TD*%
D10*
%TO.C,REF\u002A\u002A*%
X108432500Y-94340000D03*
D11*
X110972500Y-94340000D03*
X113512500Y-94340000D03*
X116052500Y-94340000D03*
X118592500Y-94340000D03*
X121132500Y-94340000D03*
X123672500Y-94340000D03*
%TD*%
D10*
%TO.C,REF\u002A\u002A*%
X108432500Y-101960000D03*
D11*
X110972500Y-101960000D03*
X113512500Y-101960000D03*
X116052500Y-101960000D03*
X118592500Y-101960000D03*
X121132500Y-101960000D03*
X123672500Y-101960000D03*
%TD*%
D10*
%TO.C,REF\u002A\u002A*%
X131292500Y-104500000D03*
D11*
X133832500Y-104500000D03*
X136372500Y-104500000D03*
X138912500Y-104500000D03*
X141452500Y-104500000D03*
X143992500Y-104500000D03*
X146532500Y-104500000D03*
%TD*%
D10*
%TO.C,REF\u002A\u002A*%
X108432500Y-68940000D03*
D11*
X110972500Y-68940000D03*
X113512500Y-68940000D03*
X116052500Y-68940000D03*
X118592500Y-68940000D03*
X121132500Y-68940000D03*
X123672500Y-68940000D03*
%TD*%
D10*
%TO.C,REF\u002A\u002A*%
X138912500Y-134980000D03*
D11*
X141452500Y-134980000D03*
X143992500Y-134980000D03*
X146532500Y-134980000D03*
X149072500Y-134980000D03*
X151612500Y-134980000D03*
%TD*%
D10*
%TO.C,REF\u002A\u002A*%
X131292500Y-94340000D03*
D11*
X133832500Y-94340000D03*
X136372500Y-94340000D03*
X138912500Y-94340000D03*
X141452500Y-94340000D03*
X143992500Y-94340000D03*
X146532500Y-94340000D03*
%TD*%
D10*
%TO.C,REF\u002A\u002A*%
X108432500Y-99420000D03*
D11*
X110972500Y-99420000D03*
X113512500Y-99420000D03*
X116052500Y-99420000D03*
X118592500Y-99420000D03*
X121132500Y-99420000D03*
X123672500Y-99420000D03*
%TD*%
D10*
%TO.C,REF\u002A\u002A*%
X131292500Y-63860000D03*
D11*
X133832500Y-63860000D03*
X136372500Y-63860000D03*
X138912500Y-63860000D03*
X141452500Y-63860000D03*
X143992500Y-63860000D03*
X146532500Y-63860000D03*
%TD*%
D14*
%TO.C,J1*%
X118592500Y-145240000D03*
D10*
X118592500Y-142700000D03*
X121132500Y-145240000D03*
X121132500Y-142700000D03*
X123672500Y-145240000D03*
X123672500Y-142700000D03*
X126212500Y-145240000D03*
X126212500Y-142700000D03*
X128752500Y-145240000D03*
X128752500Y-142700000D03*
X131292500Y-145240000D03*
X131292500Y-142700000D03*
X133832500Y-145240000D03*
X133832500Y-142700000D03*
X136372500Y-145240000D03*
X136372500Y-142700000D03*
%TD*%
%TO.C,REF\u002A\u002A*%
X108432500Y-74020000D03*
D11*
X110972500Y-74020000D03*
X113512500Y-74020000D03*
X116052500Y-74020000D03*
X118592500Y-74020000D03*
X121132500Y-74020000D03*
X123672500Y-74020000D03*
%TD*%
D10*
%TO.C,REF\u002A\u002A*%
X108432500Y-114660000D03*
D11*
X110972500Y-114660000D03*
X113512500Y-114660000D03*
X116052500Y-114660000D03*
X118592500Y-114660000D03*
X121132500Y-114660000D03*
X123672500Y-114660000D03*
%TD*%
D10*
%TO.C,REF\u002A\u002A*%
X131292500Y-76560000D03*
D11*
X133832500Y-76560000D03*
X136372500Y-76560000D03*
X138912500Y-76560000D03*
X141452500Y-76560000D03*
X143992500Y-76560000D03*
X146532500Y-76560000D03*
%TD*%
D10*
%TO.C,REF\u002A\u002A*%
X131292500Y-84180000D03*
D11*
X133832500Y-84180000D03*
X136372500Y-84180000D03*
X138912500Y-84180000D03*
X141452500Y-84180000D03*
X143992500Y-84180000D03*
X146532500Y-84180000D03*
%TD*%
D10*
%TO.C,REF\u002A\u002A*%
X108432500Y-112120000D03*
D11*
X110972500Y-112120000D03*
X113512500Y-112120000D03*
X116052500Y-112120000D03*
X118592500Y-112120000D03*
X121132500Y-112120000D03*
X123672500Y-112120000D03*
%TD*%
D10*
%TO.C,REF\u002A\u002A*%
X108432500Y-127360000D03*
D11*
X110972500Y-127360000D03*
X113512500Y-127360000D03*
X116052500Y-127360000D03*
X118592500Y-127360000D03*
X121132500Y-127360000D03*
X123672500Y-127360000D03*
%TD*%
D10*
%TO.C,REF\u002A\u002A*%
X131292500Y-68940000D03*
D11*
X133832500Y-68940000D03*
X136372500Y-68940000D03*
X138912500Y-68940000D03*
X141452500Y-68940000D03*
X143992500Y-68940000D03*
X146532500Y-68940000D03*
%TD*%
D10*
%TO.C,REF\u002A\u002A*%
X108432500Y-107040000D03*
D11*
X110972500Y-107040000D03*
X113512500Y-107040000D03*
X116052500Y-107040000D03*
X118592500Y-107040000D03*
X121132500Y-107040000D03*
X123672500Y-107040000D03*
%TD*%
D10*
%TO.C,REF\u002A\u002A*%
X131292500Y-109580000D03*
D11*
X133832500Y-109580000D03*
X136372500Y-109580000D03*
X138912500Y-109580000D03*
X141452500Y-109580000D03*
X143992500Y-109580000D03*
X146532500Y-109580000D03*
%TD*%
D10*
%TO.C,REF\u002A\u002A*%
X108432500Y-79100000D03*
D11*
X110972500Y-79100000D03*
X113512500Y-79100000D03*
X116052500Y-79100000D03*
X118592500Y-79100000D03*
X121132500Y-79100000D03*
X123672500Y-79100000D03*
%TD*%
D10*
%TO.C,REF\u002A\u002A*%
X131292500Y-122280000D03*
D11*
X133832500Y-122280000D03*
X136372500Y-122280000D03*
X138912500Y-122280000D03*
X141452500Y-122280000D03*
X143992500Y-122280000D03*
X146532500Y-122280000D03*
%TD*%
D10*
%TO.C,REF\u002A\u002A*%
X108432500Y-86720000D03*
D11*
X110972500Y-86720000D03*
X113512500Y-86720000D03*
X116052500Y-86720000D03*
X118592500Y-86720000D03*
X121132500Y-86720000D03*
X123672500Y-86720000D03*
%TD*%
D10*
%TO.C,REF\u002A\u002A*%
X108432500Y-84180000D03*
D11*
X110972500Y-84180000D03*
X113512500Y-84180000D03*
X116052500Y-84180000D03*
X118592500Y-84180000D03*
X121132500Y-84180000D03*
X123672500Y-84180000D03*
%TD*%
D10*
%TO.C,REF\u002A\u002A*%
X108432500Y-61320000D03*
D11*
X110972500Y-61320000D03*
X113512500Y-61320000D03*
X116052500Y-61320000D03*
X118592500Y-61320000D03*
X121132500Y-61320000D03*
X123672500Y-61320000D03*
%TD*%
D10*
%TO.C,REF\u002A\u002A*%
X131292500Y-74020000D03*
D11*
X133832500Y-74020000D03*
X136372500Y-74020000D03*
X138912500Y-74020000D03*
X141452500Y-74020000D03*
X143992500Y-74020000D03*
X146532500Y-74020000D03*
%TD*%
D13*
%TO.C,M1*%
X151500000Y-145700000D03*
%TD*%
D10*
%TO.C,REF\u002A\u002A*%
X131292500Y-107040000D03*
D11*
X133832500Y-107040000D03*
X136372500Y-107040000D03*
X138912500Y-107040000D03*
X141452500Y-107040000D03*
X143992500Y-107040000D03*
X146532500Y-107040000D03*
%TD*%
D12*
%TO.C,TP2*%
X122529500Y-135615000D03*
%TD*%
D10*
%TO.C,REF\u002A\u002A*%
X110972500Y-56240000D03*
D11*
X113512500Y-56240000D03*
X116052500Y-56240000D03*
X118592500Y-56240000D03*
X121132500Y-56240000D03*
X123672500Y-56240000D03*
X126212500Y-56240000D03*
X128752500Y-56240000D03*
X131292500Y-56240000D03*
X133832500Y-56240000D03*
X136372500Y-56240000D03*
X138912500Y-56240000D03*
X141452500Y-56240000D03*
X143992500Y-56240000D03*
%TD*%
D10*
%TO.C,REF\u002A\u002A*%
X131292500Y-86720000D03*
D11*
X133832500Y-86720000D03*
X136372500Y-86720000D03*
X138912500Y-86720000D03*
X141452500Y-86720000D03*
X143992500Y-86720000D03*
X146532500Y-86720000D03*
%TD*%
D10*
%TO.C,REF\u002A\u002A*%
X108432500Y-66400000D03*
D11*
X110972500Y-66400000D03*
X113512500Y-66400000D03*
X116052500Y-66400000D03*
X118592500Y-66400000D03*
X121132500Y-66400000D03*
X123672500Y-66400000D03*
%TD*%
D13*
%TO.C,M1*%
X103500000Y-52700000D03*
%TD*%
D10*
%TO.C,REF\u002A\u002A*%
X131292500Y-96880000D03*
D11*
X133832500Y-96880000D03*
X136372500Y-96880000D03*
X138912500Y-96880000D03*
X141452500Y-96880000D03*
X143992500Y-96880000D03*
X146532500Y-96880000D03*
%TD*%
D10*
%TO.C,REF\u002A\u002A*%
X131292500Y-71480000D03*
D11*
X133832500Y-71480000D03*
X136372500Y-71480000D03*
X138912500Y-71480000D03*
X141452500Y-71480000D03*
X143992500Y-71480000D03*
X146532500Y-71480000D03*
%TD*%
D10*
%TO.C,REF\u002A\u002A*%
X131292500Y-58780000D03*
D11*
X133832500Y-58780000D03*
X136372500Y-58780000D03*
X138912500Y-58780000D03*
X141452500Y-58780000D03*
X143992500Y-58780000D03*
X146532500Y-58780000D03*
%TD*%
D10*
%TO.C,REF\u002A\u002A*%
X108432500Y-81640000D03*
D11*
X110972500Y-81640000D03*
X113512500Y-81640000D03*
X116052500Y-81640000D03*
X118592500Y-81640000D03*
X121132500Y-81640000D03*
X123672500Y-81640000D03*
%TD*%
D10*
%TO.C,REF\u002A\u002A*%
X151612500Y-58780000D03*
D11*
X151612500Y-61320000D03*
X151612500Y-63860000D03*
X151612500Y-66400000D03*
X151612500Y-68940000D03*
X151612500Y-71480000D03*
X151612500Y-74020000D03*
X151612500Y-76560000D03*
X151612500Y-79100000D03*
X151612500Y-81640000D03*
X151612500Y-84180000D03*
X151612500Y-86720000D03*
X151612500Y-89260000D03*
X151612500Y-91800000D03*
X151612500Y-94340000D03*
X151612500Y-96880000D03*
X151612500Y-99420000D03*
X151612500Y-101960000D03*
X151612500Y-104500000D03*
X151612500Y-107040000D03*
X151612500Y-109580000D03*
X151612500Y-112120000D03*
X151612500Y-114660000D03*
X151612500Y-117200000D03*
X151612500Y-119740000D03*
X151612500Y-122280000D03*
X151612500Y-124820000D03*
X151612500Y-127360000D03*
%TD*%
D12*
%TO.C,TP1*%
X129133500Y-135615000D03*
%TD*%
D13*
%TO.C,M1*%
X151500000Y-52700000D03*
%TD*%
D10*
%TO.C,REF\u002A\u002A*%
X149072500Y-58780000D03*
D11*
X149072500Y-61320000D03*
X149072500Y-63860000D03*
X149072500Y-66400000D03*
X149072500Y-68940000D03*
X149072500Y-71480000D03*
X149072500Y-74020000D03*
X149072500Y-76560000D03*
X149072500Y-79100000D03*
X149072500Y-81640000D03*
X149072500Y-84180000D03*
X149072500Y-86720000D03*
X149072500Y-89260000D03*
X149072500Y-91800000D03*
X149072500Y-94340000D03*
X149072500Y-96880000D03*
X149072500Y-99420000D03*
X149072500Y-101960000D03*
X149072500Y-104500000D03*
X149072500Y-107040000D03*
X149072500Y-109580000D03*
X149072500Y-112120000D03*
X149072500Y-114660000D03*
X149072500Y-117200000D03*
X149072500Y-119740000D03*
X149072500Y-122280000D03*
X149072500Y-124820000D03*
X149072500Y-127360000D03*
%TD*%
D10*
%TO.C,REF\u002A\u002A*%
X103352500Y-132440000D03*
D11*
X105892500Y-132440000D03*
X108432500Y-132440000D03*
X110972500Y-132440000D03*
X113512500Y-132440000D03*
X116052500Y-132440000D03*
X118592500Y-132440000D03*
X121132500Y-132440000D03*
X123672500Y-132440000D03*
X126212500Y-132440000D03*
X128752500Y-132440000D03*
X131292500Y-132440000D03*
X133832500Y-132440000D03*
X136372500Y-132440000D03*
X138912500Y-132440000D03*
X141452500Y-132440000D03*
X143992500Y-132440000D03*
X146532500Y-132440000D03*
X149072500Y-132440000D03*
X151612500Y-132440000D03*
%TD*%
D10*
%TO.C,REF\u002A\u002A*%
X131292500Y-81640000D03*
D11*
X133832500Y-81640000D03*
X136372500Y-81640000D03*
X138912500Y-81640000D03*
X141452500Y-81640000D03*
X143992500Y-81640000D03*
X146532500Y-81640000D03*
%TD*%
D10*
%TO.C,REF\u002A\u002A*%
X103352500Y-129900000D03*
D11*
X105892500Y-129900000D03*
X108432500Y-129900000D03*
X110972500Y-129900000D03*
X113512500Y-129900000D03*
X116052500Y-129900000D03*
X118592500Y-129900000D03*
X121132500Y-129900000D03*
X123672500Y-129900000D03*
X126212500Y-129900000D03*
X128752500Y-129900000D03*
X131292500Y-129900000D03*
X133832500Y-129900000D03*
X136372500Y-129900000D03*
X138912500Y-129900000D03*
X141452500Y-129900000D03*
X143992500Y-129900000D03*
X146532500Y-129900000D03*
X149072500Y-129900000D03*
X151612500Y-129900000D03*
%TD*%
D10*
%TO.C,REF\u002A\u002A*%
X108432500Y-104500000D03*
D11*
X110972500Y-104500000D03*
X113512500Y-104500000D03*
X116052500Y-104500000D03*
X118592500Y-104500000D03*
X121132500Y-104500000D03*
X123672500Y-104500000D03*
%TD*%
D10*
%TO.C,REF\u002A\u002A*%
X131292500Y-124820000D03*
D11*
X133832500Y-124820000D03*
X136372500Y-124820000D03*
X138912500Y-124820000D03*
X141452500Y-124820000D03*
X143992500Y-124820000D03*
X146532500Y-124820000D03*
%TD*%
D10*
%TO.C,REF\u002A\u002A*%
X103327500Y-134980000D03*
D11*
X105867500Y-134980000D03*
X108407500Y-134980000D03*
X110947500Y-134980000D03*
X113487500Y-134980000D03*
X116027500Y-134980000D03*
%TD*%
D10*
%TO.C,REF\u002A\u002A*%
X108432500Y-76560000D03*
D11*
X110972500Y-76560000D03*
X113512500Y-76560000D03*
X116052500Y-76560000D03*
X118592500Y-76560000D03*
X121132500Y-76560000D03*
X123672500Y-76560000D03*
%TD*%
D10*
%TO.C,REF\u002A\u002A*%
X131292500Y-117200000D03*
D11*
X133832500Y-117200000D03*
X136372500Y-117200000D03*
X138912500Y-117200000D03*
X141452500Y-117200000D03*
X143992500Y-117200000D03*
X146532500Y-117200000D03*
%TD*%
D10*
%TO.C,REF\u002A\u002A*%
X138912500Y-137520000D03*
D11*
X141452500Y-137520000D03*
X143992500Y-137520000D03*
X146532500Y-137520000D03*
X149072500Y-137520000D03*
X151612500Y-137520000D03*
%TD*%
D10*
%TO.C,REF\u002A\u002A*%
X131292500Y-127360000D03*
D11*
X133832500Y-127360000D03*
X136372500Y-127360000D03*
X138912500Y-127360000D03*
X141452500Y-127360000D03*
X143992500Y-127360000D03*
X146532500Y-127360000D03*
%TD*%
D10*
%TO.C,REF\u002A\u002A*%
X110972500Y-51160000D03*
D11*
X113512500Y-51160000D03*
X116052500Y-51160000D03*
X118592500Y-51160000D03*
X121132500Y-51160000D03*
X123672500Y-51160000D03*
X126212500Y-51160000D03*
X128752500Y-51160000D03*
X131292500Y-51160000D03*
X133832500Y-51160000D03*
X136372500Y-51160000D03*
X138912500Y-51160000D03*
X141452500Y-51160000D03*
X143992500Y-51160000D03*
%TD*%
D10*
%TO.C,REF\u002A\u002A*%
X108432500Y-58780000D03*
D11*
X110972500Y-58780000D03*
X113512500Y-58780000D03*
X116052500Y-58780000D03*
X118592500Y-58780000D03*
X121132500Y-58780000D03*
X123672500Y-58780000D03*
%TD*%
D10*
%TO.C,REF\u002A\u002A*%
X108432500Y-71480000D03*
D11*
X110972500Y-71480000D03*
X113512500Y-71480000D03*
X116052500Y-71480000D03*
X118592500Y-71480000D03*
X121132500Y-71480000D03*
X123672500Y-71480000D03*
%TD*%
D10*
%TO.C,REF\u002A\u002A*%
X131292500Y-79100000D03*
D11*
X133832500Y-79100000D03*
X136372500Y-79100000D03*
X138912500Y-79100000D03*
X141452500Y-79100000D03*
X143992500Y-79100000D03*
X146532500Y-79100000D03*
%TD*%
D10*
%TO.C,REF\u002A\u002A*%
X108432500Y-63860000D03*
D11*
X110972500Y-63860000D03*
X113512500Y-63860000D03*
X116052500Y-63860000D03*
X118592500Y-63860000D03*
X121132500Y-63860000D03*
X123672500Y-63860000D03*
%TD*%
D12*
%TO.C,TP4*%
X119227500Y-135615000D03*
%TD*%
D10*
%TO.C,REF\u002A\u002A*%
X131292500Y-66400000D03*
D11*
X133832500Y-66400000D03*
X136372500Y-66400000D03*
X138912500Y-66400000D03*
X141452500Y-66400000D03*
X143992500Y-66400000D03*
X146532500Y-66400000D03*
%TD*%
D10*
%TO.C,REF\u002A\u002A*%
X108432500Y-96880000D03*
D11*
X110972500Y-96880000D03*
X113512500Y-96880000D03*
X116052500Y-96880000D03*
X118592500Y-96880000D03*
X121132500Y-96880000D03*
X123672500Y-96880000D03*
%TD*%
D10*
%TO.C,REF\u002A\u002A*%
X131292500Y-119740000D03*
D11*
X133832500Y-119740000D03*
X136372500Y-119740000D03*
X138912500Y-119740000D03*
X141452500Y-119740000D03*
X143992500Y-119740000D03*
X146532500Y-119740000D03*
%TD*%
D12*
%TO.C,TP6*%
X135737500Y-135615000D03*
%TD*%
D10*
%TO.C,REF\u002A\u002A*%
X126212500Y-58780000D03*
D11*
X126212500Y-61320000D03*
X126212500Y-63860000D03*
X126212500Y-66400000D03*
X126212500Y-68940000D03*
X126212500Y-71480000D03*
X126212500Y-74020000D03*
X126212500Y-76560000D03*
X126212500Y-79100000D03*
X126212500Y-81640000D03*
X126212500Y-84180000D03*
X126212500Y-86720000D03*
X126212500Y-89260000D03*
X126212500Y-91800000D03*
X126212500Y-94340000D03*
X126212500Y-96880000D03*
X126212500Y-99420000D03*
X126212500Y-101960000D03*
X126212500Y-104500000D03*
X126212500Y-107040000D03*
X126212500Y-109580000D03*
X126212500Y-112120000D03*
X126212500Y-114660000D03*
X126212500Y-117200000D03*
X126212500Y-119740000D03*
X126212500Y-122280000D03*
X126212500Y-124820000D03*
X126212500Y-127360000D03*
%TD*%
D10*
%TO.C,REF\u002A\u002A*%
X108432500Y-89260000D03*
D11*
X110972500Y-89260000D03*
X113512500Y-89260000D03*
X116052500Y-89260000D03*
X118592500Y-89260000D03*
X121132500Y-89260000D03*
X123672500Y-89260000D03*
%TD*%
D10*
%TO.C,REF\u002A\u002A*%
X131292500Y-114660000D03*
D11*
X133832500Y-114660000D03*
X136372500Y-114660000D03*
X138912500Y-114660000D03*
X141452500Y-114660000D03*
X143992500Y-114660000D03*
X146532500Y-114660000D03*
%TD*%
D10*
%TO.C,REF\u002A\u002A*%
X108432500Y-124820000D03*
D11*
X110972500Y-124820000D03*
X113512500Y-124820000D03*
X116052500Y-124820000D03*
X118592500Y-124820000D03*
X121132500Y-124820000D03*
X123672500Y-124820000D03*
%TD*%
D10*
%TO.C,REF\u002A\u002A*%
X131292500Y-101960000D03*
D11*
X133832500Y-101960000D03*
X136372500Y-101960000D03*
X138912500Y-101960000D03*
X141452500Y-101960000D03*
X143992500Y-101960000D03*
X146532500Y-101960000D03*
%TD*%
D10*
%TO.C,REF\u002A\u002A*%
X131292500Y-61320000D03*
D11*
X133832500Y-61320000D03*
X136372500Y-61320000D03*
X138912500Y-61320000D03*
X141452500Y-61320000D03*
X143992500Y-61320000D03*
X146532500Y-61320000D03*
%TD*%
D10*
%TO.C,REF\u002A\u002A*%
X108432500Y-109580000D03*
D11*
X110972500Y-109580000D03*
X113512500Y-109580000D03*
X116052500Y-109580000D03*
X118592500Y-109580000D03*
X121132500Y-109580000D03*
X123672500Y-109580000D03*
%TD*%
D10*
%TO.C,REF\u002A\u002A*%
X105892500Y-58780000D03*
D11*
X105892500Y-61320000D03*
X105892500Y-63860000D03*
X105892500Y-66400000D03*
X105892500Y-68940000D03*
X105892500Y-71480000D03*
X105892500Y-74020000D03*
X105892500Y-76560000D03*
X105892500Y-79100000D03*
X105892500Y-81640000D03*
X105892500Y-84180000D03*
X105892500Y-86720000D03*
X105892500Y-89260000D03*
X105892500Y-91800000D03*
X105892500Y-94340000D03*
X105892500Y-96880000D03*
X105892500Y-99420000D03*
X105892500Y-101960000D03*
X105892500Y-104500000D03*
X105892500Y-107040000D03*
X105892500Y-109580000D03*
X105892500Y-112120000D03*
X105892500Y-114660000D03*
X105892500Y-117200000D03*
X105892500Y-119740000D03*
X105892500Y-122280000D03*
X105892500Y-124820000D03*
X105892500Y-127360000D03*
%TD*%
M02*
