%TF.GenerationSoftware,KiCad,Pcbnew,8.0.3*%
%TF.CreationDate,2024-07-30T21:02:43-04:00*%
%TF.ProjectId,synth-prototyping-pcb,73796e74-682d-4707-926f-746f74797069,1.0.0*%
%TF.SameCoordinates,Original*%
%TF.FileFunction,Copper,L1,Top*%
%TF.FilePolarity,Positive*%
%FSLAX46Y46*%
G04 Gerber Fmt 4.6, Leading zero omitted, Abs format (unit mm)*
G04 Created by KiCad (PCBNEW 8.0.3) date 2024-07-30 21:02:43*
%MOMM*%
%LPD*%
G01*
G04 APERTURE LIST*
G04 Aperture macros list*
%AMRoundRect*
0 Rectangle with rounded corners*
0 $1 Rounding radius*
0 $2 $3 $4 $5 $6 $7 $8 $9 X,Y pos of 4 corners*
0 Add a 4 corners polygon primitive as box body*
4,1,4,$2,$3,$4,$5,$6,$7,$8,$9,$2,$3,0*
0 Add four circle primitives for the rounded corners*
1,1,$1+$1,$2,$3*
1,1,$1+$1,$4,$5*
1,1,$1+$1,$6,$7*
1,1,$1+$1,$8,$9*
0 Add four rect primitives between the rounded corners*
20,1,$1+$1,$2,$3,$4,$5,0*
20,1,$1+$1,$4,$5,$6,$7,0*
20,1,$1+$1,$6,$7,$8,$9,0*
20,1,$1+$1,$8,$9,$2,$3,0*%
G04 Aperture macros list end*
%TA.AperFunction,ComponentPad*%
%ADD10C,1.700000*%
%TD*%
%TA.AperFunction,ComponentPad*%
%ADD11O,1.700000X1.700000*%
%TD*%
%TA.AperFunction,ComponentPad*%
%ADD12R,2.000000X2.000000*%
%TD*%
%TA.AperFunction,ComponentPad*%
%ADD13C,5.600000*%
%TD*%
%TA.AperFunction,ComponentPad*%
%ADD14RoundRect,0.250000X0.600000X-0.600000X0.600000X0.600000X-0.600000X0.600000X-0.600000X-0.600000X0*%
%TD*%
G04 APERTURE END LIST*
D10*
%TO.P,REF\u002A\u002A,1*%
%TO.N,N/C*%
X103352500Y-137520000D03*
D11*
%TO.P,REF\u002A\u002A,2*%
X105892500Y-137520000D03*
%TO.P,REF\u002A\u002A,3*%
X108432500Y-137520000D03*
%TO.P,REF\u002A\u002A,4*%
X110972500Y-137520000D03*
%TO.P,REF\u002A\u002A,5*%
X113512500Y-137520000D03*
%TO.P,REF\u002A\u002A,6*%
X116052500Y-137520000D03*
%TD*%
D10*
%TO.P,REF\u002A\u002A,1*%
%TO.N,N/C*%
X108432500Y-117200000D03*
D11*
%TO.P,REF\u002A\u002A,2*%
X110972500Y-117200000D03*
%TO.P,REF\u002A\u002A,3*%
X113512500Y-117200000D03*
%TO.P,REF\u002A\u002A,4*%
X116052500Y-117200000D03*
%TO.P,REF\u002A\u002A,5*%
X118592500Y-117200000D03*
%TO.P,REF\u002A\u002A,6*%
X121132500Y-117200000D03*
%TO.P,REF\u002A\u002A,7*%
X123672500Y-117200000D03*
%TD*%
D10*
%TO.P,REF\u002A\u002A,1*%
%TO.N,N/C*%
X108432500Y-91800000D03*
D11*
%TO.P,REF\u002A\u002A,2*%
X110972500Y-91800000D03*
%TO.P,REF\u002A\u002A,3*%
X113512500Y-91800000D03*
%TO.P,REF\u002A\u002A,4*%
X116052500Y-91800000D03*
%TO.P,REF\u002A\u002A,5*%
X118592500Y-91800000D03*
%TO.P,REF\u002A\u002A,6*%
X121132500Y-91800000D03*
%TO.P,REF\u002A\u002A,7*%
X123672500Y-91800000D03*
%TD*%
D10*
%TO.P,REF\u002A\u002A,1*%
%TO.N,N/C*%
X131292500Y-91800000D03*
D11*
%TO.P,REF\u002A\u002A,2*%
X133832500Y-91800000D03*
%TO.P,REF\u002A\u002A,3*%
X136372500Y-91800000D03*
%TO.P,REF\u002A\u002A,4*%
X138912500Y-91800000D03*
%TO.P,REF\u002A\u002A,5*%
X141452500Y-91800000D03*
%TO.P,REF\u002A\u002A,6*%
X143992500Y-91800000D03*
%TO.P,REF\u002A\u002A,7*%
X146532500Y-91800000D03*
%TD*%
D10*
%TO.P,REF\u002A\u002A,1*%
%TO.N,N/C*%
X131292500Y-99420000D03*
D11*
%TO.P,REF\u002A\u002A,2*%
X133832500Y-99420000D03*
%TO.P,REF\u002A\u002A,3*%
X136372500Y-99420000D03*
%TO.P,REF\u002A\u002A,4*%
X138912500Y-99420000D03*
%TO.P,REF\u002A\u002A,5*%
X141452500Y-99420000D03*
%TO.P,REF\u002A\u002A,6*%
X143992500Y-99420000D03*
%TO.P,REF\u002A\u002A,7*%
X146532500Y-99420000D03*
%TD*%
D10*
%TO.P,REF\u002A\u002A,1*%
%TO.N,N/C*%
X110972500Y-53700000D03*
D11*
%TO.P,REF\u002A\u002A,2*%
X113512500Y-53700000D03*
%TO.P,REF\u002A\u002A,3*%
X116052500Y-53700000D03*
%TO.P,REF\u002A\u002A,4*%
X118592500Y-53700000D03*
%TO.P,REF\u002A\u002A,5*%
X121132500Y-53700000D03*
%TO.P,REF\u002A\u002A,6*%
X123672500Y-53700000D03*
%TO.P,REF\u002A\u002A,7*%
X126212500Y-53700000D03*
%TO.P,REF\u002A\u002A,8*%
X128752500Y-53700000D03*
%TO.P,REF\u002A\u002A,9*%
X131292500Y-53700000D03*
%TO.P,REF\u002A\u002A,10*%
X133832500Y-53700000D03*
%TO.P,REF\u002A\u002A,11*%
X136372500Y-53700000D03*
%TO.P,REF\u002A\u002A,12*%
X138912500Y-53700000D03*
%TO.P,REF\u002A\u002A,13*%
X141452500Y-53700000D03*
%TO.P,REF\u002A\u002A,14*%
X143992500Y-53700000D03*
%TD*%
D10*
%TO.P,REF\u002A\u002A,1*%
%TO.N,N/C*%
X108432500Y-119740000D03*
D11*
%TO.P,REF\u002A\u002A,2*%
X110972500Y-119740000D03*
%TO.P,REF\u002A\u002A,3*%
X113512500Y-119740000D03*
%TO.P,REF\u002A\u002A,4*%
X116052500Y-119740000D03*
%TO.P,REF\u002A\u002A,5*%
X118592500Y-119740000D03*
%TO.P,REF\u002A\u002A,6*%
X121132500Y-119740000D03*
%TO.P,REF\u002A\u002A,7*%
X123672500Y-119740000D03*
%TD*%
D10*
%TO.P,REF\u002A\u002A,1*%
%TO.N,N/C*%
X131292500Y-89260000D03*
D11*
%TO.P,REF\u002A\u002A,2*%
X133832500Y-89260000D03*
%TO.P,REF\u002A\u002A,3*%
X136372500Y-89260000D03*
%TO.P,REF\u002A\u002A,4*%
X138912500Y-89260000D03*
%TO.P,REF\u002A\u002A,5*%
X141452500Y-89260000D03*
%TO.P,REF\u002A\u002A,6*%
X143992500Y-89260000D03*
%TO.P,REF\u002A\u002A,7*%
X146532500Y-89260000D03*
%TD*%
D10*
%TO.P,REF\u002A\u002A,1*%
%TO.N,N/C*%
X108432500Y-122280000D03*
D11*
%TO.P,REF\u002A\u002A,2*%
X110972500Y-122280000D03*
%TO.P,REF\u002A\u002A,3*%
X113512500Y-122280000D03*
%TO.P,REF\u002A\u002A,4*%
X116052500Y-122280000D03*
%TO.P,REF\u002A\u002A,5*%
X118592500Y-122280000D03*
%TO.P,REF\u002A\u002A,6*%
X121132500Y-122280000D03*
%TO.P,REF\u002A\u002A,7*%
X123672500Y-122280000D03*
%TD*%
D12*
%TO.P,TP5,1,1*%
%TO.N,CV*%
X132435500Y-135615000D03*
%TD*%
%TO.P,TP3,1,1*%
%TO.N,+12V*%
X125831500Y-135615000D03*
%TD*%
D10*
%TO.P,REF\u002A\u002A,1*%
%TO.N,N/C*%
X131292500Y-112120000D03*
D11*
%TO.P,REF\u002A\u002A,2*%
X133832500Y-112120000D03*
%TO.P,REF\u002A\u002A,3*%
X136372500Y-112120000D03*
%TO.P,REF\u002A\u002A,4*%
X138912500Y-112120000D03*
%TO.P,REF\u002A\u002A,5*%
X141452500Y-112120000D03*
%TO.P,REF\u002A\u002A,6*%
X143992500Y-112120000D03*
%TO.P,REF\u002A\u002A,7*%
X146532500Y-112120000D03*
%TD*%
D10*
%TO.P,REF\u002A\u002A,1*%
%TO.N,N/C*%
X128752500Y-58780000D03*
D11*
%TO.P,REF\u002A\u002A,2*%
X128752500Y-61320000D03*
%TO.P,REF\u002A\u002A,3*%
X128752500Y-63860000D03*
%TO.P,REF\u002A\u002A,4*%
X128752500Y-66400000D03*
%TO.P,REF\u002A\u002A,5*%
X128752500Y-68940000D03*
%TO.P,REF\u002A\u002A,6*%
X128752500Y-71480000D03*
%TO.P,REF\u002A\u002A,7*%
X128752500Y-74020000D03*
%TO.P,REF\u002A\u002A,8*%
X128752500Y-76560000D03*
%TO.P,REF\u002A\u002A,9*%
X128752500Y-79100000D03*
%TO.P,REF\u002A\u002A,10*%
X128752500Y-81640000D03*
%TO.P,REF\u002A\u002A,11*%
X128752500Y-84180000D03*
%TO.P,REF\u002A\u002A,12*%
X128752500Y-86720000D03*
%TO.P,REF\u002A\u002A,13*%
X128752500Y-89260000D03*
%TO.P,REF\u002A\u002A,14*%
X128752500Y-91800000D03*
%TO.P,REF\u002A\u002A,15*%
X128752500Y-94340000D03*
%TO.P,REF\u002A\u002A,16*%
X128752500Y-96880000D03*
%TO.P,REF\u002A\u002A,17*%
X128752500Y-99420000D03*
%TO.P,REF\u002A\u002A,18*%
X128752500Y-101960000D03*
%TO.P,REF\u002A\u002A,19*%
X128752500Y-104500000D03*
%TO.P,REF\u002A\u002A,20*%
X128752500Y-107040000D03*
%TO.P,REF\u002A\u002A,21*%
X128752500Y-109580000D03*
%TO.P,REF\u002A\u002A,22*%
X128752500Y-112120000D03*
%TO.P,REF\u002A\u002A,23*%
X128752500Y-114660000D03*
%TO.P,REF\u002A\u002A,24*%
X128752500Y-117200000D03*
%TO.P,REF\u002A\u002A,25*%
X128752500Y-119740000D03*
%TO.P,REF\u002A\u002A,26*%
X128752500Y-122280000D03*
%TO.P,REF\u002A\u002A,27*%
X128752500Y-124820000D03*
%TO.P,REF\u002A\u002A,28*%
X128752500Y-127360000D03*
%TD*%
D10*
%TO.P,REF\u002A\u002A,1*%
%TO.N,N/C*%
X103352500Y-58780000D03*
D11*
%TO.P,REF\u002A\u002A,2*%
X103352500Y-61320000D03*
%TO.P,REF\u002A\u002A,3*%
X103352500Y-63860000D03*
%TO.P,REF\u002A\u002A,4*%
X103352500Y-66400000D03*
%TO.P,REF\u002A\u002A,5*%
X103352500Y-68940000D03*
%TO.P,REF\u002A\u002A,6*%
X103352500Y-71480000D03*
%TO.P,REF\u002A\u002A,7*%
X103352500Y-74020000D03*
%TO.P,REF\u002A\u002A,8*%
X103352500Y-76560000D03*
%TO.P,REF\u002A\u002A,9*%
X103352500Y-79100000D03*
%TO.P,REF\u002A\u002A,10*%
X103352500Y-81640000D03*
%TO.P,REF\u002A\u002A,11*%
X103352500Y-84180000D03*
%TO.P,REF\u002A\u002A,12*%
X103352500Y-86720000D03*
%TO.P,REF\u002A\u002A,13*%
X103352500Y-89260000D03*
%TO.P,REF\u002A\u002A,14*%
X103352500Y-91800000D03*
%TO.P,REF\u002A\u002A,15*%
X103352500Y-94340000D03*
%TO.P,REF\u002A\u002A,16*%
X103352500Y-96880000D03*
%TO.P,REF\u002A\u002A,17*%
X103352500Y-99420000D03*
%TO.P,REF\u002A\u002A,18*%
X103352500Y-101960000D03*
%TO.P,REF\u002A\u002A,19*%
X103352500Y-104500000D03*
%TO.P,REF\u002A\u002A,20*%
X103352500Y-107040000D03*
%TO.P,REF\u002A\u002A,21*%
X103352500Y-109580000D03*
%TO.P,REF\u002A\u002A,22*%
X103352500Y-112120000D03*
%TO.P,REF\u002A\u002A,23*%
X103352500Y-114660000D03*
%TO.P,REF\u002A\u002A,24*%
X103352500Y-117200000D03*
%TO.P,REF\u002A\u002A,25*%
X103352500Y-119740000D03*
%TO.P,REF\u002A\u002A,26*%
X103352500Y-122280000D03*
%TO.P,REF\u002A\u002A,27*%
X103352500Y-124820000D03*
%TO.P,REF\u002A\u002A,28*%
X103352500Y-127360000D03*
%TD*%
D13*
%TO.P,M1,1*%
%TO.N,N/C*%
X103500000Y-145700000D03*
%TD*%
D10*
%TO.P,REF\u002A\u002A,1*%
%TO.N,N/C*%
X108432500Y-94340000D03*
D11*
%TO.P,REF\u002A\u002A,2*%
X110972500Y-94340000D03*
%TO.P,REF\u002A\u002A,3*%
X113512500Y-94340000D03*
%TO.P,REF\u002A\u002A,4*%
X116052500Y-94340000D03*
%TO.P,REF\u002A\u002A,5*%
X118592500Y-94340000D03*
%TO.P,REF\u002A\u002A,6*%
X121132500Y-94340000D03*
%TO.P,REF\u002A\u002A,7*%
X123672500Y-94340000D03*
%TD*%
D10*
%TO.P,REF\u002A\u002A,1*%
%TO.N,N/C*%
X108432500Y-101960000D03*
D11*
%TO.P,REF\u002A\u002A,2*%
X110972500Y-101960000D03*
%TO.P,REF\u002A\u002A,3*%
X113512500Y-101960000D03*
%TO.P,REF\u002A\u002A,4*%
X116052500Y-101960000D03*
%TO.P,REF\u002A\u002A,5*%
X118592500Y-101960000D03*
%TO.P,REF\u002A\u002A,6*%
X121132500Y-101960000D03*
%TO.P,REF\u002A\u002A,7*%
X123672500Y-101960000D03*
%TD*%
D10*
%TO.P,REF\u002A\u002A,1*%
%TO.N,N/C*%
X131292500Y-104500000D03*
D11*
%TO.P,REF\u002A\u002A,2*%
X133832500Y-104500000D03*
%TO.P,REF\u002A\u002A,3*%
X136372500Y-104500000D03*
%TO.P,REF\u002A\u002A,4*%
X138912500Y-104500000D03*
%TO.P,REF\u002A\u002A,5*%
X141452500Y-104500000D03*
%TO.P,REF\u002A\u002A,6*%
X143992500Y-104500000D03*
%TO.P,REF\u002A\u002A,7*%
X146532500Y-104500000D03*
%TD*%
D10*
%TO.P,REF\u002A\u002A,1*%
%TO.N,N/C*%
X108432500Y-68940000D03*
D11*
%TO.P,REF\u002A\u002A,2*%
X110972500Y-68940000D03*
%TO.P,REF\u002A\u002A,3*%
X113512500Y-68940000D03*
%TO.P,REF\u002A\u002A,4*%
X116052500Y-68940000D03*
%TO.P,REF\u002A\u002A,5*%
X118592500Y-68940000D03*
%TO.P,REF\u002A\u002A,6*%
X121132500Y-68940000D03*
%TO.P,REF\u002A\u002A,7*%
X123672500Y-68940000D03*
%TD*%
D10*
%TO.P,REF\u002A\u002A,1*%
%TO.N,N/C*%
X138912500Y-134980000D03*
D11*
%TO.P,REF\u002A\u002A,2*%
X141452500Y-134980000D03*
%TO.P,REF\u002A\u002A,3*%
X143992500Y-134980000D03*
%TO.P,REF\u002A\u002A,4*%
X146532500Y-134980000D03*
%TO.P,REF\u002A\u002A,5*%
X149072500Y-134980000D03*
%TO.P,REF\u002A\u002A,6*%
X151612500Y-134980000D03*
%TD*%
D10*
%TO.P,REF\u002A\u002A,1*%
%TO.N,N/C*%
X131292500Y-94340000D03*
D11*
%TO.P,REF\u002A\u002A,2*%
X133832500Y-94340000D03*
%TO.P,REF\u002A\u002A,3*%
X136372500Y-94340000D03*
%TO.P,REF\u002A\u002A,4*%
X138912500Y-94340000D03*
%TO.P,REF\u002A\u002A,5*%
X141452500Y-94340000D03*
%TO.P,REF\u002A\u002A,6*%
X143992500Y-94340000D03*
%TO.P,REF\u002A\u002A,7*%
X146532500Y-94340000D03*
%TD*%
D10*
%TO.P,REF\u002A\u002A,1*%
%TO.N,N/C*%
X108432500Y-99420000D03*
D11*
%TO.P,REF\u002A\u002A,2*%
X110972500Y-99420000D03*
%TO.P,REF\u002A\u002A,3*%
X113512500Y-99420000D03*
%TO.P,REF\u002A\u002A,4*%
X116052500Y-99420000D03*
%TO.P,REF\u002A\u002A,5*%
X118592500Y-99420000D03*
%TO.P,REF\u002A\u002A,6*%
X121132500Y-99420000D03*
%TO.P,REF\u002A\u002A,7*%
X123672500Y-99420000D03*
%TD*%
D10*
%TO.P,REF\u002A\u002A,1*%
%TO.N,N/C*%
X131292500Y-63860000D03*
D11*
%TO.P,REF\u002A\u002A,2*%
X133832500Y-63860000D03*
%TO.P,REF\u002A\u002A,3*%
X136372500Y-63860000D03*
%TO.P,REF\u002A\u002A,4*%
X138912500Y-63860000D03*
%TO.P,REF\u002A\u002A,5*%
X141452500Y-63860000D03*
%TO.P,REF\u002A\u002A,6*%
X143992500Y-63860000D03*
%TO.P,REF\u002A\u002A,7*%
X146532500Y-63860000D03*
%TD*%
D14*
%TO.P,J1,1,Pin_1*%
%TO.N,-12V*%
X118592500Y-145240000D03*
D10*
%TO.P,J1,2,Pin_2*%
X118592500Y-142700000D03*
%TO.P,J1,3,Pin_3*%
%TO.N,GND*%
X121132500Y-145240000D03*
%TO.P,J1,4,Pin_4*%
X121132500Y-142700000D03*
%TO.P,J1,5,Pin_5*%
X123672500Y-145240000D03*
%TO.P,J1,6,Pin_6*%
X123672500Y-142700000D03*
%TO.P,J1,7,Pin_7*%
X126212500Y-145240000D03*
%TO.P,J1,8,Pin_8*%
X126212500Y-142700000D03*
%TO.P,J1,9,Pin_9*%
%TO.N,+12V*%
X128752500Y-145240000D03*
%TO.P,J1,10,Pin_10*%
X128752500Y-142700000D03*
%TO.P,J1,11,Pin_11*%
%TO.N,+5V*%
X131292500Y-145240000D03*
%TO.P,J1,12,Pin_12*%
X131292500Y-142700000D03*
%TO.P,J1,13,Pin_13*%
%TO.N,CV*%
X133832500Y-145240000D03*
%TO.P,J1,14,Pin_14*%
X133832500Y-142700000D03*
%TO.P,J1,15,Pin_15*%
%TO.N,GATE*%
X136372500Y-145240000D03*
%TO.P,J1,16,Pin_16*%
X136372500Y-142700000D03*
%TD*%
%TO.P,REF\u002A\u002A,1*%
%TO.N,N/C*%
X108432500Y-74020000D03*
D11*
%TO.P,REF\u002A\u002A,2*%
X110972500Y-74020000D03*
%TO.P,REF\u002A\u002A,3*%
X113512500Y-74020000D03*
%TO.P,REF\u002A\u002A,4*%
X116052500Y-74020000D03*
%TO.P,REF\u002A\u002A,5*%
X118592500Y-74020000D03*
%TO.P,REF\u002A\u002A,6*%
X121132500Y-74020000D03*
%TO.P,REF\u002A\u002A,7*%
X123672500Y-74020000D03*
%TD*%
D10*
%TO.P,REF\u002A\u002A,1*%
%TO.N,N/C*%
X108432500Y-114660000D03*
D11*
%TO.P,REF\u002A\u002A,2*%
X110972500Y-114660000D03*
%TO.P,REF\u002A\u002A,3*%
X113512500Y-114660000D03*
%TO.P,REF\u002A\u002A,4*%
X116052500Y-114660000D03*
%TO.P,REF\u002A\u002A,5*%
X118592500Y-114660000D03*
%TO.P,REF\u002A\u002A,6*%
X121132500Y-114660000D03*
%TO.P,REF\u002A\u002A,7*%
X123672500Y-114660000D03*
%TD*%
D10*
%TO.P,REF\u002A\u002A,1*%
%TO.N,N/C*%
X131292500Y-76560000D03*
D11*
%TO.P,REF\u002A\u002A,2*%
X133832500Y-76560000D03*
%TO.P,REF\u002A\u002A,3*%
X136372500Y-76560000D03*
%TO.P,REF\u002A\u002A,4*%
X138912500Y-76560000D03*
%TO.P,REF\u002A\u002A,5*%
X141452500Y-76560000D03*
%TO.P,REF\u002A\u002A,6*%
X143992500Y-76560000D03*
%TO.P,REF\u002A\u002A,7*%
X146532500Y-76560000D03*
%TD*%
D10*
%TO.P,REF\u002A\u002A,1*%
%TO.N,N/C*%
X131292500Y-84180000D03*
D11*
%TO.P,REF\u002A\u002A,2*%
X133832500Y-84180000D03*
%TO.P,REF\u002A\u002A,3*%
X136372500Y-84180000D03*
%TO.P,REF\u002A\u002A,4*%
X138912500Y-84180000D03*
%TO.P,REF\u002A\u002A,5*%
X141452500Y-84180000D03*
%TO.P,REF\u002A\u002A,6*%
X143992500Y-84180000D03*
%TO.P,REF\u002A\u002A,7*%
X146532500Y-84180000D03*
%TD*%
D10*
%TO.P,REF\u002A\u002A,1*%
%TO.N,N/C*%
X108432500Y-112120000D03*
D11*
%TO.P,REF\u002A\u002A,2*%
X110972500Y-112120000D03*
%TO.P,REF\u002A\u002A,3*%
X113512500Y-112120000D03*
%TO.P,REF\u002A\u002A,4*%
X116052500Y-112120000D03*
%TO.P,REF\u002A\u002A,5*%
X118592500Y-112120000D03*
%TO.P,REF\u002A\u002A,6*%
X121132500Y-112120000D03*
%TO.P,REF\u002A\u002A,7*%
X123672500Y-112120000D03*
%TD*%
D10*
%TO.P,REF\u002A\u002A,1*%
%TO.N,N/C*%
X108432500Y-127360000D03*
D11*
%TO.P,REF\u002A\u002A,2*%
X110972500Y-127360000D03*
%TO.P,REF\u002A\u002A,3*%
X113512500Y-127360000D03*
%TO.P,REF\u002A\u002A,4*%
X116052500Y-127360000D03*
%TO.P,REF\u002A\u002A,5*%
X118592500Y-127360000D03*
%TO.P,REF\u002A\u002A,6*%
X121132500Y-127360000D03*
%TO.P,REF\u002A\u002A,7*%
X123672500Y-127360000D03*
%TD*%
D10*
%TO.P,REF\u002A\u002A,1*%
%TO.N,N/C*%
X131292500Y-68940000D03*
D11*
%TO.P,REF\u002A\u002A,2*%
X133832500Y-68940000D03*
%TO.P,REF\u002A\u002A,3*%
X136372500Y-68940000D03*
%TO.P,REF\u002A\u002A,4*%
X138912500Y-68940000D03*
%TO.P,REF\u002A\u002A,5*%
X141452500Y-68940000D03*
%TO.P,REF\u002A\u002A,6*%
X143992500Y-68940000D03*
%TO.P,REF\u002A\u002A,7*%
X146532500Y-68940000D03*
%TD*%
D10*
%TO.P,REF\u002A\u002A,1*%
%TO.N,N/C*%
X108432500Y-107040000D03*
D11*
%TO.P,REF\u002A\u002A,2*%
X110972500Y-107040000D03*
%TO.P,REF\u002A\u002A,3*%
X113512500Y-107040000D03*
%TO.P,REF\u002A\u002A,4*%
X116052500Y-107040000D03*
%TO.P,REF\u002A\u002A,5*%
X118592500Y-107040000D03*
%TO.P,REF\u002A\u002A,6*%
X121132500Y-107040000D03*
%TO.P,REF\u002A\u002A,7*%
X123672500Y-107040000D03*
%TD*%
D10*
%TO.P,REF\u002A\u002A,1*%
%TO.N,N/C*%
X131292500Y-109580000D03*
D11*
%TO.P,REF\u002A\u002A,2*%
X133832500Y-109580000D03*
%TO.P,REF\u002A\u002A,3*%
X136372500Y-109580000D03*
%TO.P,REF\u002A\u002A,4*%
X138912500Y-109580000D03*
%TO.P,REF\u002A\u002A,5*%
X141452500Y-109580000D03*
%TO.P,REF\u002A\u002A,6*%
X143992500Y-109580000D03*
%TO.P,REF\u002A\u002A,7*%
X146532500Y-109580000D03*
%TD*%
D10*
%TO.P,REF\u002A\u002A,1*%
%TO.N,N/C*%
X108432500Y-79100000D03*
D11*
%TO.P,REF\u002A\u002A,2*%
X110972500Y-79100000D03*
%TO.P,REF\u002A\u002A,3*%
X113512500Y-79100000D03*
%TO.P,REF\u002A\u002A,4*%
X116052500Y-79100000D03*
%TO.P,REF\u002A\u002A,5*%
X118592500Y-79100000D03*
%TO.P,REF\u002A\u002A,6*%
X121132500Y-79100000D03*
%TO.P,REF\u002A\u002A,7*%
X123672500Y-79100000D03*
%TD*%
D10*
%TO.P,REF\u002A\u002A,1*%
%TO.N,N/C*%
X131292500Y-122280000D03*
D11*
%TO.P,REF\u002A\u002A,2*%
X133832500Y-122280000D03*
%TO.P,REF\u002A\u002A,3*%
X136372500Y-122280000D03*
%TO.P,REF\u002A\u002A,4*%
X138912500Y-122280000D03*
%TO.P,REF\u002A\u002A,5*%
X141452500Y-122280000D03*
%TO.P,REF\u002A\u002A,6*%
X143992500Y-122280000D03*
%TO.P,REF\u002A\u002A,7*%
X146532500Y-122280000D03*
%TD*%
D10*
%TO.P,REF\u002A\u002A,1*%
%TO.N,N/C*%
X108432500Y-86720000D03*
D11*
%TO.P,REF\u002A\u002A,2*%
X110972500Y-86720000D03*
%TO.P,REF\u002A\u002A,3*%
X113512500Y-86720000D03*
%TO.P,REF\u002A\u002A,4*%
X116052500Y-86720000D03*
%TO.P,REF\u002A\u002A,5*%
X118592500Y-86720000D03*
%TO.P,REF\u002A\u002A,6*%
X121132500Y-86720000D03*
%TO.P,REF\u002A\u002A,7*%
X123672500Y-86720000D03*
%TD*%
D10*
%TO.P,REF\u002A\u002A,1*%
%TO.N,N/C*%
X108432500Y-84180000D03*
D11*
%TO.P,REF\u002A\u002A,2*%
X110972500Y-84180000D03*
%TO.P,REF\u002A\u002A,3*%
X113512500Y-84180000D03*
%TO.P,REF\u002A\u002A,4*%
X116052500Y-84180000D03*
%TO.P,REF\u002A\u002A,5*%
X118592500Y-84180000D03*
%TO.P,REF\u002A\u002A,6*%
X121132500Y-84180000D03*
%TO.P,REF\u002A\u002A,7*%
X123672500Y-84180000D03*
%TD*%
D10*
%TO.P,REF\u002A\u002A,1*%
%TO.N,N/C*%
X108432500Y-61320000D03*
D11*
%TO.P,REF\u002A\u002A,2*%
X110972500Y-61320000D03*
%TO.P,REF\u002A\u002A,3*%
X113512500Y-61320000D03*
%TO.P,REF\u002A\u002A,4*%
X116052500Y-61320000D03*
%TO.P,REF\u002A\u002A,5*%
X118592500Y-61320000D03*
%TO.P,REF\u002A\u002A,6*%
X121132500Y-61320000D03*
%TO.P,REF\u002A\u002A,7*%
X123672500Y-61320000D03*
%TD*%
D10*
%TO.P,REF\u002A\u002A,1*%
%TO.N,N/C*%
X131292500Y-74020000D03*
D11*
%TO.P,REF\u002A\u002A,2*%
X133832500Y-74020000D03*
%TO.P,REF\u002A\u002A,3*%
X136372500Y-74020000D03*
%TO.P,REF\u002A\u002A,4*%
X138912500Y-74020000D03*
%TO.P,REF\u002A\u002A,5*%
X141452500Y-74020000D03*
%TO.P,REF\u002A\u002A,6*%
X143992500Y-74020000D03*
%TO.P,REF\u002A\u002A,7*%
X146532500Y-74020000D03*
%TD*%
D13*
%TO.P,M1,1*%
%TO.N,N/C*%
X151500000Y-145700000D03*
%TD*%
D10*
%TO.P,REF\u002A\u002A,1*%
%TO.N,N/C*%
X131292500Y-107040000D03*
D11*
%TO.P,REF\u002A\u002A,2*%
X133832500Y-107040000D03*
%TO.P,REF\u002A\u002A,3*%
X136372500Y-107040000D03*
%TO.P,REF\u002A\u002A,4*%
X138912500Y-107040000D03*
%TO.P,REF\u002A\u002A,5*%
X141452500Y-107040000D03*
%TO.P,REF\u002A\u002A,6*%
X143992500Y-107040000D03*
%TO.P,REF\u002A\u002A,7*%
X146532500Y-107040000D03*
%TD*%
D12*
%TO.P,TP2,1,1*%
%TO.N,GND*%
X122529500Y-135615000D03*
%TD*%
D10*
%TO.P,REF\u002A\u002A,1*%
%TO.N,N/C*%
X110972500Y-56240000D03*
D11*
%TO.P,REF\u002A\u002A,2*%
X113512500Y-56240000D03*
%TO.P,REF\u002A\u002A,3*%
X116052500Y-56240000D03*
%TO.P,REF\u002A\u002A,4*%
X118592500Y-56240000D03*
%TO.P,REF\u002A\u002A,5*%
X121132500Y-56240000D03*
%TO.P,REF\u002A\u002A,6*%
X123672500Y-56240000D03*
%TO.P,REF\u002A\u002A,7*%
X126212500Y-56240000D03*
%TO.P,REF\u002A\u002A,8*%
X128752500Y-56240000D03*
%TO.P,REF\u002A\u002A,9*%
X131292500Y-56240000D03*
%TO.P,REF\u002A\u002A,10*%
X133832500Y-56240000D03*
%TO.P,REF\u002A\u002A,11*%
X136372500Y-56240000D03*
%TO.P,REF\u002A\u002A,12*%
X138912500Y-56240000D03*
%TO.P,REF\u002A\u002A,13*%
X141452500Y-56240000D03*
%TO.P,REF\u002A\u002A,14*%
X143992500Y-56240000D03*
%TD*%
D10*
%TO.P,REF\u002A\u002A,1*%
%TO.N,N/C*%
X131292500Y-86720000D03*
D11*
%TO.P,REF\u002A\u002A,2*%
X133832500Y-86720000D03*
%TO.P,REF\u002A\u002A,3*%
X136372500Y-86720000D03*
%TO.P,REF\u002A\u002A,4*%
X138912500Y-86720000D03*
%TO.P,REF\u002A\u002A,5*%
X141452500Y-86720000D03*
%TO.P,REF\u002A\u002A,6*%
X143992500Y-86720000D03*
%TO.P,REF\u002A\u002A,7*%
X146532500Y-86720000D03*
%TD*%
D10*
%TO.P,REF\u002A\u002A,1*%
%TO.N,N/C*%
X108432500Y-66400000D03*
D11*
%TO.P,REF\u002A\u002A,2*%
X110972500Y-66400000D03*
%TO.P,REF\u002A\u002A,3*%
X113512500Y-66400000D03*
%TO.P,REF\u002A\u002A,4*%
X116052500Y-66400000D03*
%TO.P,REF\u002A\u002A,5*%
X118592500Y-66400000D03*
%TO.P,REF\u002A\u002A,6*%
X121132500Y-66400000D03*
%TO.P,REF\u002A\u002A,7*%
X123672500Y-66400000D03*
%TD*%
D13*
%TO.P,M1,1*%
%TO.N,N/C*%
X103500000Y-52700000D03*
%TD*%
D10*
%TO.P,REF\u002A\u002A,1*%
%TO.N,N/C*%
X131292500Y-96880000D03*
D11*
%TO.P,REF\u002A\u002A,2*%
X133832500Y-96880000D03*
%TO.P,REF\u002A\u002A,3*%
X136372500Y-96880000D03*
%TO.P,REF\u002A\u002A,4*%
X138912500Y-96880000D03*
%TO.P,REF\u002A\u002A,5*%
X141452500Y-96880000D03*
%TO.P,REF\u002A\u002A,6*%
X143992500Y-96880000D03*
%TO.P,REF\u002A\u002A,7*%
X146532500Y-96880000D03*
%TD*%
D10*
%TO.P,REF\u002A\u002A,1*%
%TO.N,N/C*%
X131292500Y-71480000D03*
D11*
%TO.P,REF\u002A\u002A,2*%
X133832500Y-71480000D03*
%TO.P,REF\u002A\u002A,3*%
X136372500Y-71480000D03*
%TO.P,REF\u002A\u002A,4*%
X138912500Y-71480000D03*
%TO.P,REF\u002A\u002A,5*%
X141452500Y-71480000D03*
%TO.P,REF\u002A\u002A,6*%
X143992500Y-71480000D03*
%TO.P,REF\u002A\u002A,7*%
X146532500Y-71480000D03*
%TD*%
D10*
%TO.P,REF\u002A\u002A,1*%
%TO.N,N/C*%
X131292500Y-58780000D03*
D11*
%TO.P,REF\u002A\u002A,2*%
X133832500Y-58780000D03*
%TO.P,REF\u002A\u002A,3*%
X136372500Y-58780000D03*
%TO.P,REF\u002A\u002A,4*%
X138912500Y-58780000D03*
%TO.P,REF\u002A\u002A,5*%
X141452500Y-58780000D03*
%TO.P,REF\u002A\u002A,6*%
X143992500Y-58780000D03*
%TO.P,REF\u002A\u002A,7*%
X146532500Y-58780000D03*
%TD*%
D10*
%TO.P,REF\u002A\u002A,1*%
%TO.N,N/C*%
X108432500Y-81640000D03*
D11*
%TO.P,REF\u002A\u002A,2*%
X110972500Y-81640000D03*
%TO.P,REF\u002A\u002A,3*%
X113512500Y-81640000D03*
%TO.P,REF\u002A\u002A,4*%
X116052500Y-81640000D03*
%TO.P,REF\u002A\u002A,5*%
X118592500Y-81640000D03*
%TO.P,REF\u002A\u002A,6*%
X121132500Y-81640000D03*
%TO.P,REF\u002A\u002A,7*%
X123672500Y-81640000D03*
%TD*%
D10*
%TO.P,REF\u002A\u002A,1*%
%TO.N,N/C*%
X151612500Y-58780000D03*
D11*
%TO.P,REF\u002A\u002A,2*%
X151612500Y-61320000D03*
%TO.P,REF\u002A\u002A,3*%
X151612500Y-63860000D03*
%TO.P,REF\u002A\u002A,4*%
X151612500Y-66400000D03*
%TO.P,REF\u002A\u002A,5*%
X151612500Y-68940000D03*
%TO.P,REF\u002A\u002A,6*%
X151612500Y-71480000D03*
%TO.P,REF\u002A\u002A,7*%
X151612500Y-74020000D03*
%TO.P,REF\u002A\u002A,8*%
X151612500Y-76560000D03*
%TO.P,REF\u002A\u002A,9*%
X151612500Y-79100000D03*
%TO.P,REF\u002A\u002A,10*%
X151612500Y-81640000D03*
%TO.P,REF\u002A\u002A,11*%
X151612500Y-84180000D03*
%TO.P,REF\u002A\u002A,12*%
X151612500Y-86720000D03*
%TO.P,REF\u002A\u002A,13*%
X151612500Y-89260000D03*
%TO.P,REF\u002A\u002A,14*%
X151612500Y-91800000D03*
%TO.P,REF\u002A\u002A,15*%
X151612500Y-94340000D03*
%TO.P,REF\u002A\u002A,16*%
X151612500Y-96880000D03*
%TO.P,REF\u002A\u002A,17*%
X151612500Y-99420000D03*
%TO.P,REF\u002A\u002A,18*%
X151612500Y-101960000D03*
%TO.P,REF\u002A\u002A,19*%
X151612500Y-104500000D03*
%TO.P,REF\u002A\u002A,20*%
X151612500Y-107040000D03*
%TO.P,REF\u002A\u002A,21*%
X151612500Y-109580000D03*
%TO.P,REF\u002A\u002A,22*%
X151612500Y-112120000D03*
%TO.P,REF\u002A\u002A,23*%
X151612500Y-114660000D03*
%TO.P,REF\u002A\u002A,24*%
X151612500Y-117200000D03*
%TO.P,REF\u002A\u002A,25*%
X151612500Y-119740000D03*
%TO.P,REF\u002A\u002A,26*%
X151612500Y-122280000D03*
%TO.P,REF\u002A\u002A,27*%
X151612500Y-124820000D03*
%TO.P,REF\u002A\u002A,28*%
X151612500Y-127360000D03*
%TD*%
D12*
%TO.P,TP1,1,1*%
%TO.N,+5V*%
X129133500Y-135615000D03*
%TD*%
D13*
%TO.P,M1,1*%
%TO.N,N/C*%
X151500000Y-52700000D03*
%TD*%
D10*
%TO.P,REF\u002A\u002A,1*%
%TO.N,N/C*%
X149072500Y-58780000D03*
D11*
%TO.P,REF\u002A\u002A,2*%
X149072500Y-61320000D03*
%TO.P,REF\u002A\u002A,3*%
X149072500Y-63860000D03*
%TO.P,REF\u002A\u002A,4*%
X149072500Y-66400000D03*
%TO.P,REF\u002A\u002A,5*%
X149072500Y-68940000D03*
%TO.P,REF\u002A\u002A,6*%
X149072500Y-71480000D03*
%TO.P,REF\u002A\u002A,7*%
X149072500Y-74020000D03*
%TO.P,REF\u002A\u002A,8*%
X149072500Y-76560000D03*
%TO.P,REF\u002A\u002A,9*%
X149072500Y-79100000D03*
%TO.P,REF\u002A\u002A,10*%
X149072500Y-81640000D03*
%TO.P,REF\u002A\u002A,11*%
X149072500Y-84180000D03*
%TO.P,REF\u002A\u002A,12*%
X149072500Y-86720000D03*
%TO.P,REF\u002A\u002A,13*%
X149072500Y-89260000D03*
%TO.P,REF\u002A\u002A,14*%
X149072500Y-91800000D03*
%TO.P,REF\u002A\u002A,15*%
X149072500Y-94340000D03*
%TO.P,REF\u002A\u002A,16*%
X149072500Y-96880000D03*
%TO.P,REF\u002A\u002A,17*%
X149072500Y-99420000D03*
%TO.P,REF\u002A\u002A,18*%
X149072500Y-101960000D03*
%TO.P,REF\u002A\u002A,19*%
X149072500Y-104500000D03*
%TO.P,REF\u002A\u002A,20*%
X149072500Y-107040000D03*
%TO.P,REF\u002A\u002A,21*%
X149072500Y-109580000D03*
%TO.P,REF\u002A\u002A,22*%
X149072500Y-112120000D03*
%TO.P,REF\u002A\u002A,23*%
X149072500Y-114660000D03*
%TO.P,REF\u002A\u002A,24*%
X149072500Y-117200000D03*
%TO.P,REF\u002A\u002A,25*%
X149072500Y-119740000D03*
%TO.P,REF\u002A\u002A,26*%
X149072500Y-122280000D03*
%TO.P,REF\u002A\u002A,27*%
X149072500Y-124820000D03*
%TO.P,REF\u002A\u002A,28*%
X149072500Y-127360000D03*
%TD*%
D10*
%TO.P,REF\u002A\u002A,1*%
%TO.N,N/C*%
X103352500Y-132440000D03*
D11*
%TO.P,REF\u002A\u002A,2*%
X105892500Y-132440000D03*
%TO.P,REF\u002A\u002A,3*%
X108432500Y-132440000D03*
%TO.P,REF\u002A\u002A,4*%
X110972500Y-132440000D03*
%TO.P,REF\u002A\u002A,5*%
X113512500Y-132440000D03*
%TO.P,REF\u002A\u002A,6*%
X116052500Y-132440000D03*
%TO.P,REF\u002A\u002A,7*%
X118592500Y-132440000D03*
%TO.P,REF\u002A\u002A,8*%
X121132500Y-132440000D03*
%TO.P,REF\u002A\u002A,9*%
X123672500Y-132440000D03*
%TO.P,REF\u002A\u002A,10*%
X126212500Y-132440000D03*
%TO.P,REF\u002A\u002A,11*%
X128752500Y-132440000D03*
%TO.P,REF\u002A\u002A,12*%
X131292500Y-132440000D03*
%TO.P,REF\u002A\u002A,13*%
X133832500Y-132440000D03*
%TO.P,REF\u002A\u002A,14*%
X136372500Y-132440000D03*
%TO.P,REF\u002A\u002A,15*%
X138912500Y-132440000D03*
%TO.P,REF\u002A\u002A,16*%
X141452500Y-132440000D03*
%TO.P,REF\u002A\u002A,17*%
X143992500Y-132440000D03*
%TO.P,REF\u002A\u002A,18*%
X146532500Y-132440000D03*
%TO.P,REF\u002A\u002A,19*%
X149072500Y-132440000D03*
%TO.P,REF\u002A\u002A,20*%
X151612500Y-132440000D03*
%TD*%
D10*
%TO.P,REF\u002A\u002A,1*%
%TO.N,N/C*%
X131292500Y-81640000D03*
D11*
%TO.P,REF\u002A\u002A,2*%
X133832500Y-81640000D03*
%TO.P,REF\u002A\u002A,3*%
X136372500Y-81640000D03*
%TO.P,REF\u002A\u002A,4*%
X138912500Y-81640000D03*
%TO.P,REF\u002A\u002A,5*%
X141452500Y-81640000D03*
%TO.P,REF\u002A\u002A,6*%
X143992500Y-81640000D03*
%TO.P,REF\u002A\u002A,7*%
X146532500Y-81640000D03*
%TD*%
D10*
%TO.P,REF\u002A\u002A,1*%
%TO.N,N/C*%
X103352500Y-129900000D03*
D11*
%TO.P,REF\u002A\u002A,2*%
X105892500Y-129900000D03*
%TO.P,REF\u002A\u002A,3*%
X108432500Y-129900000D03*
%TO.P,REF\u002A\u002A,4*%
X110972500Y-129900000D03*
%TO.P,REF\u002A\u002A,5*%
X113512500Y-129900000D03*
%TO.P,REF\u002A\u002A,6*%
X116052500Y-129900000D03*
%TO.P,REF\u002A\u002A,7*%
X118592500Y-129900000D03*
%TO.P,REF\u002A\u002A,8*%
X121132500Y-129900000D03*
%TO.P,REF\u002A\u002A,9*%
X123672500Y-129900000D03*
%TO.P,REF\u002A\u002A,10*%
X126212500Y-129900000D03*
%TO.P,REF\u002A\u002A,11*%
X128752500Y-129900000D03*
%TO.P,REF\u002A\u002A,12*%
X131292500Y-129900000D03*
%TO.P,REF\u002A\u002A,13*%
X133832500Y-129900000D03*
%TO.P,REF\u002A\u002A,14*%
X136372500Y-129900000D03*
%TO.P,REF\u002A\u002A,15*%
X138912500Y-129900000D03*
%TO.P,REF\u002A\u002A,16*%
X141452500Y-129900000D03*
%TO.P,REF\u002A\u002A,17*%
X143992500Y-129900000D03*
%TO.P,REF\u002A\u002A,18*%
X146532500Y-129900000D03*
%TO.P,REF\u002A\u002A,19*%
X149072500Y-129900000D03*
%TO.P,REF\u002A\u002A,20*%
X151612500Y-129900000D03*
%TD*%
D10*
%TO.P,REF\u002A\u002A,1*%
%TO.N,N/C*%
X108432500Y-104500000D03*
D11*
%TO.P,REF\u002A\u002A,2*%
X110972500Y-104500000D03*
%TO.P,REF\u002A\u002A,3*%
X113512500Y-104500000D03*
%TO.P,REF\u002A\u002A,4*%
X116052500Y-104500000D03*
%TO.P,REF\u002A\u002A,5*%
X118592500Y-104500000D03*
%TO.P,REF\u002A\u002A,6*%
X121132500Y-104500000D03*
%TO.P,REF\u002A\u002A,7*%
X123672500Y-104500000D03*
%TD*%
D10*
%TO.P,REF\u002A\u002A,1*%
%TO.N,N/C*%
X131292500Y-124820000D03*
D11*
%TO.P,REF\u002A\u002A,2*%
X133832500Y-124820000D03*
%TO.P,REF\u002A\u002A,3*%
X136372500Y-124820000D03*
%TO.P,REF\u002A\u002A,4*%
X138912500Y-124820000D03*
%TO.P,REF\u002A\u002A,5*%
X141452500Y-124820000D03*
%TO.P,REF\u002A\u002A,6*%
X143992500Y-124820000D03*
%TO.P,REF\u002A\u002A,7*%
X146532500Y-124820000D03*
%TD*%
D10*
%TO.P,REF\u002A\u002A,1*%
%TO.N,N/C*%
X103327500Y-134980000D03*
D11*
%TO.P,REF\u002A\u002A,2*%
X105867500Y-134980000D03*
%TO.P,REF\u002A\u002A,3*%
X108407500Y-134980000D03*
%TO.P,REF\u002A\u002A,4*%
X110947500Y-134980000D03*
%TO.P,REF\u002A\u002A,5*%
X113487500Y-134980000D03*
%TO.P,REF\u002A\u002A,6*%
X116027500Y-134980000D03*
%TD*%
D10*
%TO.P,REF\u002A\u002A,1*%
%TO.N,N/C*%
X108432500Y-76560000D03*
D11*
%TO.P,REF\u002A\u002A,2*%
X110972500Y-76560000D03*
%TO.P,REF\u002A\u002A,3*%
X113512500Y-76560000D03*
%TO.P,REF\u002A\u002A,4*%
X116052500Y-76560000D03*
%TO.P,REF\u002A\u002A,5*%
X118592500Y-76560000D03*
%TO.P,REF\u002A\u002A,6*%
X121132500Y-76560000D03*
%TO.P,REF\u002A\u002A,7*%
X123672500Y-76560000D03*
%TD*%
D10*
%TO.P,REF\u002A\u002A,1*%
%TO.N,N/C*%
X131292500Y-117200000D03*
D11*
%TO.P,REF\u002A\u002A,2*%
X133832500Y-117200000D03*
%TO.P,REF\u002A\u002A,3*%
X136372500Y-117200000D03*
%TO.P,REF\u002A\u002A,4*%
X138912500Y-117200000D03*
%TO.P,REF\u002A\u002A,5*%
X141452500Y-117200000D03*
%TO.P,REF\u002A\u002A,6*%
X143992500Y-117200000D03*
%TO.P,REF\u002A\u002A,7*%
X146532500Y-117200000D03*
%TD*%
D10*
%TO.P,REF\u002A\u002A,1*%
%TO.N,N/C*%
X138912500Y-137520000D03*
D11*
%TO.P,REF\u002A\u002A,2*%
X141452500Y-137520000D03*
%TO.P,REF\u002A\u002A,3*%
X143992500Y-137520000D03*
%TO.P,REF\u002A\u002A,4*%
X146532500Y-137520000D03*
%TO.P,REF\u002A\u002A,5*%
X149072500Y-137520000D03*
%TO.P,REF\u002A\u002A,6*%
X151612500Y-137520000D03*
%TD*%
D10*
%TO.P,REF\u002A\u002A,1*%
%TO.N,N/C*%
X131292500Y-127360000D03*
D11*
%TO.P,REF\u002A\u002A,2*%
X133832500Y-127360000D03*
%TO.P,REF\u002A\u002A,3*%
X136372500Y-127360000D03*
%TO.P,REF\u002A\u002A,4*%
X138912500Y-127360000D03*
%TO.P,REF\u002A\u002A,5*%
X141452500Y-127360000D03*
%TO.P,REF\u002A\u002A,6*%
X143992500Y-127360000D03*
%TO.P,REF\u002A\u002A,7*%
X146532500Y-127360000D03*
%TD*%
D10*
%TO.P,REF\u002A\u002A,1*%
%TO.N,N/C*%
X110972500Y-51160000D03*
D11*
%TO.P,REF\u002A\u002A,2*%
X113512500Y-51160000D03*
%TO.P,REF\u002A\u002A,3*%
X116052500Y-51160000D03*
%TO.P,REF\u002A\u002A,4*%
X118592500Y-51160000D03*
%TO.P,REF\u002A\u002A,5*%
X121132500Y-51160000D03*
%TO.P,REF\u002A\u002A,6*%
X123672500Y-51160000D03*
%TO.P,REF\u002A\u002A,7*%
X126212500Y-51160000D03*
%TO.P,REF\u002A\u002A,8*%
X128752500Y-51160000D03*
%TO.P,REF\u002A\u002A,9*%
X131292500Y-51160000D03*
%TO.P,REF\u002A\u002A,10*%
X133832500Y-51160000D03*
%TO.P,REF\u002A\u002A,11*%
X136372500Y-51160000D03*
%TO.P,REF\u002A\u002A,12*%
X138912500Y-51160000D03*
%TO.P,REF\u002A\u002A,13*%
X141452500Y-51160000D03*
%TO.P,REF\u002A\u002A,14*%
X143992500Y-51160000D03*
%TD*%
D10*
%TO.P,REF\u002A\u002A,1*%
%TO.N,N/C*%
X108432500Y-58780000D03*
D11*
%TO.P,REF\u002A\u002A,2*%
X110972500Y-58780000D03*
%TO.P,REF\u002A\u002A,3*%
X113512500Y-58780000D03*
%TO.P,REF\u002A\u002A,4*%
X116052500Y-58780000D03*
%TO.P,REF\u002A\u002A,5*%
X118592500Y-58780000D03*
%TO.P,REF\u002A\u002A,6*%
X121132500Y-58780000D03*
%TO.P,REF\u002A\u002A,7*%
X123672500Y-58780000D03*
%TD*%
D10*
%TO.P,REF\u002A\u002A,1*%
%TO.N,N/C*%
X108432500Y-71480000D03*
D11*
%TO.P,REF\u002A\u002A,2*%
X110972500Y-71480000D03*
%TO.P,REF\u002A\u002A,3*%
X113512500Y-71480000D03*
%TO.P,REF\u002A\u002A,4*%
X116052500Y-71480000D03*
%TO.P,REF\u002A\u002A,5*%
X118592500Y-71480000D03*
%TO.P,REF\u002A\u002A,6*%
X121132500Y-71480000D03*
%TO.P,REF\u002A\u002A,7*%
X123672500Y-71480000D03*
%TD*%
D10*
%TO.P,REF\u002A\u002A,1*%
%TO.N,N/C*%
X131292500Y-79100000D03*
D11*
%TO.P,REF\u002A\u002A,2*%
X133832500Y-79100000D03*
%TO.P,REF\u002A\u002A,3*%
X136372500Y-79100000D03*
%TO.P,REF\u002A\u002A,4*%
X138912500Y-79100000D03*
%TO.P,REF\u002A\u002A,5*%
X141452500Y-79100000D03*
%TO.P,REF\u002A\u002A,6*%
X143992500Y-79100000D03*
%TO.P,REF\u002A\u002A,7*%
X146532500Y-79100000D03*
%TD*%
D10*
%TO.P,REF\u002A\u002A,1*%
%TO.N,N/C*%
X108432500Y-63860000D03*
D11*
%TO.P,REF\u002A\u002A,2*%
X110972500Y-63860000D03*
%TO.P,REF\u002A\u002A,3*%
X113512500Y-63860000D03*
%TO.P,REF\u002A\u002A,4*%
X116052500Y-63860000D03*
%TO.P,REF\u002A\u002A,5*%
X118592500Y-63860000D03*
%TO.P,REF\u002A\u002A,6*%
X121132500Y-63860000D03*
%TO.P,REF\u002A\u002A,7*%
X123672500Y-63860000D03*
%TD*%
D12*
%TO.P,TP4,1,1*%
%TO.N,-12V*%
X119227500Y-135615000D03*
%TD*%
D10*
%TO.P,REF\u002A\u002A,1*%
%TO.N,N/C*%
X131292500Y-66400000D03*
D11*
%TO.P,REF\u002A\u002A,2*%
X133832500Y-66400000D03*
%TO.P,REF\u002A\u002A,3*%
X136372500Y-66400000D03*
%TO.P,REF\u002A\u002A,4*%
X138912500Y-66400000D03*
%TO.P,REF\u002A\u002A,5*%
X141452500Y-66400000D03*
%TO.P,REF\u002A\u002A,6*%
X143992500Y-66400000D03*
%TO.P,REF\u002A\u002A,7*%
X146532500Y-66400000D03*
%TD*%
D10*
%TO.P,REF\u002A\u002A,1*%
%TO.N,N/C*%
X108432500Y-96880000D03*
D11*
%TO.P,REF\u002A\u002A,2*%
X110972500Y-96880000D03*
%TO.P,REF\u002A\u002A,3*%
X113512500Y-96880000D03*
%TO.P,REF\u002A\u002A,4*%
X116052500Y-96880000D03*
%TO.P,REF\u002A\u002A,5*%
X118592500Y-96880000D03*
%TO.P,REF\u002A\u002A,6*%
X121132500Y-96880000D03*
%TO.P,REF\u002A\u002A,7*%
X123672500Y-96880000D03*
%TD*%
D10*
%TO.P,REF\u002A\u002A,1*%
%TO.N,N/C*%
X131292500Y-119740000D03*
D11*
%TO.P,REF\u002A\u002A,2*%
X133832500Y-119740000D03*
%TO.P,REF\u002A\u002A,3*%
X136372500Y-119740000D03*
%TO.P,REF\u002A\u002A,4*%
X138912500Y-119740000D03*
%TO.P,REF\u002A\u002A,5*%
X141452500Y-119740000D03*
%TO.P,REF\u002A\u002A,6*%
X143992500Y-119740000D03*
%TO.P,REF\u002A\u002A,7*%
X146532500Y-119740000D03*
%TD*%
D12*
%TO.P,TP6,1,1*%
%TO.N,GATE*%
X135737500Y-135615000D03*
%TD*%
D10*
%TO.P,REF\u002A\u002A,1*%
%TO.N,N/C*%
X126212500Y-58780000D03*
D11*
%TO.P,REF\u002A\u002A,2*%
X126212500Y-61320000D03*
%TO.P,REF\u002A\u002A,3*%
X126212500Y-63860000D03*
%TO.P,REF\u002A\u002A,4*%
X126212500Y-66400000D03*
%TO.P,REF\u002A\u002A,5*%
X126212500Y-68940000D03*
%TO.P,REF\u002A\u002A,6*%
X126212500Y-71480000D03*
%TO.P,REF\u002A\u002A,7*%
X126212500Y-74020000D03*
%TO.P,REF\u002A\u002A,8*%
X126212500Y-76560000D03*
%TO.P,REF\u002A\u002A,9*%
X126212500Y-79100000D03*
%TO.P,REF\u002A\u002A,10*%
X126212500Y-81640000D03*
%TO.P,REF\u002A\u002A,11*%
X126212500Y-84180000D03*
%TO.P,REF\u002A\u002A,12*%
X126212500Y-86720000D03*
%TO.P,REF\u002A\u002A,13*%
X126212500Y-89260000D03*
%TO.P,REF\u002A\u002A,14*%
X126212500Y-91800000D03*
%TO.P,REF\u002A\u002A,15*%
X126212500Y-94340000D03*
%TO.P,REF\u002A\u002A,16*%
X126212500Y-96880000D03*
%TO.P,REF\u002A\u002A,17*%
X126212500Y-99420000D03*
%TO.P,REF\u002A\u002A,18*%
X126212500Y-101960000D03*
%TO.P,REF\u002A\u002A,19*%
X126212500Y-104500000D03*
%TO.P,REF\u002A\u002A,20*%
X126212500Y-107040000D03*
%TO.P,REF\u002A\u002A,21*%
X126212500Y-109580000D03*
%TO.P,REF\u002A\u002A,22*%
X126212500Y-112120000D03*
%TO.P,REF\u002A\u002A,23*%
X126212500Y-114660000D03*
%TO.P,REF\u002A\u002A,24*%
X126212500Y-117200000D03*
%TO.P,REF\u002A\u002A,25*%
X126212500Y-119740000D03*
%TO.P,REF\u002A\u002A,26*%
X126212500Y-122280000D03*
%TO.P,REF\u002A\u002A,27*%
X126212500Y-124820000D03*
%TO.P,REF\u002A\u002A,28*%
X126212500Y-127360000D03*
%TD*%
D10*
%TO.P,REF\u002A\u002A,1*%
%TO.N,N/C*%
X108432500Y-89260000D03*
D11*
%TO.P,REF\u002A\u002A,2*%
X110972500Y-89260000D03*
%TO.P,REF\u002A\u002A,3*%
X113512500Y-89260000D03*
%TO.P,REF\u002A\u002A,4*%
X116052500Y-89260000D03*
%TO.P,REF\u002A\u002A,5*%
X118592500Y-89260000D03*
%TO.P,REF\u002A\u002A,6*%
X121132500Y-89260000D03*
%TO.P,REF\u002A\u002A,7*%
X123672500Y-89260000D03*
%TD*%
D10*
%TO.P,REF\u002A\u002A,1*%
%TO.N,N/C*%
X131292500Y-114660000D03*
D11*
%TO.P,REF\u002A\u002A,2*%
X133832500Y-114660000D03*
%TO.P,REF\u002A\u002A,3*%
X136372500Y-114660000D03*
%TO.P,REF\u002A\u002A,4*%
X138912500Y-114660000D03*
%TO.P,REF\u002A\u002A,5*%
X141452500Y-114660000D03*
%TO.P,REF\u002A\u002A,6*%
X143992500Y-114660000D03*
%TO.P,REF\u002A\u002A,7*%
X146532500Y-114660000D03*
%TD*%
D10*
%TO.P,REF\u002A\u002A,1*%
%TO.N,N/C*%
X108432500Y-124820000D03*
D11*
%TO.P,REF\u002A\u002A,2*%
X110972500Y-124820000D03*
%TO.P,REF\u002A\u002A,3*%
X113512500Y-124820000D03*
%TO.P,REF\u002A\u002A,4*%
X116052500Y-124820000D03*
%TO.P,REF\u002A\u002A,5*%
X118592500Y-124820000D03*
%TO.P,REF\u002A\u002A,6*%
X121132500Y-124820000D03*
%TO.P,REF\u002A\u002A,7*%
X123672500Y-124820000D03*
%TD*%
D10*
%TO.P,REF\u002A\u002A,1*%
%TO.N,N/C*%
X131292500Y-101960000D03*
D11*
%TO.P,REF\u002A\u002A,2*%
X133832500Y-101960000D03*
%TO.P,REF\u002A\u002A,3*%
X136372500Y-101960000D03*
%TO.P,REF\u002A\u002A,4*%
X138912500Y-101960000D03*
%TO.P,REF\u002A\u002A,5*%
X141452500Y-101960000D03*
%TO.P,REF\u002A\u002A,6*%
X143992500Y-101960000D03*
%TO.P,REF\u002A\u002A,7*%
X146532500Y-101960000D03*
%TD*%
D10*
%TO.P,REF\u002A\u002A,1*%
%TO.N,N/C*%
X131292500Y-61320000D03*
D11*
%TO.P,REF\u002A\u002A,2*%
X133832500Y-61320000D03*
%TO.P,REF\u002A\u002A,3*%
X136372500Y-61320000D03*
%TO.P,REF\u002A\u002A,4*%
X138912500Y-61320000D03*
%TO.P,REF\u002A\u002A,5*%
X141452500Y-61320000D03*
%TO.P,REF\u002A\u002A,6*%
X143992500Y-61320000D03*
%TO.P,REF\u002A\u002A,7*%
X146532500Y-61320000D03*
%TD*%
D10*
%TO.P,REF\u002A\u002A,1*%
%TO.N,N/C*%
X108432500Y-109580000D03*
D11*
%TO.P,REF\u002A\u002A,2*%
X110972500Y-109580000D03*
%TO.P,REF\u002A\u002A,3*%
X113512500Y-109580000D03*
%TO.P,REF\u002A\u002A,4*%
X116052500Y-109580000D03*
%TO.P,REF\u002A\u002A,5*%
X118592500Y-109580000D03*
%TO.P,REF\u002A\u002A,6*%
X121132500Y-109580000D03*
%TO.P,REF\u002A\u002A,7*%
X123672500Y-109580000D03*
%TD*%
D10*
%TO.P,REF\u002A\u002A,1*%
%TO.N,N/C*%
X105892500Y-58780000D03*
D11*
%TO.P,REF\u002A\u002A,2*%
X105892500Y-61320000D03*
%TO.P,REF\u002A\u002A,3*%
X105892500Y-63860000D03*
%TO.P,REF\u002A\u002A,4*%
X105892500Y-66400000D03*
%TO.P,REF\u002A\u002A,5*%
X105892500Y-68940000D03*
%TO.P,REF\u002A\u002A,6*%
X105892500Y-71480000D03*
%TO.P,REF\u002A\u002A,7*%
X105892500Y-74020000D03*
%TO.P,REF\u002A\u002A,8*%
X105892500Y-76560000D03*
%TO.P,REF\u002A\u002A,9*%
X105892500Y-79100000D03*
%TO.P,REF\u002A\u002A,10*%
X105892500Y-81640000D03*
%TO.P,REF\u002A\u002A,11*%
X105892500Y-84180000D03*
%TO.P,REF\u002A\u002A,12*%
X105892500Y-86720000D03*
%TO.P,REF\u002A\u002A,13*%
X105892500Y-89260000D03*
%TO.P,REF\u002A\u002A,14*%
X105892500Y-91800000D03*
%TO.P,REF\u002A\u002A,15*%
X105892500Y-94340000D03*
%TO.P,REF\u002A\u002A,16*%
X105892500Y-96880000D03*
%TO.P,REF\u002A\u002A,17*%
X105892500Y-99420000D03*
%TO.P,REF\u002A\u002A,18*%
X105892500Y-101960000D03*
%TO.P,REF\u002A\u002A,19*%
X105892500Y-104500000D03*
%TO.P,REF\u002A\u002A,20*%
X105892500Y-107040000D03*
%TO.P,REF\u002A\u002A,21*%
X105892500Y-109580000D03*
%TO.P,REF\u002A\u002A,22*%
X105892500Y-112120000D03*
%TO.P,REF\u002A\u002A,23*%
X105892500Y-114660000D03*
%TO.P,REF\u002A\u002A,24*%
X105892500Y-117200000D03*
%TO.P,REF\u002A\u002A,25*%
X105892500Y-119740000D03*
%TO.P,REF\u002A\u002A,26*%
X105892500Y-122280000D03*
%TO.P,REF\u002A\u002A,27*%
X105892500Y-124820000D03*
%TO.P,REF\u002A\u002A,28*%
X105892500Y-127360000D03*
%TD*%
M02*
