%TF.GenerationSoftware,KiCad,Pcbnew,8.0.3*%
%TF.CreationDate,2024-07-08T20:03:56-04:00*%
%TF.ProjectId,eurorack-power-bus,6575726f-7261-4636-9b2d-706f7765722d,rev?*%
%TF.SameCoordinates,Original*%
%TF.FileFunction,Copper,L1,Top*%
%TF.FilePolarity,Positive*%
%FSLAX46Y46*%
G04 Gerber Fmt 4.6, Leading zero omitted, Abs format (unit mm)*
G04 Created by KiCad (PCBNEW 8.0.3) date 2024-07-08 20:03:56*
%MOMM*%
%LPD*%
G01*
G04 APERTURE LIST*
G04 Aperture macros list*
%AMRoundRect*
0 Rectangle with rounded corners*
0 $1 Rounding radius*
0 $2 $3 $4 $5 $6 $7 $8 $9 X,Y pos of 4 corners*
0 Add a 4 corners polygon primitive as box body*
4,1,4,$2,$3,$4,$5,$6,$7,$8,$9,$2,$3,0*
0 Add four circle primitives for the rounded corners*
1,1,$1+$1,$2,$3*
1,1,$1+$1,$4,$5*
1,1,$1+$1,$6,$7*
1,1,$1+$1,$8,$9*
0 Add four rect primitives between the rounded corners*
20,1,$1+$1,$2,$3,$4,$5,0*
20,1,$1+$1,$4,$5,$6,$7,0*
20,1,$1+$1,$6,$7,$8,$9,0*
20,1,$1+$1,$8,$9,$2,$3,0*%
G04 Aperture macros list end*
%TA.AperFunction,ComponentPad*%
%ADD10RoundRect,0.250000X-0.600000X-0.600000X0.600000X-0.600000X0.600000X0.600000X-0.600000X0.600000X0*%
%TD*%
%TA.AperFunction,ComponentPad*%
%ADD11C,1.700000*%
%TD*%
%TA.AperFunction,ComponentPad*%
%ADD12C,6.400000*%
%TD*%
%TA.AperFunction,ComponentPad*%
%ADD13RoundRect,0.250000X0.600000X0.600000X-0.600000X0.600000X-0.600000X-0.600000X0.600000X-0.600000X0*%
%TD*%
%TA.AperFunction,ComponentPad*%
%ADD14RoundRect,0.250000X0.600000X-0.600000X0.600000X0.600000X-0.600000X0.600000X-0.600000X-0.600000X0*%
%TD*%
%TA.AperFunction,ComponentPad*%
%ADD15RoundRect,0.250000X-0.600000X0.600000X-0.600000X-0.600000X0.600000X-0.600000X0.600000X0.600000X0*%
%TD*%
%TA.AperFunction,Conductor*%
%ADD16C,0.300000*%
%TD*%
G04 APERTURE END LIST*
D10*
%TO.P,J10,1,Pin_1*%
%TO.N,Net-(J1-Pin_1)*%
X179747500Y-83720000D03*
D11*
%TO.P,J10,2,Pin_2*%
X182287500Y-83720000D03*
%TO.P,J10,3,Pin_3*%
%TO.N,Net-(J1-Pin_3)*%
X179747500Y-86260000D03*
%TO.P,J10,4,Pin_4*%
X182287500Y-86260000D03*
%TO.P,J10,5,Pin_5*%
%TO.N,Net-(J1-Pin_5)*%
X179747500Y-88800000D03*
%TO.P,J10,6,Pin_6*%
X182287500Y-88800000D03*
%TO.P,J10,7,Pin_7*%
%TO.N,Net-(J1-Pin_7)*%
X179747500Y-91340000D03*
%TO.P,J10,8,Pin_8*%
X182287500Y-91340000D03*
%TO.P,J10,9,Pin_9*%
%TO.N,Net-(J1-Pin_10)*%
X179747500Y-93880000D03*
%TO.P,J10,10,Pin_10*%
X182287500Y-93880000D03*
%TO.P,J10,11,Pin_11*%
%TO.N,Net-(J1-Pin_11)*%
X179747500Y-96420000D03*
%TO.P,J10,12,Pin_12*%
X182287500Y-96420000D03*
%TO.P,J10,13,Pin_13*%
%TO.N,Net-(J1-Pin_13)*%
X179747500Y-98960000D03*
%TO.P,J10,14,Pin_14*%
X182287500Y-98960000D03*
%TO.P,J10,15,Pin_15*%
%TO.N,Net-(J1-Pin_15)*%
X179747500Y-101500000D03*
%TO.P,J10,16,Pin_16*%
X182287500Y-101500000D03*
%TD*%
D12*
%TO.P,M4,1*%
%TO.N,N/C*%
X185000000Y-148500000D03*
%TD*%
D13*
%TO.P,J18,1,Pin_1*%
%TO.N,Net-(J1-Pin_1)*%
X98597500Y-135540000D03*
D11*
%TO.P,J18,2,Pin_2*%
X96057500Y-135540000D03*
%TO.P,J18,3,Pin_3*%
%TO.N,Net-(J1-Pin_3)*%
X98597500Y-133000000D03*
%TO.P,J18,4,Pin_4*%
X96057500Y-133000000D03*
%TO.P,J18,5,Pin_5*%
%TO.N,Net-(J1-Pin_5)*%
X98597500Y-130460000D03*
%TO.P,J18,6,Pin_6*%
X96057500Y-130460000D03*
%TO.P,J18,7,Pin_7*%
%TO.N,Net-(J1-Pin_7)*%
X98597500Y-127920000D03*
%TO.P,J18,8,Pin_8*%
X96057500Y-127920000D03*
%TO.P,J18,9,Pin_9*%
%TO.N,Net-(J1-Pin_10)*%
X98597500Y-125380000D03*
%TO.P,J18,10,Pin_10*%
X96057500Y-125380000D03*
%TO.P,J18,11,Pin_11*%
%TO.N,Net-(J1-Pin_11)*%
X98597500Y-122840000D03*
%TO.P,J18,12,Pin_12*%
X96057500Y-122840000D03*
%TO.P,J18,13,Pin_13*%
%TO.N,Net-(J1-Pin_13)*%
X98597500Y-120300000D03*
%TO.P,J18,14,Pin_14*%
X96057500Y-120300000D03*
%TO.P,J18,15,Pin_15*%
%TO.N,Net-(J1-Pin_15)*%
X98597500Y-117760000D03*
%TO.P,J18,16,Pin_16*%
X96057500Y-117760000D03*
%TD*%
D10*
%TO.P,J5,1,Pin_1*%
%TO.N,Net-(J1-Pin_1)*%
X119762500Y-83720000D03*
D11*
%TO.P,J5,2,Pin_2*%
X122302500Y-83720000D03*
%TO.P,J5,3,Pin_3*%
%TO.N,Net-(J1-Pin_3)*%
X119762500Y-86260000D03*
%TO.P,J5,4,Pin_4*%
X122302500Y-86260000D03*
%TO.P,J5,5,Pin_5*%
%TO.N,Net-(J1-Pin_5)*%
X119762500Y-88800000D03*
%TO.P,J5,6,Pin_6*%
X122302500Y-88800000D03*
%TO.P,J5,7,Pin_7*%
%TO.N,Net-(J1-Pin_7)*%
X119762500Y-91340000D03*
%TO.P,J5,8,Pin_8*%
X122302500Y-91340000D03*
%TO.P,J5,9,Pin_9*%
%TO.N,Net-(J1-Pin_10)*%
X119762500Y-93880000D03*
%TO.P,J5,10,Pin_10*%
X122302500Y-93880000D03*
%TO.P,J5,11,Pin_11*%
%TO.N,Net-(J1-Pin_11)*%
X119762500Y-96420000D03*
%TO.P,J5,12,Pin_12*%
X122302500Y-96420000D03*
%TO.P,J5,13,Pin_13*%
%TO.N,Net-(J1-Pin_13)*%
X119762500Y-98960000D03*
%TO.P,J5,14,Pin_14*%
X122302500Y-98960000D03*
%TO.P,J5,15,Pin_15*%
%TO.N,Net-(J1-Pin_15)*%
X119762500Y-101500000D03*
%TO.P,J5,16,Pin_16*%
X122302500Y-101500000D03*
%TD*%
D13*
%TO.P,J16,1,Pin_1*%
%TO.N,Net-(J1-Pin_1)*%
X122567500Y-135540000D03*
D11*
%TO.P,J16,2,Pin_2*%
X120027500Y-135540000D03*
%TO.P,J16,3,Pin_3*%
%TO.N,Net-(J1-Pin_3)*%
X122567500Y-133000000D03*
%TO.P,J16,4,Pin_4*%
X120027500Y-133000000D03*
%TO.P,J16,5,Pin_5*%
%TO.N,Net-(J1-Pin_5)*%
X122567500Y-130460000D03*
%TO.P,J16,6,Pin_6*%
X120027500Y-130460000D03*
%TO.P,J16,7,Pin_7*%
%TO.N,Net-(J1-Pin_7)*%
X122567500Y-127920000D03*
%TO.P,J16,8,Pin_8*%
X120027500Y-127920000D03*
%TO.P,J16,9,Pin_9*%
%TO.N,Net-(J1-Pin_10)*%
X122567500Y-125380000D03*
%TO.P,J16,10,Pin_10*%
X120027500Y-125380000D03*
%TO.P,J16,11,Pin_11*%
%TO.N,Net-(J1-Pin_11)*%
X122567500Y-122840000D03*
%TO.P,J16,12,Pin_12*%
X120027500Y-122840000D03*
%TO.P,J16,13,Pin_13*%
%TO.N,Net-(J1-Pin_13)*%
X122567500Y-120300000D03*
%TO.P,J16,14,Pin_14*%
X120027500Y-120300000D03*
%TO.P,J16,15,Pin_15*%
%TO.N,Net-(J1-Pin_15)*%
X122567500Y-117760000D03*
%TO.P,J16,16,Pin_16*%
X120027500Y-117760000D03*
%TD*%
D10*
%TO.P,J3,1,Pin_1*%
%TO.N,Net-(J1-Pin_1)*%
X95792500Y-83720000D03*
D11*
%TO.P,J3,2,Pin_2*%
X98332500Y-83720000D03*
%TO.P,J3,3,Pin_3*%
%TO.N,Net-(J1-Pin_3)*%
X95792500Y-86260000D03*
%TO.P,J3,4,Pin_4*%
X98332500Y-86260000D03*
%TO.P,J3,5,Pin_5*%
%TO.N,Net-(J1-Pin_5)*%
X95792500Y-88800000D03*
%TO.P,J3,6,Pin_6*%
X98332500Y-88800000D03*
%TO.P,J3,7,Pin_7*%
%TO.N,Net-(J1-Pin_7)*%
X95792500Y-91340000D03*
%TO.P,J3,8,Pin_8*%
X98332500Y-91340000D03*
%TO.P,J3,9,Pin_9*%
%TO.N,Net-(J1-Pin_10)*%
X95792500Y-93880000D03*
%TO.P,J3,10,Pin_10*%
X98332500Y-93880000D03*
%TO.P,J3,11,Pin_11*%
%TO.N,Net-(J1-Pin_11)*%
X95792500Y-96420000D03*
%TO.P,J3,12,Pin_12*%
X98332500Y-96420000D03*
%TO.P,J3,13,Pin_13*%
%TO.N,Net-(J1-Pin_13)*%
X95792500Y-98960000D03*
%TO.P,J3,14,Pin_14*%
X98332500Y-98960000D03*
%TO.P,J3,15,Pin_15*%
%TO.N,Net-(J1-Pin_15)*%
X95792500Y-101500000D03*
%TO.P,J3,16,Pin_16*%
X98332500Y-101500000D03*
%TD*%
D13*
%TO.P,J15,1,Pin_1*%
%TO.N,Net-(J1-Pin_1)*%
X134552500Y-135540000D03*
D11*
%TO.P,J15,2,Pin_2*%
X132012500Y-135540000D03*
%TO.P,J15,3,Pin_3*%
%TO.N,Net-(J1-Pin_3)*%
X134552500Y-133000000D03*
%TO.P,J15,4,Pin_4*%
X132012500Y-133000000D03*
%TO.P,J15,5,Pin_5*%
%TO.N,Net-(J1-Pin_5)*%
X134552500Y-130460000D03*
%TO.P,J15,6,Pin_6*%
X132012500Y-130460000D03*
%TO.P,J15,7,Pin_7*%
%TO.N,Net-(J1-Pin_7)*%
X134552500Y-127920000D03*
%TO.P,J15,8,Pin_8*%
X132012500Y-127920000D03*
%TO.P,J15,9,Pin_9*%
%TO.N,Net-(J1-Pin_10)*%
X134552500Y-125380000D03*
%TO.P,J15,10,Pin_10*%
X132012500Y-125380000D03*
%TO.P,J15,11,Pin_11*%
%TO.N,Net-(J1-Pin_11)*%
X134552500Y-122840000D03*
%TO.P,J15,12,Pin_12*%
X132012500Y-122840000D03*
%TO.P,J15,13,Pin_13*%
%TO.N,Net-(J1-Pin_13)*%
X134552500Y-120300000D03*
%TO.P,J15,14,Pin_14*%
X132012500Y-120300000D03*
%TO.P,J15,15,Pin_15*%
%TO.N,Net-(J1-Pin_15)*%
X134552500Y-117760000D03*
%TO.P,J15,16,Pin_16*%
X132012500Y-117760000D03*
%TD*%
D13*
%TO.P,J17,1,Pin_1*%
%TO.N,Net-(J1-Pin_1)*%
X110582500Y-135540000D03*
D11*
%TO.P,J17,2,Pin_2*%
X108042500Y-135540000D03*
%TO.P,J17,3,Pin_3*%
%TO.N,Net-(J1-Pin_3)*%
X110582500Y-133000000D03*
%TO.P,J17,4,Pin_4*%
X108042500Y-133000000D03*
%TO.P,J17,5,Pin_5*%
%TO.N,Net-(J1-Pin_5)*%
X110582500Y-130460000D03*
%TO.P,J17,6,Pin_6*%
X108042500Y-130460000D03*
%TO.P,J17,7,Pin_7*%
%TO.N,Net-(J1-Pin_7)*%
X110582500Y-127920000D03*
%TO.P,J17,8,Pin_8*%
X108042500Y-127920000D03*
%TO.P,J17,9,Pin_9*%
%TO.N,Net-(J1-Pin_10)*%
X110582500Y-125380000D03*
%TO.P,J17,10,Pin_10*%
X108042500Y-125380000D03*
%TO.P,J17,11,Pin_11*%
%TO.N,Net-(J1-Pin_11)*%
X110582500Y-122840000D03*
%TO.P,J17,12,Pin_12*%
X108042500Y-122840000D03*
%TO.P,J17,13,Pin_13*%
%TO.N,Net-(J1-Pin_13)*%
X110582500Y-120300000D03*
%TO.P,J17,14,Pin_14*%
X108042500Y-120300000D03*
%TO.P,J17,15,Pin_15*%
%TO.N,Net-(J1-Pin_15)*%
X110582500Y-117760000D03*
%TO.P,J17,16,Pin_16*%
X108042500Y-117760000D03*
%TD*%
D13*
%TO.P,J12,1,Pin_1*%
%TO.N,Net-(J1-Pin_1)*%
X170562500Y-135540000D03*
D11*
%TO.P,J12,2,Pin_2*%
X168022500Y-135540000D03*
%TO.P,J12,3,Pin_3*%
%TO.N,Net-(J1-Pin_3)*%
X170562500Y-133000000D03*
%TO.P,J12,4,Pin_4*%
X168022500Y-133000000D03*
%TO.P,J12,5,Pin_5*%
%TO.N,Net-(J1-Pin_5)*%
X170562500Y-130460000D03*
%TO.P,J12,6,Pin_6*%
X168022500Y-130460000D03*
%TO.P,J12,7,Pin_7*%
%TO.N,Net-(J1-Pin_7)*%
X170562500Y-127920000D03*
%TO.P,J12,8,Pin_8*%
X168022500Y-127920000D03*
%TO.P,J12,9,Pin_9*%
%TO.N,Net-(J1-Pin_10)*%
X170562500Y-125380000D03*
%TO.P,J12,10,Pin_10*%
X168022500Y-125380000D03*
%TO.P,J12,11,Pin_11*%
%TO.N,Net-(J1-Pin_11)*%
X170562500Y-122840000D03*
%TO.P,J12,12,Pin_12*%
X168022500Y-122840000D03*
%TO.P,J12,13,Pin_13*%
%TO.N,Net-(J1-Pin_13)*%
X170562500Y-120300000D03*
%TO.P,J12,14,Pin_14*%
X168022500Y-120300000D03*
%TO.P,J12,15,Pin_15*%
%TO.N,Net-(J1-Pin_15)*%
X170562500Y-117760000D03*
%TO.P,J12,16,Pin_16*%
X168022500Y-117760000D03*
%TD*%
D10*
%TO.P,J6,1,Pin_1*%
%TO.N,Net-(J1-Pin_1)*%
X131747500Y-83720000D03*
D11*
%TO.P,J6,2,Pin_2*%
X134287500Y-83720000D03*
%TO.P,J6,3,Pin_3*%
%TO.N,Net-(J1-Pin_3)*%
X131747500Y-86260000D03*
%TO.P,J6,4,Pin_4*%
X134287500Y-86260000D03*
%TO.P,J6,5,Pin_5*%
%TO.N,Net-(J1-Pin_5)*%
X131747500Y-88800000D03*
%TO.P,J6,6,Pin_6*%
X134287500Y-88800000D03*
%TO.P,J6,7,Pin_7*%
%TO.N,Net-(J1-Pin_7)*%
X131747500Y-91340000D03*
%TO.P,J6,8,Pin_8*%
X134287500Y-91340000D03*
%TO.P,J6,9,Pin_9*%
%TO.N,Net-(J1-Pin_10)*%
X131747500Y-93880000D03*
%TO.P,J6,10,Pin_10*%
X134287500Y-93880000D03*
%TO.P,J6,11,Pin_11*%
%TO.N,Net-(J1-Pin_11)*%
X131747500Y-96420000D03*
%TO.P,J6,12,Pin_12*%
X134287500Y-96420000D03*
%TO.P,J6,13,Pin_13*%
%TO.N,Net-(J1-Pin_13)*%
X131747500Y-98960000D03*
%TO.P,J6,14,Pin_14*%
X134287500Y-98960000D03*
%TO.P,J6,15,Pin_15*%
%TO.N,Net-(J1-Pin_15)*%
X131747500Y-101500000D03*
%TO.P,J6,16,Pin_16*%
X134287500Y-101500000D03*
%TD*%
D10*
%TO.P,J8,1,Pin_1*%
%TO.N,Net-(J1-Pin_1)*%
X155777500Y-83720000D03*
D11*
%TO.P,J8,2,Pin_2*%
X158317500Y-83720000D03*
%TO.P,J8,3,Pin_3*%
%TO.N,Net-(J1-Pin_3)*%
X155777500Y-86260000D03*
%TO.P,J8,4,Pin_4*%
X158317500Y-86260000D03*
%TO.P,J8,5,Pin_5*%
%TO.N,Net-(J1-Pin_5)*%
X155777500Y-88800000D03*
%TO.P,J8,6,Pin_6*%
X158317500Y-88800000D03*
%TO.P,J8,7,Pin_7*%
%TO.N,Net-(J1-Pin_7)*%
X155777500Y-91340000D03*
%TO.P,J8,8,Pin_8*%
X158317500Y-91340000D03*
%TO.P,J8,9,Pin_9*%
%TO.N,Net-(J1-Pin_10)*%
X155777500Y-93880000D03*
%TO.P,J8,10,Pin_10*%
X158317500Y-93880000D03*
%TO.P,J8,11,Pin_11*%
%TO.N,Net-(J1-Pin_11)*%
X155777500Y-96420000D03*
%TO.P,J8,12,Pin_12*%
X158317500Y-96420000D03*
%TO.P,J8,13,Pin_13*%
%TO.N,Net-(J1-Pin_13)*%
X155777500Y-98960000D03*
%TO.P,J8,14,Pin_14*%
X158317500Y-98960000D03*
%TO.P,J8,15,Pin_15*%
%TO.N,Net-(J1-Pin_15)*%
X155777500Y-101500000D03*
%TO.P,J8,16,Pin_16*%
X158317500Y-101500000D03*
%TD*%
D10*
%TO.P,J7,1,Pin_1*%
%TO.N,Net-(J1-Pin_1)*%
X143792500Y-83720000D03*
D11*
%TO.P,J7,2,Pin_2*%
X146332500Y-83720000D03*
%TO.P,J7,3,Pin_3*%
%TO.N,Net-(J1-Pin_3)*%
X143792500Y-86260000D03*
%TO.P,J7,4,Pin_4*%
X146332500Y-86260000D03*
%TO.P,J7,5,Pin_5*%
%TO.N,Net-(J1-Pin_5)*%
X143792500Y-88800000D03*
%TO.P,J7,6,Pin_6*%
X146332500Y-88800000D03*
%TO.P,J7,7,Pin_7*%
%TO.N,Net-(J1-Pin_7)*%
X143792500Y-91340000D03*
%TO.P,J7,8,Pin_8*%
X146332500Y-91340000D03*
%TO.P,J7,9,Pin_9*%
%TO.N,Net-(J1-Pin_10)*%
X143792500Y-93880000D03*
%TO.P,J7,10,Pin_10*%
X146332500Y-93880000D03*
%TO.P,J7,11,Pin_11*%
%TO.N,Net-(J1-Pin_11)*%
X143792500Y-96420000D03*
%TO.P,J7,12,Pin_12*%
X146332500Y-96420000D03*
%TO.P,J7,13,Pin_13*%
%TO.N,Net-(J1-Pin_13)*%
X143792500Y-98960000D03*
%TO.P,J7,14,Pin_14*%
X146332500Y-98960000D03*
%TO.P,J7,15,Pin_15*%
%TO.N,Net-(J1-Pin_15)*%
X143792500Y-101500000D03*
%TO.P,J7,16,Pin_16*%
X146332500Y-101500000D03*
%TD*%
D12*
%TO.P,M1,1*%
%TO.N,N/C*%
X93000000Y-66500000D03*
%TD*%
D13*
%TO.P,J14,1,Pin_1*%
%TO.N,Net-(J1-Pin_1)*%
X146537500Y-135540000D03*
D11*
%TO.P,J14,2,Pin_2*%
X143997500Y-135540000D03*
%TO.P,J14,3,Pin_3*%
%TO.N,Net-(J1-Pin_3)*%
X146537500Y-133000000D03*
%TO.P,J14,4,Pin_4*%
X143997500Y-133000000D03*
%TO.P,J14,5,Pin_5*%
%TO.N,Net-(J1-Pin_5)*%
X146537500Y-130460000D03*
%TO.P,J14,6,Pin_6*%
X143997500Y-130460000D03*
%TO.P,J14,7,Pin_7*%
%TO.N,Net-(J1-Pin_7)*%
X146537500Y-127920000D03*
%TO.P,J14,8,Pin_8*%
X143997500Y-127920000D03*
%TO.P,J14,9,Pin_9*%
%TO.N,Net-(J1-Pin_10)*%
X146537500Y-125380000D03*
%TO.P,J14,10,Pin_10*%
X143997500Y-125380000D03*
%TO.P,J14,11,Pin_11*%
%TO.N,Net-(J1-Pin_11)*%
X146537500Y-122840000D03*
%TO.P,J14,12,Pin_12*%
X143997500Y-122840000D03*
%TO.P,J14,13,Pin_13*%
%TO.N,Net-(J1-Pin_13)*%
X146537500Y-120300000D03*
%TO.P,J14,14,Pin_14*%
X143997500Y-120300000D03*
%TO.P,J14,15,Pin_15*%
%TO.N,Net-(J1-Pin_15)*%
X146537500Y-117760000D03*
%TO.P,J14,16,Pin_16*%
X143997500Y-117760000D03*
%TD*%
D13*
%TO.P,J11,1,Pin_1*%
%TO.N,Net-(J1-Pin_1)*%
X182547500Y-135540000D03*
D11*
%TO.P,J11,2,Pin_2*%
X180007500Y-135540000D03*
%TO.P,J11,3,Pin_3*%
%TO.N,Net-(J1-Pin_3)*%
X182547500Y-133000000D03*
%TO.P,J11,4,Pin_4*%
X180007500Y-133000000D03*
%TO.P,J11,5,Pin_5*%
%TO.N,Net-(J1-Pin_5)*%
X182547500Y-130460000D03*
%TO.P,J11,6,Pin_6*%
X180007500Y-130460000D03*
%TO.P,J11,7,Pin_7*%
%TO.N,Net-(J1-Pin_7)*%
X182547500Y-127920000D03*
%TO.P,J11,8,Pin_8*%
X180007500Y-127920000D03*
%TO.P,J11,9,Pin_9*%
%TO.N,Net-(J1-Pin_10)*%
X182547500Y-125380000D03*
%TO.P,J11,10,Pin_10*%
X180007500Y-125380000D03*
%TO.P,J11,11,Pin_11*%
%TO.N,Net-(J1-Pin_11)*%
X182547500Y-122840000D03*
%TO.P,J11,12,Pin_12*%
X180007500Y-122840000D03*
%TO.P,J11,13,Pin_13*%
%TO.N,Net-(J1-Pin_13)*%
X182547500Y-120300000D03*
%TO.P,J11,14,Pin_14*%
X180007500Y-120300000D03*
%TO.P,J11,15,Pin_15*%
%TO.N,Net-(J1-Pin_15)*%
X182547500Y-117760000D03*
%TO.P,J11,16,Pin_16*%
X180007500Y-117760000D03*
%TD*%
D10*
%TO.P,J4,1,Pin_1*%
%TO.N,Net-(J1-Pin_1)*%
X107777500Y-83720000D03*
D11*
%TO.P,J4,2,Pin_2*%
X110317500Y-83720000D03*
%TO.P,J4,3,Pin_3*%
%TO.N,Net-(J1-Pin_3)*%
X107777500Y-86260000D03*
%TO.P,J4,4,Pin_4*%
X110317500Y-86260000D03*
%TO.P,J4,5,Pin_5*%
%TO.N,Net-(J1-Pin_5)*%
X107777500Y-88800000D03*
%TO.P,J4,6,Pin_6*%
X110317500Y-88800000D03*
%TO.P,J4,7,Pin_7*%
%TO.N,Net-(J1-Pin_7)*%
X107777500Y-91340000D03*
%TO.P,J4,8,Pin_8*%
X110317500Y-91340000D03*
%TO.P,J4,9,Pin_9*%
%TO.N,Net-(J1-Pin_10)*%
X107777500Y-93880000D03*
%TO.P,J4,10,Pin_10*%
X110317500Y-93880000D03*
%TO.P,J4,11,Pin_11*%
%TO.N,Net-(J1-Pin_11)*%
X107777500Y-96420000D03*
%TO.P,J4,12,Pin_12*%
X110317500Y-96420000D03*
%TO.P,J4,13,Pin_13*%
%TO.N,Net-(J1-Pin_13)*%
X107777500Y-98960000D03*
%TO.P,J4,14,Pin_14*%
X110317500Y-98960000D03*
%TO.P,J4,15,Pin_15*%
%TO.N,Net-(J1-Pin_15)*%
X107777500Y-101500000D03*
%TO.P,J4,16,Pin_16*%
X110317500Y-101500000D03*
%TD*%
D13*
%TO.P,J13,1,Pin_1*%
%TO.N,Net-(J1-Pin_1)*%
X158522500Y-135540000D03*
D11*
%TO.P,J13,2,Pin_2*%
X155982500Y-135540000D03*
%TO.P,J13,3,Pin_3*%
%TO.N,Net-(J1-Pin_3)*%
X158522500Y-133000000D03*
%TO.P,J13,4,Pin_4*%
X155982500Y-133000000D03*
%TO.P,J13,5,Pin_5*%
%TO.N,Net-(J1-Pin_5)*%
X158522500Y-130460000D03*
%TO.P,J13,6,Pin_6*%
X155982500Y-130460000D03*
%TO.P,J13,7,Pin_7*%
%TO.N,Net-(J1-Pin_7)*%
X158522500Y-127920000D03*
%TO.P,J13,8,Pin_8*%
X155982500Y-127920000D03*
%TO.P,J13,9,Pin_9*%
%TO.N,Net-(J1-Pin_10)*%
X158522500Y-125380000D03*
%TO.P,J13,10,Pin_10*%
X155982500Y-125380000D03*
%TO.P,J13,11,Pin_11*%
%TO.N,Net-(J1-Pin_11)*%
X158522500Y-122840000D03*
%TO.P,J13,12,Pin_12*%
X155982500Y-122840000D03*
%TO.P,J13,13,Pin_13*%
%TO.N,Net-(J1-Pin_13)*%
X158522500Y-120300000D03*
%TO.P,J13,14,Pin_14*%
X155982500Y-120300000D03*
%TO.P,J13,15,Pin_15*%
%TO.N,Net-(J1-Pin_15)*%
X158522500Y-117760000D03*
%TO.P,J13,16,Pin_16*%
X155982500Y-117760000D03*
%TD*%
D10*
%TO.P,J9,1,Pin_1*%
%TO.N,Net-(J1-Pin_1)*%
X167762500Y-83720000D03*
D11*
%TO.P,J9,2,Pin_2*%
X170302500Y-83720000D03*
%TO.P,J9,3,Pin_3*%
%TO.N,Net-(J1-Pin_3)*%
X167762500Y-86260000D03*
%TO.P,J9,4,Pin_4*%
X170302500Y-86260000D03*
%TO.P,J9,5,Pin_5*%
%TO.N,Net-(J1-Pin_5)*%
X167762500Y-88800000D03*
%TO.P,J9,6,Pin_6*%
X170302500Y-88800000D03*
%TO.P,J9,7,Pin_7*%
%TO.N,Net-(J1-Pin_7)*%
X167762500Y-91340000D03*
%TO.P,J9,8,Pin_8*%
X170302500Y-91340000D03*
%TO.P,J9,9,Pin_9*%
%TO.N,Net-(J1-Pin_10)*%
X167762500Y-93880000D03*
%TO.P,J9,10,Pin_10*%
X170302500Y-93880000D03*
%TO.P,J9,11,Pin_11*%
%TO.N,Net-(J1-Pin_11)*%
X167762500Y-96420000D03*
%TO.P,J9,12,Pin_12*%
X170302500Y-96420000D03*
%TO.P,J9,13,Pin_13*%
%TO.N,Net-(J1-Pin_13)*%
X167762500Y-98960000D03*
%TO.P,J9,14,Pin_14*%
X170302500Y-98960000D03*
%TO.P,J9,15,Pin_15*%
%TO.N,Net-(J1-Pin_15)*%
X167762500Y-101500000D03*
%TO.P,J9,16,Pin_16*%
X170302500Y-101500000D03*
%TD*%
D12*
%TO.P,M3,1*%
%TO.N,N/C*%
X93000000Y-148500000D03*
%TD*%
%TO.P,M2,1*%
%TO.N,N/C*%
X185000000Y-66500000D03*
%TD*%
D11*
%TO.P,J2,16,Pin_16*%
%TO.N,Net-(J1-Pin_15)*%
X171022531Y-68460000D03*
%TO.P,J2,15,Pin_15*%
X171022531Y-71000000D03*
%TO.P,J2,14,Pin_14*%
%TO.N,Net-(J1-Pin_13)*%
X168482531Y-68460000D03*
%TO.P,J2,13,Pin_13*%
X168482531Y-71000000D03*
%TO.P,J2,12,Pin_12*%
%TO.N,Net-(J1-Pin_11)*%
X165942531Y-68460000D03*
%TO.P,J2,11,Pin_11*%
X165942531Y-71000000D03*
%TO.P,J2,10,Pin_10*%
%TO.N,Net-(J1-Pin_10)*%
X163402531Y-68460000D03*
%TO.P,J2,9,Pin_9*%
X163402531Y-71000000D03*
%TO.P,J2,8,Pin_8*%
%TO.N,Net-(J1-Pin_7)*%
X160862531Y-68460000D03*
%TO.P,J2,7,Pin_7*%
X160862531Y-71000000D03*
%TO.P,J2,6,Pin_6*%
%TO.N,Net-(J1-Pin_5)*%
X158322531Y-68460000D03*
%TO.P,J2,5,Pin_5*%
X158322531Y-71000000D03*
%TO.P,J2,4,Pin_4*%
%TO.N,Net-(J1-Pin_3)*%
X155782531Y-68460000D03*
%TO.P,J2,3,Pin_3*%
X155782531Y-71000000D03*
%TO.P,J2,2,Pin_2*%
%TO.N,Net-(J1-Pin_1)*%
X153242531Y-68460000D03*
D14*
%TO.P,J2,1,Pin_1*%
X153242531Y-71000000D03*
%TD*%
D11*
%TO.P,J1,16,Pin_16*%
%TO.N,Net-(J1-Pin_15)*%
X106977469Y-71000000D03*
%TO.P,J1,15,Pin_15*%
X106977469Y-68460000D03*
%TO.P,J1,14,Pin_14*%
%TO.N,Net-(J1-Pin_13)*%
X109517469Y-71000000D03*
%TO.P,J1,13,Pin_13*%
X109517469Y-68460000D03*
%TO.P,J1,12,Pin_12*%
%TO.N,Net-(J1-Pin_11)*%
X112057469Y-71000000D03*
%TO.P,J1,11,Pin_11*%
X112057469Y-68460000D03*
%TO.P,J1,10,Pin_10*%
%TO.N,Net-(J1-Pin_10)*%
X114597469Y-71000000D03*
%TO.P,J1,9,Pin_9*%
X114597469Y-68460000D03*
%TO.P,J1,8,Pin_8*%
%TO.N,Net-(J1-Pin_7)*%
X117137469Y-71000000D03*
%TO.P,J1,7,Pin_7*%
X117137469Y-68460000D03*
%TO.P,J1,6,Pin_6*%
%TO.N,Net-(J1-Pin_5)*%
X119677469Y-71000000D03*
%TO.P,J1,5,Pin_5*%
X119677469Y-68460000D03*
%TO.P,J1,4,Pin_4*%
%TO.N,Net-(J1-Pin_3)*%
X122217469Y-71000000D03*
%TO.P,J1,3,Pin_3*%
X122217469Y-68460000D03*
%TO.P,J1,2,Pin_2*%
%TO.N,Net-(J1-Pin_1)*%
X124757469Y-71000000D03*
D15*
%TO.P,J1,1,Pin_1*%
X124757469Y-68460000D03*
%TD*%
D16*
%TO.N,Net-(J1-Pin_15)*%
X115000000Y-101500000D02*
X115000000Y-78000000D01*
X115000000Y-78000000D02*
X110500000Y-73500000D01*
X110500000Y-73500000D02*
X107000000Y-73500000D01*
X119762500Y-101500000D02*
X115000000Y-101500000D01*
X107000000Y-73500000D02*
X106977469Y-73477469D01*
X106977469Y-73477469D02*
X106977469Y-71000000D01*
%TO.N,Net-(J1-Pin_13)*%
X111000000Y-72500000D02*
X109534938Y-72500000D01*
X109534938Y-72500000D02*
X109517469Y-72482531D01*
%TO.N,Net-(J1-Pin_11)*%
X112500000Y-72500000D02*
X112114938Y-72500000D01*
X112114938Y-72500000D02*
X112057469Y-72442531D01*
X119762500Y-96420000D02*
X117000000Y-96420000D01*
X117000000Y-96420000D02*
X117000000Y-77000000D01*
X117000000Y-77000000D02*
X112500000Y-72500000D01*
X112057469Y-72442531D02*
X112057469Y-71000000D01*
%TO.N,Net-(J1-Pin_13)*%
X119762500Y-98960000D02*
X116040000Y-98960000D01*
X116000000Y-99000000D02*
X116000000Y-77500000D01*
X116000000Y-77500000D02*
X111000000Y-72500000D01*
X116040000Y-98960000D02*
X116000000Y-99000000D01*
X109517469Y-72482531D02*
X109517469Y-71000000D01*
X110000000Y-71000000D02*
X109517469Y-71000000D01*
%TO.N,Net-(J1-Pin_7)*%
X131747500Y-91340000D02*
X131587500Y-91500000D01*
X131587500Y-91500000D02*
X126000000Y-91500000D01*
X126000000Y-82000000D02*
X117137469Y-73137469D01*
X117137469Y-73137469D02*
X117137469Y-71000000D01*
X126000000Y-91500000D02*
X126000000Y-82000000D01*
%TO.N,Net-(J1-Pin_5)*%
X131747500Y-88800000D02*
X127300000Y-88800000D01*
X127300000Y-88800000D02*
X127000000Y-88500000D01*
X127000000Y-80750000D02*
X119677469Y-73427469D01*
X127000000Y-88500000D02*
X127000000Y-80750000D01*
X119677469Y-73427469D02*
X119677469Y-71000000D01*
%TO.N,Net-(J1-Pin_10)*%
X114597469Y-71000000D02*
X114597469Y-72597469D01*
X118000000Y-76000000D02*
X118000000Y-93880000D01*
X114597469Y-72597469D02*
X118000000Y-76000000D01*
X118000000Y-93880000D02*
X119762500Y-93880000D01*
%TO.N,Net-(J1-Pin_3)*%
X131747500Y-86260000D02*
X128260000Y-86260000D01*
X128260000Y-86260000D02*
X128000000Y-86000000D01*
X128000000Y-86000000D02*
X128000000Y-80000000D01*
X128000000Y-80000000D02*
X122217469Y-74217469D01*
X122217469Y-74217469D02*
X122217469Y-71000000D01*
%TO.N,Net-(J1-Pin_1)*%
X129000000Y-79500000D02*
X124757469Y-75257469D01*
X124757469Y-75257469D02*
X124757469Y-71000000D01*
X129000000Y-83500000D02*
X129000000Y-79500000D01*
X129220000Y-83720000D02*
X129000000Y-83500000D01*
X131747500Y-83720000D02*
X129220000Y-83720000D01*
%TD*%
M02*
