%TF.GenerationSoftware,KiCad,Pcbnew,8.0.3*%
%TF.CreationDate,2024-07-30T18:33:24-04:00*%
%TF.ProjectId,eurorack-power-bus,6575726f-7261-4636-9b2d-706f7765722d,rev?*%
%TF.SameCoordinates,Original*%
%TF.FileFunction,Copper,L1,Top*%
%TF.FilePolarity,Positive*%
%FSLAX46Y46*%
G04 Gerber Fmt 4.6, Leading zero omitted, Abs format (unit mm)*
G04 Created by KiCad (PCBNEW 8.0.3) date 2024-07-30 18:33:24*
%MOMM*%
%LPD*%
G01*
G04 APERTURE LIST*
G04 Aperture macros list*
%AMRoundRect*
0 Rectangle with rounded corners*
0 $1 Rounding radius*
0 $2 $3 $4 $5 $6 $7 $8 $9 X,Y pos of 4 corners*
0 Add a 4 corners polygon primitive as box body*
4,1,4,$2,$3,$4,$5,$6,$7,$8,$9,$2,$3,0*
0 Add four circle primitives for the rounded corners*
1,1,$1+$1,$2,$3*
1,1,$1+$1,$4,$5*
1,1,$1+$1,$6,$7*
1,1,$1+$1,$8,$9*
0 Add four rect primitives between the rounded corners*
20,1,$1+$1,$2,$3,$4,$5,0*
20,1,$1+$1,$4,$5,$6,$7,0*
20,1,$1+$1,$6,$7,$8,$9,0*
20,1,$1+$1,$8,$9,$2,$3,0*%
G04 Aperture macros list end*
%TA.AperFunction,ComponentPad*%
%ADD10RoundRect,0.250000X0.600000X0.600000X-0.600000X0.600000X-0.600000X-0.600000X0.600000X-0.600000X0*%
%TD*%
%TA.AperFunction,ComponentPad*%
%ADD11C,1.700000*%
%TD*%
%TA.AperFunction,ComponentPad*%
%ADD12R,1.800000X1.800000*%
%TD*%
%TA.AperFunction,ComponentPad*%
%ADD13C,1.800000*%
%TD*%
%TA.AperFunction,ComponentPad*%
%ADD14R,2.200000X2.200000*%
%TD*%
%TA.AperFunction,ComponentPad*%
%ADD15O,2.200000X2.200000*%
%TD*%
%TA.AperFunction,ComponentPad*%
%ADD16C,1.500000*%
%TD*%
%TA.AperFunction,ComponentPad*%
%ADD17R,2.600000X2.600000*%
%TD*%
%TA.AperFunction,ComponentPad*%
%ADD18C,2.600000*%
%TD*%
%TA.AperFunction,ComponentPad*%
%ADD19C,6.400000*%
%TD*%
%TA.AperFunction,ComponentPad*%
%ADD20C,1.600000*%
%TD*%
%TA.AperFunction,ComponentPad*%
%ADD21O,1.600000X1.600000*%
%TD*%
%TA.AperFunction,Conductor*%
%ADD22C,0.300000*%
%TD*%
G04 APERTURE END LIST*
D10*
%TO.P,J6,1,Pin_1*%
%TO.N,-12V*%
X203728200Y-105866700D03*
D11*
%TO.P,J6,2,Pin_2*%
X201188200Y-105866700D03*
%TO.P,J6,3,Pin_3*%
%TO.N,GND*%
X203728200Y-103326700D03*
%TO.P,J6,4,Pin_4*%
X201188200Y-103326700D03*
%TO.P,J6,5,Pin_5*%
X203728200Y-100786700D03*
%TO.P,J6,6,Pin_6*%
X201188200Y-100786700D03*
%TO.P,J6,7,Pin_7*%
X203728200Y-98246700D03*
%TO.P,J6,8,Pin_8*%
X201188200Y-98246700D03*
%TO.P,J6,9,Pin_9*%
%TO.N,+12V*%
X203728200Y-95706700D03*
%TO.P,J6,10,Pin_10*%
X201188200Y-95706700D03*
%TO.P,J6,11,Pin_11*%
%TO.N,+5V*%
X203728200Y-93166700D03*
%TO.P,J6,12,Pin_12*%
X201188200Y-93166700D03*
%TO.P,J6,13,Pin_13*%
%TO.N,CV*%
X203728200Y-90626700D03*
%TO.P,J6,14,Pin_14*%
X201188200Y-90626700D03*
%TO.P,J6,15,Pin_15*%
%TO.N,GATE*%
X203728200Y-88086700D03*
%TO.P,J6,16,Pin_16*%
X201188200Y-88086700D03*
%TD*%
D12*
%TO.P,L2,1,K*%
%TO.N,GND*%
X114010654Y-117138375D03*
D13*
%TO.P,L2,2,A*%
%TO.N,Net-(L2-A)*%
X111470654Y-117138375D03*
%TD*%
D14*
%TO.P,D1,1,K*%
%TO.N,+12V*%
X48130000Y-92718375D03*
D15*
%TO.P,D1,2,A*%
%TO.N,GND*%
X48130000Y-102878375D03*
%TD*%
D10*
%TO.P,J14,1,Pin_1*%
%TO.N,-12V*%
X106709400Y-105866700D03*
D11*
%TO.P,J14,2,Pin_2*%
X104169400Y-105866700D03*
%TO.P,J14,3,Pin_3*%
%TO.N,GND*%
X106709400Y-103326700D03*
%TO.P,J14,4,Pin_4*%
X104169400Y-103326700D03*
%TO.P,J14,5,Pin_5*%
X106709400Y-100786700D03*
%TO.P,J14,6,Pin_6*%
X104169400Y-100786700D03*
%TO.P,J14,7,Pin_7*%
X106709400Y-98246700D03*
%TO.P,J14,8,Pin_8*%
X104169400Y-98246700D03*
%TO.P,J14,9,Pin_9*%
%TO.N,+12V*%
X106709400Y-95706700D03*
%TO.P,J14,10,Pin_10*%
X104169400Y-95706700D03*
%TO.P,J14,11,Pin_11*%
%TO.N,+5V*%
X106709400Y-93166700D03*
%TO.P,J14,12,Pin_12*%
X104169400Y-93166700D03*
%TO.P,J14,13,Pin_13*%
%TO.N,CV*%
X106709400Y-90626700D03*
%TO.P,J14,14,Pin_14*%
X104169400Y-90626700D03*
%TO.P,J14,15,Pin_15*%
%TO.N,GATE*%
X106709400Y-88086700D03*
%TO.P,J14,16,Pin_16*%
X104169400Y-88086700D03*
%TD*%
D16*
%TO.P,TP{2,1,1*%
%TO.N,+12V*%
X95735654Y-117138375D03*
%TD*%
D10*
%TO.P,J12,1,Pin_1*%
%TO.N,-12V*%
X130964100Y-105866700D03*
D11*
%TO.P,J12,2,Pin_2*%
X128424100Y-105866700D03*
%TO.P,J12,3,Pin_3*%
%TO.N,GND*%
X130964100Y-103326700D03*
%TO.P,J12,4,Pin_4*%
X128424100Y-103326700D03*
%TO.P,J12,5,Pin_5*%
X130964100Y-100786700D03*
%TO.P,J12,6,Pin_6*%
X128424100Y-100786700D03*
%TO.P,J12,7,Pin_7*%
X130964100Y-98246700D03*
%TO.P,J12,8,Pin_8*%
X128424100Y-98246700D03*
%TO.P,J12,9,Pin_9*%
%TO.N,+12V*%
X130964100Y-95706700D03*
%TO.P,J12,10,Pin_10*%
X128424100Y-95706700D03*
%TO.P,J12,11,Pin_11*%
%TO.N,+5V*%
X130964100Y-93166700D03*
%TO.P,J12,12,Pin_12*%
X128424100Y-93166700D03*
%TO.P,J12,13,Pin_13*%
%TO.N,CV*%
X130964100Y-90626700D03*
%TO.P,J12,14,Pin_14*%
X128424100Y-90626700D03*
%TO.P,J12,15,Pin_15*%
%TO.N,GATE*%
X130964100Y-88086700D03*
%TO.P,J12,16,Pin_16*%
X128424100Y-88086700D03*
%TD*%
D17*
%TO.P,W1,1,Pin_1*%
%TO.N,+5V*%
X39825000Y-95938400D03*
D18*
%TO.P,W1,2,Pin_2*%
%TO.N,+12V*%
X39825000Y-100938400D03*
%TO.P,W1,3,Pin_3*%
%TO.N,GND*%
X39825000Y-105938400D03*
%TO.P,W1,4,Pin_4*%
%TO.N,-12V*%
X39825000Y-110938400D03*
%TD*%
D19*
%TO.P,M2,1*%
%TO.N,N/C*%
X33425000Y-118638400D03*
%TD*%
D20*
%TO.P,R1,1*%
%TO.N,+5V*%
X70121309Y-117138375D03*
D21*
%TO.P,R1,2*%
%TO.N,Net-(L1-A)*%
X80281309Y-117138375D03*
%TD*%
D10*
%TO.P,J2,1,Pin_1*%
%TO.N,-12V*%
X252237600Y-105866700D03*
D11*
%TO.P,J2,2,Pin_2*%
X249697600Y-105866700D03*
%TO.P,J2,3,Pin_3*%
%TO.N,GND*%
X252237600Y-103326700D03*
%TO.P,J2,4,Pin_4*%
X249697600Y-103326700D03*
%TO.P,J2,5,Pin_5*%
X252237600Y-100786700D03*
%TO.P,J2,6,Pin_6*%
X249697600Y-100786700D03*
%TO.P,J2,7,Pin_7*%
X252237600Y-98246700D03*
%TO.P,J2,8,Pin_8*%
X249697600Y-98246700D03*
%TO.P,J2,9,Pin_9*%
%TO.N,+12V*%
X252237600Y-95706700D03*
%TO.P,J2,10,Pin_10*%
X249697600Y-95706700D03*
%TO.P,J2,11,Pin_11*%
%TO.N,+5V*%
X252237600Y-93166700D03*
%TO.P,J2,12,Pin_12*%
X249697600Y-93166700D03*
%TO.P,J2,13,Pin_13*%
%TO.N,CV*%
X252237600Y-90626700D03*
%TO.P,J2,14,Pin_14*%
X249697600Y-90626700D03*
%TO.P,J2,15,Pin_15*%
%TO.N,GATE*%
X252237600Y-88086700D03*
%TO.P,J2,16,Pin_16*%
X249697600Y-88086700D03*
%TD*%
D20*
%TO.P,R2,1*%
%TO.N,+12V*%
X98655654Y-117138375D03*
D21*
%TO.P,R2,2*%
%TO.N,Net-(L2-A)*%
X108815654Y-117138375D03*
%TD*%
D10*
%TO.P,J9,1,Pin_1*%
%TO.N,-12V*%
X167346200Y-105866700D03*
D11*
%TO.P,J9,2,Pin_2*%
X164806200Y-105866700D03*
%TO.P,J9,3,Pin_3*%
%TO.N,GND*%
X167346200Y-103326700D03*
%TO.P,J9,4,Pin_4*%
X164806200Y-103326700D03*
%TO.P,J9,5,Pin_5*%
X167346200Y-100786700D03*
%TO.P,J9,6,Pin_6*%
X164806200Y-100786700D03*
%TO.P,J9,7,Pin_7*%
X167346200Y-98246700D03*
%TO.P,J9,8,Pin_8*%
X164806200Y-98246700D03*
%TO.P,J9,9,Pin_9*%
%TO.N,+12V*%
X167346200Y-95706700D03*
%TO.P,J9,10,Pin_10*%
X164806200Y-95706700D03*
%TO.P,J9,11,Pin_11*%
%TO.N,+5V*%
X167346200Y-93166700D03*
%TO.P,J9,12,Pin_12*%
X164806200Y-93166700D03*
%TO.P,J9,13,Pin_13*%
%TO.N,CV*%
X167346200Y-90626700D03*
%TO.P,J9,14,Pin_14*%
X164806200Y-90626700D03*
%TO.P,J9,15,Pin_15*%
%TO.N,GATE*%
X167346200Y-88086700D03*
%TO.P,J9,16,Pin_16*%
X164806200Y-88086700D03*
%TD*%
D10*
%TO.P,J4,1,Pin_1*%
%TO.N,-12V*%
X227982900Y-105866700D03*
D11*
%TO.P,J4,2,Pin_2*%
X225442900Y-105866700D03*
%TO.P,J4,3,Pin_3*%
%TO.N,GND*%
X227982900Y-103326700D03*
%TO.P,J4,4,Pin_4*%
X225442900Y-103326700D03*
%TO.P,J4,5,Pin_5*%
X227982900Y-100786700D03*
%TO.P,J4,6,Pin_6*%
X225442900Y-100786700D03*
%TO.P,J4,7,Pin_7*%
X227982900Y-98246700D03*
%TO.P,J4,8,Pin_8*%
X225442900Y-98246700D03*
%TO.P,J4,9,Pin_9*%
%TO.N,+12V*%
X227982900Y-95706700D03*
%TO.P,J4,10,Pin_10*%
X225442900Y-95706700D03*
%TO.P,J4,11,Pin_11*%
%TO.N,+5V*%
X227982900Y-93166700D03*
%TO.P,J4,12,Pin_12*%
X225442900Y-93166700D03*
%TO.P,J4,13,Pin_13*%
%TO.N,CV*%
X227982900Y-90626700D03*
%TO.P,J4,14,Pin_14*%
X225442900Y-90626700D03*
%TO.P,J4,15,Pin_15*%
%TO.N,GATE*%
X227982900Y-88086700D03*
%TO.P,J4,16,Pin_16*%
X225442900Y-88086700D03*
%TD*%
D19*
%TO.P,M3,1*%
%TO.N,N/C*%
X151925000Y-76638375D03*
%TD*%
D17*
%TO.P,W2,1,Pin_1*%
%TO.N,GATE*%
X39825000Y-84338400D03*
D18*
%TO.P,W2,2,Pin_2*%
%TO.N,CV*%
X39825000Y-89338400D03*
%TD*%
D10*
%TO.P,J10,1,Pin_1*%
%TO.N,-12V*%
X155218800Y-105866700D03*
D11*
%TO.P,J10,2,Pin_2*%
X152678800Y-105866700D03*
%TO.P,J10,3,Pin_3*%
%TO.N,GND*%
X155218800Y-103326700D03*
%TO.P,J10,4,Pin_4*%
X152678800Y-103326700D03*
%TO.P,J10,5,Pin_5*%
X155218800Y-100786700D03*
%TO.P,J10,6,Pin_6*%
X152678800Y-100786700D03*
%TO.P,J10,7,Pin_7*%
X155218800Y-98246700D03*
%TO.P,J10,8,Pin_8*%
X152678800Y-98246700D03*
%TO.P,J10,9,Pin_9*%
%TO.N,+12V*%
X155218800Y-95706700D03*
%TO.P,J10,10,Pin_10*%
X152678800Y-95706700D03*
%TO.P,J10,11,Pin_11*%
%TO.N,+5V*%
X155218800Y-93166700D03*
%TO.P,J10,12,Pin_12*%
X152678800Y-93166700D03*
%TO.P,J10,13,Pin_13*%
%TO.N,CV*%
X155218800Y-90626700D03*
%TO.P,J10,14,Pin_14*%
X152678800Y-90626700D03*
%TO.P,J10,15,Pin_15*%
%TO.N,GATE*%
X155218800Y-88086700D03*
%TO.P,J10,16,Pin_16*%
X152678800Y-88086700D03*
%TD*%
D12*
%TO.P,L3,1,K*%
%TO.N,GND*%
X142705000Y-117138375D03*
D13*
%TO.P,L3,2,A*%
%TO.N,Net-(L3-A)*%
X140165000Y-117138375D03*
%TD*%
D19*
%TO.P,M1,1*%
%TO.N,N/C*%
X33425000Y-76638400D03*
%TD*%
%TO.P,M4,1*%
%TO.N,N/C*%
X270425000Y-118638400D03*
%TD*%
%TO.P,M3,1*%
%TO.N,N/C*%
X270425000Y-76638400D03*
%TD*%
D10*
%TO.P,J15,1,Pin_1*%
%TO.N,-12V*%
X94582100Y-105866700D03*
D11*
%TO.P,J15,2,Pin_2*%
X92042100Y-105866700D03*
%TO.P,J15,3,Pin_3*%
%TO.N,GND*%
X94582100Y-103326700D03*
%TO.P,J15,4,Pin_4*%
X92042100Y-103326700D03*
%TO.P,J15,5,Pin_5*%
X94582100Y-100786700D03*
%TO.P,J15,6,Pin_6*%
X92042100Y-100786700D03*
%TO.P,J15,7,Pin_7*%
X94582100Y-98246700D03*
%TO.P,J15,8,Pin_8*%
X92042100Y-98246700D03*
%TO.P,J15,9,Pin_9*%
%TO.N,+12V*%
X94582100Y-95706700D03*
%TO.P,J15,10,Pin_10*%
X92042100Y-95706700D03*
%TO.P,J15,11,Pin_11*%
%TO.N,+5V*%
X94582100Y-93166700D03*
%TO.P,J15,12,Pin_12*%
X92042100Y-93166700D03*
%TO.P,J15,13,Pin_13*%
%TO.N,CV*%
X94582100Y-90626700D03*
%TO.P,J15,14,Pin_14*%
X92042100Y-90626700D03*
%TO.P,J15,15,Pin_15*%
%TO.N,GATE*%
X94582100Y-88086700D03*
%TO.P,J15,16,Pin_16*%
X92042100Y-88086700D03*
%TD*%
D10*
%TO.P,J17,1,Pin_1*%
%TO.N,-12V*%
X70327400Y-105866700D03*
D11*
%TO.P,J17,2,Pin_2*%
X67787400Y-105866700D03*
%TO.P,J17,3,Pin_3*%
%TO.N,GND*%
X70327400Y-103326700D03*
%TO.P,J17,4,Pin_4*%
X67787400Y-103326700D03*
%TO.P,J17,5,Pin_5*%
X70327400Y-100786700D03*
%TO.P,J17,6,Pin_6*%
X67787400Y-100786700D03*
%TO.P,J17,7,Pin_7*%
X70327400Y-98246700D03*
%TO.P,J17,8,Pin_8*%
X67787400Y-98246700D03*
%TO.P,J17,9,Pin_9*%
%TO.N,+12V*%
X70327400Y-95706700D03*
%TO.P,J17,10,Pin_10*%
X67787400Y-95706700D03*
%TO.P,J17,11,Pin_11*%
%TO.N,+5V*%
X70327400Y-93166700D03*
%TO.P,J17,12,Pin_12*%
X67787400Y-93166700D03*
%TO.P,J17,13,Pin_13*%
%TO.N,CV*%
X70327400Y-90626700D03*
%TO.P,J17,14,Pin_14*%
X67787400Y-90626700D03*
%TO.P,J17,15,Pin_15*%
%TO.N,GATE*%
X70327400Y-88086700D03*
%TO.P,J17,16,Pin_16*%
X67787400Y-88086700D03*
%TD*%
D16*
%TO.P,TP3,1,1*%
%TO.N,-12V*%
X124305000Y-117138375D03*
%TD*%
D19*
%TO.P,M4,1*%
%TO.N,N/C*%
X151925000Y-118638375D03*
%TD*%
D16*
%TO.P,TP1,1,1*%
%TO.N,+5V*%
X67321309Y-117138375D03*
%TD*%
D10*
%TO.P,J13,1,Pin_1*%
%TO.N,-12V*%
X118836800Y-105866700D03*
D11*
%TO.P,J13,2,Pin_2*%
X116296800Y-105866700D03*
%TO.P,J13,3,Pin_3*%
%TO.N,GND*%
X118836800Y-103326700D03*
%TO.P,J13,4,Pin_4*%
X116296800Y-103326700D03*
%TO.P,J13,5,Pin_5*%
X118836800Y-100786700D03*
%TO.P,J13,6,Pin_6*%
X116296800Y-100786700D03*
%TO.P,J13,7,Pin_7*%
X118836800Y-98246700D03*
%TO.P,J13,8,Pin_8*%
X116296800Y-98246700D03*
%TO.P,J13,9,Pin_9*%
%TO.N,+12V*%
X118836800Y-95706700D03*
%TO.P,J13,10,Pin_10*%
X116296800Y-95706700D03*
%TO.P,J13,11,Pin_11*%
%TO.N,+5V*%
X118836800Y-93166700D03*
%TO.P,J13,12,Pin_12*%
X116296800Y-93166700D03*
%TO.P,J13,13,Pin_13*%
%TO.N,CV*%
X118836800Y-90626700D03*
%TO.P,J13,14,Pin_14*%
X116296800Y-90626700D03*
%TO.P,J13,15,Pin_15*%
%TO.N,GATE*%
X118836800Y-88086700D03*
%TO.P,J13,16,Pin_16*%
X116296800Y-88086700D03*
%TD*%
D10*
%TO.P,J7,1,Pin_1*%
%TO.N,-12V*%
X191600900Y-105866700D03*
D11*
%TO.P,J7,2,Pin_2*%
X189060900Y-105866700D03*
%TO.P,J7,3,Pin_3*%
%TO.N,GND*%
X191600900Y-103326700D03*
%TO.P,J7,4,Pin_4*%
X189060900Y-103326700D03*
%TO.P,J7,5,Pin_5*%
X191600900Y-100786700D03*
%TO.P,J7,6,Pin_6*%
X189060900Y-100786700D03*
%TO.P,J7,7,Pin_7*%
X191600900Y-98246700D03*
%TO.P,J7,8,Pin_8*%
X189060900Y-98246700D03*
%TO.P,J7,9,Pin_9*%
%TO.N,+12V*%
X191600900Y-95706700D03*
%TO.P,J7,10,Pin_10*%
X189060900Y-95706700D03*
%TO.P,J7,11,Pin_11*%
%TO.N,+5V*%
X191600900Y-93166700D03*
%TO.P,J7,12,Pin_12*%
X189060900Y-93166700D03*
%TO.P,J7,13,Pin_13*%
%TO.N,CV*%
X191600900Y-90626700D03*
%TO.P,J7,14,Pin_14*%
X189060900Y-90626700D03*
%TO.P,J7,15,Pin_15*%
%TO.N,GATE*%
X191600900Y-88086700D03*
%TO.P,J7,16,Pin_16*%
X189060900Y-88086700D03*
%TD*%
D10*
%TO.P,J3,1,Pin_1*%
%TO.N,-12V*%
X240110300Y-105866700D03*
D11*
%TO.P,J3,2,Pin_2*%
X237570300Y-105866700D03*
%TO.P,J3,3,Pin_3*%
%TO.N,GND*%
X240110300Y-103326700D03*
%TO.P,J3,4,Pin_4*%
X237570300Y-103326700D03*
%TO.P,J3,5,Pin_5*%
X240110300Y-100786700D03*
%TO.P,J3,6,Pin_6*%
X237570300Y-100786700D03*
%TO.P,J3,7,Pin_7*%
X240110300Y-98246700D03*
%TO.P,J3,8,Pin_8*%
X237570300Y-98246700D03*
%TO.P,J3,9,Pin_9*%
%TO.N,+12V*%
X240110300Y-95706700D03*
%TO.P,J3,10,Pin_10*%
X237570300Y-95706700D03*
%TO.P,J3,11,Pin_11*%
%TO.N,+5V*%
X240110300Y-93166700D03*
%TO.P,J3,12,Pin_12*%
X237570300Y-93166700D03*
%TO.P,J3,13,Pin_13*%
%TO.N,CV*%
X240110300Y-90626700D03*
%TO.P,J3,14,Pin_14*%
X237570300Y-90626700D03*
%TO.P,J3,15,Pin_15*%
%TO.N,GATE*%
X240110300Y-88086700D03*
%TO.P,J3,16,Pin_16*%
X237570300Y-88086700D03*
%TD*%
D10*
%TO.P,J18,1,Pin_1*%
%TO.N,-12V*%
X58200000Y-105866700D03*
D11*
%TO.P,J18,2,Pin_2*%
X55660000Y-105866700D03*
%TO.P,J18,3,Pin_3*%
%TO.N,GND*%
X58200000Y-103326700D03*
%TO.P,J18,4,Pin_4*%
X55660000Y-103326700D03*
%TO.P,J18,5,Pin_5*%
X58200000Y-100786700D03*
%TO.P,J18,6,Pin_6*%
X55660000Y-100786700D03*
%TO.P,J18,7,Pin_7*%
X58200000Y-98246700D03*
%TO.P,J18,8,Pin_8*%
X55660000Y-98246700D03*
%TO.P,J18,9,Pin_9*%
%TO.N,+12V*%
X58200000Y-95706700D03*
%TO.P,J18,10,Pin_10*%
X55660000Y-95706700D03*
%TO.P,J18,11,Pin_11*%
%TO.N,+5V*%
X58200000Y-93166700D03*
%TO.P,J18,12,Pin_12*%
X55660000Y-93166700D03*
%TO.P,J18,13,Pin_13*%
%TO.N,CV*%
X58200000Y-90626700D03*
%TO.P,J18,14,Pin_14*%
X55660000Y-90626700D03*
%TO.P,J18,15,Pin_15*%
%TO.N,GATE*%
X58200000Y-88086700D03*
%TO.P,J18,16,Pin_16*%
X55660000Y-88086700D03*
%TD*%
D20*
%TO.P,R3,1*%
%TO.N,-12V*%
X127225000Y-117138375D03*
D21*
%TO.P,R3,2*%
%TO.N,Net-(L3-A)*%
X137385000Y-117138375D03*
%TD*%
D14*
%TO.P,D3,1,K*%
%TO.N,GND*%
X48130000Y-110178375D03*
D15*
%TO.P,D3,2,A*%
%TO.N,-12V*%
X48130000Y-120338375D03*
%TD*%
D10*
%TO.P,J8,1,Pin_1*%
%TO.N,-12V*%
X179473500Y-105866700D03*
D11*
%TO.P,J8,2,Pin_2*%
X176933500Y-105866700D03*
%TO.P,J8,3,Pin_3*%
%TO.N,GND*%
X179473500Y-103326700D03*
%TO.P,J8,4,Pin_4*%
X176933500Y-103326700D03*
%TO.P,J8,5,Pin_5*%
X179473500Y-100786700D03*
%TO.P,J8,6,Pin_6*%
X176933500Y-100786700D03*
%TO.P,J8,7,Pin_7*%
X179473500Y-98246700D03*
%TO.P,J8,8,Pin_8*%
X176933500Y-98246700D03*
%TO.P,J8,9,Pin_9*%
%TO.N,+12V*%
X179473500Y-95706700D03*
%TO.P,J8,10,Pin_10*%
X176933500Y-95706700D03*
%TO.P,J8,11,Pin_11*%
%TO.N,+5V*%
X179473500Y-93166700D03*
%TO.P,J8,12,Pin_12*%
X176933500Y-93166700D03*
%TO.P,J8,13,Pin_13*%
%TO.N,CV*%
X179473500Y-90626700D03*
%TO.P,J8,14,Pin_14*%
X176933500Y-90626700D03*
%TO.P,J8,15,Pin_15*%
%TO.N,GATE*%
X179473500Y-88086700D03*
%TO.P,J8,16,Pin_16*%
X176933500Y-88086700D03*
%TD*%
D12*
%TO.P,L1,1,K*%
%TO.N,GND*%
X85521309Y-117138375D03*
D13*
%TO.P,L1,2,A*%
%TO.N,Net-(L1-A)*%
X82981309Y-117138375D03*
%TD*%
D10*
%TO.P,J1,1,Pin_1*%
%TO.N,-12V*%
X264365000Y-105866700D03*
D11*
%TO.P,J1,2,Pin_2*%
X261825000Y-105866700D03*
%TO.P,J1,3,Pin_3*%
%TO.N,GND*%
X264365000Y-103326700D03*
%TO.P,J1,4,Pin_4*%
X261825000Y-103326700D03*
%TO.P,J1,5,Pin_5*%
X264365000Y-100786700D03*
%TO.P,J1,6,Pin_6*%
X261825000Y-100786700D03*
%TO.P,J1,7,Pin_7*%
X264365000Y-98246700D03*
%TO.P,J1,8,Pin_8*%
X261825000Y-98246700D03*
%TO.P,J1,9,Pin_9*%
%TO.N,+12V*%
X264365000Y-95706700D03*
%TO.P,J1,10,Pin_10*%
X261825000Y-95706700D03*
%TO.P,J1,11,Pin_11*%
%TO.N,+5V*%
X264365000Y-93166700D03*
%TO.P,J1,12,Pin_12*%
X261825000Y-93166700D03*
%TO.P,J1,13,Pin_13*%
%TO.N,CV*%
X264365000Y-90626700D03*
%TO.P,J1,14,Pin_14*%
X261825000Y-90626700D03*
%TO.P,J1,15,Pin_15*%
%TO.N,GATE*%
X264365000Y-88086700D03*
%TO.P,J1,16,Pin_16*%
X261825000Y-88086700D03*
%TD*%
D16*
%TO.P,TP4,1,1*%
%TO.N,GND*%
X58738155Y-117026750D03*
%TD*%
D14*
%TO.P,D2,1,K*%
%TO.N,+5V*%
X48130000Y-75258375D03*
D15*
%TO.P,D2,2,A*%
%TO.N,GND*%
X48130000Y-85418375D03*
%TD*%
D10*
%TO.P,J5,1,Pin_1*%
%TO.N,-12V*%
X215855600Y-105866700D03*
D11*
%TO.P,J5,2,Pin_2*%
X213315600Y-105866700D03*
%TO.P,J5,3,Pin_3*%
%TO.N,GND*%
X215855600Y-103326700D03*
%TO.P,J5,4,Pin_4*%
X213315600Y-103326700D03*
%TO.P,J5,5,Pin_5*%
X215855600Y-100786700D03*
%TO.P,J5,6,Pin_6*%
X213315600Y-100786700D03*
%TO.P,J5,7,Pin_7*%
X215855600Y-98246700D03*
%TO.P,J5,8,Pin_8*%
X213315600Y-98246700D03*
%TO.P,J5,9,Pin_9*%
%TO.N,+12V*%
X215855600Y-95706700D03*
%TO.P,J5,10,Pin_10*%
X213315600Y-95706700D03*
%TO.P,J5,11,Pin_11*%
%TO.N,+5V*%
X215855600Y-93166700D03*
%TO.P,J5,12,Pin_12*%
X213315600Y-93166700D03*
%TO.P,J5,13,Pin_13*%
%TO.N,CV*%
X215855600Y-90626700D03*
%TO.P,J5,14,Pin_14*%
X213315600Y-90626700D03*
%TO.P,J5,15,Pin_15*%
%TO.N,GATE*%
X215855600Y-88086700D03*
%TO.P,J5,16,Pin_16*%
X213315600Y-88086700D03*
%TD*%
D10*
%TO.P,J16,1,Pin_1*%
%TO.N,-12V*%
X82454700Y-105866700D03*
D11*
%TO.P,J16,2,Pin_2*%
X79914700Y-105866700D03*
%TO.P,J16,3,Pin_3*%
%TO.N,GND*%
X82454700Y-103326700D03*
%TO.P,J16,4,Pin_4*%
X79914700Y-103326700D03*
%TO.P,J16,5,Pin_5*%
X82454700Y-100786700D03*
%TO.P,J16,6,Pin_6*%
X79914700Y-100786700D03*
%TO.P,J16,7,Pin_7*%
X82454700Y-98246700D03*
%TO.P,J16,8,Pin_8*%
X79914700Y-98246700D03*
%TO.P,J16,9,Pin_9*%
%TO.N,+12V*%
X82454700Y-95706700D03*
%TO.P,J16,10,Pin_10*%
X79914700Y-95706700D03*
%TO.P,J16,11,Pin_11*%
%TO.N,+5V*%
X82454700Y-93166700D03*
%TO.P,J16,12,Pin_12*%
X79914700Y-93166700D03*
%TO.P,J16,13,Pin_13*%
%TO.N,CV*%
X82454700Y-90626700D03*
%TO.P,J16,14,Pin_14*%
X79914700Y-90626700D03*
%TO.P,J16,15,Pin_15*%
%TO.N,GATE*%
X82454700Y-88086700D03*
%TO.P,J16,16,Pin_16*%
X79914700Y-88086700D03*
%TD*%
D10*
%TO.P,J11,1,Pin_1*%
%TO.N,-12V*%
X143091500Y-105866700D03*
D11*
%TO.P,J11,2,Pin_2*%
X140551500Y-105866700D03*
%TO.P,J11,3,Pin_3*%
%TO.N,GND*%
X143091500Y-103326700D03*
%TO.P,J11,4,Pin_4*%
X140551500Y-103326700D03*
%TO.P,J11,5,Pin_5*%
X143091500Y-100786700D03*
%TO.P,J11,6,Pin_6*%
X140551500Y-100786700D03*
%TO.P,J11,7,Pin_7*%
X143091500Y-98246700D03*
%TO.P,J11,8,Pin_8*%
X140551500Y-98246700D03*
%TO.P,J11,9,Pin_9*%
%TO.N,+12V*%
X143091500Y-95706700D03*
%TO.P,J11,10,Pin_10*%
X140551500Y-95706700D03*
%TO.P,J11,11,Pin_11*%
%TO.N,+5V*%
X143091500Y-93166700D03*
%TO.P,J11,12,Pin_12*%
X140551500Y-93166700D03*
%TO.P,J11,13,Pin_13*%
%TO.N,CV*%
X143091500Y-90626700D03*
%TO.P,J11,14,Pin_14*%
X140551500Y-90626700D03*
%TO.P,J11,15,Pin_15*%
%TO.N,GATE*%
X143091500Y-88086700D03*
%TO.P,J11,16,Pin_16*%
X140551500Y-88086700D03*
%TD*%
D22*
%TO.N,GND*%
X51325000Y-88613375D02*
X51325000Y-101138375D01*
X48130000Y-85418375D02*
X51325000Y-88613375D01*
X51325000Y-101138375D02*
X49985000Y-102478375D01*
X48130000Y-102478375D02*
X48130000Y-109778375D01*
X49985000Y-102478375D02*
X48130000Y-102478375D01*
%TO.N,+12V*%
X39825000Y-100938400D02*
X39925025Y-100838375D01*
X45425000Y-94138375D02*
X47245000Y-92318375D01*
X92525000Y-117138375D02*
X87225000Y-111838375D01*
X87093325Y-95706700D02*
X82454700Y-95706700D01*
X47245000Y-92318375D02*
X48130000Y-92318375D01*
X45225050Y-100838375D02*
X45425000Y-100638425D01*
X39925025Y-100838375D02*
X45225050Y-100838375D01*
X87225000Y-111838375D02*
X87225000Y-95838375D01*
X87225000Y-95838375D02*
X87093325Y-95706700D01*
X45425000Y-100638425D02*
X45425000Y-94138375D01*
X95735654Y-117138375D02*
X98655654Y-117138375D01*
X95735654Y-117138375D02*
X92525000Y-117138375D01*
%TO.N,-12V*%
X124305000Y-117138375D02*
X127225000Y-117138375D01*
X46324950Y-112238375D02*
X50225000Y-112238375D01*
X50225000Y-112238375D02*
X55660000Y-106803375D01*
X44825025Y-110938400D02*
X45024975Y-110938400D01*
X46125000Y-118738375D02*
X46930000Y-118738375D01*
X46125000Y-112238375D02*
X46125000Y-118738375D01*
X39825000Y-110938400D02*
X44825025Y-110938400D01*
X55660000Y-106803375D02*
X55660000Y-105866700D01*
X46930000Y-118738375D02*
X48130000Y-119938375D01*
X124153325Y-105866700D02*
X118836800Y-105866700D01*
X124305000Y-117138375D02*
X124305000Y-106018375D01*
X45024975Y-110938400D02*
X46324950Y-112238375D01*
X124305000Y-106018375D02*
X124153325Y-105866700D01*
X44825025Y-110938400D02*
X46125000Y-112238375D01*
%TO.N,Net-(L1-A)*%
X80281309Y-117138375D02*
X82981309Y-117138375D01*
%TO.N,Net-(L2-A)*%
X108815654Y-117138375D02*
X111470654Y-117138375D01*
%TO.N,Net-(L3-A)*%
X137385000Y-117138375D02*
X140165000Y-117138375D01*
%TO.N,+5V*%
X62553325Y-93166700D02*
X58200000Y-93166700D01*
X46505000Y-75258375D02*
X48130000Y-75258375D01*
X52825000Y-90331700D02*
X52825000Y-77038375D01*
X62925000Y-112742066D02*
X62925000Y-93538375D01*
X39825000Y-95938400D02*
X41724975Y-95938400D01*
X41724975Y-95938400D02*
X44925000Y-92738375D01*
X44925000Y-92738375D02*
X44925000Y-76838375D01*
X67321309Y-117138375D02*
X70121309Y-117138375D01*
X67321309Y-117138375D02*
X62925000Y-112742066D01*
X50645000Y-74858375D02*
X48130000Y-74858375D01*
X44925000Y-76838375D02*
X46505000Y-75258375D01*
X62925000Y-93538375D02*
X62553325Y-93166700D01*
X52825000Y-77038375D02*
X50645000Y-74858375D01*
X55660000Y-93166700D02*
X52825000Y-90331700D01*
%TD*%
M02*
