%TF.GenerationSoftware,KiCad,Pcbnew,8.0.3*%
%TF.CreationDate,2024-07-23T14:08:02-04:00*%
%TF.ProjectId,eurorack-power-bus,6575726f-7261-4636-9b2d-706f7765722d,rev?*%
%TF.SameCoordinates,Original*%
%TF.FileFunction,Soldermask,Top*%
%TF.FilePolarity,Negative*%
%FSLAX46Y46*%
G04 Gerber Fmt 4.6, Leading zero omitted, Abs format (unit mm)*
G04 Created by KiCad (PCBNEW 8.0.3) date 2024-07-23 14:08:02*
%MOMM*%
%LPD*%
G01*
G04 APERTURE LIST*
G04 Aperture macros list*
%AMRoundRect*
0 Rectangle with rounded corners*
0 $1 Rounding radius*
0 $2 $3 $4 $5 $6 $7 $8 $9 X,Y pos of 4 corners*
0 Add a 4 corners polygon primitive as box body*
4,1,4,$2,$3,$4,$5,$6,$7,$8,$9,$2,$3,0*
0 Add four circle primitives for the rounded corners*
1,1,$1+$1,$2,$3*
1,1,$1+$1,$4,$5*
1,1,$1+$1,$6,$7*
1,1,$1+$1,$8,$9*
0 Add four rect primitives between the rounded corners*
20,1,$1+$1,$2,$3,$4,$5,0*
20,1,$1+$1,$4,$5,$6,$7,0*
20,1,$1+$1,$6,$7,$8,$9,0*
20,1,$1+$1,$8,$9,$2,$3,0*%
G04 Aperture macros list end*
%ADD10R,1.800000X1.800000*%
%ADD11C,1.800000*%
%ADD12R,2.200000X2.200000*%
%ADD13O,2.200000X2.200000*%
%ADD14C,1.500000*%
%ADD15R,2.600000X2.600000*%
%ADD16C,2.600000*%
%ADD17C,6.400000*%
%ADD18C,1.600000*%
%ADD19O,1.600000X1.600000*%
%ADD20RoundRect,0.250000X0.600000X0.600000X-0.600000X0.600000X-0.600000X-0.600000X0.600000X-0.600000X0*%
%ADD21C,1.700000*%
G04 APERTURE END LIST*
D10*
%TO.C,L2*%
X124800000Y-117138375D03*
D11*
X122260000Y-117138375D03*
%TD*%
D12*
%TO.C,D1*%
X48130000Y-92718375D03*
D13*
X48130000Y-102878375D03*
%TD*%
D14*
%TO.C,TP{2*%
X106525000Y-117138375D03*
%TD*%
D15*
%TO.C,W1*%
X39825000Y-95938400D03*
D16*
X39825000Y-100938400D03*
X39825000Y-105938400D03*
X39825000Y-110938400D03*
%TD*%
D17*
%TO.C,M2*%
X33425000Y-118638400D03*
%TD*%
D18*
%TO.C,R2*%
X109445000Y-117138375D03*
D19*
X119605000Y-117138375D03*
%TD*%
D15*
%TO.C,W2*%
X39825000Y-84338400D03*
D16*
X39825000Y-89338400D03*
%TD*%
D10*
%TO.C,L3*%
X161425000Y-117138375D03*
D11*
X158885000Y-117138375D03*
%TD*%
D17*
%TO.C,M1*%
X33425000Y-76638400D03*
%TD*%
%TO.C,M4*%
X270425000Y-118638400D03*
%TD*%
%TO.C,M3*%
X270425000Y-76638400D03*
%TD*%
D14*
%TO.C,TP3*%
X143025000Y-117138375D03*
%TD*%
D18*
%TO.C,R3*%
X145945000Y-117138375D03*
D19*
X156105000Y-117138375D03*
%TD*%
D13*
%TO.C,D3*%
X48130000Y-120338375D03*
D12*
X48130000Y-110178375D03*
%TD*%
D14*
%TO.C,TP4*%
X56525000Y-117026750D03*
%TD*%
D12*
%TO.C,D2*%
X48130000Y-75258375D03*
D13*
X48130000Y-85418375D03*
%TD*%
D18*
%TO.C,R1*%
X71945000Y-117138375D03*
D19*
X82105000Y-117138375D03*
%TD*%
D10*
%TO.C,L1*%
X87345000Y-117138375D03*
D11*
X84805000Y-117138375D03*
%TD*%
D14*
%TO.C,TP1*%
X69145000Y-117138375D03*
%TD*%
D20*
%TO.C,J10*%
X155218800Y-105866700D03*
D21*
X152678800Y-105866700D03*
X155218800Y-103326700D03*
X152678800Y-103326700D03*
X155218800Y-100786700D03*
X152678800Y-100786700D03*
X155218800Y-98246700D03*
X152678800Y-98246700D03*
X155218800Y-95706700D03*
X152678800Y-95706700D03*
X155218800Y-93166700D03*
X152678800Y-93166700D03*
X155218800Y-90626700D03*
X152678800Y-90626700D03*
X155218800Y-88086700D03*
X152678800Y-88086700D03*
%TD*%
D20*
%TO.C,J16*%
X82454700Y-105866700D03*
D21*
X79914700Y-105866700D03*
X82454700Y-103326700D03*
X79914700Y-103326700D03*
X82454700Y-100786700D03*
X79914700Y-100786700D03*
X82454700Y-98246700D03*
X79914700Y-98246700D03*
X82454700Y-95706700D03*
X79914700Y-95706700D03*
X82454700Y-93166700D03*
X79914700Y-93166700D03*
X82454700Y-90626700D03*
X79914700Y-90626700D03*
X82454700Y-88086700D03*
X79914700Y-88086700D03*
%TD*%
D20*
%TO.C,J14*%
X106709400Y-105866700D03*
D21*
X104169400Y-105866700D03*
X106709400Y-103326700D03*
X104169400Y-103326700D03*
X106709400Y-100786700D03*
X104169400Y-100786700D03*
X106709400Y-98246700D03*
X104169400Y-98246700D03*
X106709400Y-95706700D03*
X104169400Y-95706700D03*
X106709400Y-93166700D03*
X104169400Y-93166700D03*
X106709400Y-90626700D03*
X104169400Y-90626700D03*
X106709400Y-88086700D03*
X104169400Y-88086700D03*
%TD*%
D20*
%TO.C,J6*%
X203728200Y-105866700D03*
D21*
X201188200Y-105866700D03*
X203728200Y-103326700D03*
X201188200Y-103326700D03*
X203728200Y-100786700D03*
X201188200Y-100786700D03*
X203728200Y-98246700D03*
X201188200Y-98246700D03*
X203728200Y-95706700D03*
X201188200Y-95706700D03*
X203728200Y-93166700D03*
X201188200Y-93166700D03*
X203728200Y-90626700D03*
X201188200Y-90626700D03*
X203728200Y-88086700D03*
X201188200Y-88086700D03*
%TD*%
D20*
%TO.C,J3*%
X240110300Y-105866700D03*
D21*
X237570300Y-105866700D03*
X240110300Y-103326700D03*
X237570300Y-103326700D03*
X240110300Y-100786700D03*
X237570300Y-100786700D03*
X240110300Y-98246700D03*
X237570300Y-98246700D03*
X240110300Y-95706700D03*
X237570300Y-95706700D03*
X240110300Y-93166700D03*
X237570300Y-93166700D03*
X240110300Y-90626700D03*
X237570300Y-90626700D03*
X240110300Y-88086700D03*
X237570300Y-88086700D03*
%TD*%
D20*
%TO.C,J12*%
X130964100Y-105866700D03*
D21*
X128424100Y-105866700D03*
X130964100Y-103326700D03*
X128424100Y-103326700D03*
X130964100Y-100786700D03*
X128424100Y-100786700D03*
X130964100Y-98246700D03*
X128424100Y-98246700D03*
X130964100Y-95706700D03*
X128424100Y-95706700D03*
X130964100Y-93166700D03*
X128424100Y-93166700D03*
X130964100Y-90626700D03*
X128424100Y-90626700D03*
X130964100Y-88086700D03*
X128424100Y-88086700D03*
%TD*%
D20*
%TO.C,J18*%
X58200000Y-105866700D03*
D21*
X55660000Y-105866700D03*
X58200000Y-103326700D03*
X55660000Y-103326700D03*
X58200000Y-100786700D03*
X55660000Y-100786700D03*
X58200000Y-98246700D03*
X55660000Y-98246700D03*
X58200000Y-95706700D03*
X55660000Y-95706700D03*
X58200000Y-93166700D03*
X55660000Y-93166700D03*
X58200000Y-90626700D03*
X55660000Y-90626700D03*
X58200000Y-88086700D03*
X55660000Y-88086700D03*
%TD*%
D20*
%TO.C,J11*%
X143091500Y-105866700D03*
D21*
X140551500Y-105866700D03*
X143091500Y-103326700D03*
X140551500Y-103326700D03*
X143091500Y-100786700D03*
X140551500Y-100786700D03*
X143091500Y-98246700D03*
X140551500Y-98246700D03*
X143091500Y-95706700D03*
X140551500Y-95706700D03*
X143091500Y-93166700D03*
X140551500Y-93166700D03*
X143091500Y-90626700D03*
X140551500Y-90626700D03*
X143091500Y-88086700D03*
X140551500Y-88086700D03*
%TD*%
D20*
%TO.C,J7*%
X191600900Y-105866700D03*
D21*
X189060900Y-105866700D03*
X191600900Y-103326700D03*
X189060900Y-103326700D03*
X191600900Y-100786700D03*
X189060900Y-100786700D03*
X191600900Y-98246700D03*
X189060900Y-98246700D03*
X191600900Y-95706700D03*
X189060900Y-95706700D03*
X191600900Y-93166700D03*
X189060900Y-93166700D03*
X191600900Y-90626700D03*
X189060900Y-90626700D03*
X191600900Y-88086700D03*
X189060900Y-88086700D03*
%TD*%
D20*
%TO.C,J9*%
X167346200Y-105866700D03*
D21*
X164806200Y-105866700D03*
X167346200Y-103326700D03*
X164806200Y-103326700D03*
X167346200Y-100786700D03*
X164806200Y-100786700D03*
X167346200Y-98246700D03*
X164806200Y-98246700D03*
X167346200Y-95706700D03*
X164806200Y-95706700D03*
X167346200Y-93166700D03*
X164806200Y-93166700D03*
X167346200Y-90626700D03*
X164806200Y-90626700D03*
X167346200Y-88086700D03*
X164806200Y-88086700D03*
%TD*%
D20*
%TO.C,J5*%
X215855600Y-105866700D03*
D21*
X213315600Y-105866700D03*
X215855600Y-103326700D03*
X213315600Y-103326700D03*
X215855600Y-100786700D03*
X213315600Y-100786700D03*
X215855600Y-98246700D03*
X213315600Y-98246700D03*
X215855600Y-95706700D03*
X213315600Y-95706700D03*
X215855600Y-93166700D03*
X213315600Y-93166700D03*
X215855600Y-90626700D03*
X213315600Y-90626700D03*
X215855600Y-88086700D03*
X213315600Y-88086700D03*
%TD*%
D20*
%TO.C,J4*%
X227982900Y-105866700D03*
D21*
X225442900Y-105866700D03*
X227982900Y-103326700D03*
X225442900Y-103326700D03*
X227982900Y-100786700D03*
X225442900Y-100786700D03*
X227982900Y-98246700D03*
X225442900Y-98246700D03*
X227982900Y-95706700D03*
X225442900Y-95706700D03*
X227982900Y-93166700D03*
X225442900Y-93166700D03*
X227982900Y-90626700D03*
X225442900Y-90626700D03*
X227982900Y-88086700D03*
X225442900Y-88086700D03*
%TD*%
D20*
%TO.C,J8*%
X179473500Y-105866700D03*
D21*
X176933500Y-105866700D03*
X179473500Y-103326700D03*
X176933500Y-103326700D03*
X179473500Y-100786700D03*
X176933500Y-100786700D03*
X179473500Y-98246700D03*
X176933500Y-98246700D03*
X179473500Y-95706700D03*
X176933500Y-95706700D03*
X179473500Y-93166700D03*
X176933500Y-93166700D03*
X179473500Y-90626700D03*
X176933500Y-90626700D03*
X179473500Y-88086700D03*
X176933500Y-88086700D03*
%TD*%
D20*
%TO.C,J1*%
X264365000Y-105866700D03*
D21*
X261825000Y-105866700D03*
X264365000Y-103326700D03*
X261825000Y-103326700D03*
X264365000Y-100786700D03*
X261825000Y-100786700D03*
X264365000Y-98246700D03*
X261825000Y-98246700D03*
X264365000Y-95706700D03*
X261825000Y-95706700D03*
X264365000Y-93166700D03*
X261825000Y-93166700D03*
X264365000Y-90626700D03*
X261825000Y-90626700D03*
X264365000Y-88086700D03*
X261825000Y-88086700D03*
%TD*%
D20*
%TO.C,J17*%
X70327400Y-105866700D03*
D21*
X67787400Y-105866700D03*
X70327400Y-103326700D03*
X67787400Y-103326700D03*
X70327400Y-100786700D03*
X67787400Y-100786700D03*
X70327400Y-98246700D03*
X67787400Y-98246700D03*
X70327400Y-95706700D03*
X67787400Y-95706700D03*
X70327400Y-93166700D03*
X67787400Y-93166700D03*
X70327400Y-90626700D03*
X67787400Y-90626700D03*
X70327400Y-88086700D03*
X67787400Y-88086700D03*
%TD*%
D20*
%TO.C,J13*%
X118836800Y-105866700D03*
D21*
X116296800Y-105866700D03*
X118836800Y-103326700D03*
X116296800Y-103326700D03*
X118836800Y-100786700D03*
X116296800Y-100786700D03*
X118836800Y-98246700D03*
X116296800Y-98246700D03*
X118836800Y-95706700D03*
X116296800Y-95706700D03*
X118836800Y-93166700D03*
X116296800Y-93166700D03*
X118836800Y-90626700D03*
X116296800Y-90626700D03*
X118836800Y-88086700D03*
X116296800Y-88086700D03*
%TD*%
D20*
%TO.C,J2*%
X252237600Y-105866700D03*
D21*
X249697600Y-105866700D03*
X252237600Y-103326700D03*
X249697600Y-103326700D03*
X252237600Y-100786700D03*
X249697600Y-100786700D03*
X252237600Y-98246700D03*
X249697600Y-98246700D03*
X252237600Y-95706700D03*
X249697600Y-95706700D03*
X252237600Y-93166700D03*
X249697600Y-93166700D03*
X252237600Y-90626700D03*
X249697600Y-90626700D03*
X252237600Y-88086700D03*
X249697600Y-88086700D03*
%TD*%
D20*
%TO.C,J15*%
X94582100Y-105866700D03*
D21*
X92042100Y-105866700D03*
X94582100Y-103326700D03*
X92042100Y-103326700D03*
X94582100Y-100786700D03*
X92042100Y-100786700D03*
X94582100Y-98246700D03*
X92042100Y-98246700D03*
X94582100Y-95706700D03*
X92042100Y-95706700D03*
X94582100Y-93166700D03*
X92042100Y-93166700D03*
X94582100Y-90626700D03*
X92042100Y-90626700D03*
X94582100Y-88086700D03*
X92042100Y-88086700D03*
%TD*%
M02*
