%TF.GenerationSoftware,KiCad,Pcbnew,8.0.3*%
%TF.CreationDate,2024-07-23T14:08:02-04:00*%
%TF.ProjectId,eurorack-power-bus,6575726f-7261-4636-9b2d-706f7765722d,rev?*%
%TF.SameCoordinates,Original*%
%TF.FileFunction,Legend,Top*%
%TF.FilePolarity,Positive*%
%FSLAX46Y46*%
G04 Gerber Fmt 4.6, Leading zero omitted, Abs format (unit mm)*
G04 Created by KiCad (PCBNEW 8.0.3) date 2024-07-23 14:08:02*
%MOMM*%
%LPD*%
G01*
G04 APERTURE LIST*
%ADD10C,0.100000*%
%ADD11C,0.150000*%
%ADD12C,0.120000*%
G04 APERTURE END LIST*
D10*
X270465789Y-87543413D02*
X270376503Y-87495794D01*
X270376503Y-87495794D02*
X270233646Y-87495794D01*
X270233646Y-87495794D02*
X270084836Y-87543413D01*
X270084836Y-87543413D02*
X269977693Y-87638651D01*
X269977693Y-87638651D02*
X269918169Y-87733889D01*
X269918169Y-87733889D02*
X269846741Y-87924365D01*
X269846741Y-87924365D02*
X269828884Y-88067222D01*
X269828884Y-88067222D02*
X269852693Y-88257698D01*
X269852693Y-88257698D02*
X269888408Y-88352936D01*
X269888408Y-88352936D02*
X269971741Y-88448175D01*
X269971741Y-88448175D02*
X270108646Y-88495794D01*
X270108646Y-88495794D02*
X270203884Y-88495794D01*
X270203884Y-88495794D02*
X270352693Y-88448175D01*
X270352693Y-88448175D02*
X270406265Y-88400555D01*
X270406265Y-88400555D02*
X270447931Y-88067222D01*
X270447931Y-88067222D02*
X270257455Y-88067222D01*
X270811027Y-88210079D02*
X271287217Y-88210079D01*
X270680074Y-88495794D02*
X271138408Y-87495794D01*
X271138408Y-87495794D02*
X271346741Y-88495794D01*
X271662217Y-87495794D02*
X272233646Y-87495794D01*
X271822932Y-88495794D02*
X271947932Y-87495794D01*
X272507456Y-87971984D02*
X272840789Y-87971984D01*
X272918170Y-88495794D02*
X272441979Y-88495794D01*
X272441979Y-88495794D02*
X272566979Y-87495794D01*
X272566979Y-87495794D02*
X273043170Y-87495794D01*
X270406265Y-91000555D02*
X270352693Y-91048175D01*
X270352693Y-91048175D02*
X270203884Y-91095794D01*
X270203884Y-91095794D02*
X270108646Y-91095794D01*
X270108646Y-91095794D02*
X269971741Y-91048175D01*
X269971741Y-91048175D02*
X269888408Y-90952936D01*
X269888408Y-90952936D02*
X269852693Y-90857698D01*
X269852693Y-90857698D02*
X269828884Y-90667222D01*
X269828884Y-90667222D02*
X269846741Y-90524365D01*
X269846741Y-90524365D02*
X269918169Y-90333889D01*
X269918169Y-90333889D02*
X269977693Y-90238651D01*
X269977693Y-90238651D02*
X270084836Y-90143413D01*
X270084836Y-90143413D02*
X270233646Y-90095794D01*
X270233646Y-90095794D02*
X270328884Y-90095794D01*
X270328884Y-90095794D02*
X270465789Y-90143413D01*
X270465789Y-90143413D02*
X270507455Y-90191032D01*
X270805074Y-90095794D02*
X271013408Y-91095794D01*
X271013408Y-91095794D02*
X271471741Y-90095794D01*
X269828884Y-93314841D02*
X270590789Y-93314841D01*
X270209836Y-93695794D02*
X270209836Y-92933889D01*
X271543169Y-92695794D02*
X271066979Y-92695794D01*
X271066979Y-92695794D02*
X271019360Y-93171984D01*
X271019360Y-93171984D02*
X271066979Y-93124365D01*
X271066979Y-93124365D02*
X271162217Y-93076746D01*
X271162217Y-93076746D02*
X271400312Y-93076746D01*
X271400312Y-93076746D02*
X271495550Y-93124365D01*
X271495550Y-93124365D02*
X271543169Y-93171984D01*
X271543169Y-93171984D02*
X271590788Y-93267222D01*
X271590788Y-93267222D02*
X271590788Y-93505317D01*
X271590788Y-93505317D02*
X271543169Y-93600555D01*
X271543169Y-93600555D02*
X271495550Y-93648175D01*
X271495550Y-93648175D02*
X271400312Y-93695794D01*
X271400312Y-93695794D02*
X271162217Y-93695794D01*
X271162217Y-93695794D02*
X271066979Y-93648175D01*
X271066979Y-93648175D02*
X271019360Y-93600555D01*
X271876503Y-92695794D02*
X272209836Y-93695794D01*
X272209836Y-93695794D02*
X272543169Y-92695794D01*
X269828884Y-95714841D02*
X270590789Y-95714841D01*
X270209836Y-96095794D02*
X270209836Y-95333889D01*
X271590788Y-96095794D02*
X271019360Y-96095794D01*
X271305074Y-96095794D02*
X271305074Y-95095794D01*
X271305074Y-95095794D02*
X271209836Y-95238651D01*
X271209836Y-95238651D02*
X271114598Y-95333889D01*
X271114598Y-95333889D02*
X271019360Y-95381508D01*
X271971741Y-95191032D02*
X272019360Y-95143413D01*
X272019360Y-95143413D02*
X272114598Y-95095794D01*
X272114598Y-95095794D02*
X272352693Y-95095794D01*
X272352693Y-95095794D02*
X272447931Y-95143413D01*
X272447931Y-95143413D02*
X272495550Y-95191032D01*
X272495550Y-95191032D02*
X272543169Y-95286270D01*
X272543169Y-95286270D02*
X272543169Y-95381508D01*
X272543169Y-95381508D02*
X272495550Y-95524365D01*
X272495550Y-95524365D02*
X271924122Y-96095794D01*
X271924122Y-96095794D02*
X272543169Y-96095794D01*
X272828884Y-95095794D02*
X273162217Y-96095794D01*
X273162217Y-96095794D02*
X273495550Y-95095794D01*
X270352693Y-97743413D02*
X270257455Y-97695794D01*
X270257455Y-97695794D02*
X270114598Y-97695794D01*
X270114598Y-97695794D02*
X269971741Y-97743413D01*
X269971741Y-97743413D02*
X269876503Y-97838651D01*
X269876503Y-97838651D02*
X269828884Y-97933889D01*
X269828884Y-97933889D02*
X269781265Y-98124365D01*
X269781265Y-98124365D02*
X269781265Y-98267222D01*
X269781265Y-98267222D02*
X269828884Y-98457698D01*
X269828884Y-98457698D02*
X269876503Y-98552936D01*
X269876503Y-98552936D02*
X269971741Y-98648175D01*
X269971741Y-98648175D02*
X270114598Y-98695794D01*
X270114598Y-98695794D02*
X270209836Y-98695794D01*
X270209836Y-98695794D02*
X270352693Y-98648175D01*
X270352693Y-98648175D02*
X270400312Y-98600555D01*
X270400312Y-98600555D02*
X270400312Y-98267222D01*
X270400312Y-98267222D02*
X270209836Y-98267222D01*
X270828884Y-98695794D02*
X270828884Y-97695794D01*
X270828884Y-97695794D02*
X271400312Y-98695794D01*
X271400312Y-98695794D02*
X271400312Y-97695794D01*
X271876503Y-98695794D02*
X271876503Y-97695794D01*
X271876503Y-97695794D02*
X272114598Y-97695794D01*
X272114598Y-97695794D02*
X272257455Y-97743413D01*
X272257455Y-97743413D02*
X272352693Y-97838651D01*
X272352693Y-97838651D02*
X272400312Y-97933889D01*
X272400312Y-97933889D02*
X272447931Y-98124365D01*
X272447931Y-98124365D02*
X272447931Y-98267222D01*
X272447931Y-98267222D02*
X272400312Y-98457698D01*
X272400312Y-98457698D02*
X272352693Y-98552936D01*
X272352693Y-98552936D02*
X272257455Y-98648175D01*
X272257455Y-98648175D02*
X272114598Y-98695794D01*
X272114598Y-98695794D02*
X271876503Y-98695794D01*
X270352693Y-100343413D02*
X270257455Y-100295794D01*
X270257455Y-100295794D02*
X270114598Y-100295794D01*
X270114598Y-100295794D02*
X269971741Y-100343413D01*
X269971741Y-100343413D02*
X269876503Y-100438651D01*
X269876503Y-100438651D02*
X269828884Y-100533889D01*
X269828884Y-100533889D02*
X269781265Y-100724365D01*
X269781265Y-100724365D02*
X269781265Y-100867222D01*
X269781265Y-100867222D02*
X269828884Y-101057698D01*
X269828884Y-101057698D02*
X269876503Y-101152936D01*
X269876503Y-101152936D02*
X269971741Y-101248175D01*
X269971741Y-101248175D02*
X270114598Y-101295794D01*
X270114598Y-101295794D02*
X270209836Y-101295794D01*
X270209836Y-101295794D02*
X270352693Y-101248175D01*
X270352693Y-101248175D02*
X270400312Y-101200555D01*
X270400312Y-101200555D02*
X270400312Y-100867222D01*
X270400312Y-100867222D02*
X270209836Y-100867222D01*
X270828884Y-101295794D02*
X270828884Y-100295794D01*
X270828884Y-100295794D02*
X271400312Y-101295794D01*
X271400312Y-101295794D02*
X271400312Y-100295794D01*
X271876503Y-101295794D02*
X271876503Y-100295794D01*
X271876503Y-100295794D02*
X272114598Y-100295794D01*
X272114598Y-100295794D02*
X272257455Y-100343413D01*
X272257455Y-100343413D02*
X272352693Y-100438651D01*
X272352693Y-100438651D02*
X272400312Y-100533889D01*
X272400312Y-100533889D02*
X272447931Y-100724365D01*
X272447931Y-100724365D02*
X272447931Y-100867222D01*
X272447931Y-100867222D02*
X272400312Y-101057698D01*
X272400312Y-101057698D02*
X272352693Y-101152936D01*
X272352693Y-101152936D02*
X272257455Y-101248175D01*
X272257455Y-101248175D02*
X272114598Y-101295794D01*
X272114598Y-101295794D02*
X271876503Y-101295794D01*
X270352693Y-102743413D02*
X270257455Y-102695794D01*
X270257455Y-102695794D02*
X270114598Y-102695794D01*
X270114598Y-102695794D02*
X269971741Y-102743413D01*
X269971741Y-102743413D02*
X269876503Y-102838651D01*
X269876503Y-102838651D02*
X269828884Y-102933889D01*
X269828884Y-102933889D02*
X269781265Y-103124365D01*
X269781265Y-103124365D02*
X269781265Y-103267222D01*
X269781265Y-103267222D02*
X269828884Y-103457698D01*
X269828884Y-103457698D02*
X269876503Y-103552936D01*
X269876503Y-103552936D02*
X269971741Y-103648175D01*
X269971741Y-103648175D02*
X270114598Y-103695794D01*
X270114598Y-103695794D02*
X270209836Y-103695794D01*
X270209836Y-103695794D02*
X270352693Y-103648175D01*
X270352693Y-103648175D02*
X270400312Y-103600555D01*
X270400312Y-103600555D02*
X270400312Y-103267222D01*
X270400312Y-103267222D02*
X270209836Y-103267222D01*
X270828884Y-103695794D02*
X270828884Y-102695794D01*
X270828884Y-102695794D02*
X271400312Y-103695794D01*
X271400312Y-103695794D02*
X271400312Y-102695794D01*
X271876503Y-103695794D02*
X271876503Y-102695794D01*
X271876503Y-102695794D02*
X272114598Y-102695794D01*
X272114598Y-102695794D02*
X272257455Y-102743413D01*
X272257455Y-102743413D02*
X272352693Y-102838651D01*
X272352693Y-102838651D02*
X272400312Y-102933889D01*
X272400312Y-102933889D02*
X272447931Y-103124365D01*
X272447931Y-103124365D02*
X272447931Y-103267222D01*
X272447931Y-103267222D02*
X272400312Y-103457698D01*
X272400312Y-103457698D02*
X272352693Y-103552936D01*
X272352693Y-103552936D02*
X272257455Y-103648175D01*
X272257455Y-103648175D02*
X272114598Y-103695794D01*
X272114598Y-103695794D02*
X271876503Y-103695794D01*
G36*
X273556535Y-106485280D02*
G01*
X269571579Y-106485280D01*
X269571579Y-105924082D01*
X269682690Y-105924082D01*
X269682690Y-105962350D01*
X269709750Y-105989410D01*
X269728884Y-105993216D01*
X270509923Y-105989410D01*
X270536983Y-105962350D01*
X270536983Y-105924082D01*
X270509923Y-105897022D01*
X270490789Y-105893216D01*
X269709750Y-105897022D01*
X269682690Y-105924082D01*
X269571579Y-105924082D01*
X269571579Y-105613428D01*
X270869486Y-105613428D01*
X270886600Y-105647656D01*
X270922905Y-105659757D01*
X270941721Y-105654604D01*
X271027421Y-105608458D01*
X271033732Y-105608458D01*
X271049953Y-105597619D01*
X271134007Y-105509300D01*
X271137658Y-105508570D01*
X271151439Y-105494761D01*
X271155686Y-105488106D01*
X271158629Y-106276309D01*
X270900226Y-106277975D01*
X270873166Y-106305035D01*
X270873166Y-106343303D01*
X270900226Y-106370363D01*
X270919360Y-106374169D01*
X271509922Y-106370363D01*
X271536982Y-106343303D01*
X271536982Y-106305035D01*
X271777928Y-106305035D01*
X271777928Y-106343303D01*
X271804988Y-106370363D01*
X271824122Y-106374169D01*
X272462303Y-106370363D01*
X272489363Y-106343303D01*
X272489363Y-106305035D01*
X272462303Y-106277975D01*
X272443169Y-106274169D01*
X271941083Y-106277163D01*
X272423255Y-105790533D01*
X272433323Y-105785500D01*
X272440203Y-105773428D01*
X272441744Y-105771874D01*
X272441744Y-105770726D01*
X272442984Y-105768551D01*
X272484563Y-105633816D01*
X272489363Y-105629017D01*
X272493169Y-105609883D01*
X272490168Y-105519722D01*
X272493043Y-105511100D01*
X272489444Y-105497960D01*
X272489363Y-105495511D01*
X272488551Y-105494699D01*
X272487890Y-105492284D01*
X272441744Y-105406583D01*
X272441744Y-105400272D01*
X272430905Y-105384051D01*
X272428353Y-105381714D01*
X272428310Y-105381634D01*
X272428239Y-105381610D01*
X272387445Y-105344256D01*
X272385703Y-105339028D01*
X272370291Y-105327066D01*
X272356370Y-105320625D01*
X272679010Y-105320625D01*
X272681450Y-105339980D01*
X273013453Y-106324341D01*
X273012343Y-106327713D01*
X273019249Y-106341525D01*
X273024444Y-106356928D01*
X273027785Y-106358598D01*
X273029457Y-106361942D01*
X273044499Y-106366955D01*
X273058673Y-106374043D01*
X273062216Y-106372861D01*
X273065761Y-106374043D01*
X273079940Y-106366953D01*
X273094977Y-106361941D01*
X273096647Y-106358600D01*
X273099990Y-106356929D01*
X273109651Y-106339980D01*
X273445424Y-105320625D01*
X273428310Y-105286397D01*
X273392006Y-105274295D01*
X273357777Y-105291410D01*
X273348116Y-105308358D01*
X273063647Y-106171960D01*
X272766657Y-105291409D01*
X272732428Y-105274295D01*
X272696124Y-105286396D01*
X272679010Y-105320625D01*
X272356370Y-105320625D01*
X272278402Y-105284550D01*
X272271827Y-105277975D01*
X272258433Y-105275310D01*
X272256238Y-105274295D01*
X272255149Y-105274657D01*
X272252693Y-105274169D01*
X272020960Y-105277597D01*
X272011053Y-105274295D01*
X271997738Y-105277941D01*
X271995464Y-105277975D01*
X271994652Y-105278786D01*
X271992237Y-105279448D01*
X271906536Y-105325594D01*
X271900225Y-105325594D01*
X271884004Y-105336433D01*
X271881667Y-105338984D01*
X271881587Y-105339028D01*
X271881563Y-105339098D01*
X271825547Y-105400273D01*
X271825547Y-105438541D01*
X271852607Y-105465601D01*
X271890875Y-105465601D01*
X271907096Y-105454762D01*
X271942517Y-105416080D01*
X272020515Y-105374081D01*
X272234702Y-105370912D01*
X272312383Y-105406854D01*
X272312576Y-105407143D01*
X272351257Y-105442564D01*
X272393373Y-105520778D01*
X272395807Y-105593944D01*
X272395735Y-105594072D01*
X272356542Y-105721070D01*
X271777928Y-106305035D01*
X271536982Y-106305035D01*
X271509922Y-106277975D01*
X271490788Y-106274169D01*
X271254892Y-106275689D01*
X271251391Y-105338153D01*
X271254124Y-105333872D01*
X271251323Y-105319870D01*
X271251268Y-105305035D01*
X271247627Y-105301394D01*
X271246618Y-105296347D01*
X271234502Y-105288269D01*
X271224208Y-105277975D01*
X271219062Y-105277975D01*
X271214778Y-105275119D01*
X271200500Y-105277975D01*
X271185940Y-105277975D01*
X271182299Y-105281615D01*
X271177252Y-105282625D01*
X271163472Y-105296434D01*
X271079150Y-105428550D01*
X271074481Y-105431671D01*
X270992938Y-105517350D01*
X270992237Y-105517543D01*
X270881587Y-105577123D01*
X270869486Y-105613428D01*
X269571579Y-105613428D01*
X269571579Y-105163058D01*
X273556535Y-105163058D01*
X273556535Y-106485280D01*
G37*
X30197306Y-110914841D02*
X30959211Y-110914841D01*
X31959210Y-111295794D02*
X31387782Y-111295794D01*
X31673496Y-111295794D02*
X31673496Y-110295794D01*
X31673496Y-110295794D02*
X31578258Y-110438651D01*
X31578258Y-110438651D02*
X31483020Y-110533889D01*
X31483020Y-110533889D02*
X31387782Y-110581508D01*
X32340163Y-110391032D02*
X32387782Y-110343413D01*
X32387782Y-110343413D02*
X32483020Y-110295794D01*
X32483020Y-110295794D02*
X32721115Y-110295794D01*
X32721115Y-110295794D02*
X32816353Y-110343413D01*
X32816353Y-110343413D02*
X32863972Y-110391032D01*
X32863972Y-110391032D02*
X32911591Y-110486270D01*
X32911591Y-110486270D02*
X32911591Y-110581508D01*
X32911591Y-110581508D02*
X32863972Y-110724365D01*
X32863972Y-110724365D02*
X32292544Y-111295794D01*
X32292544Y-111295794D02*
X32911591Y-111295794D01*
X33197306Y-110295794D02*
X33530639Y-111295794D01*
X33530639Y-111295794D02*
X33863972Y-110295794D01*
X31873496Y-105343413D02*
X31778258Y-105295794D01*
X31778258Y-105295794D02*
X31635401Y-105295794D01*
X31635401Y-105295794D02*
X31492544Y-105343413D01*
X31492544Y-105343413D02*
X31397306Y-105438651D01*
X31397306Y-105438651D02*
X31349687Y-105533889D01*
X31349687Y-105533889D02*
X31302068Y-105724365D01*
X31302068Y-105724365D02*
X31302068Y-105867222D01*
X31302068Y-105867222D02*
X31349687Y-106057698D01*
X31349687Y-106057698D02*
X31397306Y-106152936D01*
X31397306Y-106152936D02*
X31492544Y-106248175D01*
X31492544Y-106248175D02*
X31635401Y-106295794D01*
X31635401Y-106295794D02*
X31730639Y-106295794D01*
X31730639Y-106295794D02*
X31873496Y-106248175D01*
X31873496Y-106248175D02*
X31921115Y-106200555D01*
X31921115Y-106200555D02*
X31921115Y-105867222D01*
X31921115Y-105867222D02*
X31730639Y-105867222D01*
X32349687Y-106295794D02*
X32349687Y-105295794D01*
X32349687Y-105295794D02*
X32921115Y-106295794D01*
X32921115Y-106295794D02*
X32921115Y-105295794D01*
X33397306Y-106295794D02*
X33397306Y-105295794D01*
X33397306Y-105295794D02*
X33635401Y-105295794D01*
X33635401Y-105295794D02*
X33778258Y-105343413D01*
X33778258Y-105343413D02*
X33873496Y-105438651D01*
X33873496Y-105438651D02*
X33921115Y-105533889D01*
X33921115Y-105533889D02*
X33968734Y-105724365D01*
X33968734Y-105724365D02*
X33968734Y-105867222D01*
X33968734Y-105867222D02*
X33921115Y-106057698D01*
X33921115Y-106057698D02*
X33873496Y-106152936D01*
X33873496Y-106152936D02*
X33778258Y-106248175D01*
X33778258Y-106248175D02*
X33635401Y-106295794D01*
X33635401Y-106295794D02*
X33397306Y-106295794D01*
X30597306Y-100914841D02*
X31359211Y-100914841D01*
X30978258Y-101295794D02*
X30978258Y-100533889D01*
X32359210Y-101295794D02*
X31787782Y-101295794D01*
X32073496Y-101295794D02*
X32073496Y-100295794D01*
X32073496Y-100295794D02*
X31978258Y-100438651D01*
X31978258Y-100438651D02*
X31883020Y-100533889D01*
X31883020Y-100533889D02*
X31787782Y-100581508D01*
X32740163Y-100391032D02*
X32787782Y-100343413D01*
X32787782Y-100343413D02*
X32883020Y-100295794D01*
X32883020Y-100295794D02*
X33121115Y-100295794D01*
X33121115Y-100295794D02*
X33216353Y-100343413D01*
X33216353Y-100343413D02*
X33263972Y-100391032D01*
X33263972Y-100391032D02*
X33311591Y-100486270D01*
X33311591Y-100486270D02*
X33311591Y-100581508D01*
X33311591Y-100581508D02*
X33263972Y-100724365D01*
X33263972Y-100724365D02*
X32692544Y-101295794D01*
X32692544Y-101295794D02*
X33311591Y-101295794D01*
X33597306Y-100295794D02*
X33930639Y-101295794D01*
X33930639Y-101295794D02*
X34263972Y-100295794D01*
X31749687Y-96114841D02*
X32511592Y-96114841D01*
X32130639Y-96495794D02*
X32130639Y-95733889D01*
X33463972Y-95495794D02*
X32987782Y-95495794D01*
X32987782Y-95495794D02*
X32940163Y-95971984D01*
X32940163Y-95971984D02*
X32987782Y-95924365D01*
X32987782Y-95924365D02*
X33083020Y-95876746D01*
X33083020Y-95876746D02*
X33321115Y-95876746D01*
X33321115Y-95876746D02*
X33416353Y-95924365D01*
X33416353Y-95924365D02*
X33463972Y-95971984D01*
X33463972Y-95971984D02*
X33511591Y-96067222D01*
X33511591Y-96067222D02*
X33511591Y-96305317D01*
X33511591Y-96305317D02*
X33463972Y-96400555D01*
X33463972Y-96400555D02*
X33416353Y-96448175D01*
X33416353Y-96448175D02*
X33321115Y-96495794D01*
X33321115Y-96495794D02*
X33083020Y-96495794D01*
X33083020Y-96495794D02*
X32987782Y-96448175D01*
X32987782Y-96448175D02*
X32940163Y-96400555D01*
X33797306Y-95495794D02*
X34130639Y-96495794D01*
X34130639Y-96495794D02*
X34463972Y-95495794D01*
X33711591Y-89700555D02*
X33663972Y-89748175D01*
X33663972Y-89748175D02*
X33521115Y-89795794D01*
X33521115Y-89795794D02*
X33425877Y-89795794D01*
X33425877Y-89795794D02*
X33283020Y-89748175D01*
X33283020Y-89748175D02*
X33187782Y-89652936D01*
X33187782Y-89652936D02*
X33140163Y-89557698D01*
X33140163Y-89557698D02*
X33092544Y-89367222D01*
X33092544Y-89367222D02*
X33092544Y-89224365D01*
X33092544Y-89224365D02*
X33140163Y-89033889D01*
X33140163Y-89033889D02*
X33187782Y-88938651D01*
X33187782Y-88938651D02*
X33283020Y-88843413D01*
X33283020Y-88843413D02*
X33425877Y-88795794D01*
X33425877Y-88795794D02*
X33521115Y-88795794D01*
X33521115Y-88795794D02*
X33663972Y-88843413D01*
X33663972Y-88843413D02*
X33711591Y-88891032D01*
X33997306Y-88795794D02*
X34330639Y-89795794D01*
X34330639Y-89795794D02*
X34663972Y-88795794D01*
X31997305Y-83843413D02*
X31902067Y-83795794D01*
X31902067Y-83795794D02*
X31759210Y-83795794D01*
X31759210Y-83795794D02*
X31616353Y-83843413D01*
X31616353Y-83843413D02*
X31521115Y-83938651D01*
X31521115Y-83938651D02*
X31473496Y-84033889D01*
X31473496Y-84033889D02*
X31425877Y-84224365D01*
X31425877Y-84224365D02*
X31425877Y-84367222D01*
X31425877Y-84367222D02*
X31473496Y-84557698D01*
X31473496Y-84557698D02*
X31521115Y-84652936D01*
X31521115Y-84652936D02*
X31616353Y-84748175D01*
X31616353Y-84748175D02*
X31759210Y-84795794D01*
X31759210Y-84795794D02*
X31854448Y-84795794D01*
X31854448Y-84795794D02*
X31997305Y-84748175D01*
X31997305Y-84748175D02*
X32044924Y-84700555D01*
X32044924Y-84700555D02*
X32044924Y-84367222D01*
X32044924Y-84367222D02*
X31854448Y-84367222D01*
X32425877Y-84510079D02*
X32902067Y-84510079D01*
X32330639Y-84795794D02*
X32663972Y-83795794D01*
X32663972Y-83795794D02*
X32997305Y-84795794D01*
X33187782Y-83795794D02*
X33759210Y-83795794D01*
X33473496Y-84795794D02*
X33473496Y-83795794D01*
X34092544Y-84271984D02*
X34425877Y-84271984D01*
X34568734Y-84795794D02*
X34092544Y-84795794D01*
X34092544Y-84795794D02*
X34092544Y-83795794D01*
X34092544Y-83795794D02*
X34568734Y-83795794D01*
X254947931Y-115314715D02*
X254900312Y-115267096D01*
X254900312Y-115267096D02*
X254805074Y-115219477D01*
X254805074Y-115219477D02*
X254709836Y-115219477D01*
X254709836Y-115219477D02*
X254614598Y-115267096D01*
X254614598Y-115267096D02*
X254566979Y-115314715D01*
X254566979Y-115314715D02*
X254519360Y-115409953D01*
X254519360Y-115409953D02*
X254519360Y-115505191D01*
X254519360Y-115505191D02*
X254566979Y-115600429D01*
X254566979Y-115600429D02*
X254614598Y-115648048D01*
X254614598Y-115648048D02*
X254709836Y-115695667D01*
X254709836Y-115695667D02*
X254805074Y-115695667D01*
X254805074Y-115695667D02*
X254900312Y-115648048D01*
X254900312Y-115648048D02*
X254947931Y-115600429D01*
X254947931Y-115219477D02*
X254947931Y-115600429D01*
X254947931Y-115600429D02*
X254995550Y-115648048D01*
X254995550Y-115648048D02*
X255043169Y-115648048D01*
X255043169Y-115648048D02*
X255138408Y-115600429D01*
X255138408Y-115600429D02*
X255186027Y-115505191D01*
X255186027Y-115505191D02*
X255186027Y-115267096D01*
X255186027Y-115267096D02*
X255090789Y-115124239D01*
X255090789Y-115124239D02*
X254947931Y-115029001D01*
X254947931Y-115029001D02*
X254757455Y-114981382D01*
X254757455Y-114981382D02*
X254566979Y-115029001D01*
X254566979Y-115029001D02*
X254424122Y-115124239D01*
X254424122Y-115124239D02*
X254328884Y-115267096D01*
X254328884Y-115267096D02*
X254281265Y-115457572D01*
X254281265Y-115457572D02*
X254328884Y-115648048D01*
X254328884Y-115648048D02*
X254424122Y-115790906D01*
X254424122Y-115790906D02*
X254566979Y-115886144D01*
X254566979Y-115886144D02*
X254757455Y-115933763D01*
X254757455Y-115933763D02*
X254947931Y-115886144D01*
X254947931Y-115886144D02*
X255090789Y-115790906D01*
X255614598Y-115790906D02*
X255614598Y-114790906D01*
X255709836Y-115409953D02*
X255995550Y-115790906D01*
X255995550Y-115124239D02*
X255614598Y-115505191D01*
X256852693Y-115790906D02*
X256852693Y-115267096D01*
X256852693Y-115267096D02*
X256805074Y-115171858D01*
X256805074Y-115171858D02*
X256709836Y-115124239D01*
X256709836Y-115124239D02*
X256519360Y-115124239D01*
X256519360Y-115124239D02*
X256424122Y-115171858D01*
X256852693Y-115743287D02*
X256757455Y-115790906D01*
X256757455Y-115790906D02*
X256519360Y-115790906D01*
X256519360Y-115790906D02*
X256424122Y-115743287D01*
X256424122Y-115743287D02*
X256376503Y-115648048D01*
X256376503Y-115648048D02*
X256376503Y-115552810D01*
X256376503Y-115552810D02*
X256424122Y-115457572D01*
X256424122Y-115457572D02*
X256519360Y-115409953D01*
X256519360Y-115409953D02*
X256757455Y-115409953D01*
X256757455Y-115409953D02*
X256852693Y-115362334D01*
X257328884Y-115790906D02*
X257328884Y-115124239D01*
X257328884Y-115314715D02*
X257376503Y-115219477D01*
X257376503Y-115219477D02*
X257424122Y-115171858D01*
X257424122Y-115171858D02*
X257519360Y-115124239D01*
X257519360Y-115124239D02*
X257614598Y-115124239D01*
X258376503Y-115743287D02*
X258281265Y-115790906D01*
X258281265Y-115790906D02*
X258090789Y-115790906D01*
X258090789Y-115790906D02*
X257995551Y-115743287D01*
X257995551Y-115743287D02*
X257947932Y-115695667D01*
X257947932Y-115695667D02*
X257900313Y-115600429D01*
X257900313Y-115600429D02*
X257900313Y-115314715D01*
X257900313Y-115314715D02*
X257947932Y-115219477D01*
X257947932Y-115219477D02*
X257995551Y-115171858D01*
X257995551Y-115171858D02*
X258090789Y-115124239D01*
X258090789Y-115124239D02*
X258281265Y-115124239D01*
X258281265Y-115124239D02*
X258376503Y-115171858D01*
X258709837Y-115124239D02*
X259233646Y-115124239D01*
X259233646Y-115124239D02*
X258709837Y-115790906D01*
X258709837Y-115790906D02*
X259233646Y-115790906D01*
X259614599Y-115790906D02*
X259614599Y-115124239D01*
X259614599Y-114790906D02*
X259566980Y-114838525D01*
X259566980Y-114838525D02*
X259614599Y-114886144D01*
X259614599Y-114886144D02*
X259662218Y-114838525D01*
X259662218Y-114838525D02*
X259614599Y-114790906D01*
X259614599Y-114790906D02*
X259614599Y-114886144D01*
X260233646Y-115790906D02*
X260138408Y-115743287D01*
X260138408Y-115743287D02*
X260090789Y-115648048D01*
X260090789Y-115648048D02*
X260090789Y-114790906D01*
X260757456Y-115790906D02*
X260662218Y-115743287D01*
X260662218Y-115743287D02*
X260614599Y-115648048D01*
X260614599Y-115648048D02*
X260614599Y-114790906D01*
X261566980Y-115790906D02*
X261566980Y-115267096D01*
X261566980Y-115267096D02*
X261519361Y-115171858D01*
X261519361Y-115171858D02*
X261424123Y-115124239D01*
X261424123Y-115124239D02*
X261233647Y-115124239D01*
X261233647Y-115124239D02*
X261138409Y-115171858D01*
X261566980Y-115743287D02*
X261471742Y-115790906D01*
X261471742Y-115790906D02*
X261233647Y-115790906D01*
X261233647Y-115790906D02*
X261138409Y-115743287D01*
X261138409Y-115743287D02*
X261090790Y-115648048D01*
X261090790Y-115648048D02*
X261090790Y-115552810D01*
X261090790Y-115552810D02*
X261138409Y-115457572D01*
X261138409Y-115457572D02*
X261233647Y-115409953D01*
X261233647Y-115409953D02*
X261471742Y-115409953D01*
X261471742Y-115409953D02*
X261566980Y-115362334D01*
X254328884Y-117400850D02*
X254328884Y-116734183D01*
X254328884Y-116924659D02*
X254376503Y-116829421D01*
X254376503Y-116829421D02*
X254424122Y-116781802D01*
X254424122Y-116781802D02*
X254519360Y-116734183D01*
X254519360Y-116734183D02*
X254614598Y-116734183D01*
X255328884Y-117353231D02*
X255233646Y-117400850D01*
X255233646Y-117400850D02*
X255043170Y-117400850D01*
X255043170Y-117400850D02*
X254947932Y-117353231D01*
X254947932Y-117353231D02*
X254900313Y-117257992D01*
X254900313Y-117257992D02*
X254900313Y-116877040D01*
X254900313Y-116877040D02*
X254947932Y-116781802D01*
X254947932Y-116781802D02*
X255043170Y-116734183D01*
X255043170Y-116734183D02*
X255233646Y-116734183D01*
X255233646Y-116734183D02*
X255328884Y-116781802D01*
X255328884Y-116781802D02*
X255376503Y-116877040D01*
X255376503Y-116877040D02*
X255376503Y-116972278D01*
X255376503Y-116972278D02*
X254900313Y-117067516D01*
X255709837Y-116734183D02*
X255947932Y-117400850D01*
X255947932Y-117400850D02*
X256186027Y-116734183D01*
X256566980Y-117305611D02*
X256614599Y-117353231D01*
X256614599Y-117353231D02*
X256566980Y-117400850D01*
X256566980Y-117400850D02*
X256519361Y-117353231D01*
X256519361Y-117353231D02*
X256566980Y-117305611D01*
X256566980Y-117305611D02*
X256566980Y-117400850D01*
X258328884Y-117400850D02*
X257757456Y-117400850D01*
X258043170Y-117400850D02*
X258043170Y-116400850D01*
X258043170Y-116400850D02*
X257947932Y-116543707D01*
X257947932Y-116543707D02*
X257852694Y-116638945D01*
X257852694Y-116638945D02*
X257757456Y-116686564D01*
X254281265Y-118106032D02*
X254328884Y-118058413D01*
X254328884Y-118058413D02*
X254424122Y-118010794D01*
X254424122Y-118010794D02*
X254662217Y-118010794D01*
X254662217Y-118010794D02*
X254757455Y-118058413D01*
X254757455Y-118058413D02*
X254805074Y-118106032D01*
X254805074Y-118106032D02*
X254852693Y-118201270D01*
X254852693Y-118201270D02*
X254852693Y-118296508D01*
X254852693Y-118296508D02*
X254805074Y-118439365D01*
X254805074Y-118439365D02*
X254233646Y-119010794D01*
X254233646Y-119010794D02*
X254852693Y-119010794D01*
X255471741Y-118010794D02*
X255566979Y-118010794D01*
X255566979Y-118010794D02*
X255662217Y-118058413D01*
X255662217Y-118058413D02*
X255709836Y-118106032D01*
X255709836Y-118106032D02*
X255757455Y-118201270D01*
X255757455Y-118201270D02*
X255805074Y-118391746D01*
X255805074Y-118391746D02*
X255805074Y-118629841D01*
X255805074Y-118629841D02*
X255757455Y-118820317D01*
X255757455Y-118820317D02*
X255709836Y-118915555D01*
X255709836Y-118915555D02*
X255662217Y-118963175D01*
X255662217Y-118963175D02*
X255566979Y-119010794D01*
X255566979Y-119010794D02*
X255471741Y-119010794D01*
X255471741Y-119010794D02*
X255376503Y-118963175D01*
X255376503Y-118963175D02*
X255328884Y-118915555D01*
X255328884Y-118915555D02*
X255281265Y-118820317D01*
X255281265Y-118820317D02*
X255233646Y-118629841D01*
X255233646Y-118629841D02*
X255233646Y-118391746D01*
X255233646Y-118391746D02*
X255281265Y-118201270D01*
X255281265Y-118201270D02*
X255328884Y-118106032D01*
X255328884Y-118106032D02*
X255376503Y-118058413D01*
X255376503Y-118058413D02*
X255471741Y-118010794D01*
X256186027Y-118106032D02*
X256233646Y-118058413D01*
X256233646Y-118058413D02*
X256328884Y-118010794D01*
X256328884Y-118010794D02*
X256566979Y-118010794D01*
X256566979Y-118010794D02*
X256662217Y-118058413D01*
X256662217Y-118058413D02*
X256709836Y-118106032D01*
X256709836Y-118106032D02*
X256757455Y-118201270D01*
X256757455Y-118201270D02*
X256757455Y-118296508D01*
X256757455Y-118296508D02*
X256709836Y-118439365D01*
X256709836Y-118439365D02*
X256138408Y-119010794D01*
X256138408Y-119010794D02*
X256757455Y-119010794D01*
X257614598Y-118344127D02*
X257614598Y-119010794D01*
X257376503Y-117963175D02*
X257138408Y-118677460D01*
X257138408Y-118677460D02*
X257757455Y-118677460D01*
X258138408Y-118629841D02*
X258900313Y-118629841D01*
X259566979Y-118010794D02*
X259662217Y-118010794D01*
X259662217Y-118010794D02*
X259757455Y-118058413D01*
X259757455Y-118058413D02*
X259805074Y-118106032D01*
X259805074Y-118106032D02*
X259852693Y-118201270D01*
X259852693Y-118201270D02*
X259900312Y-118391746D01*
X259900312Y-118391746D02*
X259900312Y-118629841D01*
X259900312Y-118629841D02*
X259852693Y-118820317D01*
X259852693Y-118820317D02*
X259805074Y-118915555D01*
X259805074Y-118915555D02*
X259757455Y-118963175D01*
X259757455Y-118963175D02*
X259662217Y-119010794D01*
X259662217Y-119010794D02*
X259566979Y-119010794D01*
X259566979Y-119010794D02*
X259471741Y-118963175D01*
X259471741Y-118963175D02*
X259424122Y-118915555D01*
X259424122Y-118915555D02*
X259376503Y-118820317D01*
X259376503Y-118820317D02*
X259328884Y-118629841D01*
X259328884Y-118629841D02*
X259328884Y-118391746D01*
X259328884Y-118391746D02*
X259376503Y-118201270D01*
X259376503Y-118201270D02*
X259424122Y-118106032D01*
X259424122Y-118106032D02*
X259471741Y-118058413D01*
X259471741Y-118058413D02*
X259566979Y-118010794D01*
X260233646Y-118010794D02*
X260900312Y-118010794D01*
X260900312Y-118010794D02*
X260471741Y-119010794D01*
X261281265Y-118629841D02*
X262043170Y-118629841D01*
X262471741Y-118106032D02*
X262519360Y-118058413D01*
X262519360Y-118058413D02*
X262614598Y-118010794D01*
X262614598Y-118010794D02*
X262852693Y-118010794D01*
X262852693Y-118010794D02*
X262947931Y-118058413D01*
X262947931Y-118058413D02*
X262995550Y-118106032D01*
X262995550Y-118106032D02*
X263043169Y-118201270D01*
X263043169Y-118201270D02*
X263043169Y-118296508D01*
X263043169Y-118296508D02*
X262995550Y-118439365D01*
X262995550Y-118439365D02*
X262424122Y-119010794D01*
X262424122Y-119010794D02*
X263043169Y-119010794D01*
X263424122Y-118106032D02*
X263471741Y-118058413D01*
X263471741Y-118058413D02*
X263566979Y-118010794D01*
X263566979Y-118010794D02*
X263805074Y-118010794D01*
X263805074Y-118010794D02*
X263900312Y-118058413D01*
X263900312Y-118058413D02*
X263947931Y-118106032D01*
X263947931Y-118106032D02*
X263995550Y-118201270D01*
X263995550Y-118201270D02*
X263995550Y-118296508D01*
X263995550Y-118296508D02*
X263947931Y-118439365D01*
X263947931Y-118439365D02*
X263376503Y-119010794D01*
X263376503Y-119010794D02*
X263995550Y-119010794D01*
X194010713Y-116150850D02*
X194677380Y-116150850D01*
X194963094Y-117198469D02*
X194010713Y-117198469D01*
X194010713Y-117198469D02*
X194010713Y-115198469D01*
X194010713Y-115198469D02*
X194963094Y-115198469D01*
X196677380Y-115865135D02*
X196677380Y-117198469D01*
X195820237Y-115865135D02*
X195820237Y-116912754D01*
X195820237Y-116912754D02*
X195915475Y-117103231D01*
X195915475Y-117103231D02*
X196105951Y-117198469D01*
X196105951Y-117198469D02*
X196391666Y-117198469D01*
X196391666Y-117198469D02*
X196582142Y-117103231D01*
X196582142Y-117103231D02*
X196677380Y-117007992D01*
X197629761Y-117198469D02*
X197629761Y-115865135D01*
X197629761Y-116246088D02*
X197724999Y-116055611D01*
X197724999Y-116055611D02*
X197820237Y-115960373D01*
X197820237Y-115960373D02*
X198010713Y-115865135D01*
X198010713Y-115865135D02*
X198201190Y-115865135D01*
X199153570Y-117198469D02*
X198963094Y-117103231D01*
X198963094Y-117103231D02*
X198867856Y-117007992D01*
X198867856Y-117007992D02*
X198772618Y-116817516D01*
X198772618Y-116817516D02*
X198772618Y-116246088D01*
X198772618Y-116246088D02*
X198867856Y-116055611D01*
X198867856Y-116055611D02*
X198963094Y-115960373D01*
X198963094Y-115960373D02*
X199153570Y-115865135D01*
X199153570Y-115865135D02*
X199439285Y-115865135D01*
X199439285Y-115865135D02*
X199629761Y-115960373D01*
X199629761Y-115960373D02*
X199724999Y-116055611D01*
X199724999Y-116055611D02*
X199820237Y-116246088D01*
X199820237Y-116246088D02*
X199820237Y-116817516D01*
X199820237Y-116817516D02*
X199724999Y-117007992D01*
X199724999Y-117007992D02*
X199629761Y-117103231D01*
X199629761Y-117103231D02*
X199439285Y-117198469D01*
X199439285Y-117198469D02*
X199153570Y-117198469D01*
X200677380Y-117198469D02*
X200677380Y-115865135D01*
X200677380Y-116246088D02*
X200772618Y-116055611D01*
X200772618Y-116055611D02*
X200867856Y-115960373D01*
X200867856Y-115960373D02*
X201058332Y-115865135D01*
X201058332Y-115865135D02*
X201248809Y-115865135D01*
X202772618Y-117198469D02*
X202772618Y-116150850D01*
X202772618Y-116150850D02*
X202677380Y-115960373D01*
X202677380Y-115960373D02*
X202486904Y-115865135D01*
X202486904Y-115865135D02*
X202105951Y-115865135D01*
X202105951Y-115865135D02*
X201915475Y-115960373D01*
X202772618Y-117103231D02*
X202582142Y-117198469D01*
X202582142Y-117198469D02*
X202105951Y-117198469D01*
X202105951Y-117198469D02*
X201915475Y-117103231D01*
X201915475Y-117103231D02*
X201820237Y-116912754D01*
X201820237Y-116912754D02*
X201820237Y-116722278D01*
X201820237Y-116722278D02*
X201915475Y-116531802D01*
X201915475Y-116531802D02*
X202105951Y-116436564D01*
X202105951Y-116436564D02*
X202582142Y-116436564D01*
X202582142Y-116436564D02*
X202772618Y-116341326D01*
X204582142Y-117103231D02*
X204391666Y-117198469D01*
X204391666Y-117198469D02*
X204010713Y-117198469D01*
X204010713Y-117198469D02*
X203820237Y-117103231D01*
X203820237Y-117103231D02*
X203724999Y-117007992D01*
X203724999Y-117007992D02*
X203629761Y-116817516D01*
X203629761Y-116817516D02*
X203629761Y-116246088D01*
X203629761Y-116246088D02*
X203724999Y-116055611D01*
X203724999Y-116055611D02*
X203820237Y-115960373D01*
X203820237Y-115960373D02*
X204010713Y-115865135D01*
X204010713Y-115865135D02*
X204391666Y-115865135D01*
X204391666Y-115865135D02*
X204582142Y-115960373D01*
X205439285Y-117198469D02*
X205439285Y-115198469D01*
X205629761Y-116436564D02*
X206201190Y-117198469D01*
X206201190Y-115865135D02*
X205439285Y-116627040D01*
X208582143Y-117198469D02*
X208582143Y-115198469D01*
X208582143Y-115198469D02*
X209344048Y-115198469D01*
X209344048Y-115198469D02*
X209534524Y-115293707D01*
X209534524Y-115293707D02*
X209629762Y-115388945D01*
X209629762Y-115388945D02*
X209725000Y-115579421D01*
X209725000Y-115579421D02*
X209725000Y-115865135D01*
X209725000Y-115865135D02*
X209629762Y-116055611D01*
X209629762Y-116055611D02*
X209534524Y-116150850D01*
X209534524Y-116150850D02*
X209344048Y-116246088D01*
X209344048Y-116246088D02*
X208582143Y-116246088D01*
X210867857Y-117198469D02*
X210677381Y-117103231D01*
X210677381Y-117103231D02*
X210582143Y-117007992D01*
X210582143Y-117007992D02*
X210486905Y-116817516D01*
X210486905Y-116817516D02*
X210486905Y-116246088D01*
X210486905Y-116246088D02*
X210582143Y-116055611D01*
X210582143Y-116055611D02*
X210677381Y-115960373D01*
X210677381Y-115960373D02*
X210867857Y-115865135D01*
X210867857Y-115865135D02*
X211153572Y-115865135D01*
X211153572Y-115865135D02*
X211344048Y-115960373D01*
X211344048Y-115960373D02*
X211439286Y-116055611D01*
X211439286Y-116055611D02*
X211534524Y-116246088D01*
X211534524Y-116246088D02*
X211534524Y-116817516D01*
X211534524Y-116817516D02*
X211439286Y-117007992D01*
X211439286Y-117007992D02*
X211344048Y-117103231D01*
X211344048Y-117103231D02*
X211153572Y-117198469D01*
X211153572Y-117198469D02*
X210867857Y-117198469D01*
X212201191Y-115865135D02*
X212582143Y-117198469D01*
X212582143Y-117198469D02*
X212963096Y-116246088D01*
X212963096Y-116246088D02*
X213344048Y-117198469D01*
X213344048Y-117198469D02*
X213725000Y-115865135D01*
X215248810Y-117103231D02*
X215058334Y-117198469D01*
X215058334Y-117198469D02*
X214677381Y-117198469D01*
X214677381Y-117198469D02*
X214486905Y-117103231D01*
X214486905Y-117103231D02*
X214391667Y-116912754D01*
X214391667Y-116912754D02*
X214391667Y-116150850D01*
X214391667Y-116150850D02*
X214486905Y-115960373D01*
X214486905Y-115960373D02*
X214677381Y-115865135D01*
X214677381Y-115865135D02*
X215058334Y-115865135D01*
X215058334Y-115865135D02*
X215248810Y-115960373D01*
X215248810Y-115960373D02*
X215344048Y-116150850D01*
X215344048Y-116150850D02*
X215344048Y-116341326D01*
X215344048Y-116341326D02*
X214391667Y-116531802D01*
X216201191Y-117198469D02*
X216201191Y-115865135D01*
X216201191Y-116246088D02*
X216296429Y-116055611D01*
X216296429Y-116055611D02*
X216391667Y-115960373D01*
X216391667Y-115960373D02*
X216582143Y-115865135D01*
X216582143Y-115865135D02*
X216772620Y-115865135D01*
X219629763Y-116150850D02*
X219915477Y-116246088D01*
X219915477Y-116246088D02*
X220010715Y-116341326D01*
X220010715Y-116341326D02*
X220105953Y-116531802D01*
X220105953Y-116531802D02*
X220105953Y-116817516D01*
X220105953Y-116817516D02*
X220010715Y-117007992D01*
X220010715Y-117007992D02*
X219915477Y-117103231D01*
X219915477Y-117103231D02*
X219725001Y-117198469D01*
X219725001Y-117198469D02*
X218963096Y-117198469D01*
X218963096Y-117198469D02*
X218963096Y-115198469D01*
X218963096Y-115198469D02*
X219629763Y-115198469D01*
X219629763Y-115198469D02*
X219820239Y-115293707D01*
X219820239Y-115293707D02*
X219915477Y-115388945D01*
X219915477Y-115388945D02*
X220010715Y-115579421D01*
X220010715Y-115579421D02*
X220010715Y-115769897D01*
X220010715Y-115769897D02*
X219915477Y-115960373D01*
X219915477Y-115960373D02*
X219820239Y-116055611D01*
X219820239Y-116055611D02*
X219629763Y-116150850D01*
X219629763Y-116150850D02*
X218963096Y-116150850D01*
X221820239Y-115865135D02*
X221820239Y-117198469D01*
X220963096Y-115865135D02*
X220963096Y-116912754D01*
X220963096Y-116912754D02*
X221058334Y-117103231D01*
X221058334Y-117103231D02*
X221248810Y-117198469D01*
X221248810Y-117198469D02*
X221534525Y-117198469D01*
X221534525Y-117198469D02*
X221725001Y-117103231D01*
X221725001Y-117103231D02*
X221820239Y-117007992D01*
X222677382Y-117103231D02*
X222867858Y-117198469D01*
X222867858Y-117198469D02*
X223248810Y-117198469D01*
X223248810Y-117198469D02*
X223439287Y-117103231D01*
X223439287Y-117103231D02*
X223534525Y-116912754D01*
X223534525Y-116912754D02*
X223534525Y-116817516D01*
X223534525Y-116817516D02*
X223439287Y-116627040D01*
X223439287Y-116627040D02*
X223248810Y-116531802D01*
X223248810Y-116531802D02*
X222963096Y-116531802D01*
X222963096Y-116531802D02*
X222772620Y-116436564D01*
X222772620Y-116436564D02*
X222677382Y-116246088D01*
X222677382Y-116246088D02*
X222677382Y-116150850D01*
X222677382Y-116150850D02*
X222772620Y-115960373D01*
X222772620Y-115960373D02*
X222963096Y-115865135D01*
X222963096Y-115865135D02*
X223248810Y-115865135D01*
X223248810Y-115865135D02*
X223439287Y-115960373D01*
X202820238Y-121180261D02*
X202724999Y-121085023D01*
X202724999Y-121085023D02*
X202534523Y-120799309D01*
X202534523Y-120799309D02*
X202439285Y-120608833D01*
X202439285Y-120608833D02*
X202344047Y-120323119D01*
X202344047Y-120323119D02*
X202248809Y-119846928D01*
X202248809Y-119846928D02*
X202248809Y-119465976D01*
X202248809Y-119465976D02*
X202344047Y-118989785D01*
X202344047Y-118989785D02*
X202439285Y-118704071D01*
X202439285Y-118704071D02*
X202534523Y-118513595D01*
X202534523Y-118513595D02*
X202724999Y-118227880D01*
X202724999Y-118227880D02*
X202820238Y-118132642D01*
X203582142Y-120418357D02*
X203582142Y-118418357D01*
X203582142Y-118418357D02*
X204344047Y-118418357D01*
X204344047Y-118418357D02*
X204534523Y-118513595D01*
X204534523Y-118513595D02*
X204629761Y-118608833D01*
X204629761Y-118608833D02*
X204724999Y-118799309D01*
X204724999Y-118799309D02*
X204724999Y-119085023D01*
X204724999Y-119085023D02*
X204629761Y-119275499D01*
X204629761Y-119275499D02*
X204534523Y-119370738D01*
X204534523Y-119370738D02*
X204344047Y-119465976D01*
X204344047Y-119465976D02*
X203582142Y-119465976D01*
X206439285Y-120418357D02*
X206439285Y-119370738D01*
X206439285Y-119370738D02*
X206344047Y-119180261D01*
X206344047Y-119180261D02*
X206153571Y-119085023D01*
X206153571Y-119085023D02*
X205772618Y-119085023D01*
X205772618Y-119085023D02*
X205582142Y-119180261D01*
X206439285Y-120323119D02*
X206248809Y-120418357D01*
X206248809Y-120418357D02*
X205772618Y-120418357D01*
X205772618Y-120418357D02*
X205582142Y-120323119D01*
X205582142Y-120323119D02*
X205486904Y-120132642D01*
X205486904Y-120132642D02*
X205486904Y-119942166D01*
X205486904Y-119942166D02*
X205582142Y-119751690D01*
X205582142Y-119751690D02*
X205772618Y-119656452D01*
X205772618Y-119656452D02*
X206248809Y-119656452D01*
X206248809Y-119656452D02*
X206439285Y-119561214D01*
X207296428Y-120323119D02*
X207486904Y-120418357D01*
X207486904Y-120418357D02*
X207867856Y-120418357D01*
X207867856Y-120418357D02*
X208058333Y-120323119D01*
X208058333Y-120323119D02*
X208153571Y-120132642D01*
X208153571Y-120132642D02*
X208153571Y-120037404D01*
X208153571Y-120037404D02*
X208058333Y-119846928D01*
X208058333Y-119846928D02*
X207867856Y-119751690D01*
X207867856Y-119751690D02*
X207582142Y-119751690D01*
X207582142Y-119751690D02*
X207391666Y-119656452D01*
X207391666Y-119656452D02*
X207296428Y-119465976D01*
X207296428Y-119465976D02*
X207296428Y-119370738D01*
X207296428Y-119370738D02*
X207391666Y-119180261D01*
X207391666Y-119180261D02*
X207582142Y-119085023D01*
X207582142Y-119085023D02*
X207867856Y-119085023D01*
X207867856Y-119085023D02*
X208058333Y-119180261D01*
X208915476Y-120323119D02*
X209105952Y-120418357D01*
X209105952Y-120418357D02*
X209486904Y-120418357D01*
X209486904Y-120418357D02*
X209677381Y-120323119D01*
X209677381Y-120323119D02*
X209772619Y-120132642D01*
X209772619Y-120132642D02*
X209772619Y-120037404D01*
X209772619Y-120037404D02*
X209677381Y-119846928D01*
X209677381Y-119846928D02*
X209486904Y-119751690D01*
X209486904Y-119751690D02*
X209201190Y-119751690D01*
X209201190Y-119751690D02*
X209010714Y-119656452D01*
X209010714Y-119656452D02*
X208915476Y-119465976D01*
X208915476Y-119465976D02*
X208915476Y-119370738D01*
X208915476Y-119370738D02*
X209010714Y-119180261D01*
X209010714Y-119180261D02*
X209201190Y-119085023D01*
X209201190Y-119085023D02*
X209486904Y-119085023D01*
X209486904Y-119085023D02*
X209677381Y-119180261D01*
X210629762Y-120418357D02*
X210629762Y-119085023D01*
X210629762Y-118418357D02*
X210534524Y-118513595D01*
X210534524Y-118513595D02*
X210629762Y-118608833D01*
X210629762Y-118608833D02*
X210725000Y-118513595D01*
X210725000Y-118513595D02*
X210629762Y-118418357D01*
X210629762Y-118418357D02*
X210629762Y-118608833D01*
X211391667Y-119085023D02*
X211867857Y-120418357D01*
X211867857Y-120418357D02*
X212344048Y-119085023D01*
X213867858Y-120323119D02*
X213677382Y-120418357D01*
X213677382Y-120418357D02*
X213296429Y-120418357D01*
X213296429Y-120418357D02*
X213105953Y-120323119D01*
X213105953Y-120323119D02*
X213010715Y-120132642D01*
X213010715Y-120132642D02*
X213010715Y-119370738D01*
X213010715Y-119370738D02*
X213105953Y-119180261D01*
X213105953Y-119180261D02*
X213296429Y-119085023D01*
X213296429Y-119085023D02*
X213677382Y-119085023D01*
X213677382Y-119085023D02*
X213867858Y-119180261D01*
X213867858Y-119180261D02*
X213963096Y-119370738D01*
X213963096Y-119370738D02*
X213963096Y-119561214D01*
X213963096Y-119561214D02*
X213010715Y-119751690D01*
X214629763Y-121180261D02*
X214725001Y-121085023D01*
X214725001Y-121085023D02*
X214915477Y-120799309D01*
X214915477Y-120799309D02*
X215010715Y-120608833D01*
X215010715Y-120608833D02*
X215105953Y-120323119D01*
X215105953Y-120323119D02*
X215201191Y-119846928D01*
X215201191Y-119846928D02*
X215201191Y-119465976D01*
X215201191Y-119465976D02*
X215105953Y-118989785D01*
X215105953Y-118989785D02*
X215010715Y-118704071D01*
X215010715Y-118704071D02*
X214915477Y-118513595D01*
X214915477Y-118513595D02*
X214725001Y-118227880D01*
X214725001Y-118227880D02*
X214629763Y-118132642D01*
G36*
X58328490Y-78039191D02*
G01*
X88966312Y-78039191D01*
X88966312Y-77658172D01*
X58328490Y-77658172D01*
X58328490Y-78039191D01*
G37*
G36*
X58328490Y-77288877D02*
G01*
X88966312Y-77288877D01*
X88966312Y-76907858D01*
X58328490Y-76907858D01*
X58328490Y-77288877D01*
G37*
G36*
X75835817Y-76538563D02*
G01*
X88966312Y-76538563D01*
X88966312Y-76157544D01*
X75835817Y-76157544D01*
X75835817Y-76538563D01*
G37*
G36*
X58328490Y-76538563D02*
G01*
X71458985Y-76538563D01*
X71458985Y-76157544D01*
X58328490Y-76157544D01*
X58328490Y-76538563D01*
G37*
G36*
X58328490Y-81128375D02*
G01*
X67150541Y-81128375D01*
X67150541Y-80747356D01*
X58328490Y-80747356D01*
X58328490Y-81128375D01*
G37*
G36*
X58328490Y-75788249D02*
G01*
X67150541Y-75788249D01*
X67150541Y-75407230D01*
X58328490Y-75407230D01*
X58328490Y-75788249D01*
G37*
G36*
X58328490Y-78877432D02*
G01*
X67150541Y-78877432D01*
X67150541Y-78496414D01*
X58328490Y-78496414D01*
X58328490Y-78877432D01*
G37*
G36*
X80144261Y-75788249D02*
G01*
X88966312Y-75788249D01*
X88966312Y-75407230D01*
X80144261Y-75407230D01*
X80144261Y-75788249D01*
G37*
G36*
X58328490Y-80378060D02*
G01*
X67150541Y-80378060D01*
X67150541Y-79997042D01*
X58328490Y-79997042D01*
X58328490Y-80378060D01*
G37*
G36*
X58328490Y-79627746D02*
G01*
X67150541Y-79627746D01*
X67150541Y-79246728D01*
X58328490Y-79246728D01*
X58328490Y-79627746D01*
G37*
G36*
X80144261Y-81128375D02*
G01*
X88966312Y-81128375D01*
X88966312Y-80747356D01*
X80144261Y-80747356D01*
X80144261Y-81128375D01*
G37*
G36*
X80144261Y-79627746D02*
G01*
X88966312Y-79627746D01*
X88966312Y-79246728D01*
X80144261Y-79246728D01*
X80144261Y-79627746D01*
G37*
G36*
X80144261Y-78877432D02*
G01*
X88966312Y-78877432D01*
X88966312Y-78496414D01*
X80144261Y-78496414D01*
X80144261Y-78877432D01*
G37*
G36*
X80144261Y-80378060D02*
G01*
X88966312Y-80378060D01*
X88966312Y-79997042D01*
X80144261Y-79997042D01*
X80144261Y-80378060D01*
G37*
G36*
X71458985Y-78877432D02*
G01*
X75835817Y-78877432D01*
X75835817Y-78496414D01*
X71458985Y-78496414D01*
X71458985Y-78877432D01*
G37*
G36*
X91394086Y-80378060D02*
G01*
X117655077Y-80378060D01*
X117655077Y-79997042D01*
X91394086Y-79997042D01*
X91394086Y-80378060D01*
G37*
G36*
X91394086Y-76538563D02*
G01*
X117655077Y-76538563D01*
X117655077Y-76157544D01*
X91394086Y-76157544D01*
X91394086Y-76538563D01*
G37*
G36*
X95770918Y-75788249D02*
G01*
X117655077Y-75788249D01*
X117655077Y-75407230D01*
X95770918Y-75407230D01*
X95770918Y-75788249D01*
G37*
G36*
X95770918Y-81128375D02*
G01*
X117655077Y-81128375D01*
X117655077Y-80747356D01*
X95770918Y-80747356D01*
X95770918Y-81128375D01*
G37*
G36*
X91394086Y-78039191D02*
G01*
X108901413Y-78039191D01*
X108901413Y-77658172D01*
X91394086Y-77658172D01*
X91394086Y-78039191D01*
G37*
G36*
X91394086Y-78877432D02*
G01*
X108901413Y-78877432D01*
X108901413Y-78496414D01*
X91394086Y-78496414D01*
X91394086Y-78877432D01*
G37*
G36*
X91394086Y-77288877D02*
G01*
X100216138Y-77288877D01*
X100216138Y-76907858D01*
X91394086Y-76907858D01*
X91394086Y-77288877D01*
G37*
G36*
X91394086Y-79627746D02*
G01*
X100216138Y-79627746D01*
X100216138Y-79246728D01*
X91394086Y-79246728D01*
X91394086Y-79627746D01*
G37*
G36*
X120048657Y-80378060D02*
G01*
X146309648Y-80378060D01*
X146309648Y-79997042D01*
X120048657Y-79997042D01*
X120048657Y-80378060D01*
G37*
G36*
X120048657Y-76538563D02*
G01*
X146309648Y-76538563D01*
X146309648Y-76157544D01*
X120048657Y-76157544D01*
X120048657Y-76538563D01*
G37*
G36*
X124425489Y-78877432D02*
G01*
X146309648Y-78877432D01*
X146309648Y-78496414D01*
X124425489Y-78496414D01*
X124425489Y-78877432D01*
G37*
G36*
X124425489Y-75788249D02*
G01*
X146309648Y-75788249D01*
X146309648Y-75407230D01*
X124425489Y-75407230D01*
X124425489Y-75788249D01*
G37*
G36*
X120048657Y-78039191D02*
G01*
X141932816Y-78039191D01*
X141932816Y-77658172D01*
X120048657Y-77658172D01*
X120048657Y-78039191D01*
G37*
G36*
X120048657Y-81128375D02*
G01*
X141932816Y-81128375D01*
X141932816Y-80747356D01*
X120048657Y-80747356D01*
X120048657Y-81128375D01*
G37*
G36*
X120048657Y-77288877D02*
G01*
X128870709Y-77288877D01*
X128870709Y-76907858D01*
X120048657Y-76907858D01*
X120048657Y-77288877D01*
G37*
G36*
X137487596Y-79627746D02*
G01*
X146309648Y-79627746D01*
X146309648Y-79246728D01*
X137487596Y-79246728D01*
X137487596Y-79627746D01*
G37*
G36*
X148703228Y-80378060D02*
G01*
X174964219Y-80378060D01*
X174964219Y-79997042D01*
X148703228Y-79997042D01*
X148703228Y-80378060D01*
G37*
G36*
X148703228Y-76538563D02*
G01*
X174964219Y-76538563D01*
X174964219Y-76157544D01*
X148703228Y-76157544D01*
X148703228Y-76538563D01*
G37*
G36*
X153080060Y-78877432D02*
G01*
X174964219Y-78877432D01*
X174964219Y-78496414D01*
X153080060Y-78496414D01*
X153080060Y-78877432D01*
G37*
G36*
X153080060Y-75788249D02*
G01*
X174964219Y-75788249D01*
X174964219Y-75407230D01*
X153080060Y-75407230D01*
X153080060Y-75788249D01*
G37*
G36*
X148703228Y-78039191D02*
G01*
X170587387Y-78039191D01*
X170587387Y-77658172D01*
X148703228Y-77658172D01*
X148703228Y-78039191D01*
G37*
G36*
X148703228Y-81128375D02*
G01*
X170587387Y-81128375D01*
X170587387Y-80747356D01*
X148703228Y-80747356D01*
X148703228Y-81128375D01*
G37*
G36*
X148703228Y-77288877D02*
G01*
X157525279Y-77288877D01*
X157525279Y-76907858D01*
X148703228Y-76907858D01*
X148703228Y-77288877D01*
G37*
G36*
X166142167Y-79627746D02*
G01*
X174964219Y-79627746D01*
X174964219Y-79246728D01*
X166142167Y-79246728D01*
X166142167Y-79627746D01*
G37*
G36*
X177357799Y-81128375D02*
G01*
X203618790Y-81128375D01*
X203618790Y-80747356D01*
X177357799Y-80747356D01*
X177357799Y-81128375D01*
G37*
G36*
X177357799Y-80378060D02*
G01*
X203618790Y-80378060D01*
X203618790Y-79997042D01*
X177357799Y-79997042D01*
X177357799Y-80378060D01*
G37*
G36*
X177357799Y-76538563D02*
G01*
X203618790Y-76538563D01*
X203618790Y-76157544D01*
X177357799Y-76157544D01*
X177357799Y-76538563D01*
G37*
G36*
X177357799Y-75788249D02*
G01*
X203618790Y-75788249D01*
X203618790Y-75407230D01*
X177357799Y-75407230D01*
X177357799Y-75788249D01*
G37*
G36*
X186111462Y-78039191D02*
G01*
X194933514Y-78039191D01*
X194933514Y-77658172D01*
X186111462Y-77658172D01*
X186111462Y-78039191D01*
G37*
G36*
X186111462Y-79627746D02*
G01*
X194933514Y-79627746D01*
X194933514Y-79246728D01*
X186111462Y-79246728D01*
X186111462Y-79627746D01*
G37*
G36*
X186111462Y-78877432D02*
G01*
X194933514Y-78877432D01*
X194933514Y-78496414D01*
X186111462Y-78496414D01*
X186111462Y-78877432D01*
G37*
G36*
X186111462Y-77288877D02*
G01*
X194933514Y-77288877D01*
X194933514Y-76907858D01*
X186111462Y-76907858D01*
X186111462Y-77288877D01*
G37*
G36*
X206012369Y-80378060D02*
G01*
X232273360Y-80378060D01*
X232273360Y-79997042D01*
X206012369Y-79997042D01*
X206012369Y-80378060D01*
G37*
G36*
X206012369Y-76538563D02*
G01*
X232273360Y-76538563D01*
X232273360Y-76157544D01*
X206012369Y-76157544D01*
X206012369Y-76538563D01*
G37*
G36*
X210389201Y-75788249D02*
G01*
X232273360Y-75788249D01*
X232273360Y-75407230D01*
X210389201Y-75407230D01*
X210389201Y-75788249D01*
G37*
G36*
X210389201Y-81128375D02*
G01*
X232273360Y-81128375D01*
X232273360Y-80747356D01*
X210389201Y-80747356D01*
X210389201Y-81128375D01*
G37*
G36*
X206012369Y-78877432D02*
G01*
X223519697Y-78877432D01*
X223519697Y-78496414D01*
X206012369Y-78496414D01*
X206012369Y-78877432D01*
G37*
G36*
X206012369Y-78039191D02*
G01*
X223519697Y-78039191D01*
X223519697Y-77658172D01*
X206012369Y-77658172D01*
X206012369Y-78039191D01*
G37*
G36*
X206012369Y-79627746D02*
G01*
X214766033Y-79627746D01*
X214766033Y-79246728D01*
X206012369Y-79246728D01*
X206012369Y-79627746D01*
G37*
G36*
X206012369Y-77288877D02*
G01*
X214766033Y-77288877D01*
X214766033Y-76907858D01*
X206012369Y-76907858D01*
X206012369Y-77288877D01*
G37*
G36*
X223519697Y-74281759D02*
G01*
X227896529Y-74281759D01*
X227896529Y-73900740D01*
X223519697Y-73900740D01*
X223519697Y-74281759D01*
G37*
G36*
X210389201Y-74281759D02*
G01*
X214766033Y-74281759D01*
X214766033Y-73900740D01*
X210389201Y-73900740D01*
X210389201Y-74281759D01*
G37*
G36*
X234666940Y-78039191D02*
G01*
X260927931Y-78039191D01*
X260927931Y-77658172D01*
X234666940Y-77658172D01*
X234666940Y-78039191D01*
G37*
G36*
X234666940Y-76538563D02*
G01*
X260927931Y-76538563D01*
X260927931Y-76157544D01*
X234666940Y-76157544D01*
X234666940Y-76538563D01*
G37*
G36*
X234666940Y-75788249D02*
G01*
X256551099Y-75788249D01*
X256551099Y-75407230D01*
X234666940Y-75407230D01*
X234666940Y-75788249D01*
G37*
G36*
X234666940Y-78877432D02*
G01*
X256551099Y-78877432D01*
X256551099Y-78496414D01*
X234666940Y-78496414D01*
X234666940Y-78877432D01*
G37*
G36*
X247797436Y-79627746D02*
G01*
X260927931Y-79627746D01*
X260927931Y-79246728D01*
X247797436Y-79246728D01*
X247797436Y-79627746D01*
G37*
G36*
X252105880Y-77288877D02*
G01*
X260927931Y-77288877D01*
X260927931Y-76907858D01*
X252105880Y-76907858D01*
X252105880Y-77288877D01*
G37*
G36*
X234666940Y-81128375D02*
G01*
X243488992Y-81128375D01*
X243488992Y-80747356D01*
X234666940Y-80747356D01*
X234666940Y-81128375D01*
G37*
G36*
X252105880Y-80378060D02*
G01*
X260927931Y-80378060D01*
X260927931Y-79997042D01*
X252105880Y-79997042D01*
X252105880Y-80378060D01*
G37*
G36*
X234666940Y-77288877D02*
G01*
X243488992Y-77288877D01*
X243488992Y-76907858D01*
X234666940Y-76907858D01*
X234666940Y-77288877D01*
G37*
G36*
X234666940Y-79627746D02*
G01*
X243488992Y-79627746D01*
X243488992Y-79246728D01*
X234666940Y-79246728D01*
X234666940Y-79627746D01*
G37*
G36*
X252105880Y-81128375D02*
G01*
X260927931Y-81128375D01*
X260927931Y-80747356D01*
X252105880Y-80747356D01*
X252105880Y-81128375D01*
G37*
G36*
X234666940Y-80378060D02*
G01*
X243488992Y-80378060D01*
X243488992Y-79997042D01*
X234666940Y-79997042D01*
X234666940Y-80378060D01*
G37*
D11*
X48584819Y-98766469D02*
X47584819Y-98766469D01*
X47584819Y-98766469D02*
X47584819Y-98528374D01*
X47584819Y-98528374D02*
X47632438Y-98385517D01*
X47632438Y-98385517D02*
X47727676Y-98290279D01*
X47727676Y-98290279D02*
X47822914Y-98242660D01*
X47822914Y-98242660D02*
X48013390Y-98195041D01*
X48013390Y-98195041D02*
X48156247Y-98195041D01*
X48156247Y-98195041D02*
X48346723Y-98242660D01*
X48346723Y-98242660D02*
X48441961Y-98290279D01*
X48441961Y-98290279D02*
X48537200Y-98385517D01*
X48537200Y-98385517D02*
X48584819Y-98528374D01*
X48584819Y-98528374D02*
X48584819Y-98766469D01*
X48584819Y-97242660D02*
X48584819Y-97814088D01*
X48584819Y-97528374D02*
X47584819Y-97528374D01*
X47584819Y-97528374D02*
X47727676Y-97623612D01*
X47727676Y-97623612D02*
X47822914Y-97718850D01*
X47822914Y-97718850D02*
X47870533Y-97814088D01*
X101163095Y-117212241D02*
X101925000Y-117212241D01*
X101544047Y-117593194D02*
X101544047Y-116831289D01*
X102924999Y-117593194D02*
X102353571Y-117593194D01*
X102639285Y-117593194D02*
X102639285Y-116593194D01*
X102639285Y-116593194D02*
X102544047Y-116736051D01*
X102544047Y-116736051D02*
X102448809Y-116831289D01*
X102448809Y-116831289D02*
X102353571Y-116878908D01*
X103305952Y-116688432D02*
X103353571Y-116640813D01*
X103353571Y-116640813D02*
X103448809Y-116593194D01*
X103448809Y-116593194D02*
X103686904Y-116593194D01*
X103686904Y-116593194D02*
X103782142Y-116640813D01*
X103782142Y-116640813D02*
X103829761Y-116688432D01*
X103829761Y-116688432D02*
X103877380Y-116783670D01*
X103877380Y-116783670D02*
X103877380Y-116878908D01*
X103877380Y-116878908D02*
X103829761Y-117021765D01*
X103829761Y-117021765D02*
X103258333Y-117593194D01*
X103258333Y-117593194D02*
X103877380Y-117593194D01*
X104163095Y-116593194D02*
X104496428Y-117593194D01*
X104496428Y-117593194D02*
X104829761Y-116593194D01*
X42984819Y-104443161D02*
X43984819Y-104205066D01*
X43984819Y-104205066D02*
X43270533Y-104014590D01*
X43270533Y-104014590D02*
X43984819Y-103824114D01*
X43984819Y-103824114D02*
X42984819Y-103586019D01*
X43984819Y-102681257D02*
X43984819Y-103252685D01*
X43984819Y-102966971D02*
X42984819Y-102966971D01*
X42984819Y-102966971D02*
X43127676Y-103062209D01*
X43127676Y-103062209D02*
X43222914Y-103157447D01*
X43222914Y-103157447D02*
X43270533Y-103252685D01*
X114358333Y-117593194D02*
X114025000Y-117117003D01*
X113786905Y-117593194D02*
X113786905Y-116593194D01*
X113786905Y-116593194D02*
X114167857Y-116593194D01*
X114167857Y-116593194D02*
X114263095Y-116640813D01*
X114263095Y-116640813D02*
X114310714Y-116688432D01*
X114310714Y-116688432D02*
X114358333Y-116783670D01*
X114358333Y-116783670D02*
X114358333Y-116926527D01*
X114358333Y-116926527D02*
X114310714Y-117021765D01*
X114310714Y-117021765D02*
X114263095Y-117069384D01*
X114263095Y-117069384D02*
X114167857Y-117117003D01*
X114167857Y-117117003D02*
X113786905Y-117117003D01*
X114739286Y-116688432D02*
X114786905Y-116640813D01*
X114786905Y-116640813D02*
X114882143Y-116593194D01*
X114882143Y-116593194D02*
X115120238Y-116593194D01*
X115120238Y-116593194D02*
X115215476Y-116640813D01*
X115215476Y-116640813D02*
X115263095Y-116688432D01*
X115263095Y-116688432D02*
X115310714Y-116783670D01*
X115310714Y-116783670D02*
X115310714Y-116878908D01*
X115310714Y-116878908D02*
X115263095Y-117021765D01*
X115263095Y-117021765D02*
X114691667Y-117593194D01*
X114691667Y-117593194D02*
X115310714Y-117593194D01*
X42984819Y-87743161D02*
X43984819Y-87505066D01*
X43984819Y-87505066D02*
X43270533Y-87314590D01*
X43270533Y-87314590D02*
X43984819Y-87124114D01*
X43984819Y-87124114D02*
X42984819Y-86886019D01*
X43080057Y-86552685D02*
X43032438Y-86505066D01*
X43032438Y-86505066D02*
X42984819Y-86409828D01*
X42984819Y-86409828D02*
X42984819Y-86171733D01*
X42984819Y-86171733D02*
X43032438Y-86076495D01*
X43032438Y-86076495D02*
X43080057Y-86028876D01*
X43080057Y-86028876D02*
X43175295Y-85981257D01*
X43175295Y-85981257D02*
X43270533Y-85981257D01*
X43270533Y-85981257D02*
X43413390Y-86028876D01*
X43413390Y-86028876D02*
X43984819Y-86600304D01*
X43984819Y-86600304D02*
X43984819Y-85981257D01*
X137583095Y-117212241D02*
X138345000Y-117212241D01*
X139344999Y-117593194D02*
X138773571Y-117593194D01*
X139059285Y-117593194D02*
X139059285Y-116593194D01*
X139059285Y-116593194D02*
X138964047Y-116736051D01*
X138964047Y-116736051D02*
X138868809Y-116831289D01*
X138868809Y-116831289D02*
X138773571Y-116878908D01*
X139725952Y-116688432D02*
X139773571Y-116640813D01*
X139773571Y-116640813D02*
X139868809Y-116593194D01*
X139868809Y-116593194D02*
X140106904Y-116593194D01*
X140106904Y-116593194D02*
X140202142Y-116640813D01*
X140202142Y-116640813D02*
X140249761Y-116688432D01*
X140249761Y-116688432D02*
X140297380Y-116783670D01*
X140297380Y-116783670D02*
X140297380Y-116878908D01*
X140297380Y-116878908D02*
X140249761Y-117021765D01*
X140249761Y-117021765D02*
X139678333Y-117593194D01*
X139678333Y-117593194D02*
X140297380Y-117593194D01*
X140583095Y-116593194D02*
X140916428Y-117593194D01*
X140916428Y-117593194D02*
X141249761Y-116593194D01*
X150778333Y-117593194D02*
X150445000Y-117117003D01*
X150206905Y-117593194D02*
X150206905Y-116593194D01*
X150206905Y-116593194D02*
X150587857Y-116593194D01*
X150587857Y-116593194D02*
X150683095Y-116640813D01*
X150683095Y-116640813D02*
X150730714Y-116688432D01*
X150730714Y-116688432D02*
X150778333Y-116783670D01*
X150778333Y-116783670D02*
X150778333Y-116926527D01*
X150778333Y-116926527D02*
X150730714Y-117021765D01*
X150730714Y-117021765D02*
X150683095Y-117069384D01*
X150683095Y-117069384D02*
X150587857Y-117117003D01*
X150587857Y-117117003D02*
X150206905Y-117117003D01*
X151111667Y-116593194D02*
X151730714Y-116593194D01*
X151730714Y-116593194D02*
X151397381Y-116974146D01*
X151397381Y-116974146D02*
X151540238Y-116974146D01*
X151540238Y-116974146D02*
X151635476Y-117021765D01*
X151635476Y-117021765D02*
X151683095Y-117069384D01*
X151683095Y-117069384D02*
X151730714Y-117164622D01*
X151730714Y-117164622D02*
X151730714Y-117402717D01*
X151730714Y-117402717D02*
X151683095Y-117497955D01*
X151683095Y-117497955D02*
X151635476Y-117545575D01*
X151635476Y-117545575D02*
X151540238Y-117593194D01*
X151540238Y-117593194D02*
X151254524Y-117593194D01*
X151254524Y-117593194D02*
X151159286Y-117545575D01*
X151159286Y-117545575D02*
X151111667Y-117497955D01*
X48584819Y-116476469D02*
X47584819Y-116476469D01*
X47584819Y-116476469D02*
X47584819Y-116238374D01*
X47584819Y-116238374D02*
X47632438Y-116095517D01*
X47632438Y-116095517D02*
X47727676Y-116000279D01*
X47727676Y-116000279D02*
X47822914Y-115952660D01*
X47822914Y-115952660D02*
X48013390Y-115905041D01*
X48013390Y-115905041D02*
X48156247Y-115905041D01*
X48156247Y-115905041D02*
X48346723Y-115952660D01*
X48346723Y-115952660D02*
X48441961Y-116000279D01*
X48441961Y-116000279D02*
X48537200Y-116095517D01*
X48537200Y-116095517D02*
X48584819Y-116238374D01*
X48584819Y-116238374D02*
X48584819Y-116476469D01*
X47584819Y-115571707D02*
X47584819Y-114952660D01*
X47584819Y-114952660D02*
X47965771Y-115285993D01*
X47965771Y-115285993D02*
X47965771Y-115143136D01*
X47965771Y-115143136D02*
X48013390Y-115047898D01*
X48013390Y-115047898D02*
X48061009Y-115000279D01*
X48061009Y-115000279D02*
X48156247Y-114952660D01*
X48156247Y-114952660D02*
X48394342Y-114952660D01*
X48394342Y-114952660D02*
X48489580Y-115000279D01*
X48489580Y-115000279D02*
X48537200Y-115047898D01*
X48537200Y-115047898D02*
X48584819Y-115143136D01*
X48584819Y-115143136D02*
X48584819Y-115428850D01*
X48584819Y-115428850D02*
X48537200Y-115524088D01*
X48537200Y-115524088D02*
X48489580Y-115571707D01*
X52763095Y-116529188D02*
X52667857Y-116481569D01*
X52667857Y-116481569D02*
X52525000Y-116481569D01*
X52525000Y-116481569D02*
X52382143Y-116529188D01*
X52382143Y-116529188D02*
X52286905Y-116624426D01*
X52286905Y-116624426D02*
X52239286Y-116719664D01*
X52239286Y-116719664D02*
X52191667Y-116910140D01*
X52191667Y-116910140D02*
X52191667Y-117052997D01*
X52191667Y-117052997D02*
X52239286Y-117243473D01*
X52239286Y-117243473D02*
X52286905Y-117338711D01*
X52286905Y-117338711D02*
X52382143Y-117433950D01*
X52382143Y-117433950D02*
X52525000Y-117481569D01*
X52525000Y-117481569D02*
X52620238Y-117481569D01*
X52620238Y-117481569D02*
X52763095Y-117433950D01*
X52763095Y-117433950D02*
X52810714Y-117386330D01*
X52810714Y-117386330D02*
X52810714Y-117052997D01*
X52810714Y-117052997D02*
X52620238Y-117052997D01*
X53239286Y-117481569D02*
X53239286Y-116481569D01*
X53239286Y-116481569D02*
X53810714Y-117481569D01*
X53810714Y-117481569D02*
X53810714Y-116481569D01*
X54286905Y-117481569D02*
X54286905Y-116481569D01*
X54286905Y-116481569D02*
X54525000Y-116481569D01*
X54525000Y-116481569D02*
X54667857Y-116529188D01*
X54667857Y-116529188D02*
X54763095Y-116624426D01*
X54763095Y-116624426D02*
X54810714Y-116719664D01*
X54810714Y-116719664D02*
X54858333Y-116910140D01*
X54858333Y-116910140D02*
X54858333Y-117052997D01*
X54858333Y-117052997D02*
X54810714Y-117243473D01*
X54810714Y-117243473D02*
X54763095Y-117338711D01*
X54763095Y-117338711D02*
X54667857Y-117433950D01*
X54667857Y-117433950D02*
X54525000Y-117481569D01*
X54525000Y-117481569D02*
X54286905Y-117481569D01*
X48584819Y-81606469D02*
X47584819Y-81606469D01*
X47584819Y-81606469D02*
X47584819Y-81368374D01*
X47584819Y-81368374D02*
X47632438Y-81225517D01*
X47632438Y-81225517D02*
X47727676Y-81130279D01*
X47727676Y-81130279D02*
X47822914Y-81082660D01*
X47822914Y-81082660D02*
X48013390Y-81035041D01*
X48013390Y-81035041D02*
X48156247Y-81035041D01*
X48156247Y-81035041D02*
X48346723Y-81082660D01*
X48346723Y-81082660D02*
X48441961Y-81130279D01*
X48441961Y-81130279D02*
X48537200Y-81225517D01*
X48537200Y-81225517D02*
X48584819Y-81368374D01*
X48584819Y-81368374D02*
X48584819Y-81606469D01*
X47680057Y-80654088D02*
X47632438Y-80606469D01*
X47632438Y-80606469D02*
X47584819Y-80511231D01*
X47584819Y-80511231D02*
X47584819Y-80273136D01*
X47584819Y-80273136D02*
X47632438Y-80177898D01*
X47632438Y-80177898D02*
X47680057Y-80130279D01*
X47680057Y-80130279D02*
X47775295Y-80082660D01*
X47775295Y-80082660D02*
X47870533Y-80082660D01*
X47870533Y-80082660D02*
X48013390Y-80130279D01*
X48013390Y-80130279D02*
X48584819Y-80701707D01*
X48584819Y-80701707D02*
X48584819Y-80082660D01*
X76858333Y-117593194D02*
X76525000Y-117117003D01*
X76286905Y-117593194D02*
X76286905Y-116593194D01*
X76286905Y-116593194D02*
X76667857Y-116593194D01*
X76667857Y-116593194D02*
X76763095Y-116640813D01*
X76763095Y-116640813D02*
X76810714Y-116688432D01*
X76810714Y-116688432D02*
X76858333Y-116783670D01*
X76858333Y-116783670D02*
X76858333Y-116926527D01*
X76858333Y-116926527D02*
X76810714Y-117021765D01*
X76810714Y-117021765D02*
X76763095Y-117069384D01*
X76763095Y-117069384D02*
X76667857Y-117117003D01*
X76667857Y-117117003D02*
X76286905Y-117117003D01*
X77810714Y-117593194D02*
X77239286Y-117593194D01*
X77525000Y-117593194D02*
X77525000Y-116593194D01*
X77525000Y-116593194D02*
X77429762Y-116736051D01*
X77429762Y-116736051D02*
X77334524Y-116831289D01*
X77334524Y-116831289D02*
X77239286Y-116878908D01*
X64739286Y-117212241D02*
X65501191Y-117212241D01*
X65120238Y-117593194D02*
X65120238Y-116831289D01*
X66453571Y-116593194D02*
X65977381Y-116593194D01*
X65977381Y-116593194D02*
X65929762Y-117069384D01*
X65929762Y-117069384D02*
X65977381Y-117021765D01*
X65977381Y-117021765D02*
X66072619Y-116974146D01*
X66072619Y-116974146D02*
X66310714Y-116974146D01*
X66310714Y-116974146D02*
X66405952Y-117021765D01*
X66405952Y-117021765D02*
X66453571Y-117069384D01*
X66453571Y-117069384D02*
X66501190Y-117164622D01*
X66501190Y-117164622D02*
X66501190Y-117402717D01*
X66501190Y-117402717D02*
X66453571Y-117497955D01*
X66453571Y-117497955D02*
X66405952Y-117545575D01*
X66405952Y-117545575D02*
X66310714Y-117593194D01*
X66310714Y-117593194D02*
X66072619Y-117593194D01*
X66072619Y-117593194D02*
X65977381Y-117545575D01*
X65977381Y-117545575D02*
X65929762Y-117497955D01*
X66786905Y-116593194D02*
X67120238Y-117593194D01*
X67120238Y-117593194D02*
X67453571Y-116593194D01*
D12*
%TO.C,L2*%
X125090000Y-118374375D02*
X125090000Y-118218375D01*
X125090000Y-116058375D02*
X125090000Y-115902375D01*
X125090000Y-118373891D02*
G75*
G02*
X121857665Y-118216983I-1560000J1235516D01*
G01*
X124570961Y-118218375D02*
G75*
G02*
X122488870Y-118218212I-1040961J1080000D01*
G01*
X122488870Y-116058538D02*
G75*
G02*
X124570961Y-116058375I1041130J-1079837D01*
G01*
X121857665Y-116059767D02*
G75*
G02*
X125090000Y-115902859I1672335J-1078608D01*
G01*
%TO.C,D1*%
X49600000Y-100518375D02*
X49600000Y-95078375D01*
X49600000Y-96098375D02*
X46660000Y-96098375D01*
X49600000Y-95978375D02*
X46660000Y-95978375D01*
X49600000Y-95858375D02*
X46660000Y-95858375D01*
X49600000Y-95078375D02*
X46660000Y-95078375D01*
X48130000Y-101538375D02*
X48130000Y-100518375D01*
X48130000Y-94058375D02*
X48130000Y-95078375D01*
X46660000Y-100518375D02*
X49600000Y-100518375D01*
X46660000Y-95078375D02*
X46660000Y-100518375D01*
%TO.C,TP{2*%
X107475000Y-117138375D02*
G75*
G02*
X105575000Y-117138375I-950000J0D01*
G01*
X105575000Y-117138375D02*
G75*
G02*
X107475000Y-117138375I950000J0D01*
G01*
%TO.C,W1*%
X34925000Y-93138400D02*
X34925000Y-93638400D01*
X35165000Y-93378400D02*
X35165000Y-113499400D01*
X35665000Y-93138400D02*
X34925000Y-93138400D01*
X35725000Y-93378400D02*
X35725000Y-113499400D01*
X37225000Y-93378400D02*
X37225000Y-113499400D01*
X38586000Y-99904400D02*
X38551000Y-99869400D01*
X38586000Y-104904400D02*
X38551000Y-104869400D01*
X38586000Y-109904400D02*
X38551000Y-109869400D01*
X38802000Y-99711400D02*
X38756000Y-99664400D01*
X38802000Y-104711400D02*
X38756000Y-104664400D01*
X38802000Y-109711400D02*
X38756000Y-109664400D01*
X40894000Y-102213400D02*
X40848000Y-102166400D01*
X40894000Y-107213400D02*
X40848000Y-107166400D01*
X40894000Y-112213400D02*
X40848000Y-112166400D01*
X41100000Y-102008400D02*
X41064000Y-101973400D01*
X41100000Y-107008400D02*
X41064000Y-106973400D01*
X41100000Y-112008400D02*
X41064000Y-111973400D01*
X42126000Y-93378400D02*
X42126000Y-113499400D01*
X45086000Y-93378400D02*
X35165000Y-93378400D01*
X45086000Y-93378400D02*
X45086000Y-113499400D01*
X45086000Y-113499400D02*
X35165000Y-113499400D01*
X38144747Y-95967205D02*
G75*
G02*
X38290000Y-95254400I1680254J28806D01*
G01*
X38290244Y-96621718D02*
G75*
G02*
X38145000Y-95938400I1534756J683318D01*
G01*
X39141958Y-94402973D02*
G75*
G02*
X40509000Y-94403400I683041J-1535420D01*
G01*
X40508042Y-97473827D02*
G75*
G02*
X39141000Y-97473400I-683042J1535427D01*
G01*
X41360427Y-95255358D02*
G75*
G02*
X41360000Y-96622400I-1535420J-683041D01*
G01*
X41505000Y-100938400D02*
G75*
G02*
X38145000Y-100938400I-1680000J0D01*
G01*
X38145000Y-100938400D02*
G75*
G02*
X41505000Y-100938400I1680000J0D01*
G01*
X41505000Y-105938400D02*
G75*
G02*
X38145000Y-105938400I-1680000J0D01*
G01*
X38145000Y-105938400D02*
G75*
G02*
X41505000Y-105938400I1680000J0D01*
G01*
X41505000Y-110938400D02*
G75*
G02*
X38145000Y-110938400I-1680000J0D01*
G01*
X38145000Y-110938400D02*
G75*
G02*
X41505000Y-110938400I1680000J0D01*
G01*
%TO.C,R2*%
X110485000Y-117138375D02*
X111255000Y-117138375D01*
X111255000Y-115768375D02*
X111255000Y-118508375D01*
X111255000Y-118508375D02*
X117795000Y-118508375D01*
X117795000Y-115768375D02*
X111255000Y-115768375D01*
X117795000Y-118508375D02*
X117795000Y-115768375D01*
X118565000Y-117138375D02*
X117795000Y-117138375D01*
%TO.C,W2*%
X34925000Y-81538400D02*
X34925000Y-82038400D01*
X35165000Y-81778400D02*
X35165000Y-91898400D01*
X35665000Y-81538400D02*
X34925000Y-81538400D01*
X35725000Y-81778400D02*
X35725000Y-91898400D01*
X37225000Y-81778400D02*
X37225000Y-91898400D01*
X38586000Y-88304400D02*
X38551000Y-88269400D01*
X38802000Y-88111400D02*
X38756000Y-88064400D01*
X40894000Y-90613400D02*
X40848000Y-90566400D01*
X41100000Y-90408400D02*
X41064000Y-90373400D01*
X42126000Y-81778400D02*
X42126000Y-91898400D01*
X45086000Y-81778400D02*
X35165000Y-81778400D01*
X45086000Y-81778400D02*
X45086000Y-91898400D01*
X45086000Y-91898400D02*
X35165000Y-91898400D01*
X38144747Y-84367205D02*
G75*
G02*
X38290000Y-83654400I1680254J28806D01*
G01*
X38290244Y-85021718D02*
G75*
G02*
X38145000Y-84338400I1534756J683318D01*
G01*
X39141958Y-82802973D02*
G75*
G02*
X40509000Y-82803400I683041J-1535420D01*
G01*
X40508042Y-85873827D02*
G75*
G02*
X39141000Y-85873400I-683042J1535427D01*
G01*
X41360427Y-83655358D02*
G75*
G02*
X41360000Y-85022400I-1535420J-683041D01*
G01*
X41505000Y-89338400D02*
G75*
G02*
X38145000Y-89338400I-1680000J0D01*
G01*
X38145000Y-89338400D02*
G75*
G02*
X41505000Y-89338400I1680000J0D01*
G01*
%TO.C,L3*%
X161715000Y-118374375D02*
X161715000Y-118218375D01*
X161715000Y-116058375D02*
X161715000Y-115902375D01*
X161715000Y-118373891D02*
G75*
G02*
X158482665Y-118216983I-1560000J1235516D01*
G01*
X161195961Y-118218375D02*
G75*
G02*
X159113870Y-118218212I-1040961J1080000D01*
G01*
X159113870Y-116058538D02*
G75*
G02*
X161195961Y-116058375I1041130J-1079837D01*
G01*
X158482665Y-116059767D02*
G75*
G02*
X161715000Y-115902859I1672335J-1078608D01*
G01*
%TO.C,TP3*%
X143975000Y-117138375D02*
G75*
G02*
X142075000Y-117138375I-950000J0D01*
G01*
X142075000Y-117138375D02*
G75*
G02*
X143975000Y-117138375I950000J0D01*
G01*
%TO.C,R3*%
X146985000Y-117138375D02*
X147755000Y-117138375D01*
X147755000Y-115768375D02*
X147755000Y-118508375D01*
X147755000Y-118508375D02*
X154295000Y-118508375D01*
X154295000Y-115768375D02*
X147755000Y-115768375D01*
X154295000Y-118508375D02*
X154295000Y-115768375D01*
X155065000Y-117138375D02*
X154295000Y-117138375D01*
%TO.C,D3*%
X49600000Y-117978375D02*
X49600000Y-112538375D01*
X49600000Y-113558375D02*
X46660000Y-113558375D01*
X49600000Y-113438375D02*
X46660000Y-113438375D01*
X49600000Y-113318375D02*
X46660000Y-113318375D01*
X49600000Y-112538375D02*
X46660000Y-112538375D01*
X48130000Y-118998375D02*
X48130000Y-117978375D01*
X48130000Y-111518375D02*
X48130000Y-112538375D01*
X46660000Y-117978375D02*
X49600000Y-117978375D01*
X46660000Y-112538375D02*
X46660000Y-117978375D01*
%TO.C,TP4*%
X57475000Y-117026750D02*
G75*
G02*
X55575000Y-117026750I-950000J0D01*
G01*
X55575000Y-117026750D02*
G75*
G02*
X57475000Y-117026750I950000J0D01*
G01*
%TO.C,D2*%
X46660000Y-77618375D02*
X46660000Y-83058375D01*
X46660000Y-83058375D02*
X49600000Y-83058375D01*
X48130000Y-76598375D02*
X48130000Y-77618375D01*
X48130000Y-84078375D02*
X48130000Y-83058375D01*
X49600000Y-77618375D02*
X46660000Y-77618375D01*
X49600000Y-78398375D02*
X46660000Y-78398375D01*
X49600000Y-78518375D02*
X46660000Y-78518375D01*
X49600000Y-78638375D02*
X46660000Y-78638375D01*
X49600000Y-83058375D02*
X49600000Y-77618375D01*
%TO.C,R1*%
X72985000Y-117138375D02*
X73755000Y-117138375D01*
X73755000Y-115768375D02*
X73755000Y-118508375D01*
X73755000Y-118508375D02*
X80295000Y-118508375D01*
X80295000Y-115768375D02*
X73755000Y-115768375D01*
X80295000Y-118508375D02*
X80295000Y-115768375D01*
X81065000Y-117138375D02*
X80295000Y-117138375D01*
%TO.C,L1*%
X87635000Y-118374375D02*
X87635000Y-118218375D01*
X87635000Y-116058375D02*
X87635000Y-115902375D01*
X87635000Y-118373891D02*
G75*
G02*
X84402665Y-118216983I-1560000J1235516D01*
G01*
X87115961Y-118218375D02*
G75*
G02*
X85033870Y-118218212I-1040961J1080000D01*
G01*
X85033870Y-116058538D02*
G75*
G02*
X87115961Y-116058375I1041130J-1079837D01*
G01*
X84402665Y-116059767D02*
G75*
G02*
X87635000Y-115902859I1672335J-1078608D01*
G01*
%TO.C,TP1*%
X70095000Y-117138375D02*
G75*
G02*
X68195000Y-117138375I-950000J0D01*
G01*
X68195000Y-117138375D02*
G75*
G02*
X70095000Y-117138375I950000J0D01*
G01*
%TO.C,J10*%
X149388800Y-82876700D02*
X158508800Y-82876700D01*
X149388800Y-111076700D02*
X149388800Y-82876700D01*
X150698800Y-84176700D02*
X157198800Y-84176700D01*
X150698800Y-109776700D02*
X150698800Y-84176700D01*
X157198800Y-84176700D02*
X157198800Y-94926700D01*
X157198800Y-94926700D02*
X157198800Y-94926700D01*
X157198800Y-94926700D02*
X158508800Y-94926700D01*
X157198800Y-99026700D02*
X157198800Y-109776700D01*
X157198800Y-109776700D02*
X150698800Y-109776700D01*
X158508800Y-82876700D02*
X158508800Y-111076700D01*
X158508800Y-99026700D02*
X157198800Y-99026700D01*
X158508800Y-111076700D02*
X149388800Y-111076700D01*
X158898800Y-105866700D02*
X159898800Y-106366700D01*
X159898800Y-105366700D02*
X158898800Y-105866700D01*
X159898800Y-106366700D02*
X159898800Y-105366700D01*
%TO.C,J16*%
X76624700Y-82876700D02*
X85744700Y-82876700D01*
X76624700Y-111076700D02*
X76624700Y-82876700D01*
X77934700Y-84176700D02*
X84434700Y-84176700D01*
X77934700Y-109776700D02*
X77934700Y-84176700D01*
X84434700Y-84176700D02*
X84434700Y-94926700D01*
X84434700Y-94926700D02*
X84434700Y-94926700D01*
X84434700Y-94926700D02*
X85744700Y-94926700D01*
X84434700Y-99026700D02*
X84434700Y-109776700D01*
X84434700Y-109776700D02*
X77934700Y-109776700D01*
X85744700Y-82876700D02*
X85744700Y-111076700D01*
X85744700Y-99026700D02*
X84434700Y-99026700D01*
X85744700Y-111076700D02*
X76624700Y-111076700D01*
X86134700Y-105866700D02*
X87134700Y-106366700D01*
X87134700Y-105366700D02*
X86134700Y-105866700D01*
X87134700Y-106366700D02*
X87134700Y-105366700D01*
%TO.C,J14*%
X100879400Y-82876700D02*
X109999400Y-82876700D01*
X100879400Y-111076700D02*
X100879400Y-82876700D01*
X102189400Y-84176700D02*
X108689400Y-84176700D01*
X102189400Y-109776700D02*
X102189400Y-84176700D01*
X108689400Y-84176700D02*
X108689400Y-94926700D01*
X108689400Y-94926700D02*
X108689400Y-94926700D01*
X108689400Y-94926700D02*
X109999400Y-94926700D01*
X108689400Y-99026700D02*
X108689400Y-109776700D01*
X108689400Y-109776700D02*
X102189400Y-109776700D01*
X109999400Y-82876700D02*
X109999400Y-111076700D01*
X109999400Y-99026700D02*
X108689400Y-99026700D01*
X109999400Y-111076700D02*
X100879400Y-111076700D01*
X110389400Y-105866700D02*
X111389400Y-106366700D01*
X111389400Y-105366700D02*
X110389400Y-105866700D01*
X111389400Y-106366700D02*
X111389400Y-105366700D01*
%TO.C,J6*%
X197898200Y-82876700D02*
X207018200Y-82876700D01*
X197898200Y-111076700D02*
X197898200Y-82876700D01*
X199208200Y-84176700D02*
X205708200Y-84176700D01*
X199208200Y-109776700D02*
X199208200Y-84176700D01*
X205708200Y-84176700D02*
X205708200Y-94926700D01*
X205708200Y-94926700D02*
X205708200Y-94926700D01*
X205708200Y-94926700D02*
X207018200Y-94926700D01*
X205708200Y-99026700D02*
X205708200Y-109776700D01*
X205708200Y-109776700D02*
X199208200Y-109776700D01*
X207018200Y-82876700D02*
X207018200Y-111076700D01*
X207018200Y-99026700D02*
X205708200Y-99026700D01*
X207018200Y-111076700D02*
X197898200Y-111076700D01*
X207408200Y-105866700D02*
X208408200Y-106366700D01*
X208408200Y-105366700D02*
X207408200Y-105866700D01*
X208408200Y-106366700D02*
X208408200Y-105366700D01*
%TO.C,J3*%
X234280300Y-82876700D02*
X243400300Y-82876700D01*
X234280300Y-111076700D02*
X234280300Y-82876700D01*
X235590300Y-84176700D02*
X242090300Y-84176700D01*
X235590300Y-109776700D02*
X235590300Y-84176700D01*
X242090300Y-84176700D02*
X242090300Y-94926700D01*
X242090300Y-94926700D02*
X242090300Y-94926700D01*
X242090300Y-94926700D02*
X243400300Y-94926700D01*
X242090300Y-99026700D02*
X242090300Y-109776700D01*
X242090300Y-109776700D02*
X235590300Y-109776700D01*
X243400300Y-82876700D02*
X243400300Y-111076700D01*
X243400300Y-99026700D02*
X242090300Y-99026700D01*
X243400300Y-111076700D02*
X234280300Y-111076700D01*
X243790300Y-105866700D02*
X244790300Y-106366700D01*
X244790300Y-105366700D02*
X243790300Y-105866700D01*
X244790300Y-106366700D02*
X244790300Y-105366700D01*
%TO.C,J12*%
X125134100Y-82876700D02*
X134254100Y-82876700D01*
X125134100Y-111076700D02*
X125134100Y-82876700D01*
X126444100Y-84176700D02*
X132944100Y-84176700D01*
X126444100Y-109776700D02*
X126444100Y-84176700D01*
X132944100Y-84176700D02*
X132944100Y-94926700D01*
X132944100Y-94926700D02*
X132944100Y-94926700D01*
X132944100Y-94926700D02*
X134254100Y-94926700D01*
X132944100Y-99026700D02*
X132944100Y-109776700D01*
X132944100Y-109776700D02*
X126444100Y-109776700D01*
X134254100Y-82876700D02*
X134254100Y-111076700D01*
X134254100Y-99026700D02*
X132944100Y-99026700D01*
X134254100Y-111076700D02*
X125134100Y-111076700D01*
X134644100Y-105866700D02*
X135644100Y-106366700D01*
X135644100Y-105366700D02*
X134644100Y-105866700D01*
X135644100Y-106366700D02*
X135644100Y-105366700D01*
%TO.C,J18*%
X52370000Y-82876700D02*
X61490000Y-82876700D01*
X52370000Y-111076700D02*
X52370000Y-82876700D01*
X53680000Y-84176700D02*
X60180000Y-84176700D01*
X53680000Y-109776700D02*
X53680000Y-84176700D01*
X60180000Y-84176700D02*
X60180000Y-94926700D01*
X60180000Y-94926700D02*
X60180000Y-94926700D01*
X60180000Y-94926700D02*
X61490000Y-94926700D01*
X60180000Y-99026700D02*
X60180000Y-109776700D01*
X60180000Y-109776700D02*
X53680000Y-109776700D01*
X61490000Y-82876700D02*
X61490000Y-111076700D01*
X61490000Y-99026700D02*
X60180000Y-99026700D01*
X61490000Y-111076700D02*
X52370000Y-111076700D01*
X61880000Y-105866700D02*
X62880000Y-106366700D01*
X62880000Y-105366700D02*
X61880000Y-105866700D01*
X62880000Y-106366700D02*
X62880000Y-105366700D01*
%TO.C,J11*%
X137261500Y-82876700D02*
X146381500Y-82876700D01*
X137261500Y-111076700D02*
X137261500Y-82876700D01*
X138571500Y-84176700D02*
X145071500Y-84176700D01*
X138571500Y-109776700D02*
X138571500Y-84176700D01*
X145071500Y-84176700D02*
X145071500Y-94926700D01*
X145071500Y-94926700D02*
X145071500Y-94926700D01*
X145071500Y-94926700D02*
X146381500Y-94926700D01*
X145071500Y-99026700D02*
X145071500Y-109776700D01*
X145071500Y-109776700D02*
X138571500Y-109776700D01*
X146381500Y-82876700D02*
X146381500Y-111076700D01*
X146381500Y-99026700D02*
X145071500Y-99026700D01*
X146381500Y-111076700D02*
X137261500Y-111076700D01*
X146771500Y-105866700D02*
X147771500Y-106366700D01*
X147771500Y-105366700D02*
X146771500Y-105866700D01*
X147771500Y-106366700D02*
X147771500Y-105366700D01*
%TO.C,J7*%
X185770900Y-82876700D02*
X194890900Y-82876700D01*
X185770900Y-111076700D02*
X185770900Y-82876700D01*
X187080900Y-84176700D02*
X193580900Y-84176700D01*
X187080900Y-109776700D02*
X187080900Y-84176700D01*
X193580900Y-84176700D02*
X193580900Y-94926700D01*
X193580900Y-94926700D02*
X193580900Y-94926700D01*
X193580900Y-94926700D02*
X194890900Y-94926700D01*
X193580900Y-99026700D02*
X193580900Y-109776700D01*
X193580900Y-109776700D02*
X187080900Y-109776700D01*
X194890900Y-82876700D02*
X194890900Y-111076700D01*
X194890900Y-99026700D02*
X193580900Y-99026700D01*
X194890900Y-111076700D02*
X185770900Y-111076700D01*
X195280900Y-105866700D02*
X196280900Y-106366700D01*
X196280900Y-105366700D02*
X195280900Y-105866700D01*
X196280900Y-106366700D02*
X196280900Y-105366700D01*
%TO.C,J9*%
X161516200Y-82876700D02*
X170636200Y-82876700D01*
X161516200Y-111076700D02*
X161516200Y-82876700D01*
X162826200Y-84176700D02*
X169326200Y-84176700D01*
X162826200Y-109776700D02*
X162826200Y-84176700D01*
X169326200Y-84176700D02*
X169326200Y-94926700D01*
X169326200Y-94926700D02*
X169326200Y-94926700D01*
X169326200Y-94926700D02*
X170636200Y-94926700D01*
X169326200Y-99026700D02*
X169326200Y-109776700D01*
X169326200Y-109776700D02*
X162826200Y-109776700D01*
X170636200Y-82876700D02*
X170636200Y-111076700D01*
X170636200Y-99026700D02*
X169326200Y-99026700D01*
X170636200Y-111076700D02*
X161516200Y-111076700D01*
X171026200Y-105866700D02*
X172026200Y-106366700D01*
X172026200Y-105366700D02*
X171026200Y-105866700D01*
X172026200Y-106366700D02*
X172026200Y-105366700D01*
%TO.C,J5*%
X210025600Y-82876700D02*
X219145600Y-82876700D01*
X210025600Y-111076700D02*
X210025600Y-82876700D01*
X211335600Y-84176700D02*
X217835600Y-84176700D01*
X211335600Y-109776700D02*
X211335600Y-84176700D01*
X217835600Y-84176700D02*
X217835600Y-94926700D01*
X217835600Y-94926700D02*
X217835600Y-94926700D01*
X217835600Y-94926700D02*
X219145600Y-94926700D01*
X217835600Y-99026700D02*
X217835600Y-109776700D01*
X217835600Y-109776700D02*
X211335600Y-109776700D01*
X219145600Y-82876700D02*
X219145600Y-111076700D01*
X219145600Y-99026700D02*
X217835600Y-99026700D01*
X219145600Y-111076700D02*
X210025600Y-111076700D01*
X219535600Y-105866700D02*
X220535600Y-106366700D01*
X220535600Y-105366700D02*
X219535600Y-105866700D01*
X220535600Y-106366700D02*
X220535600Y-105366700D01*
%TO.C,J4*%
X222152900Y-82876700D02*
X231272900Y-82876700D01*
X222152900Y-111076700D02*
X222152900Y-82876700D01*
X223462900Y-84176700D02*
X229962900Y-84176700D01*
X223462900Y-109776700D02*
X223462900Y-84176700D01*
X229962900Y-84176700D02*
X229962900Y-94926700D01*
X229962900Y-94926700D02*
X229962900Y-94926700D01*
X229962900Y-94926700D02*
X231272900Y-94926700D01*
X229962900Y-99026700D02*
X229962900Y-109776700D01*
X229962900Y-109776700D02*
X223462900Y-109776700D01*
X231272900Y-82876700D02*
X231272900Y-111076700D01*
X231272900Y-99026700D02*
X229962900Y-99026700D01*
X231272900Y-111076700D02*
X222152900Y-111076700D01*
X231662900Y-105866700D02*
X232662900Y-106366700D01*
X232662900Y-105366700D02*
X231662900Y-105866700D01*
X232662900Y-106366700D02*
X232662900Y-105366700D01*
%TO.C,J8*%
X173643500Y-82876700D02*
X182763500Y-82876700D01*
X173643500Y-111076700D02*
X173643500Y-82876700D01*
X174953500Y-84176700D02*
X181453500Y-84176700D01*
X174953500Y-109776700D02*
X174953500Y-84176700D01*
X181453500Y-84176700D02*
X181453500Y-94926700D01*
X181453500Y-94926700D02*
X181453500Y-94926700D01*
X181453500Y-94926700D02*
X182763500Y-94926700D01*
X181453500Y-99026700D02*
X181453500Y-109776700D01*
X181453500Y-109776700D02*
X174953500Y-109776700D01*
X182763500Y-82876700D02*
X182763500Y-111076700D01*
X182763500Y-99026700D02*
X181453500Y-99026700D01*
X182763500Y-111076700D02*
X173643500Y-111076700D01*
X183153500Y-105866700D02*
X184153500Y-106366700D01*
X184153500Y-105366700D02*
X183153500Y-105866700D01*
X184153500Y-106366700D02*
X184153500Y-105366700D01*
%TO.C,J1*%
X258535000Y-82876700D02*
X267655000Y-82876700D01*
X258535000Y-111076700D02*
X258535000Y-82876700D01*
X259845000Y-84176700D02*
X266345000Y-84176700D01*
X259845000Y-109776700D02*
X259845000Y-84176700D01*
X266345000Y-84176700D02*
X266345000Y-94926700D01*
X266345000Y-94926700D02*
X266345000Y-94926700D01*
X266345000Y-94926700D02*
X267655000Y-94926700D01*
X266345000Y-99026700D02*
X266345000Y-109776700D01*
X266345000Y-109776700D02*
X259845000Y-109776700D01*
X267655000Y-82876700D02*
X267655000Y-111076700D01*
X267655000Y-99026700D02*
X266345000Y-99026700D01*
X267655000Y-111076700D02*
X258535000Y-111076700D01*
X268045000Y-105866700D02*
X269045000Y-106366700D01*
X269045000Y-105366700D02*
X268045000Y-105866700D01*
X269045000Y-106366700D02*
X269045000Y-105366700D01*
%TO.C,J17*%
X64497400Y-82876700D02*
X73617400Y-82876700D01*
X64497400Y-111076700D02*
X64497400Y-82876700D01*
X65807400Y-84176700D02*
X72307400Y-84176700D01*
X65807400Y-109776700D02*
X65807400Y-84176700D01*
X72307400Y-84176700D02*
X72307400Y-94926700D01*
X72307400Y-94926700D02*
X72307400Y-94926700D01*
X72307400Y-94926700D02*
X73617400Y-94926700D01*
X72307400Y-99026700D02*
X72307400Y-109776700D01*
X72307400Y-109776700D02*
X65807400Y-109776700D01*
X73617400Y-82876700D02*
X73617400Y-111076700D01*
X73617400Y-99026700D02*
X72307400Y-99026700D01*
X73617400Y-111076700D02*
X64497400Y-111076700D01*
X74007400Y-105866700D02*
X75007400Y-106366700D01*
X75007400Y-105366700D02*
X74007400Y-105866700D01*
X75007400Y-106366700D02*
X75007400Y-105366700D01*
%TO.C,J13*%
X113006800Y-82876700D02*
X122126800Y-82876700D01*
X113006800Y-111076700D02*
X113006800Y-82876700D01*
X114316800Y-84176700D02*
X120816800Y-84176700D01*
X114316800Y-109776700D02*
X114316800Y-84176700D01*
X120816800Y-84176700D02*
X120816800Y-94926700D01*
X120816800Y-94926700D02*
X120816800Y-94926700D01*
X120816800Y-94926700D02*
X122126800Y-94926700D01*
X120816800Y-99026700D02*
X120816800Y-109776700D01*
X120816800Y-109776700D02*
X114316800Y-109776700D01*
X122126800Y-82876700D02*
X122126800Y-111076700D01*
X122126800Y-99026700D02*
X120816800Y-99026700D01*
X122126800Y-111076700D02*
X113006800Y-111076700D01*
X122516800Y-105866700D02*
X123516800Y-106366700D01*
X123516800Y-105366700D02*
X122516800Y-105866700D01*
X123516800Y-106366700D02*
X123516800Y-105366700D01*
%TO.C,J2*%
X246407600Y-82876700D02*
X255527600Y-82876700D01*
X246407600Y-111076700D02*
X246407600Y-82876700D01*
X247717600Y-84176700D02*
X254217600Y-84176700D01*
X247717600Y-109776700D02*
X247717600Y-84176700D01*
X254217600Y-84176700D02*
X254217600Y-94926700D01*
X254217600Y-94926700D02*
X254217600Y-94926700D01*
X254217600Y-94926700D02*
X255527600Y-94926700D01*
X254217600Y-99026700D02*
X254217600Y-109776700D01*
X254217600Y-109776700D02*
X247717600Y-109776700D01*
X255527600Y-82876700D02*
X255527600Y-111076700D01*
X255527600Y-99026700D02*
X254217600Y-99026700D01*
X255527600Y-111076700D02*
X246407600Y-111076700D01*
X255917600Y-105866700D02*
X256917600Y-106366700D01*
X256917600Y-105366700D02*
X255917600Y-105866700D01*
X256917600Y-106366700D02*
X256917600Y-105366700D01*
%TO.C,J15*%
X88752100Y-82876700D02*
X97872100Y-82876700D01*
X88752100Y-111076700D02*
X88752100Y-82876700D01*
X90062100Y-84176700D02*
X96562100Y-84176700D01*
X90062100Y-109776700D02*
X90062100Y-84176700D01*
X96562100Y-84176700D02*
X96562100Y-94926700D01*
X96562100Y-94926700D02*
X96562100Y-94926700D01*
X96562100Y-94926700D02*
X97872100Y-94926700D01*
X96562100Y-99026700D02*
X96562100Y-109776700D01*
X96562100Y-109776700D02*
X90062100Y-109776700D01*
X97872100Y-82876700D02*
X97872100Y-111076700D01*
X97872100Y-99026700D02*
X96562100Y-99026700D01*
X97872100Y-111076700D02*
X88752100Y-111076700D01*
X98262100Y-105866700D02*
X99262100Y-106366700D01*
X99262100Y-105366700D02*
X98262100Y-105866700D01*
X99262100Y-106366700D02*
X99262100Y-105366700D01*
%TD*%
M02*
