M48
; DRILL file {KiCad 8.0.3} date 2024-07-08T20:04:00-0400
; FORMAT={-:-/ absolute / inch / decimal}
; #@! TF.CreationDate,2024-07-08T20:04:00-04:00
; #@! TF.GenerationSoftware,Kicad,Pcbnew,8.0.3
; #@! TF.FileFunction,Plated,1,2,PTH
FMAT,2
INCH
; #@! TA.AperFunction,Plated,PTH,ComponentDrill
T1C0.0394
; #@! TA.AperFunction,Plated,PTH,ComponentDrill
T2C0.1260
%
G90
G05
T1
X3.7714Y-3.2961
X3.7714Y-3.3961
X3.7714Y-3.4961
X3.7714Y-3.5961
X3.7714Y-3.6961
X3.7714Y-3.7961
X3.7714Y-3.8961
X3.7714Y-3.9961
X3.7818Y-4.6362
X3.7818Y-4.7362
X3.7818Y-4.8362
X3.7818Y-4.9362
X3.7818Y-5.0362
X3.7818Y-5.1362
X3.7818Y-5.2362
X3.7818Y-5.3362
X3.8714Y-3.2961
X3.8714Y-3.3961
X3.8714Y-3.4961
X3.8714Y-3.5961
X3.8714Y-3.6961
X3.8714Y-3.7961
X3.8714Y-3.8961
X3.8714Y-3.9961
X3.8818Y-4.6362
X3.8818Y-4.7362
X3.8818Y-4.8362
X3.8818Y-4.9362
X3.8818Y-5.0362
X3.8818Y-5.1362
X3.8818Y-5.2362
X3.8818Y-5.3362
X4.2117Y-2.6953
X4.2117Y-2.7953
X4.2432Y-3.2961
X4.2432Y-3.3961
X4.2432Y-3.4961
X4.2432Y-3.5961
X4.2432Y-3.6961
X4.2432Y-3.7961
X4.2432Y-3.8961
X4.2432Y-3.9961
X4.2536Y-4.6362
X4.2536Y-4.7362
X4.2536Y-4.8362
X4.2536Y-4.9362
X4.2536Y-5.0362
X4.2536Y-5.1362
X4.2536Y-5.2362
X4.2536Y-5.3362
X4.3117Y-2.6953
X4.3117Y-2.7953
X4.3432Y-3.2961
X4.3432Y-3.3961
X4.3432Y-3.4961
X4.3432Y-3.5961
X4.3432Y-3.6961
X4.3432Y-3.7961
X4.3432Y-3.8961
X4.3432Y-3.9961
X4.3536Y-4.6362
X4.3536Y-4.7362
X4.3536Y-4.8362
X4.3536Y-4.9362
X4.3536Y-5.0362
X4.3536Y-5.1362
X4.3536Y-5.2362
X4.3536Y-5.3362
X4.4117Y-2.6953
X4.4117Y-2.7953
X4.5117Y-2.6953
X4.5117Y-2.7953
X4.6117Y-2.6953
X4.6117Y-2.7953
X4.7117Y-2.6953
X4.7117Y-2.7953
X4.7151Y-3.2961
X4.7151Y-3.3961
X4.7151Y-3.4961
X4.7151Y-3.5961
X4.7151Y-3.6961
X4.7151Y-3.7961
X4.7151Y-3.8961
X4.7151Y-3.9961
X4.7255Y-4.6362
X4.7255Y-4.7362
X4.7255Y-4.8362
X4.7255Y-4.9362
X4.7255Y-5.0362
X4.7255Y-5.1362
X4.7255Y-5.2362
X4.7255Y-5.3362
X4.8117Y-2.6953
X4.8117Y-2.7953
X4.8151Y-3.2961
X4.8151Y-3.3961
X4.8151Y-3.4961
X4.8151Y-3.5961
X4.8151Y-3.6961
X4.8151Y-3.7961
X4.8151Y-3.8961
X4.8151Y-3.9961
X4.8255Y-4.6362
X4.8255Y-4.7362
X4.8255Y-4.8362
X4.8255Y-4.9362
X4.8255Y-5.0362
X4.8255Y-5.1362
X4.8255Y-5.2362
X4.8255Y-5.3362
X4.9117Y-2.6953
X4.9117Y-2.7953
X5.1869Y-3.2961
X5.1869Y-3.3961
X5.1869Y-3.4961
X5.1869Y-3.5961
X5.1869Y-3.6961
X5.1869Y-3.7961
X5.1869Y-3.8961
X5.1869Y-3.9961
X5.1973Y-4.6362
X5.1973Y-4.7362
X5.1973Y-4.8362
X5.1973Y-4.9362
X5.1973Y-5.0362
X5.1973Y-5.1362
X5.1973Y-5.2362
X5.1973Y-5.3362
X5.2869Y-3.2961
X5.2869Y-3.3961
X5.2869Y-3.4961
X5.2869Y-3.5961
X5.2869Y-3.6961
X5.2869Y-3.7961
X5.2869Y-3.8961
X5.2869Y-3.9961
X5.2973Y-4.6362
X5.2973Y-4.7362
X5.2973Y-4.8362
X5.2973Y-4.9362
X5.2973Y-5.0362
X5.2973Y-5.1362
X5.2973Y-5.2362
X5.2973Y-5.3362
X5.6611Y-3.2961
X5.6611Y-3.3961
X5.6611Y-3.4961
X5.6611Y-3.5961
X5.6611Y-3.6961
X5.6611Y-3.7961
X5.6611Y-3.8961
X5.6611Y-3.9961
X5.6692Y-4.6362
X5.6692Y-4.7362
X5.6692Y-4.8362
X5.6692Y-4.9362
X5.6692Y-5.0362
X5.6692Y-5.1362
X5.6692Y-5.2362
X5.6692Y-5.3362
X5.7611Y-3.2961
X5.7611Y-3.3961
X5.7611Y-3.4961
X5.7611Y-3.5961
X5.7611Y-3.6961
X5.7611Y-3.7961
X5.7611Y-3.8961
X5.7611Y-3.9961
X5.7692Y-4.6362
X5.7692Y-4.7362
X5.7692Y-4.8362
X5.7692Y-4.9362
X5.7692Y-5.0362
X5.7692Y-5.1362
X5.7692Y-5.2362
X5.7692Y-5.3362
X6.0332Y-2.6953
X6.0332Y-2.7953
X6.133Y-3.2961
X6.133Y-3.3961
X6.133Y-3.4961
X6.133Y-3.5961
X6.133Y-3.6961
X6.133Y-3.7961
X6.133Y-3.8961
X6.133Y-3.9961
X6.1332Y-2.6953
X6.1332Y-2.7953
X6.141Y-4.6362
X6.141Y-4.7362
X6.141Y-4.8362
X6.141Y-4.9362
X6.141Y-5.0362
X6.141Y-5.1362
X6.141Y-5.2362
X6.141Y-5.3362
X6.233Y-3.2961
X6.233Y-3.3961
X6.233Y-3.4961
X6.233Y-3.5961
X6.233Y-3.6961
X6.233Y-3.7961
X6.233Y-3.8961
X6.233Y-3.9961
X6.2332Y-2.6953
X6.2332Y-2.7953
X6.241Y-4.6362
X6.241Y-4.7362
X6.241Y-4.8362
X6.241Y-4.9362
X6.241Y-5.0362
X6.241Y-5.1362
X6.241Y-5.2362
X6.241Y-5.3362
X6.3332Y-2.6953
X6.3332Y-2.7953
X6.4332Y-2.6953
X6.4332Y-2.7953
X6.5332Y-2.6953
X6.5332Y-2.7953
X6.6048Y-3.2961
X6.6048Y-3.3961
X6.6048Y-3.4961
X6.6048Y-3.5961
X6.6048Y-3.6961
X6.6048Y-3.7961
X6.6048Y-3.8961
X6.6048Y-3.9961
X6.6151Y-4.6362
X6.6151Y-4.7362
X6.6151Y-4.8362
X6.6151Y-4.9362
X6.6151Y-5.0362
X6.6151Y-5.1362
X6.6151Y-5.2362
X6.6151Y-5.3362
X6.6332Y-2.6953
X6.6332Y-2.7953
X6.7048Y-3.2961
X6.7048Y-3.3961
X6.7048Y-3.4961
X6.7048Y-3.5961
X6.7048Y-3.6961
X6.7048Y-3.7961
X6.7048Y-3.8961
X6.7048Y-3.9961
X6.7151Y-4.6362
X6.7151Y-4.7362
X6.7151Y-4.8362
X6.7151Y-4.9362
X6.7151Y-5.0362
X6.7151Y-5.1362
X6.7151Y-5.2362
X6.7151Y-5.3362
X6.7332Y-2.6953
X6.7332Y-2.7953
X7.0767Y-3.2961
X7.0767Y-3.3961
X7.0767Y-3.4961
X7.0767Y-3.5961
X7.0767Y-3.6961
X7.0767Y-3.7961
X7.0767Y-3.8961
X7.0767Y-3.9961
X7.0869Y-4.6362
X7.0869Y-4.7362
X7.0869Y-4.8362
X7.0869Y-4.9362
X7.0869Y-5.0362
X7.0869Y-5.1362
X7.0869Y-5.2362
X7.0869Y-5.3362
X7.1767Y-3.2961
X7.1767Y-3.3961
X7.1767Y-3.4961
X7.1767Y-3.5961
X7.1767Y-3.6961
X7.1767Y-3.7961
X7.1767Y-3.8961
X7.1767Y-3.9961
X7.1869Y-4.6362
X7.1869Y-4.7362
X7.1869Y-4.8362
X7.1869Y-4.9362
X7.1869Y-5.0362
X7.1869Y-5.1362
X7.1869Y-5.2362
X7.1869Y-5.3362
T2
X3.6614Y-2.6181
X3.6614Y-5.8465
X7.2835Y-2.6181
X7.2835Y-5.8465
M30
