%TF.GenerationSoftware,KiCad,Pcbnew,8.0.3*%
%TF.CreationDate,2024-07-08T20:03:56-04:00*%
%TF.ProjectId,eurorack-power-bus,6575726f-7261-4636-9b2d-706f7765722d,rev?*%
%TF.SameCoordinates,Original*%
%TF.FileFunction,Legend,Top*%
%TF.FilePolarity,Positive*%
%FSLAX46Y46*%
G04 Gerber Fmt 4.6, Leading zero omitted, Abs format (unit mm)*
G04 Created by KiCad (PCBNEW 8.0.3) date 2024-07-08 20:03:56*
%MOMM*%
%LPD*%
G01*
G04 APERTURE LIST*
%ADD10C,0.100000*%
%ADD11C,0.120000*%
G04 APERTURE END LIST*
D10*
X170922931Y-148286284D02*
X170875312Y-148238665D01*
X170875312Y-148238665D02*
X170780074Y-148191046D01*
X170780074Y-148191046D02*
X170684836Y-148191046D01*
X170684836Y-148191046D02*
X170589598Y-148238665D01*
X170589598Y-148238665D02*
X170541979Y-148286284D01*
X170541979Y-148286284D02*
X170494360Y-148381522D01*
X170494360Y-148381522D02*
X170494360Y-148476760D01*
X170494360Y-148476760D02*
X170541979Y-148571998D01*
X170541979Y-148571998D02*
X170589598Y-148619617D01*
X170589598Y-148619617D02*
X170684836Y-148667236D01*
X170684836Y-148667236D02*
X170780074Y-148667236D01*
X170780074Y-148667236D02*
X170875312Y-148619617D01*
X170875312Y-148619617D02*
X170922931Y-148571998D01*
X170922931Y-148191046D02*
X170922931Y-148571998D01*
X170922931Y-148571998D02*
X170970550Y-148619617D01*
X170970550Y-148619617D02*
X171018169Y-148619617D01*
X171018169Y-148619617D02*
X171113408Y-148571998D01*
X171113408Y-148571998D02*
X171161027Y-148476760D01*
X171161027Y-148476760D02*
X171161027Y-148238665D01*
X171161027Y-148238665D02*
X171065789Y-148095808D01*
X171065789Y-148095808D02*
X170922931Y-148000570D01*
X170922931Y-148000570D02*
X170732455Y-147952951D01*
X170732455Y-147952951D02*
X170541979Y-148000570D01*
X170541979Y-148000570D02*
X170399122Y-148095808D01*
X170399122Y-148095808D02*
X170303884Y-148238665D01*
X170303884Y-148238665D02*
X170256265Y-148429141D01*
X170256265Y-148429141D02*
X170303884Y-148619617D01*
X170303884Y-148619617D02*
X170399122Y-148762475D01*
X170399122Y-148762475D02*
X170541979Y-148857713D01*
X170541979Y-148857713D02*
X170732455Y-148905332D01*
X170732455Y-148905332D02*
X170922931Y-148857713D01*
X170922931Y-148857713D02*
X171065789Y-148762475D01*
X171589598Y-148762475D02*
X171589598Y-147762475D01*
X171684836Y-148381522D02*
X171970550Y-148762475D01*
X171970550Y-148095808D02*
X171589598Y-148476760D01*
X172827693Y-148762475D02*
X172827693Y-148238665D01*
X172827693Y-148238665D02*
X172780074Y-148143427D01*
X172780074Y-148143427D02*
X172684836Y-148095808D01*
X172684836Y-148095808D02*
X172494360Y-148095808D01*
X172494360Y-148095808D02*
X172399122Y-148143427D01*
X172827693Y-148714856D02*
X172732455Y-148762475D01*
X172732455Y-148762475D02*
X172494360Y-148762475D01*
X172494360Y-148762475D02*
X172399122Y-148714856D01*
X172399122Y-148714856D02*
X172351503Y-148619617D01*
X172351503Y-148619617D02*
X172351503Y-148524379D01*
X172351503Y-148524379D02*
X172399122Y-148429141D01*
X172399122Y-148429141D02*
X172494360Y-148381522D01*
X172494360Y-148381522D02*
X172732455Y-148381522D01*
X172732455Y-148381522D02*
X172827693Y-148333903D01*
X173303884Y-148762475D02*
X173303884Y-148095808D01*
X173303884Y-148286284D02*
X173351503Y-148191046D01*
X173351503Y-148191046D02*
X173399122Y-148143427D01*
X173399122Y-148143427D02*
X173494360Y-148095808D01*
X173494360Y-148095808D02*
X173589598Y-148095808D01*
X174351503Y-148714856D02*
X174256265Y-148762475D01*
X174256265Y-148762475D02*
X174065789Y-148762475D01*
X174065789Y-148762475D02*
X173970551Y-148714856D01*
X173970551Y-148714856D02*
X173922932Y-148667236D01*
X173922932Y-148667236D02*
X173875313Y-148571998D01*
X173875313Y-148571998D02*
X173875313Y-148286284D01*
X173875313Y-148286284D02*
X173922932Y-148191046D01*
X173922932Y-148191046D02*
X173970551Y-148143427D01*
X173970551Y-148143427D02*
X174065789Y-148095808D01*
X174065789Y-148095808D02*
X174256265Y-148095808D01*
X174256265Y-148095808D02*
X174351503Y-148143427D01*
X174684837Y-148095808D02*
X175208646Y-148095808D01*
X175208646Y-148095808D02*
X174684837Y-148762475D01*
X174684837Y-148762475D02*
X175208646Y-148762475D01*
X175589599Y-148762475D02*
X175589599Y-148095808D01*
X175589599Y-147762475D02*
X175541980Y-147810094D01*
X175541980Y-147810094D02*
X175589599Y-147857713D01*
X175589599Y-147857713D02*
X175637218Y-147810094D01*
X175637218Y-147810094D02*
X175589599Y-147762475D01*
X175589599Y-147762475D02*
X175589599Y-147857713D01*
X176208646Y-148762475D02*
X176113408Y-148714856D01*
X176113408Y-148714856D02*
X176065789Y-148619617D01*
X176065789Y-148619617D02*
X176065789Y-147762475D01*
X176732456Y-148762475D02*
X176637218Y-148714856D01*
X176637218Y-148714856D02*
X176589599Y-148619617D01*
X176589599Y-148619617D02*
X176589599Y-147762475D01*
X177541980Y-148762475D02*
X177541980Y-148238665D01*
X177541980Y-148238665D02*
X177494361Y-148143427D01*
X177494361Y-148143427D02*
X177399123Y-148095808D01*
X177399123Y-148095808D02*
X177208647Y-148095808D01*
X177208647Y-148095808D02*
X177113409Y-148143427D01*
X177541980Y-148714856D02*
X177446742Y-148762475D01*
X177446742Y-148762475D02*
X177208647Y-148762475D01*
X177208647Y-148762475D02*
X177113409Y-148714856D01*
X177113409Y-148714856D02*
X177065790Y-148619617D01*
X177065790Y-148619617D02*
X177065790Y-148524379D01*
X177065790Y-148524379D02*
X177113409Y-148429141D01*
X177113409Y-148429141D02*
X177208647Y-148381522D01*
X177208647Y-148381522D02*
X177446742Y-148381522D01*
X177446742Y-148381522D02*
X177541980Y-148333903D01*
X170256265Y-149467657D02*
X170303884Y-149420038D01*
X170303884Y-149420038D02*
X170399122Y-149372419D01*
X170399122Y-149372419D02*
X170637217Y-149372419D01*
X170637217Y-149372419D02*
X170732455Y-149420038D01*
X170732455Y-149420038D02*
X170780074Y-149467657D01*
X170780074Y-149467657D02*
X170827693Y-149562895D01*
X170827693Y-149562895D02*
X170827693Y-149658133D01*
X170827693Y-149658133D02*
X170780074Y-149800990D01*
X170780074Y-149800990D02*
X170208646Y-150372419D01*
X170208646Y-150372419D02*
X170827693Y-150372419D01*
X171446741Y-149372419D02*
X171541979Y-149372419D01*
X171541979Y-149372419D02*
X171637217Y-149420038D01*
X171637217Y-149420038D02*
X171684836Y-149467657D01*
X171684836Y-149467657D02*
X171732455Y-149562895D01*
X171732455Y-149562895D02*
X171780074Y-149753371D01*
X171780074Y-149753371D02*
X171780074Y-149991466D01*
X171780074Y-149991466D02*
X171732455Y-150181942D01*
X171732455Y-150181942D02*
X171684836Y-150277180D01*
X171684836Y-150277180D02*
X171637217Y-150324800D01*
X171637217Y-150324800D02*
X171541979Y-150372419D01*
X171541979Y-150372419D02*
X171446741Y-150372419D01*
X171446741Y-150372419D02*
X171351503Y-150324800D01*
X171351503Y-150324800D02*
X171303884Y-150277180D01*
X171303884Y-150277180D02*
X171256265Y-150181942D01*
X171256265Y-150181942D02*
X171208646Y-149991466D01*
X171208646Y-149991466D02*
X171208646Y-149753371D01*
X171208646Y-149753371D02*
X171256265Y-149562895D01*
X171256265Y-149562895D02*
X171303884Y-149467657D01*
X171303884Y-149467657D02*
X171351503Y-149420038D01*
X171351503Y-149420038D02*
X171446741Y-149372419D01*
X172161027Y-149467657D02*
X172208646Y-149420038D01*
X172208646Y-149420038D02*
X172303884Y-149372419D01*
X172303884Y-149372419D02*
X172541979Y-149372419D01*
X172541979Y-149372419D02*
X172637217Y-149420038D01*
X172637217Y-149420038D02*
X172684836Y-149467657D01*
X172684836Y-149467657D02*
X172732455Y-149562895D01*
X172732455Y-149562895D02*
X172732455Y-149658133D01*
X172732455Y-149658133D02*
X172684836Y-149800990D01*
X172684836Y-149800990D02*
X172113408Y-150372419D01*
X172113408Y-150372419D02*
X172732455Y-150372419D01*
X173589598Y-149705752D02*
X173589598Y-150372419D01*
X173351503Y-149324800D02*
X173113408Y-150039085D01*
X173113408Y-150039085D02*
X173732455Y-150039085D01*
X174113408Y-149991466D02*
X174875313Y-149991466D01*
X175541979Y-149372419D02*
X175637217Y-149372419D01*
X175637217Y-149372419D02*
X175732455Y-149420038D01*
X175732455Y-149420038D02*
X175780074Y-149467657D01*
X175780074Y-149467657D02*
X175827693Y-149562895D01*
X175827693Y-149562895D02*
X175875312Y-149753371D01*
X175875312Y-149753371D02*
X175875312Y-149991466D01*
X175875312Y-149991466D02*
X175827693Y-150181942D01*
X175827693Y-150181942D02*
X175780074Y-150277180D01*
X175780074Y-150277180D02*
X175732455Y-150324800D01*
X175732455Y-150324800D02*
X175637217Y-150372419D01*
X175637217Y-150372419D02*
X175541979Y-150372419D01*
X175541979Y-150372419D02*
X175446741Y-150324800D01*
X175446741Y-150324800D02*
X175399122Y-150277180D01*
X175399122Y-150277180D02*
X175351503Y-150181942D01*
X175351503Y-150181942D02*
X175303884Y-149991466D01*
X175303884Y-149991466D02*
X175303884Y-149753371D01*
X175303884Y-149753371D02*
X175351503Y-149562895D01*
X175351503Y-149562895D02*
X175399122Y-149467657D01*
X175399122Y-149467657D02*
X175446741Y-149420038D01*
X175446741Y-149420038D02*
X175541979Y-149372419D01*
X176208646Y-149372419D02*
X176875312Y-149372419D01*
X176875312Y-149372419D02*
X176446741Y-150372419D01*
X177256265Y-149991466D02*
X178018170Y-149991466D01*
X178684836Y-149372419D02*
X178780074Y-149372419D01*
X178780074Y-149372419D02*
X178875312Y-149420038D01*
X178875312Y-149420038D02*
X178922931Y-149467657D01*
X178922931Y-149467657D02*
X178970550Y-149562895D01*
X178970550Y-149562895D02*
X179018169Y-149753371D01*
X179018169Y-149753371D02*
X179018169Y-149991466D01*
X179018169Y-149991466D02*
X178970550Y-150181942D01*
X178970550Y-150181942D02*
X178922931Y-150277180D01*
X178922931Y-150277180D02*
X178875312Y-150324800D01*
X178875312Y-150324800D02*
X178780074Y-150372419D01*
X178780074Y-150372419D02*
X178684836Y-150372419D01*
X178684836Y-150372419D02*
X178589598Y-150324800D01*
X178589598Y-150324800D02*
X178541979Y-150277180D01*
X178541979Y-150277180D02*
X178494360Y-150181942D01*
X178494360Y-150181942D02*
X178446741Y-149991466D01*
X178446741Y-149991466D02*
X178446741Y-149753371D01*
X178446741Y-149753371D02*
X178494360Y-149562895D01*
X178494360Y-149562895D02*
X178541979Y-149467657D01*
X178541979Y-149467657D02*
X178589598Y-149420038D01*
X178589598Y-149420038D02*
X178684836Y-149372419D01*
X179589598Y-149800990D02*
X179494360Y-149753371D01*
X179494360Y-149753371D02*
X179446741Y-149705752D01*
X179446741Y-149705752D02*
X179399122Y-149610514D01*
X179399122Y-149610514D02*
X179399122Y-149562895D01*
X179399122Y-149562895D02*
X179446741Y-149467657D01*
X179446741Y-149467657D02*
X179494360Y-149420038D01*
X179494360Y-149420038D02*
X179589598Y-149372419D01*
X179589598Y-149372419D02*
X179780074Y-149372419D01*
X179780074Y-149372419D02*
X179875312Y-149420038D01*
X179875312Y-149420038D02*
X179922931Y-149467657D01*
X179922931Y-149467657D02*
X179970550Y-149562895D01*
X179970550Y-149562895D02*
X179970550Y-149610514D01*
X179970550Y-149610514D02*
X179922931Y-149705752D01*
X179922931Y-149705752D02*
X179875312Y-149753371D01*
X179875312Y-149753371D02*
X179780074Y-149800990D01*
X179780074Y-149800990D02*
X179589598Y-149800990D01*
X179589598Y-149800990D02*
X179494360Y-149848609D01*
X179494360Y-149848609D02*
X179446741Y-149896228D01*
X179446741Y-149896228D02*
X179399122Y-149991466D01*
X179399122Y-149991466D02*
X179399122Y-150181942D01*
X179399122Y-150181942D02*
X179446741Y-150277180D01*
X179446741Y-150277180D02*
X179494360Y-150324800D01*
X179494360Y-150324800D02*
X179589598Y-150372419D01*
X179589598Y-150372419D02*
X179780074Y-150372419D01*
X179780074Y-150372419D02*
X179875312Y-150324800D01*
X179875312Y-150324800D02*
X179922931Y-150277180D01*
X179922931Y-150277180D02*
X179970550Y-150181942D01*
X179970550Y-150181942D02*
X179970550Y-149991466D01*
X179970550Y-149991466D02*
X179922931Y-149896228D01*
X179922931Y-149896228D02*
X179875312Y-149848609D01*
X179875312Y-149848609D02*
X179780074Y-149800990D01*
G36*
X124357642Y-147075680D02*
G01*
X128734473Y-147075680D01*
X128734473Y-146758164D01*
X124357642Y-146758164D01*
X124357642Y-147075680D01*
G37*
G36*
X124357642Y-146450418D02*
G01*
X128734473Y-146450418D01*
X128734473Y-146132903D01*
X124357642Y-146132903D01*
X124357642Y-146450418D01*
G37*
G36*
X126858688Y-145825157D02*
G01*
X128734473Y-145825157D01*
X128734473Y-145507641D01*
X126858688Y-145507641D01*
X126858688Y-145825157D01*
G37*
G36*
X124357642Y-145825157D02*
G01*
X126233427Y-145825157D01*
X126233427Y-145507641D01*
X124357642Y-145507641D01*
X124357642Y-145825157D01*
G37*
G36*
X124357642Y-149650000D02*
G01*
X125617935Y-149650000D01*
X125617935Y-149332484D01*
X124357642Y-149332484D01*
X124357642Y-149650000D01*
G37*
G36*
X124357642Y-145199895D02*
G01*
X125617935Y-145199895D01*
X125617935Y-144882379D01*
X124357642Y-144882379D01*
X124357642Y-145199895D01*
G37*
G36*
X124357642Y-147774214D02*
G01*
X125617935Y-147774214D01*
X125617935Y-147456699D01*
X124357642Y-147456699D01*
X124357642Y-147774214D01*
G37*
G36*
X127474180Y-145199895D02*
G01*
X128734473Y-145199895D01*
X128734473Y-144882379D01*
X127474180Y-144882379D01*
X127474180Y-145199895D01*
G37*
G36*
X124357642Y-149024738D02*
G01*
X125617935Y-149024738D01*
X125617935Y-148707222D01*
X124357642Y-148707222D01*
X124357642Y-149024738D01*
G37*
G36*
X124357642Y-148399476D02*
G01*
X125617935Y-148399476D01*
X125617935Y-148081960D01*
X124357642Y-148081960D01*
X124357642Y-148399476D01*
G37*
G36*
X127474180Y-149650000D02*
G01*
X128734473Y-149650000D01*
X128734473Y-149332484D01*
X127474180Y-149332484D01*
X127474180Y-149650000D01*
G37*
G36*
X127474180Y-148399476D02*
G01*
X128734473Y-148399476D01*
X128734473Y-148081960D01*
X127474180Y-148081960D01*
X127474180Y-148399476D01*
G37*
G36*
X127474180Y-147774214D02*
G01*
X128734473Y-147774214D01*
X128734473Y-147456699D01*
X127474180Y-147456699D01*
X127474180Y-147774214D01*
G37*
G36*
X127474180Y-149024738D02*
G01*
X128734473Y-149024738D01*
X128734473Y-148707222D01*
X127474180Y-148707222D01*
X127474180Y-149024738D01*
G37*
G36*
X126233427Y-147774214D02*
G01*
X126858688Y-147774214D01*
X126858688Y-147456699D01*
X126233427Y-147456699D01*
X126233427Y-147774214D01*
G37*
G36*
X129081298Y-149024738D02*
G01*
X132832868Y-149024738D01*
X132832868Y-148707222D01*
X129081298Y-148707222D01*
X129081298Y-149024738D01*
G37*
G36*
X129081298Y-145825157D02*
G01*
X132832868Y-145825157D01*
X132832868Y-145507641D01*
X129081298Y-145507641D01*
X129081298Y-145825157D01*
G37*
G36*
X129706560Y-145199895D02*
G01*
X132832868Y-145199895D01*
X132832868Y-144882379D01*
X129706560Y-144882379D01*
X129706560Y-145199895D01*
G37*
G36*
X129706560Y-149650000D02*
G01*
X132832868Y-149650000D01*
X132832868Y-149332484D01*
X129706560Y-149332484D01*
X129706560Y-149650000D01*
G37*
G36*
X129081298Y-147075680D02*
G01*
X131582345Y-147075680D01*
X131582345Y-146758164D01*
X129081298Y-146758164D01*
X129081298Y-147075680D01*
G37*
G36*
X129081298Y-147774214D02*
G01*
X131582345Y-147774214D01*
X131582345Y-147456699D01*
X129081298Y-147456699D01*
X129081298Y-147774214D01*
G37*
G36*
X129081298Y-146450418D02*
G01*
X130341591Y-146450418D01*
X130341591Y-146132903D01*
X129081298Y-146132903D01*
X129081298Y-146450418D01*
G37*
G36*
X129081298Y-148399476D02*
G01*
X130341591Y-148399476D01*
X130341591Y-148081960D01*
X129081298Y-148081960D01*
X129081298Y-148399476D01*
G37*
G36*
X133174808Y-149024738D02*
G01*
X136926378Y-149024738D01*
X136926378Y-148707222D01*
X133174808Y-148707222D01*
X133174808Y-149024738D01*
G37*
G36*
X133174808Y-145825157D02*
G01*
X136926378Y-145825157D01*
X136926378Y-145507641D01*
X133174808Y-145507641D01*
X133174808Y-145825157D01*
G37*
G36*
X133800070Y-147774214D02*
G01*
X136926378Y-147774214D01*
X136926378Y-147456699D01*
X133800070Y-147456699D01*
X133800070Y-147774214D01*
G37*
G36*
X133800070Y-145199895D02*
G01*
X136926378Y-145199895D01*
X136926378Y-144882379D01*
X133800070Y-144882379D01*
X133800070Y-145199895D01*
G37*
G36*
X133174808Y-147075680D02*
G01*
X136301117Y-147075680D01*
X136301117Y-146758164D01*
X133174808Y-146758164D01*
X133174808Y-147075680D01*
G37*
G36*
X133174808Y-149650000D02*
G01*
X136301117Y-149650000D01*
X136301117Y-149332484D01*
X133174808Y-149332484D01*
X133174808Y-149650000D01*
G37*
G36*
X133174808Y-146450418D02*
G01*
X134435101Y-146450418D01*
X134435101Y-146132903D01*
X133174808Y-146132903D01*
X133174808Y-146450418D01*
G37*
G36*
X135666085Y-148399476D02*
G01*
X136926378Y-148399476D01*
X136926378Y-148081960D01*
X135666085Y-148081960D01*
X135666085Y-148399476D01*
G37*
G36*
X137268318Y-149024738D02*
G01*
X141019889Y-149024738D01*
X141019889Y-148707222D01*
X137268318Y-148707222D01*
X137268318Y-149024738D01*
G37*
G36*
X137268318Y-145825157D02*
G01*
X141019889Y-145825157D01*
X141019889Y-145507641D01*
X137268318Y-145507641D01*
X137268318Y-145825157D01*
G37*
G36*
X137893580Y-147774214D02*
G01*
X141019889Y-147774214D01*
X141019889Y-147456699D01*
X137893580Y-147456699D01*
X137893580Y-147774214D01*
G37*
G36*
X137893580Y-145199895D02*
G01*
X141019889Y-145199895D01*
X141019889Y-144882379D01*
X137893580Y-144882379D01*
X137893580Y-145199895D01*
G37*
G36*
X137268318Y-147075680D02*
G01*
X140394627Y-147075680D01*
X140394627Y-146758164D01*
X137268318Y-146758164D01*
X137268318Y-147075680D01*
G37*
G36*
X137268318Y-149650000D02*
G01*
X140394627Y-149650000D01*
X140394627Y-149332484D01*
X137268318Y-149332484D01*
X137268318Y-149650000D01*
G37*
G36*
X137268318Y-146450418D02*
G01*
X138528611Y-146450418D01*
X138528611Y-146132903D01*
X137268318Y-146132903D01*
X137268318Y-146450418D01*
G37*
G36*
X139759595Y-148399476D02*
G01*
X141019889Y-148399476D01*
X141019889Y-148081960D01*
X139759595Y-148081960D01*
X139759595Y-148399476D01*
G37*
G36*
X141361829Y-149650000D02*
G01*
X145113399Y-149650000D01*
X145113399Y-149332484D01*
X141361829Y-149332484D01*
X141361829Y-149650000D01*
G37*
G36*
X141361829Y-149024738D02*
G01*
X145113399Y-149024738D01*
X145113399Y-148707222D01*
X141361829Y-148707222D01*
X141361829Y-149024738D01*
G37*
G36*
X141361829Y-145825157D02*
G01*
X145113399Y-145825157D01*
X145113399Y-145507641D01*
X141361829Y-145507641D01*
X141361829Y-145825157D01*
G37*
G36*
X141361829Y-145199895D02*
G01*
X145113399Y-145199895D01*
X145113399Y-144882379D01*
X141361829Y-144882379D01*
X141361829Y-145199895D01*
G37*
G36*
X142612352Y-147075680D02*
G01*
X143872645Y-147075680D01*
X143872645Y-146758164D01*
X142612352Y-146758164D01*
X142612352Y-147075680D01*
G37*
G36*
X142612352Y-148399476D02*
G01*
X143872645Y-148399476D01*
X143872645Y-148081960D01*
X142612352Y-148081960D01*
X142612352Y-148399476D01*
G37*
G36*
X142612352Y-147774214D02*
G01*
X143872645Y-147774214D01*
X143872645Y-147456699D01*
X142612352Y-147456699D01*
X142612352Y-147774214D01*
G37*
G36*
X142612352Y-146450418D02*
G01*
X143872645Y-146450418D01*
X143872645Y-146132903D01*
X142612352Y-146132903D01*
X142612352Y-146450418D01*
G37*
G36*
X145455339Y-149024738D02*
G01*
X149206909Y-149024738D01*
X149206909Y-148707222D01*
X145455339Y-148707222D01*
X145455339Y-149024738D01*
G37*
G36*
X145455339Y-145825157D02*
G01*
X149206909Y-145825157D01*
X149206909Y-145507641D01*
X145455339Y-145507641D01*
X145455339Y-145825157D01*
G37*
G36*
X146080600Y-145199895D02*
G01*
X149206909Y-145199895D01*
X149206909Y-144882379D01*
X146080600Y-144882379D01*
X146080600Y-145199895D01*
G37*
G36*
X146080600Y-149650000D02*
G01*
X149206909Y-149650000D01*
X149206909Y-149332484D01*
X146080600Y-149332484D01*
X146080600Y-149650000D01*
G37*
G36*
X145455339Y-147774214D02*
G01*
X147956385Y-147774214D01*
X147956385Y-147456699D01*
X145455339Y-147456699D01*
X145455339Y-147774214D01*
G37*
G36*
X145455339Y-147075680D02*
G01*
X147956385Y-147075680D01*
X147956385Y-146758164D01*
X145455339Y-146758164D01*
X145455339Y-147075680D01*
G37*
G36*
X145455339Y-148399476D02*
G01*
X146705862Y-148399476D01*
X146705862Y-148081960D01*
X145455339Y-148081960D01*
X145455339Y-148399476D01*
G37*
G36*
X145455339Y-146450418D02*
G01*
X146705862Y-146450418D01*
X146705862Y-146132903D01*
X145455339Y-146132903D01*
X145455339Y-146450418D01*
G37*
G36*
X147956385Y-143944487D02*
G01*
X148581647Y-143944487D01*
X148581647Y-143626971D01*
X147956385Y-143626971D01*
X147956385Y-143944487D01*
G37*
G36*
X146080600Y-143944487D02*
G01*
X146705862Y-143944487D01*
X146705862Y-143626971D01*
X146080600Y-143626971D01*
X146080600Y-143944487D01*
G37*
G36*
X149548849Y-147075680D02*
G01*
X153300419Y-147075680D01*
X153300419Y-146758164D01*
X149548849Y-146758164D01*
X149548849Y-147075680D01*
G37*
G36*
X149548849Y-145825157D02*
G01*
X153300419Y-145825157D01*
X153300419Y-145507641D01*
X149548849Y-145507641D01*
X149548849Y-145825157D01*
G37*
G36*
X149548849Y-145199895D02*
G01*
X152675157Y-145199895D01*
X152675157Y-144882379D01*
X149548849Y-144882379D01*
X149548849Y-145199895D01*
G37*
G36*
X149548849Y-147774214D02*
G01*
X152675157Y-147774214D01*
X152675157Y-147456699D01*
X149548849Y-147456699D01*
X149548849Y-147774214D01*
G37*
G36*
X151424634Y-148399476D02*
G01*
X153300419Y-148399476D01*
X153300419Y-148081960D01*
X151424634Y-148081960D01*
X151424634Y-148399476D01*
G37*
G36*
X152040126Y-146450418D02*
G01*
X153300419Y-146450418D01*
X153300419Y-146132903D01*
X152040126Y-146132903D01*
X152040126Y-146450418D01*
G37*
G36*
X149548849Y-149650000D02*
G01*
X150809142Y-149650000D01*
X150809142Y-149332484D01*
X149548849Y-149332484D01*
X149548849Y-149650000D01*
G37*
G36*
X152040126Y-149024738D02*
G01*
X153300419Y-149024738D01*
X153300419Y-148707222D01*
X152040126Y-148707222D01*
X152040126Y-149024738D01*
G37*
G36*
X149548849Y-146450418D02*
G01*
X150809142Y-146450418D01*
X150809142Y-146132903D01*
X149548849Y-146132903D01*
X149548849Y-146450418D01*
G37*
G36*
X149548849Y-148399476D02*
G01*
X150809142Y-148399476D01*
X150809142Y-148081960D01*
X149548849Y-148081960D01*
X149548849Y-148399476D01*
G37*
G36*
X152040126Y-149650000D02*
G01*
X153300419Y-149650000D01*
X153300419Y-149332484D01*
X152040126Y-149332484D01*
X152040126Y-149650000D01*
G37*
G36*
X149548849Y-149024738D02*
G01*
X150809142Y-149024738D01*
X150809142Y-148707222D01*
X149548849Y-148707222D01*
X149548849Y-149024738D01*
G37*
X131571428Y-70250038D02*
X131571428Y-68250038D01*
X131571428Y-68250038D02*
X132333333Y-68250038D01*
X132333333Y-68250038D02*
X132523809Y-68345276D01*
X132523809Y-68345276D02*
X132619047Y-68440514D01*
X132619047Y-68440514D02*
X132714285Y-68630990D01*
X132714285Y-68630990D02*
X132714285Y-68916704D01*
X132714285Y-68916704D02*
X132619047Y-69107180D01*
X132619047Y-69107180D02*
X132523809Y-69202419D01*
X132523809Y-69202419D02*
X132333333Y-69297657D01*
X132333333Y-69297657D02*
X131571428Y-69297657D01*
X133857142Y-70250038D02*
X133666666Y-70154800D01*
X133666666Y-70154800D02*
X133571428Y-70059561D01*
X133571428Y-70059561D02*
X133476190Y-69869085D01*
X133476190Y-69869085D02*
X133476190Y-69297657D01*
X133476190Y-69297657D02*
X133571428Y-69107180D01*
X133571428Y-69107180D02*
X133666666Y-69011942D01*
X133666666Y-69011942D02*
X133857142Y-68916704D01*
X133857142Y-68916704D02*
X134142857Y-68916704D01*
X134142857Y-68916704D02*
X134333333Y-69011942D01*
X134333333Y-69011942D02*
X134428571Y-69107180D01*
X134428571Y-69107180D02*
X134523809Y-69297657D01*
X134523809Y-69297657D02*
X134523809Y-69869085D01*
X134523809Y-69869085D02*
X134428571Y-70059561D01*
X134428571Y-70059561D02*
X134333333Y-70154800D01*
X134333333Y-70154800D02*
X134142857Y-70250038D01*
X134142857Y-70250038D02*
X133857142Y-70250038D01*
X135190476Y-68916704D02*
X135571428Y-70250038D01*
X135571428Y-70250038D02*
X135952381Y-69297657D01*
X135952381Y-69297657D02*
X136333333Y-70250038D01*
X136333333Y-70250038D02*
X136714285Y-68916704D01*
X138238095Y-70154800D02*
X138047619Y-70250038D01*
X138047619Y-70250038D02*
X137666666Y-70250038D01*
X137666666Y-70250038D02*
X137476190Y-70154800D01*
X137476190Y-70154800D02*
X137380952Y-69964323D01*
X137380952Y-69964323D02*
X137380952Y-69202419D01*
X137380952Y-69202419D02*
X137476190Y-69011942D01*
X137476190Y-69011942D02*
X137666666Y-68916704D01*
X137666666Y-68916704D02*
X138047619Y-68916704D01*
X138047619Y-68916704D02*
X138238095Y-69011942D01*
X138238095Y-69011942D02*
X138333333Y-69202419D01*
X138333333Y-69202419D02*
X138333333Y-69392895D01*
X138333333Y-69392895D02*
X137380952Y-69583371D01*
X139190476Y-70250038D02*
X139190476Y-68916704D01*
X139190476Y-69297657D02*
X139285714Y-69107180D01*
X139285714Y-69107180D02*
X139380952Y-69011942D01*
X139380952Y-69011942D02*
X139571428Y-68916704D01*
X139571428Y-68916704D02*
X139761905Y-68916704D01*
X142619048Y-69202419D02*
X142904762Y-69297657D01*
X142904762Y-69297657D02*
X143000000Y-69392895D01*
X143000000Y-69392895D02*
X143095238Y-69583371D01*
X143095238Y-69583371D02*
X143095238Y-69869085D01*
X143095238Y-69869085D02*
X143000000Y-70059561D01*
X143000000Y-70059561D02*
X142904762Y-70154800D01*
X142904762Y-70154800D02*
X142714286Y-70250038D01*
X142714286Y-70250038D02*
X141952381Y-70250038D01*
X141952381Y-70250038D02*
X141952381Y-68250038D01*
X141952381Y-68250038D02*
X142619048Y-68250038D01*
X142619048Y-68250038D02*
X142809524Y-68345276D01*
X142809524Y-68345276D02*
X142904762Y-68440514D01*
X142904762Y-68440514D02*
X143000000Y-68630990D01*
X143000000Y-68630990D02*
X143000000Y-68821466D01*
X143000000Y-68821466D02*
X142904762Y-69011942D01*
X142904762Y-69011942D02*
X142809524Y-69107180D01*
X142809524Y-69107180D02*
X142619048Y-69202419D01*
X142619048Y-69202419D02*
X141952381Y-69202419D01*
X144809524Y-68916704D02*
X144809524Y-70250038D01*
X143952381Y-68916704D02*
X143952381Y-69964323D01*
X143952381Y-69964323D02*
X144047619Y-70154800D01*
X144047619Y-70154800D02*
X144238095Y-70250038D01*
X144238095Y-70250038D02*
X144523810Y-70250038D01*
X144523810Y-70250038D02*
X144714286Y-70154800D01*
X144714286Y-70154800D02*
X144809524Y-70059561D01*
X145666667Y-70154800D02*
X145857143Y-70250038D01*
X145857143Y-70250038D02*
X146238095Y-70250038D01*
X146238095Y-70250038D02*
X146428572Y-70154800D01*
X146428572Y-70154800D02*
X146523810Y-69964323D01*
X146523810Y-69964323D02*
X146523810Y-69869085D01*
X146523810Y-69869085D02*
X146428572Y-69678609D01*
X146428572Y-69678609D02*
X146238095Y-69583371D01*
X146238095Y-69583371D02*
X145952381Y-69583371D01*
X145952381Y-69583371D02*
X145761905Y-69488133D01*
X145761905Y-69488133D02*
X145666667Y-69297657D01*
X145666667Y-69297657D02*
X145666667Y-69202419D01*
X145666667Y-69202419D02*
X145761905Y-69011942D01*
X145761905Y-69011942D02*
X145952381Y-68916704D01*
X145952381Y-68916704D02*
X146238095Y-68916704D01*
X146238095Y-68916704D02*
X146428572Y-69011942D01*
D11*
%TO.C,J10*%
X175067500Y-83220000D02*
X175067500Y-84220000D01*
X175067500Y-84220000D02*
X176067500Y-83720000D01*
X176067500Y-83720000D02*
X175067500Y-83220000D01*
X176457500Y-78510000D02*
X185577500Y-78510000D01*
X176457500Y-90560000D02*
X177767500Y-90560000D01*
X176457500Y-106710000D02*
X176457500Y-78510000D01*
X177767500Y-79810000D02*
X184267500Y-79810000D01*
X177767500Y-90560000D02*
X177767500Y-79810000D01*
X177767500Y-94660000D02*
X176457500Y-94660000D01*
X177767500Y-94660000D02*
X177767500Y-94660000D01*
X177767500Y-105410000D02*
X177767500Y-94660000D01*
X184267500Y-79810000D02*
X184267500Y-105410000D01*
X184267500Y-105410000D02*
X177767500Y-105410000D01*
X185577500Y-78510000D02*
X185577500Y-106710000D01*
X185577500Y-106710000D02*
X176457500Y-106710000D01*
%TO.C,J18*%
X103277500Y-136040000D02*
X103277500Y-135040000D01*
X103277500Y-135040000D02*
X102277500Y-135540000D01*
X102277500Y-135540000D02*
X103277500Y-136040000D01*
X101887500Y-140750000D02*
X92767500Y-140750000D01*
X101887500Y-128700000D02*
X100577500Y-128700000D01*
X101887500Y-112550000D02*
X101887500Y-140750000D01*
X100577500Y-139450000D02*
X94077500Y-139450000D01*
X100577500Y-128700000D02*
X100577500Y-139450000D01*
X100577500Y-124600000D02*
X101887500Y-124600000D01*
X100577500Y-124600000D02*
X100577500Y-124600000D01*
X100577500Y-113850000D02*
X100577500Y-124600000D01*
X94077500Y-139450000D02*
X94077500Y-113850000D01*
X94077500Y-113850000D02*
X100577500Y-113850000D01*
X92767500Y-140750000D02*
X92767500Y-112550000D01*
X92767500Y-112550000D02*
X101887500Y-112550000D01*
%TO.C,J5*%
X115082500Y-83220000D02*
X115082500Y-84220000D01*
X115082500Y-84220000D02*
X116082500Y-83720000D01*
X116082500Y-83720000D02*
X115082500Y-83220000D01*
X116472500Y-78510000D02*
X125592500Y-78510000D01*
X116472500Y-90560000D02*
X117782500Y-90560000D01*
X116472500Y-106710000D02*
X116472500Y-78510000D01*
X117782500Y-79810000D02*
X124282500Y-79810000D01*
X117782500Y-90560000D02*
X117782500Y-79810000D01*
X117782500Y-94660000D02*
X116472500Y-94660000D01*
X117782500Y-94660000D02*
X117782500Y-94660000D01*
X117782500Y-105410000D02*
X117782500Y-94660000D01*
X124282500Y-79810000D02*
X124282500Y-105410000D01*
X124282500Y-105410000D02*
X117782500Y-105410000D01*
X125592500Y-78510000D02*
X125592500Y-106710000D01*
X125592500Y-106710000D02*
X116472500Y-106710000D01*
%TO.C,J16*%
X127247500Y-136040000D02*
X127247500Y-135040000D01*
X127247500Y-135040000D02*
X126247500Y-135540000D01*
X126247500Y-135540000D02*
X127247500Y-136040000D01*
X125857500Y-140750000D02*
X116737500Y-140750000D01*
X125857500Y-128700000D02*
X124547500Y-128700000D01*
X125857500Y-112550000D02*
X125857500Y-140750000D01*
X124547500Y-139450000D02*
X118047500Y-139450000D01*
X124547500Y-128700000D02*
X124547500Y-139450000D01*
X124547500Y-124600000D02*
X125857500Y-124600000D01*
X124547500Y-124600000D02*
X124547500Y-124600000D01*
X124547500Y-113850000D02*
X124547500Y-124600000D01*
X118047500Y-139450000D02*
X118047500Y-113850000D01*
X118047500Y-113850000D02*
X124547500Y-113850000D01*
X116737500Y-140750000D02*
X116737500Y-112550000D01*
X116737500Y-112550000D02*
X125857500Y-112550000D01*
%TO.C,J3*%
X91112500Y-83220000D02*
X91112500Y-84220000D01*
X91112500Y-84220000D02*
X92112500Y-83720000D01*
X92112500Y-83720000D02*
X91112500Y-83220000D01*
X92502500Y-78510000D02*
X101622500Y-78510000D01*
X92502500Y-90560000D02*
X93812500Y-90560000D01*
X92502500Y-106710000D02*
X92502500Y-78510000D01*
X93812500Y-79810000D02*
X100312500Y-79810000D01*
X93812500Y-90560000D02*
X93812500Y-79810000D01*
X93812500Y-94660000D02*
X92502500Y-94660000D01*
X93812500Y-94660000D02*
X93812500Y-94660000D01*
X93812500Y-105410000D02*
X93812500Y-94660000D01*
X100312500Y-79810000D02*
X100312500Y-105410000D01*
X100312500Y-105410000D02*
X93812500Y-105410000D01*
X101622500Y-78510000D02*
X101622500Y-106710000D01*
X101622500Y-106710000D02*
X92502500Y-106710000D01*
%TO.C,J15*%
X139232500Y-136040000D02*
X139232500Y-135040000D01*
X139232500Y-135040000D02*
X138232500Y-135540000D01*
X138232500Y-135540000D02*
X139232500Y-136040000D01*
X137842500Y-140750000D02*
X128722500Y-140750000D01*
X137842500Y-128700000D02*
X136532500Y-128700000D01*
X137842500Y-112550000D02*
X137842500Y-140750000D01*
X136532500Y-139450000D02*
X130032500Y-139450000D01*
X136532500Y-128700000D02*
X136532500Y-139450000D01*
X136532500Y-124600000D02*
X137842500Y-124600000D01*
X136532500Y-124600000D02*
X136532500Y-124600000D01*
X136532500Y-113850000D02*
X136532500Y-124600000D01*
X130032500Y-139450000D02*
X130032500Y-113850000D01*
X130032500Y-113850000D02*
X136532500Y-113850000D01*
X128722500Y-140750000D02*
X128722500Y-112550000D01*
X128722500Y-112550000D02*
X137842500Y-112550000D01*
%TO.C,J17*%
X115262500Y-136040000D02*
X115262500Y-135040000D01*
X115262500Y-135040000D02*
X114262500Y-135540000D01*
X114262500Y-135540000D02*
X115262500Y-136040000D01*
X113872500Y-140750000D02*
X104752500Y-140750000D01*
X113872500Y-128700000D02*
X112562500Y-128700000D01*
X113872500Y-112550000D02*
X113872500Y-140750000D01*
X112562500Y-139450000D02*
X106062500Y-139450000D01*
X112562500Y-128700000D02*
X112562500Y-139450000D01*
X112562500Y-124600000D02*
X113872500Y-124600000D01*
X112562500Y-124600000D02*
X112562500Y-124600000D01*
X112562500Y-113850000D02*
X112562500Y-124600000D01*
X106062500Y-139450000D02*
X106062500Y-113850000D01*
X106062500Y-113850000D02*
X112562500Y-113850000D01*
X104752500Y-140750000D02*
X104752500Y-112550000D01*
X104752500Y-112550000D02*
X113872500Y-112550000D01*
%TO.C,J12*%
X175242500Y-136040000D02*
X175242500Y-135040000D01*
X175242500Y-135040000D02*
X174242500Y-135540000D01*
X174242500Y-135540000D02*
X175242500Y-136040000D01*
X173852500Y-140750000D02*
X164732500Y-140750000D01*
X173852500Y-128700000D02*
X172542500Y-128700000D01*
X173852500Y-112550000D02*
X173852500Y-140750000D01*
X172542500Y-139450000D02*
X166042500Y-139450000D01*
X172542500Y-128700000D02*
X172542500Y-139450000D01*
X172542500Y-124600000D02*
X173852500Y-124600000D01*
X172542500Y-124600000D02*
X172542500Y-124600000D01*
X172542500Y-113850000D02*
X172542500Y-124600000D01*
X166042500Y-139450000D02*
X166042500Y-113850000D01*
X166042500Y-113850000D02*
X172542500Y-113850000D01*
X164732500Y-140750000D02*
X164732500Y-112550000D01*
X164732500Y-112550000D02*
X173852500Y-112550000D01*
%TO.C,J6*%
X127067500Y-83220000D02*
X127067500Y-84220000D01*
X127067500Y-84220000D02*
X128067500Y-83720000D01*
X128067500Y-83720000D02*
X127067500Y-83220000D01*
X128457500Y-78510000D02*
X137577500Y-78510000D01*
X128457500Y-90560000D02*
X129767500Y-90560000D01*
X128457500Y-106710000D02*
X128457500Y-78510000D01*
X129767500Y-79810000D02*
X136267500Y-79810000D01*
X129767500Y-90560000D02*
X129767500Y-79810000D01*
X129767500Y-94660000D02*
X128457500Y-94660000D01*
X129767500Y-94660000D02*
X129767500Y-94660000D01*
X129767500Y-105410000D02*
X129767500Y-94660000D01*
X136267500Y-79810000D02*
X136267500Y-105410000D01*
X136267500Y-105410000D02*
X129767500Y-105410000D01*
X137577500Y-78510000D02*
X137577500Y-106710000D01*
X137577500Y-106710000D02*
X128457500Y-106710000D01*
%TO.C,J8*%
X151097500Y-83220000D02*
X151097500Y-84220000D01*
X151097500Y-84220000D02*
X152097500Y-83720000D01*
X152097500Y-83720000D02*
X151097500Y-83220000D01*
X152487500Y-78510000D02*
X161607500Y-78510000D01*
X152487500Y-90560000D02*
X153797500Y-90560000D01*
X152487500Y-106710000D02*
X152487500Y-78510000D01*
X153797500Y-79810000D02*
X160297500Y-79810000D01*
X153797500Y-90560000D02*
X153797500Y-79810000D01*
X153797500Y-94660000D02*
X152487500Y-94660000D01*
X153797500Y-94660000D02*
X153797500Y-94660000D01*
X153797500Y-105410000D02*
X153797500Y-94660000D01*
X160297500Y-79810000D02*
X160297500Y-105410000D01*
X160297500Y-105410000D02*
X153797500Y-105410000D01*
X161607500Y-78510000D02*
X161607500Y-106710000D01*
X161607500Y-106710000D02*
X152487500Y-106710000D01*
%TO.C,J7*%
X139112500Y-83220000D02*
X139112500Y-84220000D01*
X139112500Y-84220000D02*
X140112500Y-83720000D01*
X140112500Y-83720000D02*
X139112500Y-83220000D01*
X140502500Y-78510000D02*
X149622500Y-78510000D01*
X140502500Y-90560000D02*
X141812500Y-90560000D01*
X140502500Y-106710000D02*
X140502500Y-78510000D01*
X141812500Y-79810000D02*
X148312500Y-79810000D01*
X141812500Y-90560000D02*
X141812500Y-79810000D01*
X141812500Y-94660000D02*
X140502500Y-94660000D01*
X141812500Y-94660000D02*
X141812500Y-94660000D01*
X141812500Y-105410000D02*
X141812500Y-94660000D01*
X148312500Y-79810000D02*
X148312500Y-105410000D01*
X148312500Y-105410000D02*
X141812500Y-105410000D01*
X149622500Y-78510000D02*
X149622500Y-106710000D01*
X149622500Y-106710000D02*
X140502500Y-106710000D01*
%TO.C,J14*%
X151217500Y-136040000D02*
X151217500Y-135040000D01*
X151217500Y-135040000D02*
X150217500Y-135540000D01*
X150217500Y-135540000D02*
X151217500Y-136040000D01*
X149827500Y-140750000D02*
X140707500Y-140750000D01*
X149827500Y-128700000D02*
X148517500Y-128700000D01*
X149827500Y-112550000D02*
X149827500Y-140750000D01*
X148517500Y-139450000D02*
X142017500Y-139450000D01*
X148517500Y-128700000D02*
X148517500Y-139450000D01*
X148517500Y-124600000D02*
X149827500Y-124600000D01*
X148517500Y-124600000D02*
X148517500Y-124600000D01*
X148517500Y-113850000D02*
X148517500Y-124600000D01*
X142017500Y-139450000D02*
X142017500Y-113850000D01*
X142017500Y-113850000D02*
X148517500Y-113850000D01*
X140707500Y-140750000D02*
X140707500Y-112550000D01*
X140707500Y-112550000D02*
X149827500Y-112550000D01*
%TO.C,J11*%
X187227500Y-136040000D02*
X187227500Y-135040000D01*
X187227500Y-135040000D02*
X186227500Y-135540000D01*
X186227500Y-135540000D02*
X187227500Y-136040000D01*
X185837500Y-140750000D02*
X176717500Y-140750000D01*
X185837500Y-128700000D02*
X184527500Y-128700000D01*
X185837500Y-112550000D02*
X185837500Y-140750000D01*
X184527500Y-139450000D02*
X178027500Y-139450000D01*
X184527500Y-128700000D02*
X184527500Y-139450000D01*
X184527500Y-124600000D02*
X185837500Y-124600000D01*
X184527500Y-124600000D02*
X184527500Y-124600000D01*
X184527500Y-113850000D02*
X184527500Y-124600000D01*
X178027500Y-139450000D02*
X178027500Y-113850000D01*
X178027500Y-113850000D02*
X184527500Y-113850000D01*
X176717500Y-140750000D02*
X176717500Y-112550000D01*
X176717500Y-112550000D02*
X185837500Y-112550000D01*
%TO.C,J4*%
X103097500Y-83220000D02*
X103097500Y-84220000D01*
X103097500Y-84220000D02*
X104097500Y-83720000D01*
X104097500Y-83720000D02*
X103097500Y-83220000D01*
X104487500Y-78510000D02*
X113607500Y-78510000D01*
X104487500Y-90560000D02*
X105797500Y-90560000D01*
X104487500Y-106710000D02*
X104487500Y-78510000D01*
X105797500Y-79810000D02*
X112297500Y-79810000D01*
X105797500Y-90560000D02*
X105797500Y-79810000D01*
X105797500Y-94660000D02*
X104487500Y-94660000D01*
X105797500Y-94660000D02*
X105797500Y-94660000D01*
X105797500Y-105410000D02*
X105797500Y-94660000D01*
X112297500Y-79810000D02*
X112297500Y-105410000D01*
X112297500Y-105410000D02*
X105797500Y-105410000D01*
X113607500Y-78510000D02*
X113607500Y-106710000D01*
X113607500Y-106710000D02*
X104487500Y-106710000D01*
%TO.C,J13*%
X163202500Y-136040000D02*
X163202500Y-135040000D01*
X163202500Y-135040000D02*
X162202500Y-135540000D01*
X162202500Y-135540000D02*
X163202500Y-136040000D01*
X161812500Y-140750000D02*
X152692500Y-140750000D01*
X161812500Y-128700000D02*
X160502500Y-128700000D01*
X161812500Y-112550000D02*
X161812500Y-140750000D01*
X160502500Y-139450000D02*
X154002500Y-139450000D01*
X160502500Y-128700000D02*
X160502500Y-139450000D01*
X160502500Y-124600000D02*
X161812500Y-124600000D01*
X160502500Y-124600000D02*
X160502500Y-124600000D01*
X160502500Y-113850000D02*
X160502500Y-124600000D01*
X154002500Y-139450000D02*
X154002500Y-113850000D01*
X154002500Y-113850000D02*
X160502500Y-113850000D01*
X152692500Y-140750000D02*
X152692500Y-112550000D01*
X152692500Y-112550000D02*
X161812500Y-112550000D01*
%TO.C,J9*%
X163082500Y-83220000D02*
X163082500Y-84220000D01*
X163082500Y-84220000D02*
X164082500Y-83720000D01*
X164082500Y-83720000D02*
X163082500Y-83220000D01*
X164472500Y-78510000D02*
X173592500Y-78510000D01*
X164472500Y-90560000D02*
X165782500Y-90560000D01*
X164472500Y-106710000D02*
X164472500Y-78510000D01*
X165782500Y-79810000D02*
X172282500Y-79810000D01*
X165782500Y-90560000D02*
X165782500Y-79810000D01*
X165782500Y-94660000D02*
X164472500Y-94660000D01*
X165782500Y-94660000D02*
X165782500Y-94660000D01*
X165782500Y-105410000D02*
X165782500Y-94660000D01*
X172282500Y-79810000D02*
X172282500Y-105410000D01*
X172282500Y-105410000D02*
X165782500Y-105410000D01*
X173592500Y-78510000D02*
X173592500Y-106710000D01*
X173592500Y-106710000D02*
X164472500Y-106710000D01*
%TO.C,J2*%
X148032531Y-65170000D02*
X176232531Y-65170000D01*
X148032531Y-74290000D02*
X148032531Y-65170000D01*
X149332531Y-66480000D02*
X174932531Y-66480000D01*
X149332531Y-72980000D02*
X149332531Y-66480000D01*
X152742531Y-75680000D02*
X153742531Y-75680000D01*
X153242531Y-74680000D02*
X152742531Y-75680000D01*
X153742531Y-75680000D02*
X153242531Y-74680000D01*
X160082531Y-72980000D02*
X149332531Y-72980000D01*
X160082531Y-74290000D02*
X160082531Y-72980000D01*
X164182531Y-72980000D02*
X164182531Y-72980000D01*
X164182531Y-72980000D02*
X164182531Y-74290000D01*
X174932531Y-66480000D02*
X174932531Y-72980000D01*
X174932531Y-72980000D02*
X164182531Y-72980000D01*
X176232531Y-65170000D02*
X176232531Y-74290000D01*
X176232531Y-74290000D02*
X148032531Y-74290000D01*
%TO.C,J1*%
X129967469Y-74290000D02*
X101767469Y-74290000D01*
X129967469Y-65170000D02*
X129967469Y-74290000D01*
X128667469Y-72980000D02*
X103067469Y-72980000D01*
X128667469Y-66480000D02*
X128667469Y-72980000D01*
X125257469Y-63780000D02*
X124257469Y-63780000D01*
X124757469Y-64780000D02*
X125257469Y-63780000D01*
X124257469Y-63780000D02*
X124757469Y-64780000D01*
X117917469Y-66480000D02*
X128667469Y-66480000D01*
X117917469Y-65170000D02*
X117917469Y-66480000D01*
X113817469Y-66480000D02*
X113817469Y-66480000D01*
X113817469Y-66480000D02*
X113817469Y-65170000D01*
X103067469Y-72980000D02*
X103067469Y-66480000D01*
X103067469Y-66480000D02*
X113817469Y-66480000D01*
X101767469Y-74290000D02*
X101767469Y-65170000D01*
X101767469Y-65170000D02*
X129967469Y-65170000D01*
%TD*%
M02*
