M48
; DRILL file {KiCad 8.0.3} date 2024-07-23T14:08:05-0400
; FORMAT={-:-/ absolute / inch / decimal}
; #@! TF.CreationDate,2024-07-23T14:08:05-04:00
; #@! TF.GenerationSoftware,Kicad,Pcbnew,8.0.3
; #@! TF.FileFunction,Plated,1,2,PTH
FMAT,2
INCH
; #@! TA.AperFunction,Plated,PTH,ComponentDrill
T1C0.0276
; #@! TA.AperFunction,Plated,PTH,ComponentDrill
T2C0.0315
; #@! TA.AperFunction,Plated,PTH,ComponentDrill
T3C0.0354
; #@! TA.AperFunction,Plated,PTH,ComponentDrill
T4C0.0394
; #@! TA.AperFunction,Plated,PTH,ComponentDrill
T5C0.0433
; #@! TA.AperFunction,Plated,PTH,ComponentDrill
T6C0.0512
; #@! TA.AperFunction,Plated,PTH,ComponentDrill
T7C0.1260
%
G90
G05
T1
X2.2254Y-4.6074
X2.7222Y-4.6117
X4.1939Y-4.6117
X5.6309Y-4.6117
T2
X2.8325Y-4.6117
X3.2325Y-4.6117
X4.3089Y-4.6117
X4.7089Y-4.6117
X5.7459Y-4.6117
X6.1459Y-4.6117
T3
X3.3388Y-4.6117
X3.4388Y-4.6117
X4.8134Y-4.6117
X4.9134Y-4.6117
X6.2553Y-4.6117
X6.3553Y-4.6117
T4
X2.1913Y-3.468
X2.1913Y-3.568
X2.1913Y-3.668
X2.1913Y-3.768
X2.1913Y-3.868
X2.1913Y-3.968
X2.1913Y-4.068
X2.1913Y-4.168
X2.2913Y-3.468
X2.2913Y-3.568
X2.2913Y-3.668
X2.2913Y-3.768
X2.2913Y-3.868
X2.2913Y-3.968
X2.2913Y-4.068
X2.2913Y-4.168
X2.6688Y-3.468
X2.6688Y-3.568
X2.6688Y-3.668
X2.6688Y-3.768
X2.6688Y-3.868
X2.6688Y-3.968
X2.6688Y-4.068
X2.6688Y-4.168
X2.7688Y-3.468
X2.7688Y-3.568
X2.7688Y-3.668
X2.7688Y-3.768
X2.7688Y-3.868
X2.7688Y-3.968
X2.7688Y-4.068
X2.7688Y-4.168
X3.1462Y-3.468
X3.1462Y-3.568
X3.1462Y-3.668
X3.1462Y-3.768
X3.1462Y-3.868
X3.1462Y-3.968
X3.1462Y-4.068
X3.1462Y-4.168
X3.2462Y-3.468
X3.2462Y-3.568
X3.2462Y-3.668
X3.2462Y-3.768
X3.2462Y-3.868
X3.2462Y-3.968
X3.2462Y-4.068
X3.2462Y-4.168
X3.6237Y-3.468
X3.6237Y-3.568
X3.6237Y-3.668
X3.6237Y-3.768
X3.6237Y-3.868
X3.6237Y-3.968
X3.6237Y-4.068
X3.6237Y-4.168
X3.7237Y-3.468
X3.7237Y-3.568
X3.7237Y-3.668
X3.7237Y-3.768
X3.7237Y-3.868
X3.7237Y-3.968
X3.7237Y-4.068
X3.7237Y-4.168
X4.1012Y-3.468
X4.1012Y-3.568
X4.1012Y-3.668
X4.1012Y-3.768
X4.1012Y-3.868
X4.1012Y-3.968
X4.1012Y-4.068
X4.1012Y-4.168
X4.2012Y-3.468
X4.2012Y-3.568
X4.2012Y-3.668
X4.2012Y-3.768
X4.2012Y-3.868
X4.2012Y-3.968
X4.2012Y-4.068
X4.2012Y-4.168
X4.5786Y-3.468
X4.5786Y-3.568
X4.5786Y-3.668
X4.5786Y-3.768
X4.5786Y-3.868
X4.5786Y-3.968
X4.5786Y-4.068
X4.5786Y-4.168
X4.6786Y-3.468
X4.6786Y-3.568
X4.6786Y-3.668
X4.6786Y-3.768
X4.6786Y-3.868
X4.6786Y-3.968
X4.6786Y-4.068
X4.6786Y-4.168
X5.0561Y-3.468
X5.0561Y-3.568
X5.0561Y-3.668
X5.0561Y-3.768
X5.0561Y-3.868
X5.0561Y-3.968
X5.0561Y-4.068
X5.0561Y-4.168
X5.1561Y-3.468
X5.1561Y-3.568
X5.1561Y-3.668
X5.1561Y-3.768
X5.1561Y-3.868
X5.1561Y-3.968
X5.1561Y-4.068
X5.1561Y-4.168
X5.5335Y-3.468
X5.5335Y-3.568
X5.5335Y-3.668
X5.5335Y-3.768
X5.5335Y-3.868
X5.5335Y-3.968
X5.5335Y-4.068
X5.5335Y-4.168
X5.6335Y-3.468
X5.6335Y-3.568
X5.6335Y-3.668
X5.6335Y-3.768
X5.6335Y-3.868
X5.6335Y-3.968
X5.6335Y-4.068
X5.6335Y-4.168
X6.011Y-3.468
X6.011Y-3.568
X6.011Y-3.668
X6.011Y-3.768
X6.011Y-3.868
X6.011Y-3.968
X6.011Y-4.068
X6.011Y-4.168
X6.111Y-3.468
X6.111Y-3.568
X6.111Y-3.668
X6.111Y-3.768
X6.111Y-3.868
X6.111Y-3.968
X6.111Y-4.068
X6.111Y-4.168
X6.4884Y-3.468
X6.4884Y-3.568
X6.4884Y-3.668
X6.4884Y-3.768
X6.4884Y-3.868
X6.4884Y-3.968
X6.4884Y-4.068
X6.4884Y-4.168
X6.5884Y-3.468
X6.5884Y-3.568
X6.5884Y-3.668
X6.5884Y-3.768
X6.5884Y-3.868
X6.5884Y-3.968
X6.5884Y-4.068
X6.5884Y-4.168
X6.9659Y-3.468
X6.9659Y-3.568
X6.9659Y-3.668
X6.9659Y-3.768
X6.9659Y-3.868
X6.9659Y-3.968
X6.9659Y-4.068
X6.9659Y-4.168
X7.0659Y-3.468
X7.0659Y-3.568
X7.0659Y-3.668
X7.0659Y-3.768
X7.0659Y-3.868
X7.0659Y-3.968
X7.0659Y-4.068
X7.0659Y-4.168
X7.4433Y-3.468
X7.4433Y-3.568
X7.4433Y-3.668
X7.4433Y-3.768
X7.4433Y-3.868
X7.4433Y-3.968
X7.4433Y-4.068
X7.4433Y-4.168
X7.5433Y-3.468
X7.5433Y-3.568
X7.5433Y-3.668
X7.5433Y-3.768
X7.5433Y-3.868
X7.5433Y-3.968
X7.5433Y-4.068
X7.5433Y-4.168
X7.9208Y-3.468
X7.9208Y-3.568
X7.9208Y-3.668
X7.9208Y-3.768
X7.9208Y-3.868
X7.9208Y-3.968
X7.9208Y-4.068
X7.9208Y-4.168
X8.0208Y-3.468
X8.0208Y-3.568
X8.0208Y-3.668
X8.0208Y-3.768
X8.0208Y-3.868
X8.0208Y-3.968
X8.0208Y-4.068
X8.0208Y-4.168
X8.3983Y-3.468
X8.3983Y-3.568
X8.3983Y-3.668
X8.3983Y-3.768
X8.3983Y-3.868
X8.3983Y-3.968
X8.3983Y-4.068
X8.3983Y-4.168
X8.4983Y-3.468
X8.4983Y-3.568
X8.4983Y-3.668
X8.4983Y-3.768
X8.4983Y-3.868
X8.4983Y-3.968
X8.4983Y-4.068
X8.4983Y-4.168
X8.8757Y-3.468
X8.8757Y-3.568
X8.8757Y-3.668
X8.8757Y-3.768
X8.8757Y-3.868
X8.8757Y-3.968
X8.8757Y-4.068
X8.8757Y-4.168
X8.9757Y-3.468
X8.9757Y-3.568
X8.9757Y-3.668
X8.9757Y-3.768
X8.9757Y-3.868
X8.9757Y-3.968
X8.9757Y-4.068
X8.9757Y-4.168
X9.3532Y-3.468
X9.3532Y-3.568
X9.3532Y-3.668
X9.3532Y-3.768
X9.3532Y-3.868
X9.3532Y-3.968
X9.3532Y-4.068
X9.3532Y-4.168
X9.4532Y-3.468
X9.4532Y-3.568
X9.4532Y-3.668
X9.4532Y-3.768
X9.4532Y-3.868
X9.4532Y-3.968
X9.4532Y-4.068
X9.4532Y-4.168
X9.8306Y-3.468
X9.8306Y-3.568
X9.8306Y-3.668
X9.8306Y-3.768
X9.8306Y-3.868
X9.8306Y-3.968
X9.8306Y-4.068
X9.8306Y-4.168
X9.9306Y-3.468
X9.9306Y-3.568
X9.9306Y-3.668
X9.9306Y-3.768
X9.9306Y-3.868
X9.9306Y-3.968
X9.9306Y-4.068
X9.9306Y-4.168
X10.3081Y-3.468
X10.3081Y-3.568
X10.3081Y-3.668
X10.3081Y-3.768
X10.3081Y-3.868
X10.3081Y-3.968
X10.3081Y-4.068
X10.3081Y-4.168
X10.4081Y-3.468
X10.4081Y-3.568
X10.4081Y-3.668
X10.4081Y-3.768
X10.4081Y-3.868
X10.4081Y-3.968
X10.4081Y-4.068
X10.4081Y-4.168
T5
X1.8949Y-2.9629
X1.8949Y-3.3629
X1.8949Y-3.6503
X1.8949Y-4.0503
X1.8949Y-4.3377
X1.8949Y-4.7377
T6
X1.5679Y-3.3204
X1.5679Y-3.5173
X1.5679Y-3.7771
X1.5679Y-3.974
X1.5679Y-4.1708
X1.5679Y-4.3677
T7
X1.3159Y-3.0173
X1.3159Y-4.6708
X10.6467Y-3.0173
X10.6467Y-4.6708
M30
