M48
; DRILL file {KiCad 8.0.3} date 2024-07-08T09:47:41-0400
; FORMAT={-:-/ absolute / inch / decimal}
; #@! TF.CreationDate,2024-07-08T09:47:41-04:00
; #@! TF.GenerationSoftware,Kicad,Pcbnew,8.0.3
; #@! TF.FileFunction,Plated,1,2,PTH
FMAT,2
INCH
; #@! TA.AperFunction,Plated,PTH,ComponentDrill
T1C0.0276
; #@! TA.AperFunction,Plated,PTH,ComponentDrill
T2C0.0315
; #@! TA.AperFunction,Plated,PTH,ComponentDrill
T3C0.0374
; #@! TA.AperFunction,Plated,PTH,ComponentDrill
T4C0.0394
; #@! TA.AperFunction,Plated,PTH,ComponentDrill
T5C0.0433
; #@! TA.AperFunction,Plated,PTH,ComponentDrill
T6C0.0472
; #@! TA.AperFunction,Plated,PTH,ComponentDrill
T7C0.1260
%
G90
G05
T1
X6.1843Y-5.2795
X6.1843Y-5.3779
X6.1843Y-5.4763
X6.1843Y-5.5748
X6.2827Y-5.2795
X6.2827Y-5.3779
X6.2827Y-5.4763
X6.2827Y-5.5748
X6.3811Y-5.2795
X6.3811Y-5.3779
X6.3811Y-5.4763
X6.3811Y-5.5748
X6.4795Y-5.2795
X6.4795Y-5.3779
X6.4795Y-5.4763
X6.4795Y-5.5748
X6.578Y-5.2795
X6.578Y-5.3779
X6.578Y-5.4763
X6.578Y-5.5748
X6.6764Y-5.2795
X6.6764Y-5.3779
X6.6764Y-5.4763
X6.6764Y-5.5748
X6.7748Y-5.2795
X6.7748Y-5.3779
X6.7748Y-5.4763
X6.7748Y-5.5748
X6.8732Y-5.2795
X6.8732Y-5.3779
X6.8732Y-5.4763
X6.8732Y-5.5748
T2
X4.9764Y-3.9337
X4.9764Y-4.0321
X4.9803Y-4.1735
X4.9803Y-4.2719
X5.0492Y-4.4262
X5.0492Y-4.8262
X5.5972Y-5.28
X5.5972Y-5.4178
X5.5972Y-5.5556
X5.9972Y-5.28
X5.9972Y-5.4178
X5.9972Y-5.5556
X6.0039Y-3.9334
X6.0039Y-4.0318
X6.0039Y-4.1738
X6.0039Y-4.2722
X6.0728Y-4.4262
X6.0728Y-4.8262
X7.0276Y-3.9337
X7.0276Y-4.0321
X7.0276Y-4.1735
X7.0276Y-4.2719
X7.0965Y-4.4262
X7.0965Y-4.8262
T3
X4.6097Y-2.2417
X4.7082Y-2.2417
X4.8066Y-2.2417
X4.905Y-2.2417
X5.0034Y-2.2417
T4
X4.5657Y-5.3453
X4.5657Y-5.4453
X4.6657Y-5.3453
X4.6657Y-5.4453
X4.7657Y-5.3453
X4.7657Y-5.4453
X4.8657Y-5.3453
X4.8657Y-5.4453
X4.9657Y-5.3453
X4.9657Y-5.4453
X5.0657Y-5.3453
X5.0657Y-5.4453
X5.1657Y-5.3453
X5.1657Y-5.4453
X5.2657Y-5.3453
X5.2657Y-5.4453
T5
X4.3984Y-4.0201
X4.4039Y-4.1737
X4.4374Y-4.3627
X4.5374Y-4.3627
X4.6374Y-4.3627
X4.7984Y-4.0201
X4.8039Y-4.1737
X5.2461Y-2.2415
X5.426Y-4.0202
X5.426Y-4.1777
X5.461Y-4.3619
X5.561Y-4.3619
X5.6461Y-2.2415
X5.661Y-4.3619
X5.826Y-4.0202
X5.826Y-4.1777
X5.8366Y-2.2415
X6.2366Y-2.2415
X6.4535Y-4.0241
X6.4535Y-4.1815
X6.4846Y-4.3609
X6.5846Y-4.3609
X6.6846Y-4.3609
X6.8535Y-4.0241
X6.8535Y-4.1815
T6
X4.7346Y-2.5995
X4.7346Y-2.8948
X4.7346Y-3.4057
X4.7346Y-3.701
X5.6696Y-2.5995
X5.6696Y-2.8948
X5.6696Y-3.4057
X5.6696Y-3.701
X6.6046Y-2.5995
X6.6046Y-2.8948
X6.6046Y-3.4057
X6.6046Y-3.701
T7
X4.2503Y-2.069
X4.2503Y-5.691
X7.0849Y-2.069
X7.0849Y-5.691
M30
