%TF.GenerationSoftware,KiCad,Pcbnew,8.0.3*%
%TF.CreationDate,2024-07-08T09:47:23-04:00*%
%TF.ProjectId,mfos-wall-wart-eurorack-psu,6d666f73-2d77-4616-9c6c-2d776172742d,1.0.0*%
%TF.SameCoordinates,Original*%
%TF.FileFunction,Copper,L2,Bot*%
%TF.FilePolarity,Positive*%
%FSLAX46Y46*%
G04 Gerber Fmt 4.6, Leading zero omitted, Abs format (unit mm)*
G04 Created by KiCad (PCBNEW 8.0.3) date 2024-07-08 09:47:23*
%MOMM*%
%LPD*%
G01*
G04 APERTURE LIST*
G04 Aperture macros list*
%AMRoundRect*
0 Rectangle with rounded corners*
0 $1 Rounding radius*
0 $2 $3 $4 $5 $6 $7 $8 $9 X,Y pos of 4 corners*
0 Add a 4 corners polygon primitive as box body*
4,1,4,$2,$3,$4,$5,$6,$7,$8,$9,$2,$3,0*
0 Add four circle primitives for the rounded corners*
1,1,$1+$1,$2,$3*
1,1,$1+$1,$4,$5*
1,1,$1+$1,$6,$7*
1,1,$1+$1,$8,$9*
0 Add four rect primitives between the rounded corners*
20,1,$1+$1,$2,$3,$4,$5,0*
20,1,$1+$1,$4,$5,$6,$7,0*
20,1,$1+$1,$6,$7,$8,$9,0*
20,1,$1+$1,$8,$9,$2,$3,0*%
G04 Aperture macros list end*
%TA.AperFunction,ComponentPad*%
%ADD10R,2.400000X2.400000*%
%TD*%
%TA.AperFunction,ComponentPad*%
%ADD11C,2.400000*%
%TD*%
%TA.AperFunction,ComponentPad*%
%ADD12C,1.500000*%
%TD*%
%TA.AperFunction,ComponentPad*%
%ADD13C,1.600000*%
%TD*%
%TA.AperFunction,ComponentPad*%
%ADD14O,1.600000X1.600000*%
%TD*%
%TA.AperFunction,ComponentPad*%
%ADD15R,2.200000X2.200000*%
%TD*%
%TA.AperFunction,ComponentPad*%
%ADD16O,2.200000X2.200000*%
%TD*%
%TA.AperFunction,ComponentPad*%
%ADD17R,1.600000X1.600000*%
%TD*%
%TA.AperFunction,ComponentPad*%
%ADD18C,5.600000*%
%TD*%
%TA.AperFunction,ComponentPad*%
%ADD19R,1.905000X2.000000*%
%TD*%
%TA.AperFunction,ComponentPad*%
%ADD20O,1.905000X2.000000*%
%TD*%
%TA.AperFunction,ComponentPad*%
%ADD21RoundRect,0.250000X-0.600000X-0.725000X0.600000X-0.725000X0.600000X0.725000X-0.600000X0.725000X0*%
%TD*%
%TA.AperFunction,ComponentPad*%
%ADD22O,1.700000X1.950000*%
%TD*%
%TA.AperFunction,ComponentPad*%
%ADD23RoundRect,0.250000X0.600000X-0.600000X0.600000X0.600000X-0.600000X0.600000X-0.600000X-0.600000X0*%
%TD*%
%TA.AperFunction,ComponentPad*%
%ADD24C,1.700000*%
%TD*%
%TA.AperFunction,Conductor*%
%ADD25C,0.300000*%
%TD*%
G04 APERTURE END LIST*
D10*
%TO.P,C4,1*%
%TO.N,GND*%
X144007600Y-66028100D03*
D11*
%TO.P,C4,2*%
%TO.N,Net-(D1-A)*%
X144007600Y-73528100D03*
%TD*%
D12*
%TO.P,K20,1*%
%TO.N,N/C*%
X164580000Y-139098700D03*
%TD*%
D13*
%TO.P,R1,1*%
%TO.N,+12V*%
X180250000Y-122585900D03*
D14*
%TO.P,R1,2*%
%TO.N,GND*%
X180250000Y-112425900D03*
%TD*%
D15*
%TO.P,D8,1,K*%
%TO.N,GND*%
X122020000Y-106011000D03*
D16*
%TO.P,D8,2,A*%
%TO.N,-12V*%
X111860000Y-106011000D03*
%TD*%
D17*
%TO.P,C9,1*%
%TO.N,Net-(D2-K)*%
X152500000Y-99908400D03*
D13*
%TO.P,C9,2*%
%TO.N,GND*%
X152500000Y-102408400D03*
%TD*%
D15*
%TO.P,D5,1,K*%
%TO.N,Net-(D2-K)*%
X147980000Y-102113500D03*
D16*
%TO.P,D5,2,A*%
%TO.N,+5V*%
X137820000Y-102113500D03*
%TD*%
D12*
%TO.P,K5,1*%
%TO.N,N/C*%
X167080000Y-134098700D03*
%TD*%
%TO.P,K16,1*%
%TO.N,N/C*%
X174580000Y-136598700D03*
%TD*%
%TO.P,K31,1*%
%TO.N,N/C*%
X172080000Y-141598700D03*
%TD*%
%TO.P,K6,1*%
%TO.N,N/C*%
X169580000Y-134098700D03*
%TD*%
D10*
%TO.P,C3,1*%
%TO.N,Net-(D2-K)*%
X144007600Y-94005900D03*
D11*
%TO.P,C3,2*%
%TO.N,GND*%
X144007600Y-86505900D03*
%TD*%
D12*
%TO.P,K22,1*%
%TO.N,N/C*%
X169580000Y-139098700D03*
%TD*%
%TO.P,K27,1*%
%TO.N,N/C*%
X162080000Y-141598700D03*
%TD*%
D13*
%TO.P,R6,1*%
%TO.N,Net-(J1-Pin_5)*%
X142170000Y-141111800D03*
D14*
%TO.P,R6,2*%
%TO.N,-12V*%
X152330000Y-141111800D03*
%TD*%
D12*
%TO.P,K14,1*%
%TO.N,N/C*%
X169580000Y-136598700D03*
%TD*%
D10*
%TO.P,C2,1*%
%TO.N,GND*%
X167757600Y-66028100D03*
D11*
%TO.P,C2,2*%
%TO.N,Net-(D1-A)*%
X167757600Y-73528100D03*
%TD*%
D12*
%TO.P,K3,1*%
%TO.N,N/C*%
X162080000Y-134098700D03*
%TD*%
%TO.P,K2,1*%
%TO.N,N/C*%
X159580000Y-134098700D03*
%TD*%
D10*
%TO.P,C5,1*%
%TO.N,Net-(D2-K)*%
X167757600Y-94005900D03*
D11*
%TO.P,C5,2*%
%TO.N,GND*%
X167757600Y-86505900D03*
%TD*%
D12*
%TO.P,K1,1*%
%TO.N,N/C*%
X157080000Y-134098700D03*
%TD*%
%TO.P,K13,1*%
%TO.N,N/C*%
X167080000Y-136598700D03*
%TD*%
%TO.P,K9,1*%
%TO.N,N/C*%
X157080000Y-136598700D03*
%TD*%
%TO.P,K32,1*%
%TO.N,N/C*%
X174580000Y-141598700D03*
%TD*%
D15*
%TO.P,D4,1,K*%
%TO.N,+12V*%
X163920000Y-106211000D03*
D16*
%TO.P,D4,2,A*%
%TO.N,GND*%
X174080000Y-106211000D03*
%TD*%
D12*
%TO.P,K4,1*%
%TO.N,N/C*%
X164580000Y-134098700D03*
%TD*%
%TO.P,K7,1*%
%TO.N,N/C*%
X172080000Y-134098700D03*
%TD*%
%TO.P,K11,1*%
%TO.N,N/C*%
X162080000Y-136598700D03*
%TD*%
D17*
%TO.P,C7,1*%
%TO.N,Net-(D2-K)*%
X178500000Y-102416100D03*
D13*
%TO.P,C7,2*%
%TO.N,GND*%
X178500000Y-99916100D03*
%TD*%
D12*
%TO.P,K12,1*%
%TO.N,N/C*%
X164580000Y-136598700D03*
%TD*%
D13*
%TO.P,R2,1*%
%TO.N,+5V*%
X154250000Y-112425900D03*
D14*
%TO.P,R2,2*%
%TO.N,GND*%
X154250000Y-122585900D03*
%TD*%
D12*
%TO.P,K24,1*%
%TO.N,N/C*%
X174580000Y-139098700D03*
%TD*%
D18*
%TO.P,M2,1*%
%TO.N,N/C*%
X179957600Y-52552000D03*
%TD*%
D19*
%TO.P,U2,1,IN*%
%TO.N,Net-(D2-K)*%
X143790000Y-110791800D03*
D20*
%TO.P,U2,2,GND*%
%TO.N,GND*%
X141250000Y-110791800D03*
%TO.P,U2,3,OUT*%
%TO.N,+5V*%
X138710000Y-110791800D03*
%TD*%
D12*
%TO.P,K8,1*%
%TO.N,N/C*%
X174580000Y-134098700D03*
%TD*%
D13*
%TO.P,R4,1*%
%TO.N,Net-(J1-Pin_3)*%
X142170000Y-134111800D03*
D14*
%TO.P,R4,2*%
%TO.N,+5V*%
X152330000Y-134111800D03*
%TD*%
D17*
%TO.P,C12,1*%
%TO.N,GND*%
X126500000Y-106005900D03*
D13*
%TO.P,C12,2*%
%TO.N,-12V*%
X126500000Y-108505900D03*
%TD*%
D17*
%TO.P,C11,1*%
%TO.N,GND*%
X126400000Y-102416100D03*
D13*
%TO.P,C11,2*%
%TO.N,Net-(D1-A)*%
X126400000Y-99916100D03*
%TD*%
D12*
%TO.P,K10,1*%
%TO.N,N/C*%
X159580000Y-136598700D03*
%TD*%
D17*
%TO.P,C8,1*%
%TO.N,+12V*%
X178500000Y-106005900D03*
D13*
%TO.P,C8,2*%
%TO.N,GND*%
X178500000Y-108505900D03*
%TD*%
D18*
%TO.P,M1,1*%
%TO.N,N/C*%
X107957600Y-52552000D03*
%TD*%
D21*
%TO.P,J1,1,Pin_1*%
%TO.N,Net-(D1-K)*%
X117087600Y-56940400D03*
D22*
%TO.P,J1,2,Pin_2*%
%TO.N,GND*%
X119587600Y-56940400D03*
%TO.P,J1,3,Pin_3*%
%TO.N,Net-(J1-Pin_3)*%
X122087600Y-56940400D03*
%TO.P,J1,4,Pin_4*%
%TO.N,Net-(J1-Pin_4)*%
X124587600Y-56940400D03*
%TO.P,J1,5,Pin_5*%
%TO.N,Net-(J1-Pin_5)*%
X127087600Y-56940400D03*
%TD*%
D18*
%TO.P,M4,1*%
%TO.N,N/C*%
X107957600Y-144552000D03*
%TD*%
D12*
%TO.P,K17,1*%
%TO.N,N/C*%
X157080000Y-139098700D03*
%TD*%
%TO.P,K30,1*%
%TO.N,N/C*%
X169580000Y-141598700D03*
%TD*%
%TO.P,K15,1*%
%TO.N,N/C*%
X172080000Y-136598700D03*
%TD*%
D13*
%TO.P,R5,1*%
%TO.N,Net-(J1-Pin_4)*%
X142170000Y-137611800D03*
D14*
%TO.P,R5,2*%
%TO.N,+12V*%
X152330000Y-137611800D03*
%TD*%
D15*
%TO.P,D7,1,K*%
%TO.N,-12V*%
X111720000Y-102111000D03*
D16*
%TO.P,D7,2,A*%
%TO.N,Net-(D1-A)*%
X121880000Y-102111000D03*
%TD*%
D15*
%TO.P,D1,1,K*%
%TO.N,Net-(D1-K)*%
X148250000Y-56934500D03*
D16*
%TO.P,D1,2,A*%
%TO.N,Net-(D1-A)*%
X158410000Y-56934500D03*
%TD*%
D10*
%TO.P,C6,1*%
%TO.N,GND*%
X120257600Y-66028100D03*
D11*
%TO.P,C6,2*%
%TO.N,Net-(D1-A)*%
X120257600Y-73528100D03*
%TD*%
D15*
%TO.P,D3,1,K*%
%TO.N,Net-(D2-K)*%
X174080000Y-102211000D03*
D16*
%TO.P,D3,2,A*%
%TO.N,+12V*%
X163920000Y-102211000D03*
%TD*%
D12*
%TO.P,K19,1*%
%TO.N,N/C*%
X162080000Y-139098700D03*
%TD*%
%TO.P,K25,1*%
%TO.N,N/C*%
X157080000Y-141598700D03*
%TD*%
D19*
%TO.P,U3,1,GND*%
%TO.N,GND*%
X117790000Y-110811800D03*
D20*
%TO.P,U3,2,VI*%
%TO.N,Net-(D1-A)*%
X115250000Y-110811800D03*
%TO.P,U3,3,VO*%
%TO.N,-12V*%
X112710000Y-110811800D03*
%TD*%
D15*
%TO.P,D6,1,K*%
%TO.N,+5V*%
X137820000Y-106113500D03*
D16*
%TO.P,D6,2,A*%
%TO.N,GND*%
X147980000Y-106113500D03*
%TD*%
D15*
%TO.P,D2,1,K*%
%TO.N,Net-(D2-K)*%
X133250000Y-56934500D03*
D16*
%TO.P,D2,2,A*%
%TO.N,Net-(D1-K)*%
X143410000Y-56934500D03*
%TD*%
D18*
%TO.P,M3,1*%
%TO.N,N/C*%
X179957600Y-144552000D03*
%TD*%
D12*
%TO.P,K26,1*%
%TO.N,N/C*%
X159580000Y-141598700D03*
%TD*%
%TO.P,K29,1*%
%TO.N,N/C*%
X167080000Y-141598700D03*
%TD*%
D10*
%TO.P,C1,1*%
%TO.N,Net-(D2-K)*%
X120257600Y-94005900D03*
D11*
%TO.P,C1,2*%
%TO.N,GND*%
X120257600Y-86505900D03*
%TD*%
D12*
%TO.P,K21,1*%
%TO.N,N/C*%
X167080000Y-139098700D03*
%TD*%
D19*
%TO.P,U1,1,IN*%
%TO.N,Net-(D2-K)*%
X169790000Y-110766800D03*
D20*
%TO.P,U1,2,GND*%
%TO.N,GND*%
X167250000Y-110766800D03*
%TO.P,U1,3,OUT*%
%TO.N,+12V*%
X164710000Y-110766800D03*
%TD*%
D23*
%TO.P,J2,1,Pin_1*%
%TO.N,-12V*%
X115970000Y-138311800D03*
D24*
%TO.P,J2,2,Pin_2*%
X115970000Y-135771800D03*
%TO.P,J2,3,Pin_3*%
%TO.N,GND*%
X118510000Y-138311800D03*
%TO.P,J2,4,Pin_4*%
X118510000Y-135771800D03*
%TO.P,J2,5,Pin_5*%
X121050000Y-138311800D03*
%TO.P,J2,6,Pin_6*%
X121050000Y-135771800D03*
%TO.P,J2,7,Pin_7*%
X123590000Y-138311800D03*
%TO.P,J2,8,Pin_8*%
X123590000Y-135771800D03*
%TO.P,J2,9,Pin_9*%
%TO.N,+12V*%
X126130000Y-138311800D03*
%TO.P,J2,10,Pin_10*%
X126130000Y-135771800D03*
%TO.P,J2,11,Pin_11*%
%TO.N,+5V*%
X128670000Y-138311800D03*
%TO.P,J2,12,Pin_12*%
X128670000Y-135771800D03*
%TO.P,J2,13,Pin_13*%
%TO.N,unconnected-(J2-Pin_13-Pad13)*%
X131210000Y-138311800D03*
%TO.P,J2,14,Pin_14*%
%TO.N,unconnected-(J2-Pin_14-Pad14)*%
X131210000Y-135771800D03*
%TO.P,J2,15,Pin_15*%
%TO.N,unconnected-(J2-Pin_15-Pad15)*%
X133750000Y-138311800D03*
%TO.P,J2,16,Pin_16*%
%TO.N,unconnected-(J2-Pin_16-Pad16)*%
X133750000Y-135771800D03*
%TD*%
D17*
%TO.P,C10,1*%
%TO.N,+5V*%
X152500000Y-108513500D03*
D13*
%TO.P,C10,2*%
%TO.N,GND*%
X152500000Y-106013500D03*
%TD*%
%TO.P,R3,1*%
%TO.N,GND*%
X128250000Y-122585900D03*
D14*
%TO.P,R3,2*%
%TO.N,-12V*%
X128250000Y-112425900D03*
%TD*%
D12*
%TO.P,REF\u002A\u002A,1*%
%TO.N,N/C*%
X159580000Y-139098700D03*
%TD*%
%TO.P,K28,1*%
%TO.N,N/C*%
X164580000Y-141598700D03*
%TD*%
%TO.P,K23,1*%
%TO.N,N/C*%
X172080000Y-139098700D03*
%TD*%
D25*
%TO.N,Net-(D2-K)*%
X144007600Y-94831700D02*
X122735100Y-94831700D01*
X174080000Y-101538500D02*
X176370700Y-101538500D01*
X158828400Y-94831700D02*
X153751700Y-99908400D01*
X178500000Y-102416100D02*
X177248300Y-102416100D01*
X152187100Y-99908400D02*
X151736800Y-99908400D01*
X144007600Y-94831700D02*
X144007600Y-95657600D01*
X144007600Y-94005900D02*
X144007600Y-94831700D01*
X149997600Y-101647600D02*
X144007600Y-95657600D01*
X167757600Y-95657600D02*
X169078300Y-95657600D01*
X152500000Y-99908400D02*
X152187100Y-99908400D01*
X147980000Y-102113500D02*
X149531700Y-102113500D01*
X176370700Y-101538500D02*
X177248300Y-102416100D01*
X174080000Y-102211000D02*
X174080000Y-101538500D01*
X167757600Y-94831700D02*
X167757600Y-95657600D01*
X122735100Y-94831700D02*
X121909300Y-94005900D01*
X152500000Y-99908400D02*
X153751700Y-99908400D01*
X167757600Y-94831700D02*
X158828400Y-94831700D01*
X149997600Y-101647600D02*
X149531700Y-102113500D01*
X151736800Y-99908400D02*
X149997600Y-101647600D01*
X174080000Y-101538500D02*
X174080000Y-100659300D01*
X169078300Y-95657600D02*
X174080000Y-100659300D01*
X120257600Y-94005900D02*
X121909300Y-94005900D01*
X167757600Y-94005900D02*
X167757600Y-94831700D01*
%TO.N,GND*%
X126500000Y-106005900D02*
X127751700Y-106005900D01*
X155701600Y-119882600D02*
X154250000Y-121334200D01*
X123590000Y-135771800D02*
X121050000Y-135771800D01*
X121050000Y-135771800D02*
X118510000Y-135771800D01*
X122020000Y-106011000D02*
X122020000Y-107562700D01*
X126400000Y-106005900D02*
X126400000Y-103667800D01*
X130859500Y-109284600D02*
X139742800Y-109284600D01*
X130859500Y-119976400D02*
X130859500Y-109284600D01*
X152500000Y-106113500D02*
X152500000Y-106013500D01*
X167250000Y-109315100D02*
X169424200Y-109315100D01*
X119194200Y-110811800D02*
X119194200Y-110388500D01*
X167250000Y-110766800D02*
X167250000Y-109315100D01*
X119194200Y-110388500D02*
X122020000Y-107562700D01*
X174080000Y-106211000D02*
X172528300Y-106211000D01*
X147980000Y-106113500D02*
X149531700Y-106113500D01*
X155701600Y-109315100D02*
X167250000Y-109315100D01*
X154250000Y-122585900D02*
X154250000Y-121334200D01*
X130859500Y-109284600D02*
X130859500Y-109113700D01*
X126400000Y-106005900D02*
X126500000Y-106005900D01*
X123571700Y-106011000D02*
X123576800Y-106005900D01*
X155701600Y-109315100D02*
X155701600Y-119882600D01*
X123576800Y-106005900D02*
X126400000Y-106005900D01*
X117790000Y-110811800D02*
X119194200Y-110811800D01*
X130859500Y-109113700D02*
X127751700Y-106005900D01*
X152500000Y-106113500D02*
X149531700Y-106113500D01*
X122020000Y-106011000D02*
X123571700Y-106011000D01*
X128250000Y-122585900D02*
X130859500Y-119976400D01*
X126400000Y-102416100D02*
X126400000Y-103667800D01*
X169424200Y-109315100D02*
X172528300Y-106211000D01*
X155701600Y-109315100D02*
X152500000Y-106113500D01*
X139742800Y-109284600D02*
X141250000Y-110791800D01*
%TO.N,Net-(D1-A)*%
X147402400Y-70133300D02*
X158410000Y-70133300D01*
X158410000Y-56934500D02*
X158410000Y-58486200D01*
X126400000Y-99916100D02*
X125626600Y-99916100D01*
X164362800Y-70133300D02*
X167757600Y-73528100D01*
X115250000Y-110811800D02*
X115250000Y-109360100D01*
X158410000Y-70133300D02*
X158410000Y-58486200D01*
X115250000Y-109360100D02*
X120947400Y-103662700D01*
X158410000Y-70133300D02*
X164362800Y-70133300D01*
X125626600Y-99916100D02*
X123431700Y-102111000D01*
X120947400Y-103662700D02*
X121880000Y-103662700D01*
X144007600Y-73528100D02*
X147402400Y-70133300D01*
X121880000Y-102111000D02*
X123431700Y-102111000D01*
X120257600Y-73528100D02*
X144007600Y-73528100D01*
X121880000Y-102111000D02*
X121880000Y-103662700D01*
%TO.N,+12V*%
X158831900Y-110766800D02*
X157106200Y-112492500D01*
X167023400Y-104659300D02*
X165920000Y-105762700D01*
X157106200Y-123836100D02*
X154467300Y-126475000D01*
X126130000Y-138311800D02*
X127441700Y-139623500D01*
X127441700Y-139623500D02*
X149066600Y-139623500D01*
X149066600Y-139623500D02*
X151078300Y-137611800D01*
X165920000Y-105762700D02*
X163920000Y-103762700D01*
X152330000Y-137611800D02*
X152330000Y-136360100D01*
X175901700Y-104659300D02*
X167023400Y-104659300D01*
X181514200Y-109020100D02*
X178500000Y-106005900D01*
X152330000Y-137611800D02*
X151078300Y-137611800D01*
X163920000Y-102211000D02*
X163920000Y-103762700D01*
X178500000Y-106005900D02*
X177248300Y-106005900D01*
X164710000Y-110766800D02*
X158831900Y-110766800D01*
X181514200Y-121321700D02*
X181514200Y-109020100D01*
X180250000Y-122585900D02*
X181514200Y-121321700D01*
X165920000Y-105762700D02*
X165471700Y-106211000D01*
X177248300Y-106005900D02*
X175901700Y-104659300D01*
X157106200Y-112492500D02*
X157106200Y-123836100D01*
X163920000Y-106211000D02*
X165471700Y-106211000D01*
X154467300Y-134222800D02*
X152330000Y-136360100D01*
X154467300Y-126475000D02*
X154467300Y-134222800D01*
%TO.N,+5V*%
X131638100Y-132803700D02*
X149770200Y-132803700D01*
X152500000Y-108513500D02*
X141771700Y-108513500D01*
X149770200Y-132803700D02*
X151078300Y-134111800D01*
X141771700Y-108513500D02*
X139371700Y-106113500D01*
X128670000Y-135771800D02*
X131638100Y-132803700D01*
X137820000Y-106113500D02*
X139371700Y-106113500D01*
X152330000Y-134111800D02*
X151078300Y-134111800D01*
%TO.N,-12V*%
X152330000Y-141111800D02*
X151078300Y-141111800D01*
X120042700Y-142384500D02*
X149805600Y-142384500D01*
X149805600Y-142384500D02*
X151078300Y-141111800D01*
X115970000Y-138311800D02*
X120042700Y-142384500D01*
%TO.N,Net-(D1-K)*%
X141858300Y-56934500D02*
X140301800Y-55378000D01*
X118650000Y-55378000D02*
X117087600Y-56940400D01*
X148250000Y-56934500D02*
X143410000Y-56934500D01*
X140301800Y-55378000D02*
X118650000Y-55378000D01*
X143410000Y-56934500D02*
X141858300Y-56934500D01*
%TD*%
M02*
