M48
; DRILL file {KiCad 8.0.3} date 2024-07-21T19:27:48-0400
; FORMAT={-:-/ absolute / inch / decimal}
; #@! TF.CreationDate,2024-07-21T19:27:48-04:00
; #@! TF.GenerationSoftware,Kicad,Pcbnew,8.0.3
; #@! TF.FileFunction,Plated,1,2,PTH
FMAT,2
INCH
; #@! TA.AperFunction,Plated,PTH,ComponentDrill
T1C0.0276
; #@! TA.AperFunction,Plated,PTH,ComponentDrill
T2C0.0315
; #@! TA.AperFunction,Plated,PTH,ComponentDrill
T3C0.0354
; #@! TA.AperFunction,Plated,PTH,ComponentDrill
T4C0.0374
; #@! TA.AperFunction,Plated,PTH,ComponentDrill
T5C0.0394
; #@! TA.AperFunction,Plated,PTH,ComponentDrill
T6C0.0433
; #@! TA.AperFunction,Plated,PTH,ComponentDrill
T7C0.0472
; #@! TA.AperFunction,Plated,PTH,ComponentDrill
T8C0.1260
%
G90
G05
T1
X5.9546Y-5.3564
X5.9546Y-5.5335
X5.9546Y-5.7107
X6.5416Y-2.0674
X6.5416Y-2.2072
X7.0252Y-5.3548
T2
X4.8067Y-3.892
X4.8067Y-3.9904
X4.8106Y-4.1318
X4.8106Y-4.2302
X5.0492Y-4.4131
X5.0492Y-4.8131
X5.8224Y-3.8917
X5.8224Y-3.9901
X5.8224Y-4.1321
X5.8224Y-4.2305
X6.0632Y-5.3564
X6.0632Y-5.5335
X6.0664Y-5.7107
X6.0728Y-4.4131
X6.0728Y-4.8131
X6.4632Y-5.3564
X6.4632Y-5.5335
X6.4664Y-5.7107
X6.8441Y-3.892
X6.8441Y-3.9904
X6.8441Y-4.1318
X6.8441Y-4.2302
X7.0965Y-4.4131
X7.0965Y-4.8131
T3
X6.5808Y-5.3564
X6.5808Y-5.5335
X6.5808Y-5.7107
X6.6808Y-5.3564
X6.6808Y-5.5335
X6.6808Y-5.7107
T4
X4.6097Y-2.1716
X4.7082Y-2.1716
X4.8066Y-2.1716
X4.905Y-2.1716
X5.0034Y-2.1716
T5
X4.7573Y-5.3549
X4.7573Y-5.4549
X4.8573Y-5.3549
X4.8573Y-5.4549
X4.9573Y-5.3549
X4.9573Y-5.4549
X5.0573Y-5.3549
X5.0573Y-5.4549
X5.1573Y-5.3549
X5.1573Y-5.4549
X5.2573Y-5.3549
X5.2573Y-5.4549
X5.3573Y-5.3549
X5.3573Y-5.4549
X5.4573Y-5.3549
X5.4573Y-5.4549
T6
X4.2287Y-3.9784
X4.2343Y-4.132
X4.4472Y-4.3771
X4.5472Y-4.3771
X4.6287Y-3.9784
X4.6343Y-4.132
X4.6472Y-4.3771
X5.2445Y-3.9785
X5.2445Y-4.136
X5.2461Y-2.1713
X5.461Y-4.3771
X5.561Y-4.3771
X5.6445Y-3.9785
X5.6445Y-4.136
X5.6461Y-2.1713
X5.661Y-4.3771
X5.8366Y-2.1713
X6.2366Y-2.1713
X6.2701Y-3.9824
X6.2701Y-4.1398
X6.4856Y-4.3771
X6.5856Y-4.3771
X6.6701Y-3.9824
X6.6701Y-4.1398
X6.6856Y-4.3771
T7
X4.7916Y-2.5257
X4.7916Y-2.8209
X4.7916Y-3.2728
X4.7916Y-3.5681
X5.6676Y-2.5257
X5.6676Y-2.8209
X5.6676Y-3.2728
X5.6676Y-3.5681
X6.5436Y-2.5257
X6.5436Y-2.8209
X6.5436Y-3.2728
X6.5436Y-3.5681
T8
X4.2503Y-2.069
X4.2503Y-5.691
X7.0849Y-2.069
X7.0849Y-5.691
M30
