M48
; DRILL file {KiCad 8.0.3} date 2024-07-30T20:54:47-0400
; FORMAT={-:-/ absolute / inch / decimal}
; #@! TF.CreationDate,2024-07-30T20:54:47-04:00
; #@! TF.GenerationSoftware,Kicad,Pcbnew,8.0.3
; #@! TF.FileFunction,Plated,1,2,PTH
FMAT,2
INCH
; #@! TA.AperFunction,Plated,PTH,ViaDrill
T1C0.0118
; #@! TA.AperFunction,Plated,PTH,ComponentDrill
T2C0.0276
; #@! TA.AperFunction,Plated,PTH,ComponentDrill
T3C0.0315
; #@! TA.AperFunction,Plated,PTH,ComponentDrill
T4C0.0354
; #@! TA.AperFunction,Plated,PTH,ComponentDrill
T5C0.0374
; #@! TA.AperFunction,Plated,PTH,ComponentDrill
T6C0.0433
; #@! TA.AperFunction,Plated,PTH,ComponentDrill
T7C0.0472
; #@! TA.AperFunction,Plated,PTH,ComponentDrill
T8C0.0512
; #@! TA.AperFunction,Plated,PTH,ComponentDrill
T9C0.1260
%
G90
G05
T1
X5.2464Y-3.5681
X6.1046Y-2.8209
T2
X5.7936Y-5.7107
X6.0822Y-5.3564
X6.0822Y-5.5335
X6.0822Y-5.7107
X6.6794Y-2.0769
X6.6794Y-2.1831
T3
X4.8106Y-3.9036
X4.8106Y-4.002
X4.8106Y-4.1398
X4.8106Y-4.2383
X5.0492Y-4.4131
X5.0492Y-4.8131
X5.0731Y-4.0198
X5.0731Y-4.1182
X5.8224Y-3.9036
X5.8224Y-4.002
X5.8224Y-4.1398
X5.8224Y-4.2383
X6.0728Y-4.4131
X6.0728Y-4.8131
X6.0968Y-4.0198
X6.0968Y-4.1182
X6.1909Y-5.3564
X6.1909Y-5.5335
X6.194Y-5.7107
X6.5909Y-5.3564
X6.5909Y-5.5335
X6.594Y-5.7107
X6.8441Y-3.9036
X6.8441Y-4.002
X6.8441Y-4.1398
X6.8441Y-4.2383
X7.0968Y-4.4154
X7.0968Y-4.8154
X7.1204Y-4.0198
X7.1204Y-4.1182
T4
X6.7084Y-5.3564
X6.7084Y-5.5335
X6.7084Y-5.7107
X6.8084Y-5.3564
X6.8084Y-5.5335
X6.8084Y-5.7107
T5
X4.5327Y-2.1881
X4.6311Y-2.1881
X4.7295Y-2.1881
X4.828Y-2.1881
X4.9264Y-2.1881
T6
X4.2343Y-4.002
X4.2343Y-4.1398
X4.4472Y-4.3682
X4.5472Y-4.3682
X4.6343Y-4.002
X4.6343Y-4.1398
X4.6472Y-4.3682
X5.2445Y-4.002
X5.2445Y-4.1398
X5.2461Y-2.1713
X5.461Y-4.3682
X5.561Y-4.3682
X5.6445Y-4.002
X5.6445Y-4.1398
X5.6461Y-2.1713
X5.661Y-4.3682
X5.8366Y-2.1713
X6.2366Y-2.1713
X6.2701Y-4.002
X6.2701Y-4.1398
X6.4856Y-4.3682
X6.5856Y-4.3682
X6.6701Y-4.002
X6.6701Y-4.1398
X6.6856Y-4.3682
T7
X4.7916Y-2.5257
X4.7916Y-2.8209
X4.7916Y-3.2728
X4.7916Y-3.5681
X5.6676Y-2.5257
X5.6676Y-2.8209
X5.6676Y-3.2728
X5.6676Y-3.5681
X6.5436Y-2.5257
X6.5436Y-2.8209
X6.5436Y-3.2728
X6.5436Y-3.5681
T8
X4.7597Y-5.4666
X4.9597Y-5.4666
X5.1597Y-5.4666
X5.3597Y-5.4666
T9
X4.2503Y-2.069
X4.2503Y-5.691
X7.0849Y-2.069
X7.0849Y-5.691
M30
