%TF.GenerationSoftware,KiCad,Pcbnew,8.0.3*%
%TF.CreationDate,2024-07-24T22:05:29-04:00*%
%TF.ProjectId,mfos-wall-wart-eurorack-psu,6d666f73-2d77-4616-9c6c-2d776172742d,1.0.0*%
%TF.SameCoordinates,Original*%
%TF.FileFunction,Copper,L2,Bot*%
%TF.FilePolarity,Positive*%
%FSLAX46Y46*%
G04 Gerber Fmt 4.6, Leading zero omitted, Abs format (unit mm)*
G04 Created by KiCad (PCBNEW 8.0.3) date 2024-07-24 22:05:29*
%MOMM*%
%LPD*%
G01*
G04 APERTURE LIST*
G04 Aperture macros list*
%AMRoundRect*
0 Rectangle with rounded corners*
0 $1 Rounding radius*
0 $2 $3 $4 $5 $6 $7 $8 $9 X,Y pos of 4 corners*
0 Add a 4 corners polygon primitive as box body*
4,1,4,$2,$3,$4,$5,$6,$7,$8,$9,$2,$3,0*
0 Add four circle primitives for the rounded corners*
1,1,$1+$1,$2,$3*
1,1,$1+$1,$4,$5*
1,1,$1+$1,$6,$7*
1,1,$1+$1,$8,$9*
0 Add four rect primitives between the rounded corners*
20,1,$1+$1,$2,$3,$4,$5,0*
20,1,$1+$1,$4,$5,$6,$7,0*
20,1,$1+$1,$6,$7,$8,$9,0*
20,1,$1+$1,$8,$9,$2,$3,0*%
G04 Aperture macros list end*
%TA.AperFunction,ComponentPad*%
%ADD10R,2.400000X2.400000*%
%TD*%
%TA.AperFunction,ComponentPad*%
%ADD11C,2.400000*%
%TD*%
%TA.AperFunction,ComponentPad*%
%ADD12C,1.600000*%
%TD*%
%TA.AperFunction,ComponentPad*%
%ADD13O,1.600000X1.600000*%
%TD*%
%TA.AperFunction,ComponentPad*%
%ADD14R,2.200000X2.200000*%
%TD*%
%TA.AperFunction,ComponentPad*%
%ADD15O,2.200000X2.200000*%
%TD*%
%TA.AperFunction,ComponentPad*%
%ADD16R,1.600000X1.600000*%
%TD*%
%TA.AperFunction,ComponentPad*%
%ADD17R,1.800000X1.800000*%
%TD*%
%TA.AperFunction,ComponentPad*%
%ADD18C,1.800000*%
%TD*%
%TA.AperFunction,ComponentPad*%
%ADD19R,1.905000X2.000000*%
%TD*%
%TA.AperFunction,ComponentPad*%
%ADD20O,1.905000X2.000000*%
%TD*%
%TA.AperFunction,ComponentPad*%
%ADD21R,2.600000X2.600000*%
%TD*%
%TA.AperFunction,ComponentPad*%
%ADD22C,2.600000*%
%TD*%
%TA.AperFunction,ComponentPad*%
%ADD23C,6.400000*%
%TD*%
%TA.AperFunction,ComponentPad*%
%ADD24RoundRect,0.250000X-0.600000X-0.725000X0.600000X-0.725000X0.600000X0.725000X-0.600000X0.725000X0*%
%TD*%
%TA.AperFunction,ComponentPad*%
%ADD25O,1.700000X1.950000*%
%TD*%
%TA.AperFunction,ComponentPad*%
%ADD26C,1.500000*%
%TD*%
%TA.AperFunction,ViaPad*%
%ADD27C,0.600000*%
%TD*%
%TA.AperFunction,Conductor*%
%ADD28C,0.300000*%
%TD*%
G04 APERTURE END LIST*
D10*
%TO.P,C4,1*%
%TO.N,GND*%
X143957600Y-64152000D03*
D11*
%TO.P,C4,2*%
%TO.N,Net-(D1-A)*%
X143957600Y-71652000D03*
%TD*%
D12*
%TO.P,R1,1*%
%TO.N,+12V*%
X180250000Y-122252000D03*
D13*
%TO.P,R1,2*%
%TO.N,GND*%
X180250000Y-112092000D03*
%TD*%
D14*
%TO.P,D8,1,K*%
%TO.N,GND*%
X117710000Y-105152000D03*
D15*
%TO.P,D8,2,A*%
%TO.N,-12V*%
X107550000Y-105152000D03*
%TD*%
D16*
%TO.P,C9,1*%
%TO.N,Net-(D2-K)*%
X147890000Y-101652000D03*
D12*
%TO.P,C9,2*%
%TO.N,GND*%
X147890000Y-99152000D03*
%TD*%
D14*
%TO.P,D5,1,K*%
%TO.N,Net-(D2-K)*%
X143370000Y-101652000D03*
D15*
%TO.P,D5,2,A*%
%TO.N,+5V*%
X133210000Y-101652000D03*
%TD*%
D17*
%TO.P,L3,1,K*%
%TO.N,GND*%
X172932700Y-145052000D03*
D18*
%TO.P,L3,2,A*%
%TO.N,Net-(J1-Pin_5)*%
X170392700Y-145052000D03*
%TD*%
D10*
%TO.P,C3,1*%
%TO.N,Net-(D2-K)*%
X143957600Y-90629800D03*
D11*
%TO.P,C3,2*%
%TO.N,GND*%
X143957600Y-83129800D03*
%TD*%
D12*
%TO.P,R6,1*%
%TO.N,Net-(J1-Pin_5)*%
X167487700Y-145052000D03*
D13*
%TO.P,R6,2*%
%TO.N,-12V*%
X157327700Y-145052000D03*
%TD*%
D19*
%TO.P,U1,1,IN*%
%TO.N,Net-(D2-K)*%
X169814300Y-111177800D03*
D20*
%TO.P,U1,2,GND*%
%TO.N,GND*%
X167274300Y-111177800D03*
%TO.P,U1,3,OUT*%
%TO.N,+12V*%
X164734300Y-111177800D03*
%TD*%
D21*
%TO.P,J2,1,Pin_1*%
%TO.N,-12V*%
X120897600Y-138852000D03*
D22*
%TO.P,J2,2,Pin_2*%
%TO.N,GND*%
X125977600Y-138852000D03*
%TO.P,J2,3,Pin_3*%
%TO.N,+12V*%
X131057600Y-138852000D03*
%TO.P,J2,4,Pin_4*%
%TO.N,+5V*%
X136137600Y-138852000D03*
%TD*%
D10*
%TO.P,C2,1*%
%TO.N,GND*%
X166207600Y-64152000D03*
D11*
%TO.P,C2,2*%
%TO.N,Net-(D1-A)*%
X166207600Y-71652000D03*
%TD*%
D10*
%TO.P,C5,1*%
%TO.N,Net-(D2-K)*%
X166207600Y-90629800D03*
D11*
%TO.P,C5,2*%
%TO.N,GND*%
X166207600Y-83129800D03*
%TD*%
D12*
%TO.P,C14,1*%
%TO.N,+5V*%
X154857600Y-104602000D03*
%TO.P,C14,2*%
%TO.N,GND*%
X154857600Y-102102000D03*
%TD*%
D14*
%TO.P,D4,1,K*%
%TO.N,+12V*%
X159260000Y-105152000D03*
D15*
%TO.P,D4,2,A*%
%TO.N,GND*%
X169420000Y-105152000D03*
%TD*%
D17*
%TO.P,L2,1,K*%
%TO.N,GND*%
X172932700Y-140552000D03*
D18*
%TO.P,L2,2,A*%
%TO.N,Net-(J1-Pin_4)*%
X170392700Y-140552000D03*
%TD*%
D16*
%TO.P,C7,1*%
%TO.N,Net-(D2-K)*%
X173840000Y-101652000D03*
D12*
%TO.P,C7,2*%
%TO.N,GND*%
X173840000Y-99152000D03*
%TD*%
%TO.P,C15,1*%
%TO.N,GND*%
X128857600Y-104602000D03*
%TO.P,C15,2*%
%TO.N,-12V*%
X128857600Y-102102000D03*
%TD*%
%TO.P,R2,1*%
%TO.N,+5V*%
X154250000Y-112092000D03*
D13*
%TO.P,R2,2*%
%TO.N,GND*%
X154250000Y-122252000D03*
%TD*%
D23*
%TO.P,M2,1*%
%TO.N,N/C*%
X179957600Y-52552000D03*
%TD*%
D12*
%TO.P,R4,1*%
%TO.N,Net-(J1-Pin_3)*%
X167407700Y-136052000D03*
D13*
%TO.P,R4,2*%
%TO.N,+5V*%
X157247700Y-136052000D03*
%TD*%
D16*
%TO.P,C12,1*%
%TO.N,GND*%
X122190000Y-105152000D03*
D12*
%TO.P,C12,2*%
%TO.N,-12V*%
X122190000Y-107652000D03*
%TD*%
D16*
%TO.P,C11,1*%
%TO.N,GND*%
X122190000Y-99152000D03*
D12*
%TO.P,C11,2*%
%TO.N,Net-(D1-A)*%
X122190000Y-101652000D03*
%TD*%
%TO.P,C13,1*%
%TO.N,+12V*%
X180857600Y-104602000D03*
%TO.P,C13,2*%
%TO.N,GND*%
X180857600Y-102102000D03*
%TD*%
D16*
%TO.P,C8,1*%
%TO.N,+12V*%
X173840000Y-107652000D03*
D12*
%TO.P,C8,2*%
%TO.N,GND*%
X173840000Y-105152000D03*
%TD*%
D23*
%TO.P,M1,1*%
%TO.N,N/C*%
X107957600Y-52552000D03*
%TD*%
D24*
%TO.P,J1,1,Pin_1*%
%TO.N,Net-(D1-K)*%
X117087600Y-55157900D03*
D25*
%TO.P,J1,2,Pin_2*%
%TO.N,GND*%
X119587600Y-55157900D03*
%TO.P,J1,3,Pin_3*%
%TO.N,Net-(J1-Pin_3)*%
X122087600Y-55157900D03*
%TO.P,J1,4,Pin_4*%
%TO.N,Net-(J1-Pin_4)*%
X124587600Y-55157900D03*
%TO.P,J1,5,Pin_5*%
%TO.N,Net-(J1-Pin_5)*%
X127087600Y-55157900D03*
%TD*%
D26*
%TO.P,TP6,1,1*%
%TO.N,-12V*%
X147532700Y-136052000D03*
%TD*%
D17*
%TO.P,L1,1,K*%
%TO.N,GND*%
X172932700Y-136052000D03*
D18*
%TO.P,L1,2,A*%
%TO.N,Net-(J1-Pin_3)*%
X170392700Y-136052000D03*
%TD*%
D23*
%TO.P,M4,1*%
%TO.N,N/C*%
X107957600Y-144552000D03*
%TD*%
D12*
%TO.P,R5,1*%
%TO.N,Net-(J1-Pin_4)*%
X167407700Y-140552000D03*
D13*
%TO.P,R5,2*%
%TO.N,+12V*%
X157247700Y-140552000D03*
%TD*%
D26*
%TO.P,TP1,1,1*%
%TO.N,Net-(D1-K)*%
X169657600Y-52752000D03*
%TD*%
D14*
%TO.P,D7,1,K*%
%TO.N,-12V*%
X107550000Y-101652000D03*
D15*
%TO.P,D7,2,A*%
%TO.N,Net-(D1-A)*%
X117710000Y-101652000D03*
%TD*%
D14*
%TO.P,D1,1,K*%
%TO.N,Net-(D1-K)*%
X148250000Y-55152000D03*
D15*
%TO.P,D1,2,A*%
%TO.N,Net-(D1-A)*%
X158410000Y-55152000D03*
%TD*%
D10*
%TO.P,C6,1*%
%TO.N,GND*%
X121707600Y-64152000D03*
D11*
%TO.P,C6,2*%
%TO.N,Net-(D1-A)*%
X121707600Y-71652000D03*
%TD*%
D14*
%TO.P,D3,1,K*%
%TO.N,Net-(D2-K)*%
X169420000Y-101652000D03*
D15*
%TO.P,D3,2,A*%
%TO.N,+12V*%
X159260000Y-101652000D03*
%TD*%
D19*
%TO.P,U3,1,GND*%
%TO.N,GND*%
X118040000Y-111177800D03*
D20*
%TO.P,U3,2,VI*%
%TO.N,Net-(D1-A)*%
X115500000Y-111177800D03*
%TO.P,U3,3,VO*%
%TO.N,-12V*%
X112960000Y-111177800D03*
%TD*%
D14*
%TO.P,D6,1,K*%
%TO.N,+5V*%
X133210000Y-105152000D03*
D15*
%TO.P,D6,2,A*%
%TO.N,GND*%
X143370000Y-105152000D03*
%TD*%
D14*
%TO.P,D2,1,K*%
%TO.N,Net-(D2-K)*%
X133250000Y-55152000D03*
D15*
%TO.P,D2,2,A*%
%TO.N,Net-(D1-K)*%
X143410000Y-55152000D03*
%TD*%
D23*
%TO.P,M3,1*%
%TO.N,N/C*%
X179957600Y-144552000D03*
%TD*%
D26*
%TO.P,TP5,1,1*%
%TO.N,GND*%
X154487700Y-145052000D03*
%TD*%
D10*
%TO.P,C1,1*%
%TO.N,Net-(D2-K)*%
X121707600Y-90629800D03*
D11*
%TO.P,C1,2*%
%TO.N,GND*%
X121707600Y-83129800D03*
%TD*%
D19*
%TO.P,U2,1,IN*%
%TO.N,Net-(D2-K)*%
X143790000Y-111177800D03*
D20*
%TO.P,U2,2,GND*%
%TO.N,GND*%
X141250000Y-111177800D03*
%TO.P,U2,3,OUT*%
%TO.N,+5V*%
X138710000Y-111177800D03*
%TD*%
D26*
%TO.P,TP3,1,1*%
%TO.N,+5V*%
X154487700Y-136052000D03*
%TD*%
D16*
%TO.P,C10,1*%
%TO.N,+5V*%
X147890000Y-107652000D03*
D12*
%TO.P,C10,2*%
%TO.N,GND*%
X147890000Y-105152000D03*
%TD*%
%TO.P,R3,1*%
%TO.N,GND*%
X128250000Y-122252000D03*
D13*
%TO.P,R3,2*%
%TO.N,-12V*%
X128250000Y-112092000D03*
%TD*%
D26*
%TO.P,TP2,1,1*%
%TO.N,GND*%
X169657600Y-55452000D03*
%TD*%
%TO.P,TP4,1,1*%
%TO.N,+12V*%
X154487700Y-140552000D03*
%TD*%
D27*
%TO.N,Net-(J1-Pin_3)*%
X132300200Y-66583300D03*
X141547400Y-106362200D03*
X156788600Y-126548700D03*
%TO.N,Net-(J1-Pin_4)*%
X124587600Y-91418500D03*
%TO.N,Net-(J1-Pin_5)*%
X140301400Y-108785200D03*
%TD*%
D28*
%TO.N,Net-(J1-Pin_3)*%
X170392700Y-136052000D02*
X167407700Y-136052000D01*
X122301500Y-56584600D02*
X132300200Y-66583300D01*
X122087600Y-56584600D02*
X122301500Y-56584600D01*
X122087600Y-55157900D02*
X122087600Y-56584600D01*
X156788600Y-117323100D02*
X156788600Y-126548700D01*
X148497100Y-109031600D02*
X156788600Y-117323100D01*
X146797300Y-109031600D02*
X148497100Y-109031600D01*
X144681000Y-106915300D02*
X146797300Y-109031600D01*
X142100500Y-106915300D02*
X144681000Y-106915300D01*
X141547400Y-106362200D02*
X142100500Y-106915300D01*
%TO.N,Net-(J1-Pin_4)*%
X170392700Y-140552000D02*
X167407700Y-140552000D01*
X160019800Y-133164100D02*
X167407700Y-140552000D01*
X156719800Y-133164100D02*
X160019800Y-133164100D01*
X156030100Y-132474400D02*
X156719800Y-133164100D01*
X156030100Y-117415500D02*
X156030100Y-132474400D01*
X148460200Y-109845600D02*
X156030100Y-117415500D01*
X146760400Y-109845600D02*
X148460200Y-109845600D01*
X144431800Y-107517000D02*
X146760400Y-109845600D01*
X141633500Y-107517000D02*
X144431800Y-107517000D01*
X125535000Y-91418500D02*
X141633500Y-107517000D01*
X124587600Y-91418500D02*
X125535000Y-91418500D01*
%TO.N,Net-(J1-Pin_5)*%
X167487700Y-145052000D02*
X170392700Y-145052000D01*
X167487700Y-144505500D02*
X167487700Y-145052000D01*
X156748000Y-133765800D02*
X167487700Y-144505500D01*
X156470600Y-133765800D02*
X156748000Y-133765800D01*
X151221400Y-128516600D02*
X156470600Y-133765800D01*
X151221400Y-113457700D02*
X151221400Y-128516600D01*
X150012100Y-112248400D02*
X151221400Y-113457700D01*
X148312300Y-112248400D02*
X150012100Y-112248400D01*
X144849100Y-108785200D02*
X148312300Y-112248400D01*
X140301400Y-108785200D02*
X144849100Y-108785200D01*
%TO.N,Net-(D1-K)*%
X152201700Y-52752000D02*
X149801700Y-55152000D01*
X169657600Y-52752000D02*
X152201700Y-52752000D01*
X148250000Y-55152000D02*
X149801700Y-55152000D01*
X140306600Y-53600300D02*
X141858300Y-55152000D01*
X118645200Y-53600300D02*
X140306600Y-53600300D01*
X117087600Y-55157900D02*
X118645200Y-53600300D01*
X142634200Y-55152000D02*
X141858300Y-55152000D01*
X142634200Y-55152000D02*
X143410000Y-55152000D01*
X143410000Y-55152000D02*
X148250000Y-55152000D01*
%TO.N,-12V*%
X157327700Y-145052000D02*
X156076000Y-145052000D01*
X128250000Y-112092000D02*
X126998300Y-112092000D01*
X123307600Y-108401300D02*
X126998300Y-112092000D01*
X123307600Y-107652000D02*
X123307600Y-108401300D01*
X128857600Y-102102000D02*
X123307600Y-107652000D01*
X123307600Y-107652000D02*
X122190000Y-107652000D01*
X120897600Y-138852000D02*
X122649300Y-138852000D01*
X125054500Y-141257200D02*
X122649300Y-138852000D01*
X147532700Y-141257200D02*
X125054500Y-141257200D01*
X147532700Y-136052000D02*
X147532700Y-141257200D01*
X156076000Y-144937800D02*
X156076000Y-145052000D01*
X152395400Y-141257200D02*
X156076000Y-144937800D01*
X147532700Y-141257200D02*
X152395400Y-141257200D01*
X107550000Y-105152000D02*
X109101700Y-105152000D01*
X109101700Y-105152000D02*
X114043800Y-110094000D01*
X112960000Y-111177800D02*
X114043800Y-110094000D01*
X116485800Y-107652000D02*
X122190000Y-107652000D01*
X114043800Y-110094000D02*
X116485800Y-107652000D01*
%TO.N,+5V*%
X154487700Y-136052000D02*
X157247700Y-136052000D01*
X151807600Y-107652000D02*
X147890000Y-107652000D01*
X154857600Y-104602000D02*
X151807600Y-107652000D01*
X140747500Y-134242100D02*
X136137600Y-138852000D01*
X152677800Y-134242100D02*
X140747500Y-134242100D01*
X154487700Y-136052000D02*
X152677800Y-134242100D01*
X137305800Y-110799500D02*
X133210000Y-106703700D01*
X137305800Y-111177800D02*
X137305800Y-110799500D01*
X138710000Y-111177800D02*
X137305800Y-111177800D01*
X133210000Y-105152000D02*
X133210000Y-106703700D01*
%TO.N,+12V*%
X154487700Y-140552000D02*
X157247700Y-140552000D01*
X148779500Y-134843800D02*
X154487700Y-140552000D01*
X146110100Y-134843800D02*
X148779500Y-134843800D01*
X140348800Y-140605100D02*
X146110100Y-134843800D01*
X132810700Y-140605100D02*
X140348800Y-140605100D01*
X131057600Y-138852000D02*
X132810700Y-140605100D01*
X163330100Y-110773800D02*
X159260000Y-106703700D01*
X163330100Y-111177800D02*
X163330100Y-110773800D01*
X164734300Y-111177800D02*
X163330100Y-111177800D01*
X159260000Y-105152000D02*
X159260000Y-106703700D01*
X177807600Y-107652000D02*
X173840000Y-107652000D01*
X180857600Y-104602000D02*
X177807600Y-107652000D01*
X168260100Y-107652000D02*
X164734300Y-111177800D01*
X173840000Y-107652000D02*
X168260100Y-107652000D01*
%TO.N,Net-(D1-A)*%
X122190000Y-101652000D02*
X117710000Y-101652000D01*
X121707600Y-71652000D02*
X143957600Y-71652000D01*
X166207600Y-71652000D02*
X143957600Y-71652000D01*
%TO.N,GND*%
X171566600Y-146418100D02*
X172932700Y-145052000D01*
X155853800Y-146418100D02*
X171566600Y-146418100D01*
X154487700Y-145052000D02*
X155853800Y-146418100D01*
X122190000Y-105152000D02*
X117710000Y-105152000D01*
X143370000Y-105152000D02*
X147890000Y-105152000D01*
X177907600Y-99152000D02*
X173840000Y-99152000D01*
X180857600Y-102102000D02*
X177907600Y-99152000D01*
X176890000Y-102102000D02*
X180857600Y-102102000D01*
X173840000Y-105152000D02*
X176890000Y-102102000D01*
X151907600Y-99152000D02*
X154857600Y-102102000D01*
X147890000Y-99152000D02*
X151907600Y-99152000D01*
X173840000Y-105152000D02*
X169420000Y-105152000D01*
X156355900Y-103600300D02*
X154857600Y-102102000D01*
X166316600Y-103600300D02*
X156355900Y-103600300D01*
X167868300Y-105152000D02*
X166316600Y-103600300D01*
X169420000Y-105152000D02*
X167868300Y-105152000D01*
X143957600Y-83129800D02*
X121707600Y-83129800D01*
%TO.N,Net-(D2-K)*%
X121707600Y-90629800D02*
X143957600Y-90629800D01*
X166207600Y-90629800D02*
X143957600Y-90629800D01*
%TD*%
M02*
