%TF.GenerationSoftware,KiCad,Pcbnew,8.0.3*%
%TF.CreationDate,2024-07-21T20:57:08-04:00*%
%TF.ProjectId,mfos-wall-wart-eurorack-psu,6d666f73-2d77-4616-9c6c-2d776172742d,1.0.0*%
%TF.SameCoordinates,Original*%
%TF.FileFunction,Copper,L1,Top*%
%TF.FilePolarity,Positive*%
%FSLAX46Y46*%
G04 Gerber Fmt 4.6, Leading zero omitted, Abs format (unit mm)*
G04 Created by KiCad (PCBNEW 8.0.3) date 2024-07-21 20:57:08*
%MOMM*%
%LPD*%
G01*
G04 APERTURE LIST*
G04 Aperture macros list*
%AMRoundRect*
0 Rectangle with rounded corners*
0 $1 Rounding radius*
0 $2 $3 $4 $5 $6 $7 $8 $9 X,Y pos of 4 corners*
0 Add a 4 corners polygon primitive as box body*
4,1,4,$2,$3,$4,$5,$6,$7,$8,$9,$2,$3,0*
0 Add four circle primitives for the rounded corners*
1,1,$1+$1,$2,$3*
1,1,$1+$1,$4,$5*
1,1,$1+$1,$6,$7*
1,1,$1+$1,$8,$9*
0 Add four rect primitives between the rounded corners*
20,1,$1+$1,$2,$3,$4,$5,0*
20,1,$1+$1,$4,$5,$6,$7,0*
20,1,$1+$1,$6,$7,$8,$9,0*
20,1,$1+$1,$8,$9,$2,$3,0*%
G04 Aperture macros list end*
%TA.AperFunction,ComponentPad*%
%ADD10C,1.500000*%
%TD*%
%TA.AperFunction,ComponentPad*%
%ADD11R,2.400000X2.400000*%
%TD*%
%TA.AperFunction,ComponentPad*%
%ADD12C,2.400000*%
%TD*%
%TA.AperFunction,ComponentPad*%
%ADD13C,1.600000*%
%TD*%
%TA.AperFunction,ComponentPad*%
%ADD14O,1.600000X1.600000*%
%TD*%
%TA.AperFunction,ComponentPad*%
%ADD15R,2.200000X2.200000*%
%TD*%
%TA.AperFunction,ComponentPad*%
%ADD16O,2.200000X2.200000*%
%TD*%
%TA.AperFunction,ComponentPad*%
%ADD17R,1.600000X1.600000*%
%TD*%
%TA.AperFunction,ComponentPad*%
%ADD18R,1.800000X1.800000*%
%TD*%
%TA.AperFunction,ComponentPad*%
%ADD19C,1.800000*%
%TD*%
%TA.AperFunction,ComponentPad*%
%ADD20R,1.905000X2.000000*%
%TD*%
%TA.AperFunction,ComponentPad*%
%ADD21O,1.905000X2.000000*%
%TD*%
%TA.AperFunction,ComponentPad*%
%ADD22C,5.600000*%
%TD*%
%TA.AperFunction,ComponentPad*%
%ADD23RoundRect,0.250000X-0.600000X-0.725000X0.600000X-0.725000X0.600000X0.725000X-0.600000X0.725000X0*%
%TD*%
%TA.AperFunction,ComponentPad*%
%ADD24O,1.700000X1.950000*%
%TD*%
%TA.AperFunction,ComponentPad*%
%ADD25RoundRect,0.250000X0.600000X-0.600000X0.600000X0.600000X-0.600000X0.600000X-0.600000X-0.600000X0*%
%TD*%
%TA.AperFunction,ComponentPad*%
%ADD26C,1.700000*%
%TD*%
%TA.AperFunction,Conductor*%
%ADD27C,0.300000*%
%TD*%
G04 APERTURE END LIST*
D10*
%TO.P,TP2,1,1*%
%TO.N,GND*%
X169657600Y-55452000D03*
%TD*%
%TO.P,TP1,1,1*%
%TO.N,Net-(D1-K)*%
X169657600Y-52752000D03*
%TD*%
D11*
%TO.P,C4,1*%
%TO.N,GND*%
X143957600Y-64152000D03*
D12*
%TO.P,C4,2*%
%TO.N,Net-(D1-A)*%
X143957600Y-71652000D03*
%TD*%
D13*
%TO.P,R1,1*%
%TO.N,+12V*%
X180250000Y-122252000D03*
D14*
%TO.P,R1,2*%
%TO.N,GND*%
X180250000Y-112092000D03*
%TD*%
D15*
%TO.P,D8,1,K*%
%TO.N,GND*%
X117710000Y-104952000D03*
D16*
%TO.P,D8,2,A*%
%TO.N,-12V*%
X107550000Y-104952000D03*
%TD*%
D17*
%TO.P,C9,1*%
%TO.N,Net-(D2-K)*%
X147890000Y-98849400D03*
D13*
%TO.P,C9,2*%
%TO.N,GND*%
X147890000Y-101349400D03*
%TD*%
D15*
%TO.P,D5,1,K*%
%TO.N,Net-(D2-K)*%
X143370000Y-101054500D03*
D16*
%TO.P,D5,2,A*%
%TO.N,+5V*%
X133210000Y-101054500D03*
%TD*%
D18*
%TO.P,D9,1,K*%
%TO.N,GND*%
X171057600Y-145052000D03*
D19*
%TO.P,D9,2,A*%
%TO.N,Net-(D9-A)*%
X168517600Y-145052000D03*
%TD*%
D11*
%TO.P,C3,1*%
%TO.N,Net-(D2-K)*%
X143957600Y-90629800D03*
D12*
%TO.P,C3,2*%
%TO.N,GND*%
X143957600Y-83129800D03*
%TD*%
D13*
%TO.P,R6,1*%
%TO.N,Net-(D9-A)*%
X165612600Y-145052000D03*
D14*
%TO.P,R6,2*%
%TO.N,-12V*%
X155452600Y-145052000D03*
%TD*%
D20*
%TO.P,U1,1,IN*%
%TO.N,Net-(D2-K)*%
X169814300Y-111177800D03*
D21*
%TO.P,U1,2,GND*%
%TO.N,GND*%
X167274300Y-111177800D03*
%TO.P,U1,3,OUT*%
%TO.N,+12V*%
X164734300Y-111177800D03*
%TD*%
D11*
%TO.P,C2,1*%
%TO.N,GND*%
X166207600Y-64152000D03*
D12*
%TO.P,C2,2*%
%TO.N,Net-(D1-A)*%
X166207600Y-71652000D03*
%TD*%
D11*
%TO.P,C5,1*%
%TO.N,Net-(D2-K)*%
X166207600Y-90629800D03*
D12*
%TO.P,C5,2*%
%TO.N,GND*%
X166207600Y-83129800D03*
%TD*%
D15*
%TO.P,D4,1,K*%
%TO.N,+12V*%
X159260000Y-105152000D03*
D16*
%TO.P,D4,2,A*%
%TO.N,GND*%
X169420000Y-105152000D03*
%TD*%
D18*
%TO.P,D10,1,K*%
%TO.N,GND*%
X171057600Y-140552000D03*
D19*
%TO.P,D10,2,A*%
%TO.N,Net-(D10-A)*%
X168517600Y-140552000D03*
%TD*%
D17*
%TO.P,C7,1*%
%TO.N,Net-(D2-K)*%
X173840000Y-101357100D03*
D13*
%TO.P,C7,2*%
%TO.N,GND*%
X173840000Y-98857100D03*
%TD*%
%TO.P,R2,1*%
%TO.N,+5V*%
X154250000Y-112092000D03*
D14*
%TO.P,R2,2*%
%TO.N,GND*%
X154250000Y-122252000D03*
%TD*%
D22*
%TO.P,M2,1*%
%TO.N,N/C*%
X179957600Y-52552000D03*
%TD*%
D13*
%TO.P,R4,1*%
%TO.N,Net-(D11-A)*%
X165532600Y-136052000D03*
D14*
%TO.P,R4,2*%
%TO.N,+5V*%
X155372600Y-136052000D03*
%TD*%
D17*
%TO.P,C12,1*%
%TO.N,GND*%
X122190000Y-104946900D03*
D13*
%TO.P,C12,2*%
%TO.N,-12V*%
X122190000Y-107446900D03*
%TD*%
D17*
%TO.P,C11,1*%
%TO.N,GND*%
X122090000Y-101357100D03*
D13*
%TO.P,C11,2*%
%TO.N,Net-(D1-A)*%
X122090000Y-98857100D03*
%TD*%
D17*
%TO.P,C8,1*%
%TO.N,+12V*%
X173840000Y-104946900D03*
D13*
%TO.P,C8,2*%
%TO.N,GND*%
X173840000Y-107446900D03*
%TD*%
D22*
%TO.P,M1,1*%
%TO.N,N/C*%
X107957600Y-52552000D03*
%TD*%
D23*
%TO.P,J1,1,Pin_1*%
%TO.N,Net-(D1-K)*%
X117087600Y-55157900D03*
D24*
%TO.P,J1,2,Pin_2*%
%TO.N,GND*%
X119587600Y-55157900D03*
%TO.P,J1,3,Pin_3*%
%TO.N,Net-(D11-A)*%
X122087600Y-55157900D03*
%TO.P,J1,4,Pin_4*%
%TO.N,Net-(D10-A)*%
X124587600Y-55157900D03*
%TO.P,J1,5,Pin_5*%
%TO.N,Net-(D9-A)*%
X127087600Y-55157900D03*
%TD*%
D10*
%TO.P,TP6,1,1*%
%TO.N,GND*%
X178440100Y-136012500D03*
%TD*%
D18*
%TO.P,D11,1,K*%
%TO.N,GND*%
X171057600Y-136052000D03*
D19*
%TO.P,D11,2,A*%
%TO.N,Net-(D11-A)*%
X168517600Y-136052000D03*
%TD*%
D22*
%TO.P,M4,1*%
%TO.N,N/C*%
X107957600Y-144552000D03*
%TD*%
D13*
%TO.P,R5,1*%
%TO.N,Net-(D10-A)*%
X165532600Y-140552000D03*
D14*
%TO.P,R5,2*%
%TO.N,+12V*%
X155372600Y-140552000D03*
%TD*%
D15*
%TO.P,D7,1,K*%
%TO.N,-12V*%
X107410000Y-101052000D03*
D16*
%TO.P,D7,2,A*%
%TO.N,Net-(D1-A)*%
X117570000Y-101052000D03*
%TD*%
D15*
%TO.P,D1,1,K*%
%TO.N,Net-(D1-K)*%
X148250000Y-55152000D03*
D16*
%TO.P,D1,2,A*%
%TO.N,Net-(D1-A)*%
X158410000Y-55152000D03*
%TD*%
D11*
%TO.P,C6,1*%
%TO.N,GND*%
X121707600Y-64152000D03*
D12*
%TO.P,C6,2*%
%TO.N,Net-(D1-A)*%
X121707600Y-71652000D03*
%TD*%
D15*
%TO.P,D3,1,K*%
%TO.N,Net-(D2-K)*%
X169420000Y-101152000D03*
D16*
%TO.P,D3,2,A*%
%TO.N,+12V*%
X159260000Y-101152000D03*
%TD*%
D20*
%TO.P,U3,1,GND*%
%TO.N,GND*%
X118040000Y-111177800D03*
D21*
%TO.P,U3,2,VI*%
%TO.N,Net-(D1-A)*%
X115500000Y-111177800D03*
%TO.P,U3,3,VO*%
%TO.N,-12V*%
X112960000Y-111177800D03*
%TD*%
D15*
%TO.P,D6,1,K*%
%TO.N,+5V*%
X133210000Y-105054500D03*
D16*
%TO.P,D6,2,A*%
%TO.N,GND*%
X143370000Y-105054500D03*
%TD*%
D15*
%TO.P,D2,1,K*%
%TO.N,Net-(D2-K)*%
X133250000Y-55152000D03*
D16*
%TO.P,D2,2,A*%
%TO.N,Net-(D1-K)*%
X143410000Y-55152000D03*
%TD*%
D22*
%TO.P,M3,1*%
%TO.N,N/C*%
X179957600Y-144552000D03*
%TD*%
D10*
%TO.P,TP5,1,1*%
%TO.N,-12V*%
X152612600Y-145052000D03*
%TD*%
D11*
%TO.P,C1,1*%
%TO.N,Net-(D2-K)*%
X121707600Y-90629800D03*
D12*
%TO.P,C1,2*%
%TO.N,GND*%
X121707600Y-83129800D03*
%TD*%
D20*
%TO.P,U2,1,IN*%
%TO.N,Net-(D2-K)*%
X143790000Y-111177800D03*
D21*
%TO.P,U2,2,GND*%
%TO.N,GND*%
X141250000Y-111177800D03*
%TO.P,U2,3,OUT*%
%TO.N,+5V*%
X138710000Y-111177800D03*
%TD*%
D10*
%TO.P,TP3,1,1*%
%TO.N,+5V*%
X152612600Y-136052000D03*
%TD*%
D25*
%TO.P,J2,1,Pin_1*%
%TO.N,-12V*%
X120836400Y-138554500D03*
D26*
%TO.P,J2,2,Pin_2*%
X120836400Y-136014500D03*
%TO.P,J2,3,Pin_3*%
%TO.N,GND*%
X123376400Y-138554500D03*
%TO.P,J2,4,Pin_4*%
X123376400Y-136014500D03*
%TO.P,J2,5,Pin_5*%
X125916400Y-138554500D03*
%TO.P,J2,6,Pin_6*%
X125916400Y-136014500D03*
%TO.P,J2,7,Pin_7*%
X128456400Y-138554500D03*
%TO.P,J2,8,Pin_8*%
X128456400Y-136014500D03*
%TO.P,J2,9,Pin_9*%
%TO.N,+12V*%
X130996400Y-138554500D03*
%TO.P,J2,10,Pin_10*%
X130996400Y-136014500D03*
%TO.P,J2,11,Pin_11*%
%TO.N,+5V*%
X133536400Y-138554500D03*
%TO.P,J2,12,Pin_12*%
X133536400Y-136014500D03*
%TO.P,J2,13,Pin_13*%
%TO.N,unconnected-(J2-Pin_13-Pad13)*%
X136076400Y-138554500D03*
%TO.P,J2,14,Pin_14*%
%TO.N,unconnected-(J2-Pin_14-Pad14)*%
X136076400Y-136014500D03*
%TO.P,J2,15,Pin_15*%
%TO.N,unconnected-(J2-Pin_15-Pad15)*%
X138616400Y-138554500D03*
%TO.P,J2,16,Pin_16*%
%TO.N,unconnected-(J2-Pin_16-Pad16)*%
X138616400Y-136014500D03*
%TD*%
D17*
%TO.P,C10,1*%
%TO.N,+5V*%
X147890000Y-107454500D03*
D13*
%TO.P,C10,2*%
%TO.N,GND*%
X147890000Y-104954500D03*
%TD*%
%TO.P,R3,1*%
%TO.N,GND*%
X128250000Y-122252000D03*
D14*
%TO.P,R3,2*%
%TO.N,-12V*%
X128250000Y-112092000D03*
%TD*%
D10*
%TO.P,TP4,1,1*%
%TO.N,+12V*%
X152612600Y-140552000D03*
%TD*%
D27*
%TO.N,Net-(D11-A)*%
X124215500Y-53030000D02*
X122087600Y-55157900D01*
X127860500Y-53030000D02*
X124215500Y-53030000D01*
X130883300Y-56052800D02*
X127860500Y-53030000D01*
X130883300Y-72436800D02*
X130883300Y-56052800D01*
X156806100Y-98359600D02*
X130883300Y-72436800D01*
X156806100Y-132447000D02*
X156806100Y-98359600D01*
X160411100Y-136052000D02*
X156806100Y-132447000D01*
X164166400Y-136052000D02*
X160411100Y-136052000D01*
%TO.N,Net-(D10-A)*%
X163961500Y-140552000D02*
X164166400Y-140552000D01*
X156204400Y-132794900D02*
X163961500Y-140552000D01*
X156204400Y-98930900D02*
X156204400Y-132794900D01*
X130069400Y-72795900D02*
X156204400Y-98930900D01*
X130069400Y-56092700D02*
X130069400Y-72795900D01*
X127658900Y-53682200D02*
X130069400Y-56092700D01*
X126063300Y-53682200D02*
X127658900Y-53682200D01*
X124587600Y-55157900D02*
X126063300Y-53682200D01*
%TO.N,Net-(D9-A)*%
X127087600Y-55157900D02*
X127087600Y-56584600D01*
X155601200Y-136406800D02*
X164246400Y-145052000D01*
X155601200Y-110773900D02*
X155601200Y-136406800D01*
X147979200Y-103151900D02*
X155601200Y-110773900D01*
X147855400Y-103151900D02*
X147979200Y-103151900D01*
X145623900Y-100920400D02*
X147855400Y-103151900D01*
X145623900Y-96194000D02*
X145623900Y-100920400D01*
X127087600Y-77657700D02*
X145623900Y-96194000D01*
X127087600Y-56584600D02*
X127087600Y-77657700D01*
%TO.N,-12V*%
X120836400Y-138554500D02*
X120836400Y-136014500D01*
X125887800Y-115705900D02*
X128250000Y-113343700D01*
X125887800Y-132180000D02*
X125887800Y-115705900D01*
X124535600Y-133532200D02*
X125887800Y-132180000D01*
X123318700Y-133532200D02*
X124535600Y-133532200D01*
X120836400Y-136014500D02*
X123318700Y-133532200D01*
X128250000Y-112092000D02*
X128250000Y-113343700D01*
X107410000Y-101052000D02*
X107410000Y-102603700D01*
X107550000Y-102743700D02*
X107550000Y-104952000D01*
X107410000Y-102603700D02*
X107550000Y-102743700D01*
X111555800Y-110509500D02*
X111555800Y-111177800D01*
X107550000Y-106503700D02*
X111555800Y-110509500D01*
X107550000Y-104952000D02*
X107550000Y-106503700D01*
X112960000Y-111177800D02*
X111555800Y-111177800D01*
%TO.N,+5V*%
X133536400Y-136014500D02*
X133536400Y-138554500D01*
X133210000Y-105054500D02*
X133210000Y-101054500D01*
X153779200Y-112092000D02*
X149141700Y-107454500D01*
X154250000Y-112092000D02*
X153779200Y-112092000D01*
X147890000Y-107454500D02*
X149141700Y-107454500D01*
%TO.N,+12V*%
X130996400Y-136014500D02*
X130996400Y-138554500D01*
X166210900Y-112654400D02*
X164734300Y-111177800D01*
X175105700Y-112654400D02*
X166210900Y-112654400D01*
X175105700Y-106212600D02*
X175105700Y-112654400D01*
X173840000Y-104946900D02*
X175105700Y-106212600D01*
X180250000Y-116464700D02*
X180250000Y-122252000D01*
X176439700Y-112654400D02*
X180250000Y-116464700D01*
X175105700Y-112654400D02*
X176439700Y-112654400D01*
%TO.N,Net-(D1-A)*%
X115500000Y-104285800D02*
X115500000Y-111177800D01*
X117182100Y-102603700D02*
X115500000Y-104285800D01*
X117570000Y-102603700D02*
X117182100Y-102603700D01*
X117570000Y-101052000D02*
X117570000Y-102603700D01*
X123384800Y-97562300D02*
X122090000Y-98857100D01*
X123384800Y-73329200D02*
X123384800Y-97562300D01*
X121707600Y-71652000D02*
X123384800Y-73329200D01*
%TO.N,GND*%
X125916400Y-136014500D02*
X125916400Y-138554500D01*
X123376400Y-136014500D02*
X123376400Y-138554500D01*
X128456400Y-138554500D02*
X128456400Y-136014500D01*
X119587600Y-60380300D02*
X121707600Y-62500300D01*
X119587600Y-55157900D02*
X119587600Y-60380300D01*
X121707600Y-64152000D02*
X121707600Y-62500300D01*
X141250000Y-108726200D02*
X143370000Y-106606200D01*
X141250000Y-111177800D02*
X141250000Y-108726200D01*
X143370000Y-105054500D02*
X143370000Y-106606200D01*
X118040000Y-106833700D02*
X117710000Y-106503700D01*
X118040000Y-111177800D02*
X118040000Y-106833700D01*
X117710000Y-104952000D02*
X117710000Y-106503700D01*
X120055900Y-67455400D02*
X121707600Y-65803700D01*
X120055900Y-81478100D02*
X120055900Y-67455400D01*
X121707600Y-83129800D02*
X120055900Y-81478100D01*
X121707600Y-64152000D02*
X121707600Y-65803700D01*
X143957600Y-64152000D02*
X143957600Y-65803700D01*
X169691400Y-136052000D02*
X169691400Y-140552000D01*
X169691400Y-140552000D02*
X169691400Y-145052000D01*
X120055900Y-84781500D02*
X121707600Y-83129800D01*
X120055900Y-99323000D02*
X120055900Y-84781500D01*
X122090000Y-101357100D02*
X120055900Y-99323000D01*
X166207600Y-58902000D02*
X169657600Y-55452000D01*
X166207600Y-64152000D02*
X166207600Y-58902000D01*
X181518400Y-114612100D02*
X180250000Y-113343700D01*
X181518400Y-132934200D02*
X181518400Y-114612100D01*
X178440100Y-136012500D02*
X181518400Y-132934200D01*
X180250000Y-112092000D02*
X180250000Y-113343700D01*
X166207600Y-64152000D02*
X166207600Y-65803700D01*
X166207600Y-83129800D02*
X157544600Y-74466700D01*
X157544600Y-74466700D02*
X166207600Y-65803700D01*
X157544500Y-74466800D02*
X157544600Y-74466700D01*
X145609300Y-74466800D02*
X157544500Y-74466800D01*
X145609300Y-81478100D02*
X145609300Y-74466800D01*
X143957600Y-83129800D02*
X145609300Y-81478100D01*
X145609300Y-67455400D02*
X143957600Y-65803700D01*
X145609300Y-74466800D02*
X145609300Y-67455400D01*
X169821800Y-103600300D02*
X169420000Y-103600300D01*
X172588300Y-100833800D02*
X169821800Y-103600300D01*
X172588300Y-100108800D02*
X172588300Y-100833800D01*
X173840000Y-98857100D02*
X172588300Y-100108800D01*
X169420000Y-105152000D02*
X169420000Y-103600300D01*
X167274300Y-108849400D02*
X169420000Y-106703700D01*
X167274300Y-111177800D02*
X167274300Y-108849400D01*
X169420000Y-105152000D02*
X169420000Y-106703700D01*
%TO.N,Net-(D2-K)*%
X144921700Y-104157900D02*
X143370000Y-102606200D01*
X144921700Y-108594400D02*
X144921700Y-104157900D01*
X143790000Y-109726100D02*
X144921700Y-108594400D01*
X143790000Y-111177800D02*
X143790000Y-109726100D01*
X143370000Y-101054500D02*
X143370000Y-102606200D01*
X147890000Y-96213900D02*
X147890000Y-98849400D01*
X143957600Y-92281500D02*
X147890000Y-96213900D01*
X143957600Y-90629800D02*
X143957600Y-92281500D01*
X171218500Y-105230300D02*
X173840000Y-102608800D01*
X171218500Y-111177800D02*
X171218500Y-105230300D01*
X169814300Y-111177800D02*
X171218500Y-111177800D01*
X173840000Y-101357100D02*
X173840000Y-102608800D01*
X169420000Y-95493900D02*
X166207600Y-92281500D01*
X169420000Y-101152000D02*
X169420000Y-95493900D01*
X166207600Y-90629800D02*
X166207600Y-92281500D01*
%TD*%
M02*
