%TF.GenerationSoftware,KiCad,Pcbnew,8.0.3*%
%TF.CreationDate,2024-07-24T22:05:29-04:00*%
%TF.ProjectId,mfos-wall-wart-eurorack-psu,6d666f73-2d77-4616-9c6c-2d776172742d,1.0.0*%
%TF.SameCoordinates,Original*%
%TF.FileFunction,Soldermask,Bot*%
%TF.FilePolarity,Negative*%
%FSLAX46Y46*%
G04 Gerber Fmt 4.6, Leading zero omitted, Abs format (unit mm)*
G04 Created by KiCad (PCBNEW 8.0.3) date 2024-07-24 22:05:29*
%MOMM*%
%LPD*%
G01*
G04 APERTURE LIST*
G04 Aperture macros list*
%AMRoundRect*
0 Rectangle with rounded corners*
0 $1 Rounding radius*
0 $2 $3 $4 $5 $6 $7 $8 $9 X,Y pos of 4 corners*
0 Add a 4 corners polygon primitive as box body*
4,1,4,$2,$3,$4,$5,$6,$7,$8,$9,$2,$3,0*
0 Add four circle primitives for the rounded corners*
1,1,$1+$1,$2,$3*
1,1,$1+$1,$4,$5*
1,1,$1+$1,$6,$7*
1,1,$1+$1,$8,$9*
0 Add four rect primitives between the rounded corners*
20,1,$1+$1,$2,$3,$4,$5,0*
20,1,$1+$1,$4,$5,$6,$7,0*
20,1,$1+$1,$6,$7,$8,$9,0*
20,1,$1+$1,$8,$9,$2,$3,0*%
G04 Aperture macros list end*
%ADD10R,2.400000X2.400000*%
%ADD11C,2.400000*%
%ADD12C,1.600000*%
%ADD13O,1.600000X1.600000*%
%ADD14R,2.200000X2.200000*%
%ADD15O,2.200000X2.200000*%
%ADD16R,1.600000X1.600000*%
%ADD17R,1.800000X1.800000*%
%ADD18C,1.800000*%
%ADD19R,1.905000X2.000000*%
%ADD20O,1.905000X2.000000*%
%ADD21R,2.600000X2.600000*%
%ADD22C,2.600000*%
%ADD23C,6.400000*%
%ADD24RoundRect,0.250000X-0.600000X-0.725000X0.600000X-0.725000X0.600000X0.725000X-0.600000X0.725000X0*%
%ADD25O,1.700000X1.950000*%
%ADD26C,1.500000*%
G04 APERTURE END LIST*
D10*
%TO.C,C4*%
X143957600Y-64152000D03*
D11*
X143957600Y-71652000D03*
%TD*%
D12*
%TO.C,R1*%
X180250000Y-122252000D03*
D13*
X180250000Y-112092000D03*
%TD*%
D14*
%TO.C,D8*%
X117710000Y-105152000D03*
D15*
X107550000Y-105152000D03*
%TD*%
D16*
%TO.C,C9*%
X147890000Y-101652000D03*
D12*
X147890000Y-99152000D03*
%TD*%
D14*
%TO.C,D5*%
X143370000Y-101652000D03*
D15*
X133210000Y-101652000D03*
%TD*%
D17*
%TO.C,L3*%
X172932700Y-145052000D03*
D18*
X170392700Y-145052000D03*
%TD*%
D10*
%TO.C,C3*%
X143957600Y-90629800D03*
D11*
X143957600Y-83129800D03*
%TD*%
D12*
%TO.C,R6*%
X167487700Y-145052000D03*
D13*
X157327700Y-145052000D03*
%TD*%
D19*
%TO.C,U1*%
X169814300Y-111177800D03*
D20*
X167274300Y-111177800D03*
X164734300Y-111177800D03*
%TD*%
D21*
%TO.C,J2*%
X120897600Y-138852000D03*
D22*
X125977600Y-138852000D03*
X131057600Y-138852000D03*
X136137600Y-138852000D03*
%TD*%
D10*
%TO.C,C2*%
X166207600Y-64152000D03*
D11*
X166207600Y-71652000D03*
%TD*%
D10*
%TO.C,C5*%
X166207600Y-90629800D03*
D11*
X166207600Y-83129800D03*
%TD*%
D12*
%TO.C,C14*%
X154857600Y-104602000D03*
X154857600Y-102102000D03*
%TD*%
D14*
%TO.C,D4*%
X159260000Y-105152000D03*
D15*
X169420000Y-105152000D03*
%TD*%
D17*
%TO.C,L2*%
X172932700Y-140552000D03*
D18*
X170392700Y-140552000D03*
%TD*%
D16*
%TO.C,C7*%
X173840000Y-101652000D03*
D12*
X173840000Y-99152000D03*
%TD*%
%TO.C,C15*%
X128857600Y-104602000D03*
X128857600Y-102102000D03*
%TD*%
%TO.C,R2*%
X154250000Y-112092000D03*
D13*
X154250000Y-122252000D03*
%TD*%
D23*
%TO.C,M2*%
X179957600Y-52552000D03*
%TD*%
D12*
%TO.C,R4*%
X167407700Y-136052000D03*
D13*
X157247700Y-136052000D03*
%TD*%
D16*
%TO.C,C12*%
X122190000Y-105152000D03*
D12*
X122190000Y-107652000D03*
%TD*%
D16*
%TO.C,C11*%
X122190000Y-99152000D03*
D12*
X122190000Y-101652000D03*
%TD*%
%TO.C,C13*%
X180857600Y-104602000D03*
X180857600Y-102102000D03*
%TD*%
D16*
%TO.C,C8*%
X173840000Y-107652000D03*
D12*
X173840000Y-105152000D03*
%TD*%
D23*
%TO.C,M1*%
X107957600Y-52552000D03*
%TD*%
D24*
%TO.C,J1*%
X117087600Y-55157900D03*
D25*
X119587600Y-55157900D03*
X122087600Y-55157900D03*
X124587600Y-55157900D03*
X127087600Y-55157900D03*
%TD*%
D26*
%TO.C,TP6*%
X147532700Y-136052000D03*
%TD*%
D17*
%TO.C,L1*%
X172932700Y-136052000D03*
D18*
X170392700Y-136052000D03*
%TD*%
D23*
%TO.C,M4*%
X107957600Y-144552000D03*
%TD*%
D12*
%TO.C,R5*%
X167407700Y-140552000D03*
D13*
X157247700Y-140552000D03*
%TD*%
D26*
%TO.C,TP1*%
X169657600Y-52752000D03*
%TD*%
D14*
%TO.C,D7*%
X107550000Y-101652000D03*
D15*
X117710000Y-101652000D03*
%TD*%
D14*
%TO.C,D1*%
X148250000Y-55152000D03*
D15*
X158410000Y-55152000D03*
%TD*%
D10*
%TO.C,C6*%
X121707600Y-64152000D03*
D11*
X121707600Y-71652000D03*
%TD*%
D14*
%TO.C,D3*%
X169420000Y-101652000D03*
D15*
X159260000Y-101652000D03*
%TD*%
D19*
%TO.C,U3*%
X118040000Y-111177800D03*
D20*
X115500000Y-111177800D03*
X112960000Y-111177800D03*
%TD*%
D14*
%TO.C,D6*%
X133210000Y-105152000D03*
D15*
X143370000Y-105152000D03*
%TD*%
D14*
%TO.C,D2*%
X133250000Y-55152000D03*
D15*
X143410000Y-55152000D03*
%TD*%
D23*
%TO.C,M3*%
X179957600Y-144552000D03*
%TD*%
D26*
%TO.C,TP5*%
X154487700Y-145052000D03*
%TD*%
D10*
%TO.C,C1*%
X121707600Y-90629800D03*
D11*
X121707600Y-83129800D03*
%TD*%
D19*
%TO.C,U2*%
X143790000Y-111177800D03*
D20*
X141250000Y-111177800D03*
X138710000Y-111177800D03*
%TD*%
D26*
%TO.C,TP3*%
X154487700Y-136052000D03*
%TD*%
D16*
%TO.C,C10*%
X147890000Y-107652000D03*
D12*
X147890000Y-105152000D03*
%TD*%
%TO.C,R3*%
X128250000Y-122252000D03*
D13*
X128250000Y-112092000D03*
%TD*%
D26*
%TO.C,TP2*%
X169657600Y-55452000D03*
%TD*%
%TO.C,TP4*%
X154487700Y-140552000D03*
%TD*%
M02*
