%TF.GenerationSoftware,KiCad,Pcbnew,8.0.3*%
%TF.CreationDate,2024-07-21T22:37:27-04:00*%
%TF.ProjectId,mfos-wall-wart-eurorack-psu,6d666f73-2d77-4616-9c6c-2d776172742d,1.0.0*%
%TF.SameCoordinates,Original*%
%TF.FileFunction,Copper,L1,Top*%
%TF.FilePolarity,Positive*%
%FSLAX46Y46*%
G04 Gerber Fmt 4.6, Leading zero omitted, Abs format (unit mm)*
G04 Created by KiCad (PCBNEW 8.0.3) date 2024-07-21 22:37:27*
%MOMM*%
%LPD*%
G01*
G04 APERTURE LIST*
G04 Aperture macros list*
%AMRoundRect*
0 Rectangle with rounded corners*
0 $1 Rounding radius*
0 $2 $3 $4 $5 $6 $7 $8 $9 X,Y pos of 4 corners*
0 Add a 4 corners polygon primitive as box body*
4,1,4,$2,$3,$4,$5,$6,$7,$8,$9,$2,$3,0*
0 Add four circle primitives for the rounded corners*
1,1,$1+$1,$2,$3*
1,1,$1+$1,$4,$5*
1,1,$1+$1,$6,$7*
1,1,$1+$1,$8,$9*
0 Add four rect primitives between the rounded corners*
20,1,$1+$1,$2,$3,$4,$5,0*
20,1,$1+$1,$4,$5,$6,$7,0*
20,1,$1+$1,$6,$7,$8,$9,0*
20,1,$1+$1,$8,$9,$2,$3,0*%
G04 Aperture macros list end*
%TA.AperFunction,ComponentPad*%
%ADD10R,2.400000X2.400000*%
%TD*%
%TA.AperFunction,ComponentPad*%
%ADD11C,2.400000*%
%TD*%
%TA.AperFunction,ComponentPad*%
%ADD12C,1.600000*%
%TD*%
%TA.AperFunction,ComponentPad*%
%ADD13O,1.600000X1.600000*%
%TD*%
%TA.AperFunction,ComponentPad*%
%ADD14R,2.200000X2.200000*%
%TD*%
%TA.AperFunction,ComponentPad*%
%ADD15O,2.200000X2.200000*%
%TD*%
%TA.AperFunction,ComponentPad*%
%ADD16R,1.600000X1.600000*%
%TD*%
%TA.AperFunction,ComponentPad*%
%ADD17R,1.800000X1.800000*%
%TD*%
%TA.AperFunction,ComponentPad*%
%ADD18C,1.800000*%
%TD*%
%TA.AperFunction,ComponentPad*%
%ADD19R,1.905000X2.000000*%
%TD*%
%TA.AperFunction,ComponentPad*%
%ADD20O,1.905000X2.000000*%
%TD*%
%TA.AperFunction,ComponentPad*%
%ADD21R,2.600000X2.600000*%
%TD*%
%TA.AperFunction,ComponentPad*%
%ADD22C,2.600000*%
%TD*%
%TA.AperFunction,ComponentPad*%
%ADD23C,5.600000*%
%TD*%
%TA.AperFunction,ComponentPad*%
%ADD24RoundRect,0.250000X-0.600000X-0.725000X0.600000X-0.725000X0.600000X0.725000X-0.600000X0.725000X0*%
%TD*%
%TA.AperFunction,ComponentPad*%
%ADD25O,1.700000X1.950000*%
%TD*%
%TA.AperFunction,ComponentPad*%
%ADD26C,1.500000*%
%TD*%
%TA.AperFunction,Conductor*%
%ADD27C,0.300000*%
%TD*%
G04 APERTURE END LIST*
D10*
%TO.P,C4,1*%
%TO.N,GND*%
X143957600Y-64152000D03*
D11*
%TO.P,C4,2*%
%TO.N,Net-(D1-A)*%
X143957600Y-71652000D03*
%TD*%
D12*
%TO.P,R1,1*%
%TO.N,+12V*%
X180250000Y-122252000D03*
D13*
%TO.P,R1,2*%
%TO.N,GND*%
X180250000Y-112092000D03*
%TD*%
D14*
%TO.P,D8,1,K*%
%TO.N,GND*%
X117710000Y-104952000D03*
D15*
%TO.P,D8,2,A*%
%TO.N,-12V*%
X107550000Y-104952000D03*
%TD*%
D16*
%TO.P,C9,1*%
%TO.N,Net-(D2-K)*%
X147890000Y-98849400D03*
D12*
%TO.P,C9,2*%
%TO.N,GND*%
X147890000Y-101349400D03*
%TD*%
D14*
%TO.P,D5,1,K*%
%TO.N,Net-(D2-K)*%
X143370000Y-101054500D03*
D15*
%TO.P,D5,2,A*%
%TO.N,+5V*%
X133210000Y-101054500D03*
%TD*%
D17*
%TO.P,D9,1,K*%
%TO.N,GND*%
X172932700Y-145052000D03*
D18*
%TO.P,D9,2,A*%
%TO.N,Net-(D9-A)*%
X170392700Y-145052000D03*
%TD*%
D10*
%TO.P,C3,1*%
%TO.N,Net-(D2-K)*%
X143957600Y-90629800D03*
D11*
%TO.P,C3,2*%
%TO.N,GND*%
X143957600Y-83129800D03*
%TD*%
D12*
%TO.P,R6,1*%
%TO.N,Net-(D9-A)*%
X167487700Y-145052000D03*
D13*
%TO.P,R6,2*%
%TO.N,-12V*%
X157327700Y-145052000D03*
%TD*%
D19*
%TO.P,U1,1,IN*%
%TO.N,Net-(D2-K)*%
X169814300Y-111177800D03*
D20*
%TO.P,U1,2,GND*%
%TO.N,GND*%
X167274300Y-111177800D03*
%TO.P,U1,3,OUT*%
%TO.N,+12V*%
X164734300Y-111177800D03*
%TD*%
D21*
%TO.P,J2,1,Pin_1*%
%TO.N,-12V*%
X120897600Y-138852000D03*
D22*
%TO.P,J2,2,Pin_2*%
%TO.N,GND*%
X125977600Y-138852000D03*
%TO.P,J2,3,Pin_3*%
%TO.N,+12V*%
X131057600Y-138852000D03*
%TO.P,J2,4,Pin_4*%
%TO.N,+5V*%
X136137600Y-138852000D03*
%TD*%
D10*
%TO.P,C2,1*%
%TO.N,GND*%
X166207600Y-64152000D03*
D11*
%TO.P,C2,2*%
%TO.N,Net-(D1-A)*%
X166207600Y-71652000D03*
%TD*%
D10*
%TO.P,C5,1*%
%TO.N,Net-(D2-K)*%
X166207600Y-90629800D03*
D11*
%TO.P,C5,2*%
%TO.N,GND*%
X166207600Y-83129800D03*
%TD*%
D14*
%TO.P,D4,1,K*%
%TO.N,+12V*%
X159260000Y-105152000D03*
D15*
%TO.P,D4,2,A*%
%TO.N,GND*%
X169420000Y-105152000D03*
%TD*%
D17*
%TO.P,D10,1,K*%
%TO.N,GND*%
X172932700Y-140552000D03*
D18*
%TO.P,D10,2,A*%
%TO.N,Net-(D10-A)*%
X170392700Y-140552000D03*
%TD*%
D16*
%TO.P,C7,1*%
%TO.N,Net-(D2-K)*%
X173840000Y-101357100D03*
D12*
%TO.P,C7,2*%
%TO.N,GND*%
X173840000Y-98857100D03*
%TD*%
%TO.P,R2,1*%
%TO.N,+5V*%
X154250000Y-112092000D03*
D13*
%TO.P,R2,2*%
%TO.N,GND*%
X154250000Y-122252000D03*
%TD*%
D23*
%TO.P,M2,1*%
%TO.N,N/C*%
X179957600Y-52552000D03*
%TD*%
D12*
%TO.P,R4,1*%
%TO.N,Net-(D11-A)*%
X167407700Y-136052000D03*
D13*
%TO.P,R4,2*%
%TO.N,+5V*%
X157247700Y-136052000D03*
%TD*%
D16*
%TO.P,C12,1*%
%TO.N,GND*%
X122190000Y-104946900D03*
D12*
%TO.P,C12,2*%
%TO.N,-12V*%
X122190000Y-107446900D03*
%TD*%
D16*
%TO.P,C11,1*%
%TO.N,GND*%
X122090000Y-101357100D03*
D12*
%TO.P,C11,2*%
%TO.N,Net-(D1-A)*%
X122090000Y-98857100D03*
%TD*%
D16*
%TO.P,C8,1*%
%TO.N,+12V*%
X173840000Y-104946900D03*
D12*
%TO.P,C8,2*%
%TO.N,GND*%
X173840000Y-107446900D03*
%TD*%
D23*
%TO.P,M1,1*%
%TO.N,N/C*%
X107957600Y-52552000D03*
%TD*%
D24*
%TO.P,J1,1,Pin_1*%
%TO.N,Net-(D1-K)*%
X117087600Y-55157900D03*
D25*
%TO.P,J1,2,Pin_2*%
%TO.N,GND*%
X119587600Y-55157900D03*
%TO.P,J1,3,Pin_3*%
%TO.N,Net-(D11-A)*%
X122087600Y-55157900D03*
%TO.P,J1,4,Pin_4*%
%TO.N,Net-(D10-A)*%
X124587600Y-55157900D03*
%TO.P,J1,5,Pin_5*%
%TO.N,Net-(D9-A)*%
X127087600Y-55157900D03*
%TD*%
D26*
%TO.P,TP6,1,1*%
%TO.N,-12V*%
X147532700Y-136052000D03*
%TD*%
D17*
%TO.P,D11,1,K*%
%TO.N,GND*%
X172932700Y-136052000D03*
D18*
%TO.P,D11,2,A*%
%TO.N,Net-(D11-A)*%
X170392700Y-136052000D03*
%TD*%
D23*
%TO.P,M4,1*%
%TO.N,N/C*%
X107957600Y-144552000D03*
%TD*%
D12*
%TO.P,R5,1*%
%TO.N,Net-(D10-A)*%
X167407700Y-140552000D03*
D13*
%TO.P,R5,2*%
%TO.N,+12V*%
X157247700Y-140552000D03*
%TD*%
D26*
%TO.P,TP1,1,1*%
%TO.N,Net-(D1-K)*%
X169657600Y-52752000D03*
%TD*%
D14*
%TO.P,D7,1,K*%
%TO.N,-12V*%
X107410000Y-101052000D03*
D15*
%TO.P,D7,2,A*%
%TO.N,Net-(D1-A)*%
X117570000Y-101052000D03*
%TD*%
D14*
%TO.P,D1,1,K*%
%TO.N,Net-(D1-K)*%
X148250000Y-55152000D03*
D15*
%TO.P,D1,2,A*%
%TO.N,Net-(D1-A)*%
X158410000Y-55152000D03*
%TD*%
D10*
%TO.P,C6,1*%
%TO.N,GND*%
X121707600Y-64152000D03*
D11*
%TO.P,C6,2*%
%TO.N,Net-(D1-A)*%
X121707600Y-71652000D03*
%TD*%
D14*
%TO.P,D3,1,K*%
%TO.N,Net-(D2-K)*%
X169420000Y-101152000D03*
D15*
%TO.P,D3,2,A*%
%TO.N,+12V*%
X159260000Y-101152000D03*
%TD*%
D19*
%TO.P,U3,1,GND*%
%TO.N,GND*%
X118040000Y-111177800D03*
D20*
%TO.P,U3,2,VI*%
%TO.N,Net-(D1-A)*%
X115500000Y-111177800D03*
%TO.P,U3,3,VO*%
%TO.N,-12V*%
X112960000Y-111177800D03*
%TD*%
D14*
%TO.P,D6,1,K*%
%TO.N,+5V*%
X133210000Y-105054500D03*
D15*
%TO.P,D6,2,A*%
%TO.N,GND*%
X143370000Y-105054500D03*
%TD*%
D14*
%TO.P,D2,1,K*%
%TO.N,Net-(D2-K)*%
X133250000Y-55152000D03*
D15*
%TO.P,D2,2,A*%
%TO.N,Net-(D1-K)*%
X143410000Y-55152000D03*
%TD*%
D23*
%TO.P,M3,1*%
%TO.N,N/C*%
X179957600Y-144552000D03*
%TD*%
D26*
%TO.P,TP5,1,1*%
%TO.N,GND*%
X154487700Y-145052000D03*
%TD*%
D10*
%TO.P,C1,1*%
%TO.N,Net-(D2-K)*%
X121707600Y-90629800D03*
D11*
%TO.P,C1,2*%
%TO.N,GND*%
X121707600Y-83129800D03*
%TD*%
D19*
%TO.P,U2,1,IN*%
%TO.N,Net-(D2-K)*%
X143790000Y-111177800D03*
D20*
%TO.P,U2,2,GND*%
%TO.N,GND*%
X141250000Y-111177800D03*
%TO.P,U2,3,OUT*%
%TO.N,+5V*%
X138710000Y-111177800D03*
%TD*%
D26*
%TO.P,TP3,1,1*%
%TO.N,+5V*%
X154487700Y-136052000D03*
%TD*%
D16*
%TO.P,C10,1*%
%TO.N,+5V*%
X147890000Y-107454500D03*
D12*
%TO.P,C10,2*%
%TO.N,GND*%
X147890000Y-104954500D03*
%TD*%
%TO.P,R3,1*%
%TO.N,GND*%
X128250000Y-122252000D03*
D13*
%TO.P,R3,2*%
%TO.N,-12V*%
X128250000Y-112092000D03*
%TD*%
D26*
%TO.P,TP2,1,1*%
%TO.N,GND*%
X169657600Y-55452000D03*
%TD*%
%TO.P,TP4,1,1*%
%TO.N,+12V*%
X154487700Y-140552000D03*
%TD*%
D27*
%TO.N,Net-(D2-K)*%
X133250000Y-78270500D02*
X133250000Y-55152000D01*
X166207600Y-92281500D02*
X169420000Y-95493900D01*
X144921700Y-108594400D02*
X143790000Y-109726100D01*
X143790000Y-111177800D02*
X143790000Y-109726100D01*
X171218500Y-105230300D02*
X173840000Y-102608800D01*
X143370000Y-102606200D02*
X144921700Y-104157900D01*
X143370000Y-101054500D02*
X143370000Y-102606200D01*
X169420000Y-95493900D02*
X169420000Y-101152000D01*
X144921700Y-104157900D02*
X144921700Y-108594400D01*
X169814300Y-111177800D02*
X171218500Y-111177800D01*
X171218500Y-111177800D02*
X171218500Y-105230300D01*
X173840000Y-101357100D02*
X173840000Y-102608800D01*
X166207600Y-90629800D02*
X166207600Y-92281500D01*
X143957600Y-90629800D02*
X143957600Y-88978100D01*
X143957600Y-88978100D02*
X133250000Y-78270500D01*
%TO.N,GND*%
X119587600Y-55157900D02*
X119587600Y-60380300D01*
X120055900Y-84781500D02*
X121707600Y-83129800D01*
X169420000Y-105152000D02*
X169420000Y-103600300D01*
X146089000Y-99548400D02*
X146089000Y-85261200D01*
X155748400Y-142646600D02*
X155748400Y-143791300D01*
X118040000Y-106833700D02*
X117710000Y-106503700D01*
X120055900Y-81478100D02*
X120055900Y-67455400D01*
X143370000Y-107606100D02*
X143370000Y-106606200D01*
X172588300Y-100833800D02*
X169821800Y-103600300D01*
X147890000Y-101349400D02*
X146089000Y-99548400D01*
X141250000Y-111177800D02*
X141250000Y-109726100D01*
X170838100Y-142646600D02*
X172932700Y-140552000D01*
X169657600Y-55452000D02*
X169657600Y-59050300D01*
X145609300Y-67455400D02*
X143957600Y-65803700D01*
X154250000Y-123503700D02*
X155748400Y-125002100D01*
X166207600Y-65803700D02*
X167859300Y-67455400D01*
X121707600Y-64152000D02*
X121707600Y-65803700D01*
X166207600Y-64152000D02*
X166207600Y-65803700D01*
X167859300Y-83129800D02*
X167859300Y-92876400D01*
X121707600Y-64152000D02*
X121707600Y-62500300D01*
X169821800Y-103600300D02*
X169420000Y-103600300D01*
X167274300Y-111177800D02*
X167274300Y-108849400D01*
X167859300Y-92876400D02*
X173840000Y-98857100D01*
X155748400Y-125002100D02*
X155748400Y-142646600D01*
X143957600Y-64152000D02*
X143957600Y-65803700D01*
X167274300Y-108849400D02*
X169420000Y-106703700D01*
X117710000Y-104952000D02*
X117710000Y-106503700D01*
X155748400Y-143791300D02*
X154487700Y-145052000D01*
X120055900Y-99323000D02*
X120055900Y-84781500D01*
X122090000Y-101357100D02*
X120055900Y-99323000D01*
X169420000Y-105152000D02*
X169420000Y-106703700D01*
X173840000Y-98857100D02*
X172588300Y-100108800D01*
X120055900Y-67455400D02*
X121707600Y-65803700D01*
X167859300Y-67455400D02*
X167859300Y-83129800D01*
X146089000Y-85261200D02*
X143957600Y-83129800D01*
X169657600Y-59050300D02*
X166207600Y-62500300D01*
X155748400Y-142646600D02*
X170838100Y-142646600D01*
X141250000Y-109726100D02*
X143370000Y-107606100D01*
X172932700Y-145052000D02*
X172932700Y-143700300D01*
X166207600Y-64152000D02*
X166207600Y-62500300D01*
X172932700Y-136052000D02*
X172932700Y-140552000D01*
X172588300Y-100108800D02*
X172588300Y-100833800D01*
X118040000Y-111177800D02*
X118040000Y-106833700D01*
X143957600Y-83129800D02*
X145609300Y-81478100D01*
X170838100Y-142646600D02*
X171891800Y-143700300D01*
X119587600Y-60380300D02*
X121707600Y-62500300D01*
X121707600Y-83129800D02*
X120055900Y-81478100D01*
X145609300Y-81478100D02*
X145609300Y-67455400D01*
X171891800Y-143700300D02*
X172932700Y-143700300D01*
X143370000Y-105054500D02*
X143370000Y-106606200D01*
X166207600Y-83129800D02*
X167859300Y-83129800D01*
X147890000Y-104954500D02*
X147890000Y-101349400D01*
X154250000Y-122252000D02*
X154250000Y-123503700D01*
%TO.N,Net-(D1-A)*%
X123359900Y-97587200D02*
X122090000Y-98857100D01*
X121707600Y-71652000D02*
X123359900Y-73304300D01*
X117570000Y-102603700D02*
X117182100Y-102603700D01*
X115500000Y-104285800D02*
X115500000Y-111177800D01*
X123359900Y-73304300D02*
X123359900Y-97587200D01*
X117182100Y-102603700D02*
X115500000Y-104285800D01*
X117570000Y-101052000D02*
X117570000Y-102603700D01*
%TO.N,+12V*%
X176415500Y-112629500D02*
X180250000Y-116464000D01*
X175112600Y-112629500D02*
X176415500Y-112629500D01*
X175112600Y-106219500D02*
X173840000Y-104946900D01*
X164734300Y-111177800D02*
X166186000Y-112629500D01*
X166186000Y-112629500D02*
X175112600Y-112629500D01*
X175112600Y-112629500D02*
X175112600Y-106219500D01*
X180250000Y-116464000D02*
X180250000Y-122252000D01*
%TO.N,+5V*%
X153779200Y-112092000D02*
X149141700Y-107454500D01*
X147890000Y-107454500D02*
X149141700Y-107454500D01*
X154250000Y-112092000D02*
X153779200Y-112092000D01*
X133210000Y-105054500D02*
X133210000Y-101054500D01*
%TO.N,-12V*%
X120897600Y-138852000D02*
X120897600Y-137100300D01*
X128250000Y-112092000D02*
X128250000Y-113343700D01*
X107410000Y-102603700D02*
X107550000Y-102743700D01*
X121007100Y-137100300D02*
X125216100Y-132891300D01*
X125216100Y-116377600D02*
X128250000Y-113343700D01*
X107550000Y-102743700D02*
X107550000Y-104952000D01*
X120897600Y-137100300D02*
X121007100Y-137100300D01*
X125216100Y-132891300D02*
X125216100Y-116377600D01*
X107410000Y-101052000D02*
X107410000Y-102603700D01*
%TO.N,Net-(D9-A)*%
X146235800Y-108495200D02*
X146235800Y-102583400D01*
X146235800Y-102583400D02*
X145487300Y-101834900D01*
X145487300Y-99628500D02*
X127087600Y-81228800D01*
X127087600Y-81228800D02*
X127087600Y-55157900D01*
X152970700Y-115230100D02*
X146235800Y-108495200D01*
X154009600Y-146325200D02*
X152970700Y-145286300D01*
X145487300Y-101834900D02*
X145487300Y-99628500D01*
X167487700Y-145052000D02*
X166214500Y-146325200D01*
X166214500Y-146325200D02*
X154009600Y-146325200D01*
X152970700Y-145286300D02*
X152970700Y-115230100D01*
%TO.N,Net-(D10-A)*%
X167407700Y-140552000D02*
X164025700Y-140552000D01*
X126146400Y-53599100D02*
X124587600Y-55157900D01*
X164025700Y-140552000D02*
X156562900Y-133089200D01*
X136443500Y-53599100D02*
X126146400Y-53599100D01*
X156562900Y-73718500D02*
X136443500Y-53599100D01*
X156562900Y-133089200D02*
X156562900Y-73718500D01*
%TO.N,Net-(D11-A)*%
X167407700Y-136052000D02*
X160447100Y-136052000D01*
X160447100Y-136052000D02*
X157258000Y-132862900D01*
X157258000Y-73536300D02*
X136685100Y-52963400D01*
X136685100Y-52963400D02*
X124282100Y-52963400D01*
X124282100Y-52963400D02*
X122087600Y-55157900D01*
X157258000Y-132862900D02*
X157258000Y-73536300D01*
%TD*%
M02*
